<?xml version="1.0" encoding="utf-8" standalone="no"?>
<!DOCTYPE svg PUBLIC "-//W3C//DTD SVG 1.1//EN"
  "http://www.w3.org/Graphics/SVG/1.1/DTD/svg11.dtd">
<svg xmlns:xlink="http://www.w3.org/1999/xlink" width="451.246562pt" height="342.662pt" viewBox="0 0 451.246562 342.662" xmlns="http://www.w3.org/2000/svg" version="1.1">
 <metadata>
  <rdf:RDF xmlns:dc="http://purl.org/dc/elements/1.1/" xmlns:cc="http://creativecommons.org/ns#" xmlns:rdf="http://www.w3.org/1999/02/22-rdf-syntax-ns#">
   <cc:Work>
    <dc:type rdf:resource="http://purl.org/dc/dcmitype/StillImage"/>
    <dc:date>2023-05-15T16:56:36.355312</dc:date>
    <dc:format>image/svg+xml</dc:format>
    <dc:creator>
     <cc:Agent>
      <dc:title>Matplotlib v3.7.1, https://matplotlib.org/</dc:title>
     </cc:Agent>
    </dc:creator>
   </cc:Work>
  </rdf:RDF>
 </metadata>
 <defs>
  <style type="text/css">*{stroke-linejoin: round; stroke-linecap: butt}</style>
 </defs>
 <g id="figure_1">
  <g id="patch_1">
   <path d="M 0 342.662 
L 451.246562 342.662 
L 451.246562 0 
L 0 0 
z
" style="fill: #ffffff"/>
  </g>
  <g id="axes_1">
   <g id="patch_2">
    <path d="M 86.926563 280.910437 
L 444.046563 280.910437 
L 444.046563 14.798437 
L 86.926563 14.798437 
z
" style="fill: #ffffff"/>
   </g>
   <g id="patch_3">
    <path d="M 96.846563 280.910437 
L 116.686563 280.910437 
L 116.686563 280.910437 
L 96.846563 280.910437 
z
" clip-path="url(#pae525375e6)" style="fill: #808080"/>
   </g>
   <g id="patch_4">
    <path d="M 116.686563 280.910437 
L 136.526563 280.910437 
L 136.526563 280.910437 
L 116.686563 280.910437 
z
" clip-path="url(#pae525375e6)" style="fill: #808080"/>
   </g>
   <g id="patch_5">
    <path d="M 136.526562 280.910437 
L 156.366562 280.910437 
L 156.366562 280.910437 
L 136.526562 280.910437 
z
" clip-path="url(#pae525375e6)" style="fill: #808080"/>
   </g>
   <g id="patch_6">
    <path d="M 156.366563 280.910437 
L 176.206563 280.910437 
L 176.206563 280.910437 
L 156.366563 280.910437 
z
" clip-path="url(#pae525375e6)" style="fill: #808080"/>
   </g>
   <g id="patch_7">
    <path d="M 176.206563 280.910437 
L 196.046563 280.910437 
L 196.046563 280.688677 
L 176.206563 280.688677 
z
" clip-path="url(#pae525375e6)" style="fill: #808080"/>
   </g>
   <g id="patch_8">
    <path d="M 196.046563 280.910437 
L 215.886563 280.910437 
L 215.886563 279.912517 
L 196.046563 279.912517 
z
" clip-path="url(#pae525375e6)" style="fill: #808080"/>
   </g>
   <g id="patch_9">
    <path d="M 215.886563 280.910437 
L 235.726563 280.910437 
L 235.726563 275.920837 
L 215.886563 275.920837 
z
" clip-path="url(#pae525375e6)" style="fill: #808080"/>
   </g>
   <g id="patch_10">
    <path d="M 235.726562 280.910437 
L 255.566563 280.910437 
L 255.566563 260.175877 
L 235.726562 260.175877 
z
" clip-path="url(#pae525375e6)" style="fill: #808080"/>
   </g>
   <g id="patch_11">
    <path d="M 255.566563 280.910437 
L 275.406563 280.910437 
L 275.406563 222.809317 
L 255.566563 222.809317 
z
" clip-path="url(#pae525375e6)" style="fill: #808080"/>
   </g>
   <g id="patch_12">
    <path d="M 275.406563 280.910437 
L 295.246563 280.910437 
L 295.246563 166.038757 
L 275.406563 166.038757 
z
" clip-path="url(#pae525375e6)" style="fill: #808080"/>
   </g>
   <g id="patch_13">
    <path d="M 295.246562 280.910437 
L 315.086563 280.910437 
L 315.086563 86.759557 
L 295.246562 86.759557 
z
" clip-path="url(#pae525375e6)" style="fill: #808080"/>
   </g>
   <g id="patch_14">
    <path d="M 315.086563 280.910437 
L 334.926563 280.910437 
L 334.926563 37.750597 
L 315.086563 37.750597 
z
" clip-path="url(#pae525375e6)" style="fill: #808080"/>
   </g>
   <g id="patch_15">
    <path d="M 334.926563 280.910437 
L 354.766563 280.910437 
L 354.766563 60.480997 
L 334.926563 60.480997 
z
" clip-path="url(#pae525375e6)" style="fill: #808080"/>
   </g>
   <g id="patch_16">
    <path d="M 354.766562 280.910437 
L 374.606562 280.910437 
L 374.606562 133.883557 
L 354.766562 133.883557 
z
" clip-path="url(#pae525375e6)" style="fill: #808080"/>
   </g>
   <g id="patch_17">
    <path d="M 374.606563 280.910437 
L 394.446563 280.910437 
L 394.446563 208.949317 
L 374.606563 208.949317 
z
" clip-path="url(#pae525375e6)" style="fill: #808080"/>
   </g>
   <g id="patch_18">
    <path d="M 394.446563 280.910437 
L 414.286563 280.910437 
L 414.286563 255.075397 
L 394.446563 255.075397 
z
" clip-path="url(#pae525375e6)" style="fill: #808080"/>
   </g>
   <g id="patch_19">
    <path d="M 414.286562 280.910437 
L 434.126562 280.910437 
L 434.126562 275.477317 
L 414.286562 275.477317 
z
" clip-path="url(#pae525375e6)" style="fill: #808080"/>
   </g>
   <g id="patch_20">
    <path d="M 434.126563 280.910437 
L 453.966563 280.910437 
L 453.966563 280.134277 
L 434.126563 280.134277 
z
" clip-path="url(#pae525375e6)" style="fill: #808080"/>
   </g>
   <g id="patch_21">
    <path d="M 453.966563 280.910437 
L 473.806563 280.910437 
L 473.806563 280.799557 
L 453.966563 280.799557 
z
" clip-path="url(#pae525375e6)" style="fill: #808080"/>
   </g>
   <g id="patch_22">
    <path d="M 473.806562 280.910437 
L 493.646562 280.910437 
L 493.646562 280.910437 
L 473.806562 280.910437 
z
" clip-path="url(#pae525375e6)" style="fill: #808080"/>
   </g>
   <g id="patch_23">
    <path d="M 493.646563 280.910437 
L 513.486563 280.910437 
L 513.486563 280.910437 
L 493.646563 280.910437 
z
" clip-path="url(#pae525375e6)" style="fill: #808080"/>
   </g>
   <g id="patch_24">
    <path d="M 513.486563 280.910437 
L 533.326563 280.910437 
L 533.326563 280.910437 
L 513.486563 280.910437 
z
" clip-path="url(#pae525375e6)" style="fill: #808080"/>
   </g>
   <g id="patch_25">
    <path d="M 533.326562 280.910437 
L 553.166562 280.910437 
L 553.166562 280.910437 
L 533.326562 280.910437 
z
" clip-path="url(#pae525375e6)" style="fill: #808080"/>
   </g>
   <g id="patch_26">
    <path d="M 553.166563 280.910437 
L 573.006563 280.910437 
L 573.006563 280.910437 
L 553.166563 280.910437 
z
" clip-path="url(#pae525375e6)" style="fill: #808080"/>
   </g>
   <g id="patch_27">
    <path d="M 573.006563 280.910437 
L 592.846563 280.910437 
L 592.846563 280.910437 
L 573.006563 280.910437 
z
" clip-path="url(#pae525375e6)" style="fill: #808080"/>
   </g>
   <g id="patch_28">
    <path d="M 592.846562 280.910437 
L 612.686562 280.910437 
L 612.686562 280.910437 
L 592.846562 280.910437 
z
" clip-path="url(#pae525375e6)" style="fill: #808080"/>
   </g>
   <g id="patch_29">
    <path d="M 612.686563 280.910437 
L 632.526563 280.910437 
L 632.526563 280.910437 
L 612.686563 280.910437 
z
" clip-path="url(#pae525375e6)" style="fill: #808080"/>
   </g>
   <g id="patch_30">
    <path d="M 632.526563 280.910437 
L 652.366563 280.910437 
L 652.366563 280.910437 
L 632.526563 280.910437 
z
" clip-path="url(#pae525375e6)" style="fill: #808080"/>
   </g>
   <g id="patch_31">
    <path d="M 652.366563 280.910437 
L 672.206563 280.910437 
L 672.206563 280.910437 
L 652.366563 280.910437 
z
" clip-path="url(#pae525375e6)" style="fill: #808080"/>
   </g>
   <g id="patch_32">
    <path d="M 672.206563 280.910437 
L 692.046563 280.910437 
L 692.046563 280.910437 
L 672.206563 280.910437 
z
" clip-path="url(#pae525375e6)" style="fill: #808080"/>
   </g>
   <g id="matplotlib.axis_1">
    <g id="xtick_1">
     <g id="line2d_1">
      <defs>
       <path id="me1f1bd2551" d="M 0 0 
L 0 3.5 
" style="stroke: #000000; stroke-width: 0.8"/>
      </defs>
      <g>
       <use xlink:href="#me1f1bd2551" x="96.846563" y="280.910437" style="stroke: #000000; stroke-width: 0.8"/>
      </g>
     </g>
     <g id="text_1">
      <!-- 190 -->
      <g transform="translate(77.759063 303.107312) scale(0.2 -0.2)">
       <defs>
        <path id="DejaVuSans-31" d="M 794 531 
L 1825 531 
L 1825 4091 
L 703 3866 
L 703 4441 
L 1819 4666 
L 2450 4666 
L 2450 531 
L 3481 531 
L 3481 0 
L 794 0 
L 794 531 
z
" transform="scale(0.015625)"/>
        <path id="DejaVuSans-39" d="M 703 97 
L 703 672 
Q 941 559 1184 500 
Q 1428 441 1663 441 
Q 2288 441 2617 861 
Q 2947 1281 2994 2138 
Q 2813 1869 2534 1725 
Q 2256 1581 1919 1581 
Q 1219 1581 811 2004 
Q 403 2428 403 3163 
Q 403 3881 828 4315 
Q 1253 4750 1959 4750 
Q 2769 4750 3195 4129 
Q 3622 3509 3622 2328 
Q 3622 1225 3098 567 
Q 2575 -91 1691 -91 
Q 1453 -91 1209 -44 
Q 966 3 703 97 
z
M 1959 2075 
Q 2384 2075 2632 2365 
Q 2881 2656 2881 3163 
Q 2881 3666 2632 3958 
Q 2384 4250 1959 4250 
Q 1534 4250 1286 3958 
Q 1038 3666 1038 3163 
Q 1038 2656 1286 2365 
Q 1534 2075 1959 2075 
z
" transform="scale(0.015625)"/>
        <path id="DejaVuSans-30" d="M 2034 4250 
Q 1547 4250 1301 3770 
Q 1056 3291 1056 2328 
Q 1056 1369 1301 889 
Q 1547 409 2034 409 
Q 2525 409 2770 889 
Q 3016 1369 3016 2328 
Q 3016 3291 2770 3770 
Q 2525 4250 2034 4250 
z
M 2034 4750 
Q 2819 4750 3233 4129 
Q 3647 3509 3647 2328 
Q 3647 1150 3233 529 
Q 2819 -91 2034 -91 
Q 1250 -91 836 529 
Q 422 1150 422 2328 
Q 422 3509 836 4129 
Q 1250 4750 2034 4750 
z
" transform="scale(0.015625)"/>
       </defs>
       <use xlink:href="#DejaVuSans-31"/>
       <use xlink:href="#DejaVuSans-39" x="63.623047"/>
       <use xlink:href="#DejaVuSans-30" x="127.246094"/>
      </g>
     </g>
    </g>
    <g id="xtick_2">
     <g id="line2d_2">
      <g>
       <use xlink:href="#me1f1bd2551" x="196.046563" y="280.910437" style="stroke: #000000; stroke-width: 0.8"/>
      </g>
     </g>
     <g id="text_2">
      <!-- 200 -->
      <g transform="translate(176.959063 303.107312) scale(0.2 -0.2)">
       <defs>
        <path id="DejaVuSans-32" d="M 1228 531 
L 3431 531 
L 3431 0 
L 469 0 
L 469 531 
Q 828 903 1448 1529 
Q 2069 2156 2228 2338 
Q 2531 2678 2651 2914 
Q 2772 3150 2772 3378 
Q 2772 3750 2511 3984 
Q 2250 4219 1831 4219 
Q 1534 4219 1204 4116 
Q 875 4013 500 3803 
L 500 4441 
Q 881 4594 1212 4672 
Q 1544 4750 1819 4750 
Q 2544 4750 2975 4387 
Q 3406 4025 3406 3419 
Q 3406 3131 3298 2873 
Q 3191 2616 2906 2266 
Q 2828 2175 2409 1742 
Q 1991 1309 1228 531 
z
" transform="scale(0.015625)"/>
       </defs>
       <use xlink:href="#DejaVuSans-32"/>
       <use xlink:href="#DejaVuSans-30" x="63.623047"/>
       <use xlink:href="#DejaVuSans-30" x="127.246094"/>
      </g>
     </g>
    </g>
    <g id="xtick_3">
     <g id="line2d_3">
      <g>
       <use xlink:href="#me1f1bd2551" x="295.246562" y="280.910437" style="stroke: #000000; stroke-width: 0.8"/>
      </g>
     </g>
     <g id="text_3">
      <!-- 210 -->
      <g transform="translate(276.159063 303.107312) scale(0.2 -0.2)">
       <use xlink:href="#DejaVuSans-32"/>
       <use xlink:href="#DejaVuSans-31" x="63.623047"/>
       <use xlink:href="#DejaVuSans-30" x="127.246094"/>
      </g>
     </g>
    </g>
    <g id="xtick_4">
     <g id="line2d_4">
      <g>
       <use xlink:href="#me1f1bd2551" x="394.446563" y="280.910437" style="stroke: #000000; stroke-width: 0.8"/>
      </g>
     </g>
     <g id="text_4">
      <!-- 220 -->
      <g transform="translate(375.359063 303.107312) scale(0.2 -0.2)">
       <use xlink:href="#DejaVuSans-32"/>
       <use xlink:href="#DejaVuSans-32" x="63.623047"/>
       <use xlink:href="#DejaVuSans-30" x="127.246094"/>
      </g>
     </g>
    </g>
    <g id="text_5">
     <!-- Elongation latency (ms) -->
     <g transform="translate(116.701406 330.262781) scale(0.25 -0.25)">
      <defs>
       <path id="DejaVuSans-45" d="M 628 4666 
L 3578 4666 
L 3578 4134 
L 1259 4134 
L 1259 2753 
L 3481 2753 
L 3481 2222 
L 1259 2222 
L 1259 531 
L 3634 531 
L 3634 0 
L 628 0 
L 628 4666 
z
" transform="scale(0.015625)"/>
       <path id="DejaVuSans-6c" d="M 603 4863 
L 1178 4863 
L 1178 0 
L 603 0 
L 603 4863 
z
" transform="scale(0.015625)"/>
       <path id="DejaVuSans-6f" d="M 1959 3097 
Q 1497 3097 1228 2736 
Q 959 2375 959 1747 
Q 959 1119 1226 758 
Q 1494 397 1959 397 
Q 2419 397 2687 759 
Q 2956 1122 2956 1747 
Q 2956 2369 2687 2733 
Q 2419 3097 1959 3097 
z
M 1959 3584 
Q 2709 3584 3137 3096 
Q 3566 2609 3566 1747 
Q 3566 888 3137 398 
Q 2709 -91 1959 -91 
Q 1206 -91 779 398 
Q 353 888 353 1747 
Q 353 2609 779 3096 
Q 1206 3584 1959 3584 
z
" transform="scale(0.015625)"/>
       <path id="DejaVuSans-6e" d="M 3513 2113 
L 3513 0 
L 2938 0 
L 2938 2094 
Q 2938 2591 2744 2837 
Q 2550 3084 2163 3084 
Q 1697 3084 1428 2787 
Q 1159 2491 1159 1978 
L 1159 0 
L 581 0 
L 581 3500 
L 1159 3500 
L 1159 2956 
Q 1366 3272 1645 3428 
Q 1925 3584 2291 3584 
Q 2894 3584 3203 3211 
Q 3513 2838 3513 2113 
z
" transform="scale(0.015625)"/>
       <path id="DejaVuSans-67" d="M 2906 1791 
Q 2906 2416 2648 2759 
Q 2391 3103 1925 3103 
Q 1463 3103 1205 2759 
Q 947 2416 947 1791 
Q 947 1169 1205 825 
Q 1463 481 1925 481 
Q 2391 481 2648 825 
Q 2906 1169 2906 1791 
z
M 3481 434 
Q 3481 -459 3084 -895 
Q 2688 -1331 1869 -1331 
Q 1566 -1331 1297 -1286 
Q 1028 -1241 775 -1147 
L 775 -588 
Q 1028 -725 1275 -790 
Q 1522 -856 1778 -856 
Q 2344 -856 2625 -561 
Q 2906 -266 2906 331 
L 2906 616 
Q 2728 306 2450 153 
Q 2172 0 1784 0 
Q 1141 0 747 490 
Q 353 981 353 1791 
Q 353 2603 747 3093 
Q 1141 3584 1784 3584 
Q 2172 3584 2450 3431 
Q 2728 3278 2906 2969 
L 2906 3500 
L 3481 3500 
L 3481 434 
z
" transform="scale(0.015625)"/>
       <path id="DejaVuSans-61" d="M 2194 1759 
Q 1497 1759 1228 1600 
Q 959 1441 959 1056 
Q 959 750 1161 570 
Q 1363 391 1709 391 
Q 2188 391 2477 730 
Q 2766 1069 2766 1631 
L 2766 1759 
L 2194 1759 
z
M 3341 1997 
L 3341 0 
L 2766 0 
L 2766 531 
Q 2569 213 2275 61 
Q 1981 -91 1556 -91 
Q 1019 -91 701 211 
Q 384 513 384 1019 
Q 384 1609 779 1909 
Q 1175 2209 1959 2209 
L 2766 2209 
L 2766 2266 
Q 2766 2663 2505 2880 
Q 2244 3097 1772 3097 
Q 1472 3097 1187 3025 
Q 903 2953 641 2809 
L 641 3341 
Q 956 3463 1253 3523 
Q 1550 3584 1831 3584 
Q 2591 3584 2966 3190 
Q 3341 2797 3341 1997 
z
" transform="scale(0.015625)"/>
       <path id="DejaVuSans-74" d="M 1172 4494 
L 1172 3500 
L 2356 3500 
L 2356 3053 
L 1172 3053 
L 1172 1153 
Q 1172 725 1289 603 
Q 1406 481 1766 481 
L 2356 481 
L 2356 0 
L 1766 0 
Q 1100 0 847 248 
Q 594 497 594 1153 
L 594 3053 
L 172 3053 
L 172 3500 
L 594 3500 
L 594 4494 
L 1172 4494 
z
" transform="scale(0.015625)"/>
       <path id="DejaVuSans-69" d="M 603 3500 
L 1178 3500 
L 1178 0 
L 603 0 
L 603 3500 
z
M 603 4863 
L 1178 4863 
L 1178 4134 
L 603 4134 
L 603 4863 
z
" transform="scale(0.015625)"/>
       <path id="DejaVuSans-20" transform="scale(0.015625)"/>
       <path id="DejaVuSans-65" d="M 3597 1894 
L 3597 1613 
L 953 1613 
Q 991 1019 1311 708 
Q 1631 397 2203 397 
Q 2534 397 2845 478 
Q 3156 559 3463 722 
L 3463 178 
Q 3153 47 2828 -22 
Q 2503 -91 2169 -91 
Q 1331 -91 842 396 
Q 353 884 353 1716 
Q 353 2575 817 3079 
Q 1281 3584 2069 3584 
Q 2775 3584 3186 3129 
Q 3597 2675 3597 1894 
z
M 3022 2063 
Q 3016 2534 2758 2815 
Q 2500 3097 2075 3097 
Q 1594 3097 1305 2825 
Q 1016 2553 972 2059 
L 3022 2063 
z
" transform="scale(0.015625)"/>
       <path id="DejaVuSans-63" d="M 3122 3366 
L 3122 2828 
Q 2878 2963 2633 3030 
Q 2388 3097 2138 3097 
Q 1578 3097 1268 2742 
Q 959 2388 959 1747 
Q 959 1106 1268 751 
Q 1578 397 2138 397 
Q 2388 397 2633 464 
Q 2878 531 3122 666 
L 3122 134 
Q 2881 22 2623 -34 
Q 2366 -91 2075 -91 
Q 1284 -91 818 406 
Q 353 903 353 1747 
Q 353 2603 823 3093 
Q 1294 3584 2113 3584 
Q 2378 3584 2631 3529 
Q 2884 3475 3122 3366 
z
" transform="scale(0.015625)"/>
       <path id="DejaVuSans-79" d="M 2059 -325 
Q 1816 -950 1584 -1140 
Q 1353 -1331 966 -1331 
L 506 -1331 
L 506 -850 
L 844 -850 
Q 1081 -850 1212 -737 
Q 1344 -625 1503 -206 
L 1606 56 
L 191 3500 
L 800 3500 
L 1894 763 
L 2988 3500 
L 3597 3500 
L 2059 -325 
z
" transform="scale(0.015625)"/>
       <path id="DejaVuSans-28" d="M 1984 4856 
Q 1566 4138 1362 3434 
Q 1159 2731 1159 2009 
Q 1159 1288 1364 580 
Q 1569 -128 1984 -844 
L 1484 -844 
Q 1016 -109 783 600 
Q 550 1309 550 2009 
Q 550 2706 781 3412 
Q 1013 4119 1484 4856 
L 1984 4856 
z
" transform="scale(0.015625)"/>
       <path id="DejaVuSans-6d" d="M 3328 2828 
Q 3544 3216 3844 3400 
Q 4144 3584 4550 3584 
Q 5097 3584 5394 3201 
Q 5691 2819 5691 2113 
L 5691 0 
L 5113 0 
L 5113 2094 
Q 5113 2597 4934 2840 
Q 4756 3084 4391 3084 
Q 3944 3084 3684 2787 
Q 3425 2491 3425 1978 
L 3425 0 
L 2847 0 
L 2847 2094 
Q 2847 2600 2669 2842 
Q 2491 3084 2119 3084 
Q 1678 3084 1418 2786 
Q 1159 2488 1159 1978 
L 1159 0 
L 581 0 
L 581 3500 
L 1159 3500 
L 1159 2956 
Q 1356 3278 1631 3431 
Q 1906 3584 2284 3584 
Q 2666 3584 2933 3390 
Q 3200 3197 3328 2828 
z
" transform="scale(0.015625)"/>
       <path id="DejaVuSans-73" d="M 2834 3397 
L 2834 2853 
Q 2591 2978 2328 3040 
Q 2066 3103 1784 3103 
Q 1356 3103 1142 2972 
Q 928 2841 928 2578 
Q 928 2378 1081 2264 
Q 1234 2150 1697 2047 
L 1894 2003 
Q 2506 1872 2764 1633 
Q 3022 1394 3022 966 
Q 3022 478 2636 193 
Q 2250 -91 1575 -91 
Q 1294 -91 989 -36 
Q 684 19 347 128 
L 347 722 
Q 666 556 975 473 
Q 1284 391 1588 391 
Q 1994 391 2212 530 
Q 2431 669 2431 922 
Q 2431 1156 2273 1281 
Q 2116 1406 1581 1522 
L 1381 1569 
Q 847 1681 609 1914 
Q 372 2147 372 2553 
Q 372 3047 722 3315 
Q 1072 3584 1716 3584 
Q 2034 3584 2315 3537 
Q 2597 3491 2834 3397 
z
" transform="scale(0.015625)"/>
       <path id="DejaVuSans-29" d="M 513 4856 
L 1013 4856 
Q 1481 4119 1714 3412 
Q 1947 2706 1947 2009 
Q 1947 1309 1714 600 
Q 1481 -109 1013 -844 
L 513 -844 
Q 928 -128 1133 580 
Q 1338 1288 1338 2009 
Q 1338 2731 1133 3434 
Q 928 4138 513 4856 
z
" transform="scale(0.015625)"/>
      </defs>
      <use xlink:href="#DejaVuSans-45"/>
      <use xlink:href="#DejaVuSans-6c" x="63.183594"/>
      <use xlink:href="#DejaVuSans-6f" x="90.966797"/>
      <use xlink:href="#DejaVuSans-6e" x="152.148438"/>
      <use xlink:href="#DejaVuSans-67" x="215.527344"/>
      <use xlink:href="#DejaVuSans-61" x="279.003906"/>
      <use xlink:href="#DejaVuSans-74" x="340.283203"/>
      <use xlink:href="#DejaVuSans-69" x="379.492188"/>
      <use xlink:href="#DejaVuSans-6f" x="407.275391"/>
      <use xlink:href="#DejaVuSans-6e" x="468.457031"/>
      <use xlink:href="#DejaVuSans-20" x="531.835938"/>
      <use xlink:href="#DejaVuSans-6c" x="563.623047"/>
      <use xlink:href="#DejaVuSans-61" x="591.40625"/>
      <use xlink:href="#DejaVuSans-74" x="652.685547"/>
      <use xlink:href="#DejaVuSans-65" x="691.894531"/>
      <use xlink:href="#DejaVuSans-6e" x="753.417969"/>
      <use xlink:href="#DejaVuSans-63" x="816.796875"/>
      <use xlink:href="#DejaVuSans-79" x="871.777344"/>
      <use xlink:href="#DejaVuSans-20" x="930.957031"/>
      <use xlink:href="#DejaVuSans-28" x="962.744141"/>
      <use xlink:href="#DejaVuSans-6d" x="1001.757812"/>
      <use xlink:href="#DejaVuSans-73" x="1099.169922"/>
      <use xlink:href="#DejaVuSans-29" x="1151.269531"/>
     </g>
    </g>
   </g>
   <g id="matplotlib.axis_2">
    <g id="ytick_1">
     <g id="line2d_5">
      <defs>
       <path id="mb4be73f000" d="M 0 0 
L -3.5 0 
" style="stroke: #000000; stroke-width: 0.8"/>
      </defs>
      <g>
       <use xlink:href="#mb4be73f000" x="86.926563" y="280.910437" style="stroke: #000000; stroke-width: 0.8"/>
      </g>
     </g>
     <g id="text_6">
      <!-- 0.00 -->
      <g transform="translate(35.395313 288.508875) scale(0.2 -0.2)">
       <defs>
        <path id="DejaVuSans-2e" d="M 684 794 
L 1344 794 
L 1344 0 
L 684 0 
L 684 794 
z
" transform="scale(0.015625)"/>
       </defs>
       <use xlink:href="#DejaVuSans-30"/>
       <use xlink:href="#DejaVuSans-2e" x="63.623047"/>
       <use xlink:href="#DejaVuSans-30" x="95.410156"/>
       <use xlink:href="#DejaVuSans-30" x="159.033203"/>
      </g>
     </g>
    </g>
    <g id="ytick_2">
     <g id="line2d_6">
      <g>
       <use xlink:href="#mb4be73f000" x="86.926563" y="192.206437" style="stroke: #000000; stroke-width: 0.8"/>
      </g>
     </g>
     <g id="text_7">
      <!-- 0.04 -->
      <g transform="translate(35.395313 199.804875) scale(0.2 -0.2)">
       <defs>
        <path id="DejaVuSans-34" d="M 2419 4116 
L 825 1625 
L 2419 1625 
L 2419 4116 
z
M 2253 4666 
L 3047 4666 
L 3047 1625 
L 3713 1625 
L 3713 1100 
L 3047 1100 
L 3047 0 
L 2419 0 
L 2419 1100 
L 313 1100 
L 313 1709 
L 2253 4666 
z
" transform="scale(0.015625)"/>
       </defs>
       <use xlink:href="#DejaVuSans-30"/>
       <use xlink:href="#DejaVuSans-2e" x="63.623047"/>
       <use xlink:href="#DejaVuSans-30" x="95.410156"/>
       <use xlink:href="#DejaVuSans-34" x="159.033203"/>
      </g>
     </g>
    </g>
    <g id="ytick_3">
     <g id="line2d_7">
      <g>
       <use xlink:href="#mb4be73f000" x="86.926563" y="103.502437" style="stroke: #000000; stroke-width: 0.8"/>
      </g>
     </g>
     <g id="text_8">
      <!-- 0.08 -->
      <g transform="translate(35.395313 111.100875) scale(0.2 -0.2)">
       <defs>
        <path id="DejaVuSans-38" d="M 2034 2216 
Q 1584 2216 1326 1975 
Q 1069 1734 1069 1313 
Q 1069 891 1326 650 
Q 1584 409 2034 409 
Q 2484 409 2743 651 
Q 3003 894 3003 1313 
Q 3003 1734 2745 1975 
Q 2488 2216 2034 2216 
z
M 1403 2484 
Q 997 2584 770 2862 
Q 544 3141 544 3541 
Q 544 4100 942 4425 
Q 1341 4750 2034 4750 
Q 2731 4750 3128 4425 
Q 3525 4100 3525 3541 
Q 3525 3141 3298 2862 
Q 3072 2584 2669 2484 
Q 3125 2378 3379 2068 
Q 3634 1759 3634 1313 
Q 3634 634 3220 271 
Q 2806 -91 2034 -91 
Q 1263 -91 848 271 
Q 434 634 434 1313 
Q 434 1759 690 2068 
Q 947 2378 1403 2484 
z
M 1172 3481 
Q 1172 3119 1398 2916 
Q 1625 2713 2034 2713 
Q 2441 2713 2670 2916 
Q 2900 3119 2900 3481 
Q 2900 3844 2670 4047 
Q 2441 4250 2034 4250 
Q 1625 4250 1398 4047 
Q 1172 3844 1172 3481 
z
" transform="scale(0.015625)"/>
       </defs>
       <use xlink:href="#DejaVuSans-30"/>
       <use xlink:href="#DejaVuSans-2e" x="63.623047"/>
       <use xlink:href="#DejaVuSans-30" x="95.410156"/>
       <use xlink:href="#DejaVuSans-38" x="159.033203"/>
      </g>
     </g>
    </g>
    <g id="ytick_4">
     <g id="line2d_8">
      <g>
       <use xlink:href="#mb4be73f000" x="86.926563" y="14.798437" style="stroke: #000000; stroke-width: 0.8"/>
      </g>
     </g>
     <g id="text_9">
      <!-- 0.12 -->
      <g transform="translate(35.395313 22.396875) scale(0.2 -0.2)">
       <use xlink:href="#DejaVuSans-30"/>
       <use xlink:href="#DejaVuSans-2e" x="63.623047"/>
       <use xlink:href="#DejaVuSans-31" x="95.410156"/>
       <use xlink:href="#DejaVuSans-32" x="159.033203"/>
      </g>
     </g>
    </g>
    <g id="text_10">
     <!-- Probability density -->
     <g transform="translate(26.196094 263.731391) rotate(-90) scale(0.25 -0.25)">
      <defs>
       <path id="DejaVuSans-50" d="M 1259 4147 
L 1259 2394 
L 2053 2394 
Q 2494 2394 2734 2622 
Q 2975 2850 2975 3272 
Q 2975 3691 2734 3919 
Q 2494 4147 2053 4147 
L 1259 4147 
z
M 628 4666 
L 2053 4666 
Q 2838 4666 3239 4311 
Q 3641 3956 3641 3272 
Q 3641 2581 3239 2228 
Q 2838 1875 2053 1875 
L 1259 1875 
L 1259 0 
L 628 0 
L 628 4666 
z
" transform="scale(0.015625)"/>
       <path id="DejaVuSans-72" d="M 2631 2963 
Q 2534 3019 2420 3045 
Q 2306 3072 2169 3072 
Q 1681 3072 1420 2755 
Q 1159 2438 1159 1844 
L 1159 0 
L 581 0 
L 581 3500 
L 1159 3500 
L 1159 2956 
Q 1341 3275 1631 3429 
Q 1922 3584 2338 3584 
Q 2397 3584 2469 3576 
Q 2541 3569 2628 3553 
L 2631 2963 
z
" transform="scale(0.015625)"/>
       <path id="DejaVuSans-62" d="M 3116 1747 
Q 3116 2381 2855 2742 
Q 2594 3103 2138 3103 
Q 1681 3103 1420 2742 
Q 1159 2381 1159 1747 
Q 1159 1113 1420 752 
Q 1681 391 2138 391 
Q 2594 391 2855 752 
Q 3116 1113 3116 1747 
z
M 1159 2969 
Q 1341 3281 1617 3432 
Q 1894 3584 2278 3584 
Q 2916 3584 3314 3078 
Q 3713 2572 3713 1747 
Q 3713 922 3314 415 
Q 2916 -91 2278 -91 
Q 1894 -91 1617 61 
Q 1341 213 1159 525 
L 1159 0 
L 581 0 
L 581 4863 
L 1159 4863 
L 1159 2969 
z
" transform="scale(0.015625)"/>
       <path id="DejaVuSans-64" d="M 2906 2969 
L 2906 4863 
L 3481 4863 
L 3481 0 
L 2906 0 
L 2906 525 
Q 2725 213 2448 61 
Q 2172 -91 1784 -91 
Q 1150 -91 751 415 
Q 353 922 353 1747 
Q 353 2572 751 3078 
Q 1150 3584 1784 3584 
Q 2172 3584 2448 3432 
Q 2725 3281 2906 2969 
z
M 947 1747 
Q 947 1113 1208 752 
Q 1469 391 1925 391 
Q 2381 391 2643 752 
Q 2906 1113 2906 1747 
Q 2906 2381 2643 2742 
Q 2381 3103 1925 3103 
Q 1469 3103 1208 2742 
Q 947 2381 947 1747 
z
" transform="scale(0.015625)"/>
      </defs>
      <use xlink:href="#DejaVuSans-50"/>
      <use xlink:href="#DejaVuSans-72" x="58.552734"/>
      <use xlink:href="#DejaVuSans-6f" x="97.416016"/>
      <use xlink:href="#DejaVuSans-62" x="158.597656"/>
      <use xlink:href="#DejaVuSans-61" x="222.074219"/>
      <use xlink:href="#DejaVuSans-62" x="283.353516"/>
      <use xlink:href="#DejaVuSans-69" x="346.830078"/>
      <use xlink:href="#DejaVuSans-6c" x="374.613281"/>
      <use xlink:href="#DejaVuSans-69" x="402.396484"/>
      <use xlink:href="#DejaVuSans-74" x="430.179688"/>
      <use xlink:href="#DejaVuSans-79" x="469.388672"/>
      <use xlink:href="#DejaVuSans-20" x="528.568359"/>
      <use xlink:href="#DejaVuSans-64" x="560.355469"/>
      <use xlink:href="#DejaVuSans-65" x="623.832031"/>
      <use xlink:href="#DejaVuSans-6e" x="685.355469"/>
      <use xlink:href="#DejaVuSans-73" x="748.734375"/>
      <use xlink:href="#DejaVuSans-69" x="800.833984"/>
      <use xlink:href="#DejaVuSans-74" x="828.617188"/>
      <use xlink:href="#DejaVuSans-79" x="867.826172"/>
     </g>
    </g>
   </g>
   <g id="line2d_9">
    <path d="M 131.748286 280.910437 
L 131.748286 278.222437 
L 131.748286 275.534437 
L 131.748286 272.846437 
L 131.748286 270.158437 
L 131.748286 267.470437 
L 131.748286 264.782437 
L 131.748286 262.094437 
L 131.748286 259.406437 
L 131.748286 256.718437 
L 131.748286 254.030437 
L 131.748286 251.342437 
L 131.748286 248.654437 
L 131.748286 245.966437 
L 131.748286 243.278437 
L 131.748286 240.590437 
L 131.748286 237.902437 
L 131.748286 235.214437 
L 131.748286 232.526437 
L 131.748286 229.838437 
L 131.748286 227.150437 
L 131.748286 224.462437 
L 131.748286 221.774437 
L 131.748286 219.086437 
L 131.748286 216.398437 
L 131.748286 213.710437 
L 131.748286 211.022437 
L 131.748286 208.334437 
L 131.748286 205.646437 
L 131.748286 202.958437 
L 131.748286 200.270437 
L 131.748286 197.582437 
L 131.748286 194.894437 
L 131.748286 192.206437 
L 131.748286 189.518437 
L 131.748286 186.830437 
L 131.748286 184.142437 
L 131.748286 181.454437 
L 131.748286 178.766437 
L 131.748286 176.078437 
L 131.748286 173.390437 
L 131.748286 170.702437 
L 131.748286 168.014437 
L 131.748286 165.326437 
L 131.748286 162.638437 
L 131.748286 159.950437 
L 131.748286 157.262437 
L 131.748286 154.574437 
L 131.748286 151.886437 
L 131.748286 149.198437 
L 131.748286 146.510437 
L 131.748286 143.822437 
L 131.748286 141.134437 
L 131.748286 138.446437 
L 131.748286 135.758437 
L 131.748286 133.070437 
L 131.748286 130.382437 
L 131.748286 127.694437 
L 131.748286 125.006437 
L 131.748286 122.318437 
L 131.748286 119.630437 
L 131.748286 116.942437 
L 131.748286 114.254437 
L 131.748286 111.566437 
L 131.748286 108.878437 
L 131.748286 106.190437 
L 131.748286 103.502437 
L 131.748286 100.814437 
L 131.748286 98.126437 
L 131.748286 95.438437 
L 131.748286 92.750437 
L 131.748286 90.062437 
L 131.748286 87.374437 
L 131.748286 84.686437 
L 131.748286 81.998437 
L 131.748286 79.310437 
L 131.748286 76.622437 
L 131.748286 73.934437 
L 131.748286 71.246437 
L 131.748286 68.558437 
L 131.748286 65.870437 
L 131.748286 63.182437 
L 131.748286 60.494437 
L 131.748286 57.806437 
L 131.748286 55.118437 
L 131.748286 52.430437 
L 131.748286 49.742437 
L 131.748286 47.054437 
L 131.748286 44.366437 
L 131.748286 41.678437 
L 131.748286 38.990437 
L 131.748286 36.302437 
L 131.748286 33.614437 
L 131.748286 30.926437 
L 131.748286 28.238437 
L 131.748286 25.550437 
L 131.748286 22.862437 
L 131.748286 20.174437 
L 131.748286 17.486437 
L 131.748286 14.798437 
" clip-path="url(#pae525375e6)" style="fill: none; stroke: #008000; stroke-width: 3; stroke-linecap: square"/>
   </g>
   <g id="line2d_10">
    <path d="M 333.081634 280.910437 
L 333.081634 278.222437 
L 333.081634 275.534437 
L 333.081634 272.846437 
L 333.081634 270.158437 
L 333.081634 267.470437 
L 333.081634 264.782437 
L 333.081634 262.094437 
L 333.081634 259.406437 
L 333.081634 256.718437 
L 333.081634 254.030437 
L 333.081634 251.342437 
L 333.081634 248.654437 
L 333.081634 245.966437 
L 333.081634 243.278437 
L 333.081634 240.590437 
L 333.081634 237.902437 
L 333.081634 235.214437 
L 333.081634 232.526437 
L 333.081634 229.838437 
L 333.081634 227.150437 
L 333.081634 224.462437 
L 333.081634 221.774437 
L 333.081634 219.086437 
L 333.081634 216.398437 
L 333.081634 213.710437 
L 333.081634 211.022437 
L 333.081634 208.334437 
L 333.081634 205.646437 
L 333.081634 202.958437 
L 333.081634 200.270437 
L 333.081634 197.582437 
L 333.081634 194.894437 
L 333.081634 192.206437 
L 333.081634 189.518437 
L 333.081634 186.830437 
L 333.081634 184.142437 
L 333.081634 181.454437 
L 333.081634 178.766437 
L 333.081634 176.078437 
L 333.081634 173.390437 
L 333.081634 170.702437 
L 333.081634 168.014437 
L 333.081634 165.326437 
L 333.081634 162.638437 
L 333.081634 159.950437 
L 333.081634 157.262437 
L 333.081634 154.574437 
L 333.081634 151.886437 
L 333.081634 149.198437 
L 333.081634 146.510437 
L 333.081634 143.822437 
L 333.081634 141.134437 
L 333.081634 138.446437 
L 333.081634 135.758437 
L 333.081634 133.070437 
L 333.081634 130.382437 
L 333.081634 127.694437 
L 333.081634 125.006437 
L 333.081634 122.318437 
L 333.081634 119.630437 
L 333.081634 116.942437 
L 333.081634 114.254437 
L 333.081634 111.566437 
L 333.081634 108.878437 
L 333.081634 106.190437 
L 333.081634 103.502437 
L 333.081634 100.814437 
L 333.081634 98.126437 
L 333.081634 95.438437 
L 333.081634 92.750437 
L 333.081634 90.062437 
L 333.081634 87.374437 
L 333.081634 84.686437 
L 333.081634 81.998437 
L 333.081634 79.310437 
L 333.081634 76.622437 
L 333.081634 73.934437 
L 333.081634 71.246437 
L 333.081634 68.558437 
L 333.081634 65.870437 
L 333.081634 63.182437 
L 333.081634 60.494437 
L 333.081634 57.806437 
L 333.081634 55.118437 
L 333.081634 52.430437 
L 333.081634 49.742437 
L 333.081634 47.054437 
L 333.081634 44.366437 
L 333.081634 41.678437 
L 333.081634 38.990437 
L 333.081634 36.302437 
L 333.081634 33.614437 
L 333.081634 30.926437 
L 333.081634 28.238437 
L 333.081634 25.550437 
L 333.081634 22.862437 
L 333.081634 20.174437 
L 333.081634 17.486437 
L 333.081634 14.798437 
" clip-path="url(#pae525375e6)" style="fill: none; stroke: #000000; stroke-width: 3; stroke-linecap: square"/>
   </g>
   <g id="patch_33">
    <path d="M 86.926563 280.910437 
L 86.926563 14.798437 
" style="fill: none; stroke: #000000; stroke-width: 3; stroke-linejoin: miter; stroke-linecap: square"/>
   </g>
   <g id="patch_34">
    <path d="M 444.046563 280.910437 
L 444.046563 14.798437 
" style="fill: none"/>
   </g>
   <g id="patch_35">
    <path d="M 86.926563 280.910437 
L 444.046563 280.910437 
" style="fill: none; stroke: #000000; stroke-width: 3; stroke-linejoin: miter; stroke-linecap: square"/>
   </g>
   <g id="patch_36">
    <path d="M 86.926563 14.798437 
L 444.046563 14.798437 
" style="fill: none"/>
   </g>
  </g>
 </g>
 <defs>
  <clipPath id="pae525375e6">
   <rect x="86.926563" y="14.798437" width="357.12" height="266.112"/>
  </clipPath>
 </defs>
</svg>
