<?xml version="1.0" encoding="utf-8" standalone="no"?>
<!DOCTYPE svg PUBLIC "-//W3C//DTD SVG 1.1//EN"
  "http://www.w3.org/Graphics/SVG/1.1/DTD/svg11.dtd">
<svg xmlns:xlink="http://www.w3.org/1999/xlink" width="644.240625pt" height="406.430625pt" viewBox="0 0 644.240625 406.430625" xmlns="http://www.w3.org/2000/svg" version="1.1">
 <metadata>
  <rdf:RDF xmlns:dc="http://purl.org/dc/elements/1.1/" xmlns:cc="http://creativecommons.org/ns#" xmlns:rdf="http://www.w3.org/1999/02/22-rdf-syntax-ns#">
   <cc:Work>
    <dc:type rdf:resource="http://purl.org/dc/dcmitype/StillImage"/>
    <dc:date>2023-05-15T16:23:43.662391</dc:date>
    <dc:format>image/svg+xml</dc:format>
    <dc:creator>
     <cc:Agent>
      <dc:title>Matplotlib v3.7.1, https://matplotlib.org/</dc:title>
     </cc:Agent>
    </dc:creator>
   </cc:Work>
  </rdf:RDF>
 </metadata>
 <defs>
  <style type="text/css">*{stroke-linejoin: round; stroke-linecap: butt}</style>
 </defs>
 <g id="figure_1">
  <g id="patch_1">
   <path d="M 0 406.430625 
L 644.240625 406.430625 
L 644.240625 0 
L 0 0 
z
" style="fill: #ffffff"/>
  </g>
  <g id="axes_1">
   <g id="patch_2">
    <path d="M 79.040625 339.84 
L 637.040625 339.84 
L 637.040625 7.2 
L 79.040625 7.2 
z
" style="fill: #ffffff"/>
   </g>
   <g id="patch_3">
    <path d="M 39.65239 339.84 
L 52.781801 339.84 
L 52.781801 339.84 
L 39.65239 339.84 
z
" clip-path="url(#p87e027658e)" style="fill: #0000ff"/>
   </g>
   <g id="patch_4">
    <path d="M 52.781801 339.84 
L 65.911213 339.84 
L 65.911213 339.84 
L 52.781801 339.84 
z
" clip-path="url(#p87e027658e)" style="fill: #0000ff"/>
   </g>
   <g id="patch_5">
    <path d="M 65.911213 339.84 
L 79.040625 339.84 
L 79.040625 339.84 
L 65.911213 339.84 
z
" clip-path="url(#p87e027658e)" style="fill: #0000ff"/>
   </g>
   <g id="patch_6">
    <path d="M 79.040625 339.84 
L 92.170037 339.84 
L 92.170037 339.84 
L 79.040625 339.84 
z
" clip-path="url(#p87e027658e)" style="fill: #0000ff"/>
   </g>
   <g id="patch_7">
    <path d="M 92.170037 339.84 
L 105.299449 339.84 
L 105.299449 339.84 
L 92.170037 339.84 
z
" clip-path="url(#p87e027658e)" style="fill: #0000ff"/>
   </g>
   <g id="patch_8">
    <path d="M 105.299449 339.84 
L 118.42886 339.84 
L 118.42886 295.975385 
L 105.299449 295.975385 
z
" clip-path="url(#p87e027658e)" style="fill: #0000ff"/>
   </g>
   <g id="patch_9">
    <path d="M 118.42886 339.84 
L 131.558272 339.84 
L 131.558272 51.064615 
L 118.42886 51.064615 
z
" clip-path="url(#p87e027658e)" style="fill: #0000ff"/>
   </g>
   <g id="patch_10">
    <path d="M 131.558272 339.84 
L 144.687684 339.84 
L 144.687684 325.218462 
L 131.558272 325.218462 
z
" clip-path="url(#p87e027658e)" style="fill: #0000ff"/>
   </g>
   <g id="patch_11">
    <path d="M 144.687684 339.84 
L 157.817096 339.84 
L 157.817096 332.529231 
L 144.687684 332.529231 
z
" clip-path="url(#p87e027658e)" style="fill: #0000ff"/>
   </g>
   <g id="patch_12">
    <path d="M 157.817096 339.84 
L 170.946507 339.84 
L 170.946507 332.529231 
L 157.817096 332.529231 
z
" clip-path="url(#p87e027658e)" style="fill: #0000ff"/>
   </g>
   <g id="patch_13">
    <path d="M 170.946507 339.84 
L 184.075919 339.84 
L 184.075919 336.184615 
L 170.946507 336.184615 
z
" clip-path="url(#p87e027658e)" style="fill: #0000ff"/>
   </g>
   <g id="patch_14">
    <path d="M 184.075919 339.84 
L 197.205331 339.84 
L 197.205331 339.84 
L 184.075919 339.84 
z
" clip-path="url(#p87e027658e)" style="fill: #0000ff"/>
   </g>
   <g id="patch_15">
    <path d="M 197.205331 339.84 
L 210.334743 339.84 
L 210.334743 339.84 
L 197.205331 339.84 
z
" clip-path="url(#p87e027658e)" style="fill: #0000ff"/>
   </g>
   <g id="patch_16">
    <path d="M 210.334743 339.84 
L 223.464154 339.84 
L 223.464154 339.84 
L 210.334743 339.84 
z
" clip-path="url(#p87e027658e)" style="fill: #0000ff"/>
   </g>
   <g id="patch_17">
    <path d="M 223.464154 339.84 
L 236.593566 339.84 
L 236.593566 339.84 
L 223.464154 339.84 
z
" clip-path="url(#p87e027658e)" style="fill: #0000ff"/>
   </g>
   <g id="patch_18">
    <path d="M 538.570037 339.84 
L 551.699449 339.84 
L 551.699449 331.893512 
L 538.570037 331.893512 
z
" clip-path="url(#p87e027658e)" style="fill: #cd5c5c"/>
   </g>
   <g id="patch_19">
    <path d="M 551.699449 339.84 
L 564.82886 339.84 
L 564.82886 25.953712 
L 551.699449 25.953712 
z
" clip-path="url(#p87e027658e)" style="fill: #cd5c5c"/>
   </g>
   <g id="patch_20">
    <path d="M 564.82886 339.84 
L 577.958272 339.84 
L 577.958272 296.134314 
L 564.82886 296.134314 
z
" clip-path="url(#p87e027658e)" style="fill: #cd5c5c"/>
   </g>
   <g id="patch_21">
    <path d="M 577.958272 339.84 
L 591.087684 339.84 
L 591.087684 339.84 
L 577.958272 339.84 
z
" clip-path="url(#p87e027658e)" style="fill: #cd5c5c"/>
   </g>
   <g id="patch_22">
    <path d="M 591.087684 339.84 
L 604.217096 339.84 
L 604.217096 339.84 
L 591.087684 339.84 
z
" clip-path="url(#p87e027658e)" style="fill: #cd5c5c"/>
   </g>
   <g id="patch_23">
    <path d="M 604.217096 339.84 
L 617.346507 339.84 
L 617.346507 339.84 
L 604.217096 339.84 
z
" clip-path="url(#p87e027658e)" style="fill: #cd5c5c"/>
   </g>
   <g id="patch_24">
    <path d="M 617.346507 339.84 
L 630.475919 339.84 
L 630.475919 339.84 
L 617.346507 339.84 
z
" clip-path="url(#p87e027658e)" style="fill: #cd5c5c"/>
   </g>
   <g id="patch_25">
    <path d="M 630.475919 339.84 
L 643.605331 339.84 
L 643.605331 339.84 
L 630.475919 339.84 
z
" clip-path="url(#p87e027658e)" style="fill: #cd5c5c"/>
   </g>
   <g id="patch_26">
    <path d="M 643.605331 339.84 
L 656.734743 339.84 
L 656.734743 339.84 
L 643.605331 339.84 
z
" clip-path="url(#p87e027658e)" style="fill: #cd5c5c"/>
   </g>
   <g id="patch_27">
    <path d="M 656.734743 339.84 
L 669.864154 339.84 
L 669.864154 339.84 
L 656.734743 339.84 
z
" clip-path="url(#p87e027658e)" style="fill: #cd5c5c"/>
   </g>
   <g id="patch_28">
    <path d="M 669.864154 339.84 
L 682.993566 339.84 
L 682.993566 339.84 
L 669.864154 339.84 
z
" clip-path="url(#p87e027658e)" style="fill: #cd5c5c"/>
   </g>
   <g id="patch_29">
    <path d="M 682.993566 339.84 
L 696.122978 339.84 
L 696.122978 339.84 
L 682.993566 339.84 
z
" clip-path="url(#p87e027658e)" style="fill: #cd5c5c"/>
   </g>
   <g id="patch_30">
    <path d="M 696.122978 339.84 
L 709.25239 339.84 
L 709.25239 339.84 
L 696.122978 339.84 
z
" clip-path="url(#p87e027658e)" style="fill: #cd5c5c"/>
   </g>
   <g id="patch_31">
    <path d="M 709.25239 339.84 
L 722.381801 339.84 
L 722.381801 339.84 
L 709.25239 339.84 
z
" clip-path="url(#p87e027658e)" style="fill: #cd5c5c"/>
   </g>
   <g id="patch_32">
    <path d="M 722.381801 339.84 
L 735.511213 339.84 
L 735.511213 339.84 
L 722.381801 339.84 
z
" clip-path="url(#p87e027658e)" style="fill: #cd5c5c"/>
   </g>
   <g id="patch_33">
    <path d="M 243.158272 339.84 
L 256.287684 339.84 
L 256.287684 339.84 
L 243.158272 339.84 
z
" clip-path="url(#p87e027658e)" style="fill: #39568c; opacity: 0.3"/>
   </g>
   <g id="patch_34">
    <path d="M 256.287684 339.84 
L 269.417096 339.84 
L 269.417096 339.84 
L 256.287684 339.84 
z
" clip-path="url(#p87e027658e)" style="fill: #39568c; opacity: 0.3"/>
   </g>
   <g id="patch_35">
    <path d="M 269.417096 339.84 
L 282.546507 339.84 
L 282.546507 339.84 
L 269.417096 339.84 
z
" clip-path="url(#p87e027658e)" style="fill: #39568c; opacity: 0.3"/>
   </g>
   <g id="patch_36">
    <path d="M 282.546507 339.84 
L 295.675919 339.84 
L 295.675919 339.84 
L 282.546507 339.84 
z
" clip-path="url(#p87e027658e)" style="fill: #39568c; opacity: 0.3"/>
   </g>
   <g id="patch_37">
    <path d="M 295.675919 339.84 
L 308.805331 339.84 
L 308.805331 336.184615 
L 295.675919 336.184615 
z
" clip-path="url(#p87e027658e)" style="fill: #39568c; opacity: 0.3"/>
   </g>
   <g id="patch_38">
    <path d="M 308.805331 339.84 
L 321.934743 339.84 
L 321.934743 332.529231 
L 308.805331 332.529231 
z
" clip-path="url(#p87e027658e)" style="fill: #39568c; opacity: 0.3"/>
   </g>
   <g id="patch_39">
    <path d="M 321.934743 339.84 
L 335.064154 339.84 
L 335.064154 295.975385 
L 321.934743 295.975385 
z
" clip-path="url(#p87e027658e)" style="fill: #39568c; opacity: 0.3"/>
   </g>
   <g id="patch_40">
    <path d="M 335.064154 339.84 
L 348.193566 339.84 
L 348.193566 274.043077 
L 335.064154 274.043077 
z
" clip-path="url(#p87e027658e)" style="fill: #39568c; opacity: 0.3"/>
   </g>
   <g id="patch_41">
    <path d="M 348.193566 339.84 
L 361.322978 339.84 
L 361.322978 252.110769 
L 348.193566 252.110769 
z
" clip-path="url(#p87e027658e)" style="fill: #39568c; opacity: 0.3"/>
   </g>
   <g id="patch_42">
    <path d="M 361.322978 339.84 
L 374.45239 339.84 
L 374.45239 266.732308 
L 361.322978 266.732308 
z
" clip-path="url(#p87e027658e)" style="fill: #39568c; opacity: 0.3"/>
   </g>
   <g id="patch_43">
    <path d="M 374.45239 339.84 
L 387.581801 339.84 
L 387.581801 295.975385 
L 374.45239 295.975385 
z
" clip-path="url(#p87e027658e)" style="fill: #39568c; opacity: 0.3"/>
   </g>
   <g id="patch_44">
    <path d="M 387.581801 339.84 
L 400.711213 339.84 
L 400.711213 317.907692 
L 387.581801 317.907692 
z
" clip-path="url(#p87e027658e)" style="fill: #39568c; opacity: 0.3"/>
   </g>
   <g id="patch_45">
    <path d="M 400.711213 339.84 
L 413.840625 339.84 
L 413.840625 325.218462 
L 400.711213 325.218462 
z
" clip-path="url(#p87e027658e)" style="fill: #39568c; opacity: 0.3"/>
   </g>
   <g id="patch_46">
    <path d="M 413.840625 339.84 
L 426.970037 339.84 
L 426.970037 339.84 
L 413.840625 339.84 
z
" clip-path="url(#p87e027658e)" style="fill: #39568c; opacity: 0.3"/>
   </g>
   <g id="patch_47">
    <path d="M 426.970037 339.84 
L 440.099449 339.84 
L 440.099449 336.184615 
L 426.970037 336.184615 
z
" clip-path="url(#p87e027658e)" style="fill: #39568c; opacity: 0.3"/>
   </g>
   <g id="matplotlib.axis_1">
    <g id="xtick_1">
     <g id="line2d_1">
      <defs>
       <path id="mf208a191ce" d="M 0 0 
L 0 3.5 
" style="stroke: #000000; stroke-width: 0.8"/>
      </defs>
      <g>
       <use xlink:href="#mf208a191ce" x="79.040625" y="339.84" style="stroke: #000000; stroke-width: 0.8"/>
      </g>
     </g>
     <g id="text_1">
      <!-- 170 -->
      <g transform="translate(59.953125 362.036875) scale(0.2 -0.2)">
       <defs>
        <path id="DejaVuSans-31" d="M 794 531 
L 1825 531 
L 1825 4091 
L 703 3866 
L 703 4441 
L 1819 4666 
L 2450 4666 
L 2450 531 
L 3481 531 
L 3481 0 
L 794 0 
L 794 531 
z
" transform="scale(0.015625)"/>
        <path id="DejaVuSans-37" d="M 525 4666 
L 3525 4666 
L 3525 4397 
L 1831 0 
L 1172 0 
L 2766 4134 
L 525 4134 
L 525 4666 
z
" transform="scale(0.015625)"/>
        <path id="DejaVuSans-30" d="M 2034 4250 
Q 1547 4250 1301 3770 
Q 1056 3291 1056 2328 
Q 1056 1369 1301 889 
Q 1547 409 2034 409 
Q 2525 409 2770 889 
Q 3016 1369 3016 2328 
Q 3016 3291 2770 3770 
Q 2525 4250 2034 4250 
z
M 2034 4750 
Q 2819 4750 3233 4129 
Q 3647 3509 3647 2328 
Q 3647 1150 3233 529 
Q 2819 -91 2034 -91 
Q 1250 -91 836 529 
Q 422 1150 422 2328 
Q 422 3509 836 4129 
Q 1250 4750 2034 4750 
z
" transform="scale(0.015625)"/>
       </defs>
       <use xlink:href="#DejaVuSans-31"/>
       <use xlink:href="#DejaVuSans-37" x="63.623047"/>
       <use xlink:href="#DejaVuSans-30" x="127.246094"/>
      </g>
     </g>
    </g>
    <g id="xtick_2">
     <g id="line2d_2">
      <g>
       <use xlink:href="#mf208a191ce" x="144.687684" y="339.84" style="stroke: #000000; stroke-width: 0.8"/>
      </g>
     </g>
     <g id="text_2">
      <!-- 180 -->
      <g transform="translate(125.600184 362.036875) scale(0.2 -0.2)">
       <defs>
        <path id="DejaVuSans-38" d="M 2034 2216 
Q 1584 2216 1326 1975 
Q 1069 1734 1069 1313 
Q 1069 891 1326 650 
Q 1584 409 2034 409 
Q 2484 409 2743 651 
Q 3003 894 3003 1313 
Q 3003 1734 2745 1975 
Q 2488 2216 2034 2216 
z
M 1403 2484 
Q 997 2584 770 2862 
Q 544 3141 544 3541 
Q 544 4100 942 4425 
Q 1341 4750 2034 4750 
Q 2731 4750 3128 4425 
Q 3525 4100 3525 3541 
Q 3525 3141 3298 2862 
Q 3072 2584 2669 2484 
Q 3125 2378 3379 2068 
Q 3634 1759 3634 1313 
Q 3634 634 3220 271 
Q 2806 -91 2034 -91 
Q 1263 -91 848 271 
Q 434 634 434 1313 
Q 434 1759 690 2068 
Q 947 2378 1403 2484 
z
M 1172 3481 
Q 1172 3119 1398 2916 
Q 1625 2713 2034 2713 
Q 2441 2713 2670 2916 
Q 2900 3119 2900 3481 
Q 2900 3844 2670 4047 
Q 2441 4250 2034 4250 
Q 1625 4250 1398 4047 
Q 1172 3844 1172 3481 
z
" transform="scale(0.015625)"/>
       </defs>
       <use xlink:href="#DejaVuSans-31"/>
       <use xlink:href="#DejaVuSans-38" x="63.623047"/>
       <use xlink:href="#DejaVuSans-30" x="127.246094"/>
      </g>
     </g>
    </g>
    <g id="xtick_3">
     <g id="line2d_3">
      <g>
       <use xlink:href="#mf208a191ce" x="210.334743" y="339.84" style="stroke: #000000; stroke-width: 0.8"/>
      </g>
     </g>
     <g id="text_3">
      <!-- 190 -->
      <g transform="translate(191.247243 362.036875) scale(0.2 -0.2)">
       <defs>
        <path id="DejaVuSans-39" d="M 703 97 
L 703 672 
Q 941 559 1184 500 
Q 1428 441 1663 441 
Q 2288 441 2617 861 
Q 2947 1281 2994 2138 
Q 2813 1869 2534 1725 
Q 2256 1581 1919 1581 
Q 1219 1581 811 2004 
Q 403 2428 403 3163 
Q 403 3881 828 4315 
Q 1253 4750 1959 4750 
Q 2769 4750 3195 4129 
Q 3622 3509 3622 2328 
Q 3622 1225 3098 567 
Q 2575 -91 1691 -91 
Q 1453 -91 1209 -44 
Q 966 3 703 97 
z
M 1959 2075 
Q 2384 2075 2632 2365 
Q 2881 2656 2881 3163 
Q 2881 3666 2632 3958 
Q 2384 4250 1959 4250 
Q 1534 4250 1286 3958 
Q 1038 3666 1038 3163 
Q 1038 2656 1286 2365 
Q 1534 2075 1959 2075 
z
" transform="scale(0.015625)"/>
       </defs>
       <use xlink:href="#DejaVuSans-31"/>
       <use xlink:href="#DejaVuSans-39" x="63.623047"/>
       <use xlink:href="#DejaVuSans-30" x="127.246094"/>
      </g>
     </g>
    </g>
    <g id="xtick_4">
     <g id="line2d_4">
      <g>
       <use xlink:href="#mf208a191ce" x="275.981801" y="339.84" style="stroke: #000000; stroke-width: 0.8"/>
      </g>
     </g>
     <g id="text_4">
      <!-- 200 -->
      <g transform="translate(256.894301 362.036875) scale(0.2 -0.2)">
       <defs>
        <path id="DejaVuSans-32" d="M 1228 531 
L 3431 531 
L 3431 0 
L 469 0 
L 469 531 
Q 828 903 1448 1529 
Q 2069 2156 2228 2338 
Q 2531 2678 2651 2914 
Q 2772 3150 2772 3378 
Q 2772 3750 2511 3984 
Q 2250 4219 1831 4219 
Q 1534 4219 1204 4116 
Q 875 4013 500 3803 
L 500 4441 
Q 881 4594 1212 4672 
Q 1544 4750 1819 4750 
Q 2544 4750 2975 4387 
Q 3406 4025 3406 3419 
Q 3406 3131 3298 2873 
Q 3191 2616 2906 2266 
Q 2828 2175 2409 1742 
Q 1991 1309 1228 531 
z
" transform="scale(0.015625)"/>
       </defs>
       <use xlink:href="#DejaVuSans-32"/>
       <use xlink:href="#DejaVuSans-30" x="63.623047"/>
       <use xlink:href="#DejaVuSans-30" x="127.246094"/>
      </g>
     </g>
    </g>
    <g id="xtick_5">
     <g id="line2d_5">
      <g>
       <use xlink:href="#mf208a191ce" x="341.62886" y="339.84" style="stroke: #000000; stroke-width: 0.8"/>
      </g>
     </g>
     <g id="text_5">
      <!-- 210 -->
      <g transform="translate(322.54136 362.036875) scale(0.2 -0.2)">
       <use xlink:href="#DejaVuSans-32"/>
       <use xlink:href="#DejaVuSans-31" x="63.623047"/>
       <use xlink:href="#DejaVuSans-30" x="127.246094"/>
      </g>
     </g>
    </g>
    <g id="xtick_6">
     <g id="line2d_6">
      <g>
       <use xlink:href="#mf208a191ce" x="407.275919" y="339.84" style="stroke: #000000; stroke-width: 0.8"/>
      </g>
     </g>
     <g id="text_6">
      <!-- 220 -->
      <g transform="translate(388.188419 362.036875) scale(0.2 -0.2)">
       <use xlink:href="#DejaVuSans-32"/>
       <use xlink:href="#DejaVuSans-32" x="63.623047"/>
       <use xlink:href="#DejaVuSans-30" x="127.246094"/>
      </g>
     </g>
    </g>
    <g id="xtick_7">
     <g id="line2d_7">
      <g>
       <use xlink:href="#mf208a191ce" x="472.922978" y="339.84" style="stroke: #000000; stroke-width: 0.8"/>
      </g>
     </g>
     <g id="text_7">
      <!-- 230 -->
      <g transform="translate(453.835478 362.036875) scale(0.2 -0.2)">
       <defs>
        <path id="DejaVuSans-33" d="M 2597 2516 
Q 3050 2419 3304 2112 
Q 3559 1806 3559 1356 
Q 3559 666 3084 287 
Q 2609 -91 1734 -91 
Q 1441 -91 1130 -33 
Q 819 25 488 141 
L 488 750 
Q 750 597 1062 519 
Q 1375 441 1716 441 
Q 2309 441 2620 675 
Q 2931 909 2931 1356 
Q 2931 1769 2642 2001 
Q 2353 2234 1838 2234 
L 1294 2234 
L 1294 2753 
L 1863 2753 
Q 2328 2753 2575 2939 
Q 2822 3125 2822 3475 
Q 2822 3834 2567 4026 
Q 2313 4219 1838 4219 
Q 1578 4219 1281 4162 
Q 984 4106 628 3988 
L 628 4550 
Q 988 4650 1302 4700 
Q 1616 4750 1894 4750 
Q 2613 4750 3031 4423 
Q 3450 4097 3450 3541 
Q 3450 3153 3228 2886 
Q 3006 2619 2597 2516 
z
" transform="scale(0.015625)"/>
       </defs>
       <use xlink:href="#DejaVuSans-32"/>
       <use xlink:href="#DejaVuSans-33" x="63.623047"/>
       <use xlink:href="#DejaVuSans-30" x="127.246094"/>
      </g>
     </g>
    </g>
    <g id="xtick_8">
     <g id="line2d_8">
      <g>
       <use xlink:href="#mf208a191ce" x="538.570037" y="339.84" style="stroke: #000000; stroke-width: 0.8"/>
      </g>
     </g>
     <g id="text_8">
      <!-- 240 -->
      <g transform="translate(519.482537 362.036875) scale(0.2 -0.2)">
       <defs>
        <path id="DejaVuSans-34" d="M 2419 4116 
L 825 1625 
L 2419 1625 
L 2419 4116 
z
M 2253 4666 
L 3047 4666 
L 3047 1625 
L 3713 1625 
L 3713 1100 
L 3047 1100 
L 3047 0 
L 2419 0 
L 2419 1100 
L 313 1100 
L 313 1709 
L 2253 4666 
z
" transform="scale(0.015625)"/>
       </defs>
       <use xlink:href="#DejaVuSans-32"/>
       <use xlink:href="#DejaVuSans-34" x="63.623047"/>
       <use xlink:href="#DejaVuSans-30" x="127.246094"/>
      </g>
     </g>
    </g>
    <g id="xtick_9">
     <g id="line2d_9">
      <g>
       <use xlink:href="#mf208a191ce" x="604.217096" y="339.84" style="stroke: #000000; stroke-width: 0.8"/>
      </g>
     </g>
     <g id="text_9">
      <!-- 250 -->
      <g transform="translate(585.129596 362.036875) scale(0.2 -0.2)">
       <defs>
        <path id="DejaVuSans-35" d="M 691 4666 
L 3169 4666 
L 3169 4134 
L 1269 4134 
L 1269 2991 
Q 1406 3038 1543 3061 
Q 1681 3084 1819 3084 
Q 2600 3084 3056 2656 
Q 3513 2228 3513 1497 
Q 3513 744 3044 326 
Q 2575 -91 1722 -91 
Q 1428 -91 1123 -41 
Q 819 9 494 109 
L 494 744 
Q 775 591 1075 516 
Q 1375 441 1709 441 
Q 2250 441 2565 725 
Q 2881 1009 2881 1497 
Q 2881 1984 2565 2268 
Q 2250 2553 1709 2553 
Q 1456 2553 1204 2497 
Q 953 2441 691 2322 
L 691 4666 
z
" transform="scale(0.015625)"/>
       </defs>
       <use xlink:href="#DejaVuSans-32"/>
       <use xlink:href="#DejaVuSans-35" x="63.623047"/>
       <use xlink:href="#DejaVuSans-30" x="127.246094"/>
      </g>
     </g>
    </g>
    <g id="text_10">
     <!-- Elongation latency -->
     <g transform="translate(218.395312 392.991562) scale(0.3 -0.3)">
      <defs>
       <path id="DejaVuSans-45" d="M 628 4666 
L 3578 4666 
L 3578 4134 
L 1259 4134 
L 1259 2753 
L 3481 2753 
L 3481 2222 
L 1259 2222 
L 1259 531 
L 3634 531 
L 3634 0 
L 628 0 
L 628 4666 
z
" transform="scale(0.015625)"/>
       <path id="DejaVuSans-6c" d="M 603 4863 
L 1178 4863 
L 1178 0 
L 603 0 
L 603 4863 
z
" transform="scale(0.015625)"/>
       <path id="DejaVuSans-6f" d="M 1959 3097 
Q 1497 3097 1228 2736 
Q 959 2375 959 1747 
Q 959 1119 1226 758 
Q 1494 397 1959 397 
Q 2419 397 2687 759 
Q 2956 1122 2956 1747 
Q 2956 2369 2687 2733 
Q 2419 3097 1959 3097 
z
M 1959 3584 
Q 2709 3584 3137 3096 
Q 3566 2609 3566 1747 
Q 3566 888 3137 398 
Q 2709 -91 1959 -91 
Q 1206 -91 779 398 
Q 353 888 353 1747 
Q 353 2609 779 3096 
Q 1206 3584 1959 3584 
z
" transform="scale(0.015625)"/>
       <path id="DejaVuSans-6e" d="M 3513 2113 
L 3513 0 
L 2938 0 
L 2938 2094 
Q 2938 2591 2744 2837 
Q 2550 3084 2163 3084 
Q 1697 3084 1428 2787 
Q 1159 2491 1159 1978 
L 1159 0 
L 581 0 
L 581 3500 
L 1159 3500 
L 1159 2956 
Q 1366 3272 1645 3428 
Q 1925 3584 2291 3584 
Q 2894 3584 3203 3211 
Q 3513 2838 3513 2113 
z
" transform="scale(0.015625)"/>
       <path id="DejaVuSans-67" d="M 2906 1791 
Q 2906 2416 2648 2759 
Q 2391 3103 1925 3103 
Q 1463 3103 1205 2759 
Q 947 2416 947 1791 
Q 947 1169 1205 825 
Q 1463 481 1925 481 
Q 2391 481 2648 825 
Q 2906 1169 2906 1791 
z
M 3481 434 
Q 3481 -459 3084 -895 
Q 2688 -1331 1869 -1331 
Q 1566 -1331 1297 -1286 
Q 1028 -1241 775 -1147 
L 775 -588 
Q 1028 -725 1275 -790 
Q 1522 -856 1778 -856 
Q 2344 -856 2625 -561 
Q 2906 -266 2906 331 
L 2906 616 
Q 2728 306 2450 153 
Q 2172 0 1784 0 
Q 1141 0 747 490 
Q 353 981 353 1791 
Q 353 2603 747 3093 
Q 1141 3584 1784 3584 
Q 2172 3584 2450 3431 
Q 2728 3278 2906 2969 
L 2906 3500 
L 3481 3500 
L 3481 434 
z
" transform="scale(0.015625)"/>
       <path id="DejaVuSans-61" d="M 2194 1759 
Q 1497 1759 1228 1600 
Q 959 1441 959 1056 
Q 959 750 1161 570 
Q 1363 391 1709 391 
Q 2188 391 2477 730 
Q 2766 1069 2766 1631 
L 2766 1759 
L 2194 1759 
z
M 3341 1997 
L 3341 0 
L 2766 0 
L 2766 531 
Q 2569 213 2275 61 
Q 1981 -91 1556 -91 
Q 1019 -91 701 211 
Q 384 513 384 1019 
Q 384 1609 779 1909 
Q 1175 2209 1959 2209 
L 2766 2209 
L 2766 2266 
Q 2766 2663 2505 2880 
Q 2244 3097 1772 3097 
Q 1472 3097 1187 3025 
Q 903 2953 641 2809 
L 641 3341 
Q 956 3463 1253 3523 
Q 1550 3584 1831 3584 
Q 2591 3584 2966 3190 
Q 3341 2797 3341 1997 
z
" transform="scale(0.015625)"/>
       <path id="DejaVuSans-74" d="M 1172 4494 
L 1172 3500 
L 2356 3500 
L 2356 3053 
L 1172 3053 
L 1172 1153 
Q 1172 725 1289 603 
Q 1406 481 1766 481 
L 2356 481 
L 2356 0 
L 1766 0 
Q 1100 0 847 248 
Q 594 497 594 1153 
L 594 3053 
L 172 3053 
L 172 3500 
L 594 3500 
L 594 4494 
L 1172 4494 
z
" transform="scale(0.015625)"/>
       <path id="DejaVuSans-69" d="M 603 3500 
L 1178 3500 
L 1178 0 
L 603 0 
L 603 3500 
z
M 603 4863 
L 1178 4863 
L 1178 4134 
L 603 4134 
L 603 4863 
z
" transform="scale(0.015625)"/>
       <path id="DejaVuSans-20" transform="scale(0.015625)"/>
       <path id="DejaVuSans-65" d="M 3597 1894 
L 3597 1613 
L 953 1613 
Q 991 1019 1311 708 
Q 1631 397 2203 397 
Q 2534 397 2845 478 
Q 3156 559 3463 722 
L 3463 178 
Q 3153 47 2828 -22 
Q 2503 -91 2169 -91 
Q 1331 -91 842 396 
Q 353 884 353 1716 
Q 353 2575 817 3079 
Q 1281 3584 2069 3584 
Q 2775 3584 3186 3129 
Q 3597 2675 3597 1894 
z
M 3022 2063 
Q 3016 2534 2758 2815 
Q 2500 3097 2075 3097 
Q 1594 3097 1305 2825 
Q 1016 2553 972 2059 
L 3022 2063 
z
" transform="scale(0.015625)"/>
       <path id="DejaVuSans-63" d="M 3122 3366 
L 3122 2828 
Q 2878 2963 2633 3030 
Q 2388 3097 2138 3097 
Q 1578 3097 1268 2742 
Q 959 2388 959 1747 
Q 959 1106 1268 751 
Q 1578 397 2138 397 
Q 2388 397 2633 464 
Q 2878 531 3122 666 
L 3122 134 
Q 2881 22 2623 -34 
Q 2366 -91 2075 -91 
Q 1284 -91 818 406 
Q 353 903 353 1747 
Q 353 2603 823 3093 
Q 1294 3584 2113 3584 
Q 2378 3584 2631 3529 
Q 2884 3475 3122 3366 
z
" transform="scale(0.015625)"/>
       <path id="DejaVuSans-79" d="M 2059 -325 
Q 1816 -950 1584 -1140 
Q 1353 -1331 966 -1331 
L 506 -1331 
L 506 -850 
L 844 -850 
Q 1081 -850 1212 -737 
Q 1344 -625 1503 -206 
L 1606 56 
L 191 3500 
L 800 3500 
L 1894 763 
L 2988 3500 
L 3597 3500 
L 2059 -325 
z
" transform="scale(0.015625)"/>
      </defs>
      <use xlink:href="#DejaVuSans-45"/>
      <use xlink:href="#DejaVuSans-6c" x="63.183594"/>
      <use xlink:href="#DejaVuSans-6f" x="90.966797"/>
      <use xlink:href="#DejaVuSans-6e" x="152.148438"/>
      <use xlink:href="#DejaVuSans-67" x="215.527344"/>
      <use xlink:href="#DejaVuSans-61" x="279.003906"/>
      <use xlink:href="#DejaVuSans-74" x="340.283203"/>
      <use xlink:href="#DejaVuSans-69" x="379.492188"/>
      <use xlink:href="#DejaVuSans-6f" x="407.275391"/>
      <use xlink:href="#DejaVuSans-6e" x="468.457031"/>
      <use xlink:href="#DejaVuSans-20" x="531.835938"/>
      <use xlink:href="#DejaVuSans-6c" x="563.623047"/>
      <use xlink:href="#DejaVuSans-61" x="591.40625"/>
      <use xlink:href="#DejaVuSans-74" x="652.685547"/>
      <use xlink:href="#DejaVuSans-65" x="691.894531"/>
      <use xlink:href="#DejaVuSans-6e" x="753.417969"/>
      <use xlink:href="#DejaVuSans-63" x="816.796875"/>
      <use xlink:href="#DejaVuSans-79" x="871.777344"/>
     </g>
    </g>
   </g>
   <g id="matplotlib.axis_2">
    <g id="ytick_1">
     <g id="line2d_10">
      <defs>
       <path id="mdb247d6274" d="M 0 0 
L -3.5 0 
" style="stroke: #000000; stroke-width: 0.8"/>
      </defs>
      <g>
       <use xlink:href="#mdb247d6274" x="79.040625" y="339.84" style="stroke: #000000; stroke-width: 0.8"/>
      </g>
     </g>
     <g id="text_11">
      <!-- 0.0 -->
      <g transform="translate(40.234375 347.438437) scale(0.2 -0.2)">
       <defs>
        <path id="DejaVuSans-2e" d="M 684 794 
L 1344 794 
L 1344 0 
L 684 0 
L 684 794 
z
" transform="scale(0.015625)"/>
       </defs>
       <use xlink:href="#DejaVuSans-30"/>
       <use xlink:href="#DejaVuSans-2e" x="63.623047"/>
       <use xlink:href="#DejaVuSans-30" x="95.410156"/>
      </g>
     </g>
    </g>
    <g id="ytick_2">
     <g id="line2d_11">
      <g>
       <use xlink:href="#mdb247d6274" x="79.040625" y="266.732308" style="stroke: #000000; stroke-width: 0.8"/>
      </g>
     </g>
     <g id="text_12">
      <!-- 0.1 -->
      <g transform="translate(40.234375 274.330745) scale(0.2 -0.2)">
       <use xlink:href="#DejaVuSans-30"/>
       <use xlink:href="#DejaVuSans-2e" x="63.623047"/>
       <use xlink:href="#DejaVuSans-31" x="95.410156"/>
      </g>
     </g>
    </g>
    <g id="ytick_3">
     <g id="line2d_12">
      <g>
       <use xlink:href="#mdb247d6274" x="79.040625" y="193.624615" style="stroke: #000000; stroke-width: 0.8"/>
      </g>
     </g>
     <g id="text_13">
      <!-- 0.2 -->
      <g transform="translate(40.234375 201.223053) scale(0.2 -0.2)">
       <use xlink:href="#DejaVuSans-30"/>
       <use xlink:href="#DejaVuSans-2e" x="63.623047"/>
       <use xlink:href="#DejaVuSans-32" x="95.410156"/>
      </g>
     </g>
    </g>
    <g id="ytick_4">
     <g id="line2d_13">
      <g>
       <use xlink:href="#mdb247d6274" x="79.040625" y="120.516923" style="stroke: #000000; stroke-width: 0.8"/>
      </g>
     </g>
     <g id="text_14">
      <!-- 0.3 -->
      <g transform="translate(40.234375 128.115361) scale(0.2 -0.2)">
       <use xlink:href="#DejaVuSans-30"/>
       <use xlink:href="#DejaVuSans-2e" x="63.623047"/>
       <use xlink:href="#DejaVuSans-33" x="95.410156"/>
      </g>
     </g>
    </g>
    <g id="ytick_5">
     <g id="line2d_14">
      <g>
       <use xlink:href="#mdb247d6274" x="79.040625" y="47.409231" style="stroke: #000000; stroke-width: 0.8"/>
      </g>
     </g>
     <g id="text_15">
      <!-- 0.4 -->
      <g transform="translate(40.234375 55.007668) scale(0.2 -0.2)">
       <use xlink:href="#DejaVuSans-30"/>
       <use xlink:href="#DejaVuSans-2e" x="63.623047"/>
       <use xlink:href="#DejaVuSans-34" x="95.410156"/>
      </g>
     </g>
    </g>
    <g id="text_16">
     <!-- Probability density -->
     <g transform="translate(29.995312 312.572344) rotate(-90) scale(0.3 -0.3)">
      <defs>
       <path id="DejaVuSans-50" d="M 1259 4147 
L 1259 2394 
L 2053 2394 
Q 2494 2394 2734 2622 
Q 2975 2850 2975 3272 
Q 2975 3691 2734 3919 
Q 2494 4147 2053 4147 
L 1259 4147 
z
M 628 4666 
L 2053 4666 
Q 2838 4666 3239 4311 
Q 3641 3956 3641 3272 
Q 3641 2581 3239 2228 
Q 2838 1875 2053 1875 
L 1259 1875 
L 1259 0 
L 628 0 
L 628 4666 
z
" transform="scale(0.015625)"/>
       <path id="DejaVuSans-72" d="M 2631 2963 
Q 2534 3019 2420 3045 
Q 2306 3072 2169 3072 
Q 1681 3072 1420 2755 
Q 1159 2438 1159 1844 
L 1159 0 
L 581 0 
L 581 3500 
L 1159 3500 
L 1159 2956 
Q 1341 3275 1631 3429 
Q 1922 3584 2338 3584 
Q 2397 3584 2469 3576 
Q 2541 3569 2628 3553 
L 2631 2963 
z
" transform="scale(0.015625)"/>
       <path id="DejaVuSans-62" d="M 3116 1747 
Q 3116 2381 2855 2742 
Q 2594 3103 2138 3103 
Q 1681 3103 1420 2742 
Q 1159 2381 1159 1747 
Q 1159 1113 1420 752 
Q 1681 391 2138 391 
Q 2594 391 2855 752 
Q 3116 1113 3116 1747 
z
M 1159 2969 
Q 1341 3281 1617 3432 
Q 1894 3584 2278 3584 
Q 2916 3584 3314 3078 
Q 3713 2572 3713 1747 
Q 3713 922 3314 415 
Q 2916 -91 2278 -91 
Q 1894 -91 1617 61 
Q 1341 213 1159 525 
L 1159 0 
L 581 0 
L 581 4863 
L 1159 4863 
L 1159 2969 
z
" transform="scale(0.015625)"/>
       <path id="DejaVuSans-64" d="M 2906 2969 
L 2906 4863 
L 3481 4863 
L 3481 0 
L 2906 0 
L 2906 525 
Q 2725 213 2448 61 
Q 2172 -91 1784 -91 
Q 1150 -91 751 415 
Q 353 922 353 1747 
Q 353 2572 751 3078 
Q 1150 3584 1784 3584 
Q 2172 3584 2448 3432 
Q 2725 3281 2906 2969 
z
M 947 1747 
Q 947 1113 1208 752 
Q 1469 391 1925 391 
Q 2381 391 2643 752 
Q 2906 1113 2906 1747 
Q 2906 2381 2643 2742 
Q 2381 3103 1925 3103 
Q 1469 3103 1208 2742 
Q 947 2381 947 1747 
z
" transform="scale(0.015625)"/>
       <path id="DejaVuSans-73" d="M 2834 3397 
L 2834 2853 
Q 2591 2978 2328 3040 
Q 2066 3103 1784 3103 
Q 1356 3103 1142 2972 
Q 928 2841 928 2578 
Q 928 2378 1081 2264 
Q 1234 2150 1697 2047 
L 1894 2003 
Q 2506 1872 2764 1633 
Q 3022 1394 3022 966 
Q 3022 478 2636 193 
Q 2250 -91 1575 -91 
Q 1294 -91 989 -36 
Q 684 19 347 128 
L 347 722 
Q 666 556 975 473 
Q 1284 391 1588 391 
Q 1994 391 2212 530 
Q 2431 669 2431 922 
Q 2431 1156 2273 1281 
Q 2116 1406 1581 1522 
L 1381 1569 
Q 847 1681 609 1914 
Q 372 2147 372 2553 
Q 372 3047 722 3315 
Q 1072 3584 1716 3584 
Q 2034 3584 2315 3537 
Q 2597 3491 2834 3397 
z
" transform="scale(0.015625)"/>
      </defs>
      <use xlink:href="#DejaVuSans-50"/>
      <use xlink:href="#DejaVuSans-72" x="58.552734"/>
      <use xlink:href="#DejaVuSans-6f" x="97.416016"/>
      <use xlink:href="#DejaVuSans-62" x="158.597656"/>
      <use xlink:href="#DejaVuSans-61" x="222.074219"/>
      <use xlink:href="#DejaVuSans-62" x="283.353516"/>
      <use xlink:href="#DejaVuSans-69" x="346.830078"/>
      <use xlink:href="#DejaVuSans-6c" x="374.613281"/>
      <use xlink:href="#DejaVuSans-69" x="402.396484"/>
      <use xlink:href="#DejaVuSans-74" x="430.179688"/>
      <use xlink:href="#DejaVuSans-79" x="469.388672"/>
      <use xlink:href="#DejaVuSans-20" x="528.568359"/>
      <use xlink:href="#DejaVuSans-64" x="560.355469"/>
      <use xlink:href="#DejaVuSans-65" x="623.832031"/>
      <use xlink:href="#DejaVuSans-6e" x="685.355469"/>
      <use xlink:href="#DejaVuSans-73" x="748.734375"/>
      <use xlink:href="#DejaVuSans-69" x="800.833984"/>
      <use xlink:href="#DejaVuSans-74" x="828.617188"/>
      <use xlink:href="#DejaVuSans-79" x="867.826172"/>
     </g>
    </g>
   </g>
   <g id="line2d_15">
    <path d="M 369.098525 339.84 
L 369.098525 336.669431 
L 369.098525 333.498863 
L 369.098525 330.328294 
L 369.098525 327.157726 
L 369.098525 323.987157 
L 369.098525 320.816589 
L 369.098525 317.64602 
L 369.098525 314.475452 
L 369.098525 311.304883 
L 369.098525 308.134314 
L 369.098525 304.963746 
L 369.098525 301.793177 
L 369.098525 298.622609 
L 369.098525 295.45204 
L 369.098525 292.281472 
L 369.098525 289.110903 
L 369.098525 285.940334 
L 369.098525 282.769766 
L 369.098525 279.599197 
L 369.098525 276.428629 
L 369.098525 273.25806 
L 369.098525 270.087492 
L 369.098525 266.916923 
L 369.098525 263.746355 
L 369.098525 260.575786 
L 369.098525 257.405217 
L 369.098525 254.234649 
L 369.098525 251.06408 
L 369.098525 247.893512 
L 369.098525 244.722943 
L 369.098525 241.552375 
L 369.098525 238.381806 
L 369.098525 235.211237 
L 369.098525 232.040669 
L 369.098525 228.8701 
L 369.098525 225.699532 
L 369.098525 222.528963 
L 369.098525 219.358395 
L 369.098525 216.187826 
L 369.098525 213.017258 
L 369.098525 209.846689 
L 369.098525 206.67612 
L 369.098525 203.505552 
L 369.098525 200.334983 
L 369.098525 197.164415 
L 369.098525 193.993846 
L 369.098525 190.823278 
L 369.098525 187.652709 
L 369.098525 184.48214 
L 369.098525 181.311572 
L 369.098525 178.141003 
L 369.098525 174.970435 
L 369.098525 171.799866 
L 369.098525 168.629298 
L 369.098525 165.458729 
L 369.098525 162.288161 
L 369.098525 159.117592 
L 369.098525 155.947023 
L 369.098525 152.776455 
L 369.098525 149.605886 
L 369.098525 146.435318 
L 369.098525 143.264749 
L 369.098525 140.094181 
L 369.098525 136.923612 
L 369.098525 133.753043 
L 369.098525 130.582475 
L 369.098525 127.411906 
L 369.098525 124.241338 
L 369.098525 121.070769 
L 369.098525 117.900201 
L 369.098525 114.729632 
L 369.098525 111.559064 
L 369.098525 108.388495 
L 369.098525 105.217926 
L 369.098525 102.047358 
L 369.098525 98.876789 
L 369.098525 95.706221 
L 369.098525 92.535652 
L 369.098525 89.365084 
L 369.098525 86.194515 
L 369.098525 83.023946 
L 369.098525 79.853378 
L 369.098525 76.682809 
L 369.098525 73.512241 
L 369.098525 70.341672 
L 369.098525 67.171104 
L 369.098525 64.000535 
L 369.098525 60.829967 
L 369.098525 57.659398 
L 369.098525 54.488829 
L 369.098525 51.318261 
L 369.098525 48.147692 
L 369.098525 44.977124 
L 369.098525 41.806555 
L 369.098525 38.635987 
L 369.098525 35.465418 
L 369.098525 32.294849 
L 369.098525 29.124281 
L 369.098525 25.953712 
" clip-path="url(#p87e027658e)" style="fill: none; stroke-dasharray: 11.1,4.8; stroke-dashoffset: 0; stroke: #000000; stroke-opacity: 0.5; stroke-width: 3"/>
   </g>
   <g id="line2d_16">
    <path d="M 234.457272 339.84 
L 234.457272 336.669431 
L 234.457272 333.498863 
L 234.457272 330.328294 
L 234.457272 327.157726 
L 234.457272 323.987157 
L 234.457272 320.816589 
L 234.457272 317.64602 
L 234.457272 314.475452 
L 234.457272 311.304883 
L 234.457272 308.134314 
L 234.457272 304.963746 
L 234.457272 301.793177 
L 234.457272 298.622609 
L 234.457272 295.45204 
L 234.457272 292.281472 
L 234.457272 289.110903 
L 234.457272 285.940334 
L 234.457272 282.769766 
L 234.457272 279.599197 
L 234.457272 276.428629 
L 234.457272 273.25806 
L 234.457272 270.087492 
L 234.457272 266.916923 
L 234.457272 263.746355 
L 234.457272 260.575786 
L 234.457272 257.405217 
L 234.457272 254.234649 
L 234.457272 251.06408 
L 234.457272 247.893512 
L 234.457272 244.722943 
L 234.457272 241.552375 
L 234.457272 238.381806 
L 234.457272 235.211237 
L 234.457272 232.040669 
L 234.457272 228.8701 
L 234.457272 225.699532 
L 234.457272 222.528963 
L 234.457272 219.358395 
L 234.457272 216.187826 
L 234.457272 213.017258 
L 234.457272 209.846689 
L 234.457272 206.67612 
L 234.457272 203.505552 
L 234.457272 200.334983 
L 234.457272 197.164415 
L 234.457272 193.993846 
L 234.457272 190.823278 
L 234.457272 187.652709 
L 234.457272 184.48214 
L 234.457272 181.311572 
L 234.457272 178.141003 
L 234.457272 174.970435 
L 234.457272 171.799866 
L 234.457272 168.629298 
L 234.457272 165.458729 
L 234.457272 162.288161 
L 234.457272 159.117592 
L 234.457272 155.947023 
L 234.457272 152.776455 
L 234.457272 149.605886 
L 234.457272 146.435318 
L 234.457272 143.264749 
L 234.457272 140.094181 
L 234.457272 136.923612 
L 234.457272 133.753043 
L 234.457272 130.582475 
L 234.457272 127.411906 
L 234.457272 124.241338 
L 234.457272 121.070769 
L 234.457272 117.900201 
L 234.457272 114.729632 
L 234.457272 111.559064 
L 234.457272 108.388495 
L 234.457272 105.217926 
L 234.457272 102.047358 
L 234.457272 98.876789 
L 234.457272 95.706221 
L 234.457272 92.535652 
L 234.457272 89.365084 
L 234.457272 86.194515 
L 234.457272 83.023946 
L 234.457272 79.853378 
L 234.457272 76.682809 
L 234.457272 73.512241 
L 234.457272 70.341672 
L 234.457272 67.171104 
L 234.457272 64.000535 
L 234.457272 60.829967 
L 234.457272 57.659398 
L 234.457272 54.488829 
L 234.457272 51.318261 
L 234.457272 48.147692 
L 234.457272 44.977124 
L 234.457272 41.806555 
L 234.457272 38.635987 
L 234.457272 35.465418 
L 234.457272 32.294849 
L 234.457272 29.124281 
L 234.457272 25.953712 
" clip-path="url(#p87e027658e)" style="fill: none; stroke-dasharray: 11.1,4.8; stroke-dashoffset: 0; stroke: #008000; stroke-width: 3"/>
   </g>
   <g id="patch_48">
    <path d="M 79.040625 339.84 
L 79.040625 7.2 
" style="fill: none; stroke: #000000; stroke-width: 4; stroke-linejoin: miter; stroke-linecap: square"/>
   </g>
   <g id="patch_49">
    <path d="M 637.040625 339.84 
L 637.040625 7.2 
" style="fill: none"/>
   </g>
   <g id="patch_50">
    <path d="M 79.040625 339.84 
L 637.040625 339.84 
" style="fill: none; stroke: #000000; stroke-width: 4; stroke-linejoin: miter; stroke-linecap: square"/>
   </g>
   <g id="patch_51">
    <path d="M 79.040625 7.2 
L 637.040625 7.2 
" style="fill: none"/>
   </g>
  </g>
 </g>
 <defs>
  <clipPath id="p87e027658e">
   <rect x="79.040625" y="7.2" width="558" height="332.64"/>
  </clipPath>
 </defs>
</svg>
