<?xml version="1.0" encoding="utf-8" standalone="no"?>
<!DOCTYPE svg PUBLIC "-//W3C//DTD SVG 1.1//EN"
  "http://www.w3.org/Graphics/SVG/1.1/DTD/svg11.dtd">
<svg xmlns:xlink="http://www.w3.org/1999/xlink" width="856.495312pt" height="280.562813pt" viewBox="0 0 856.495312 280.562813" xmlns="http://www.w3.org/2000/svg" version="1.1">
 <metadata>
  <rdf:RDF xmlns:dc="http://purl.org/dc/elements/1.1/" xmlns:cc="http://creativecommons.org/ns#" xmlns:rdf="http://www.w3.org/1999/02/22-rdf-syntax-ns#">
   <cc:Work>
    <dc:type rdf:resource="http://purl.org/dc/dcmitype/StillImage"/>
    <dc:date>2023-05-17T13:20:06.624715</dc:date>
    <dc:format>image/svg+xml</dc:format>
    <dc:creator>
     <cc:Agent>
      <dc:title>Matplotlib v3.7.1, https://matplotlib.org/</dc:title>
     </cc:Agent>
    </dc:creator>
   </cc:Work>
  </rdf:RDF>
 </metadata>
 <defs>
  <style type="text/css">*{stroke-linejoin: round; stroke-linecap: butt}</style>
 </defs>
 <g id="figure_1">
  <g id="patch_1">
   <path d="M 0 280.562813 
L 856.495312 280.562813 
L 856.495312 0 
L 0 0 
z
" style="fill: #ffffff"/>
  </g>
  <g id="axes_1">
   <g id="patch_2">
    <path d="M 67.845313 238.468437 
L 849.295313 238.468437 
L 849.295313 14.798437 
L 67.845313 14.798437 
z
" style="fill: #ffffff"/>
   </g>
   <g id="patch_3">
    <path d="M 87.381563 238.468437 
L 97.149687 238.468437 
L 97.149687 34.570371 
L 87.381563 34.570371 
z
" clip-path="url(#pcb6f737cd6)" style="fill: #d8832b"/>
   </g>
   <g id="patch_4">
    <path d="M 99.591719 238.468437 
L 109.359844 238.468437 
L 109.359844 65.464018 
L 99.591719 65.464018 
z
" clip-path="url(#pcb6f737cd6)" style="fill: #d8832b"/>
   </g>
   <g id="patch_5">
    <path d="M 111.801875 238.468437 
L 121.57 238.468437 
L 121.57 114.893852 
L 111.801875 114.893852 
z
" clip-path="url(#pcb6f737cd6)" style="fill: #d8832b"/>
   </g>
   <g id="patch_6">
    <path d="M 124.012031 238.468437 
L 133.780156 238.468437 
L 133.780156 127.25131 
L 124.012031 127.25131 
z
" clip-path="url(#pcb6f737cd6)" style="fill: #d8832b"/>
   </g>
   <g id="patch_7">
    <path d="M 136.222188 238.468437 
L 145.990313 238.468437 
L 145.990313 139.608769 
L 136.222188 139.608769 
z
" clip-path="url(#pcb6f737cd6)" style="fill: #d8832b"/>
   </g>
   <g id="patch_8">
    <path d="M 148.432344 238.468437 
L 158.200469 238.468437 
L 158.200469 139.608769 
L 148.432344 139.608769 
z
" clip-path="url(#pcb6f737cd6)" style="fill: #d8832b"/>
   </g>
   <g id="patch_9">
    <path d="M 160.6425 238.468437 
L 170.410625 238.468437 
L 170.410625 139.608769 
L 160.6425 139.608769 
z
" clip-path="url(#pcb6f737cd6)" style="fill: #d8832b"/>
   </g>
   <g id="patch_10">
    <path d="M 172.852656 238.468437 
L 182.620781 238.468437 
L 182.620781 145.787498 
L 172.852656 145.787498 
z
" clip-path="url(#pcb6f737cd6)" style="fill: #d8832b"/>
   </g>
   <g id="patch_11">
    <path d="M 185.062813 238.468437 
L 194.830938 238.468437 
L 194.830938 151.966228 
L 185.062813 151.966228 
z
" clip-path="url(#pcb6f737cd6)" style="fill: #d8832b"/>
   </g>
   <g id="patch_12">
    <path d="M 197.272969 238.468437 
L 207.041094 238.468437 
L 207.041094 158.144957 
L 197.272969 158.144957 
z
" clip-path="url(#pcb6f737cd6)" style="fill: #d8832b"/>
   </g>
   <g id="patch_13">
    <path d="M 209.483125 238.468437 
L 219.25125 238.468437 
L 219.25125 158.144957 
L 209.483125 158.144957 
z
" clip-path="url(#pcb6f737cd6)" style="fill: #d8832b"/>
   </g>
   <g id="patch_14">
    <path d="M 221.693281 238.468437 
L 231.461406 238.468437 
L 231.461406 158.144957 
L 221.693281 158.144957 
z
" clip-path="url(#pcb6f737cd6)" style="fill: #d8832b"/>
   </g>
   <g id="patch_15">
    <path d="M 233.903437 238.468437 
L 243.671562 238.468437 
L 243.671562 164.323686 
L 233.903437 164.323686 
z
" clip-path="url(#pcb6f737cd6)" style="fill: #d8832b"/>
   </g>
   <g id="patch_16">
    <path d="M 246.113594 238.468437 
L 255.881719 238.468437 
L 255.881719 170.502415 
L 246.113594 170.502415 
z
" clip-path="url(#pcb6f737cd6)" style="fill: #d8832b"/>
   </g>
   <g id="patch_17">
    <path d="M 258.32375 238.468437 
L 268.091875 238.468437 
L 268.091875 170.502415 
L 258.32375 170.502415 
z
" clip-path="url(#pcb6f737cd6)" style="fill: #d8832b"/>
   </g>
   <g id="patch_18">
    <path d="M 270.533906 238.468437 
L 280.302031 238.468437 
L 280.302031 176.681145 
L 270.533906 176.681145 
z
" clip-path="url(#pcb6f737cd6)" style="fill: #d8832b"/>
   </g>
   <g id="patch_19">
    <path d="M 282.744063 238.468437 
L 292.512188 238.468437 
L 292.512188 182.859874 
L 282.744063 182.859874 
z
" clip-path="url(#pcb6f737cd6)" style="fill: #d8832b"/>
   </g>
   <g id="patch_20">
    <path d="M 294.954219 238.468437 
L 304.722344 238.468437 
L 304.722344 195.217333 
L 294.954219 195.217333 
z
" clip-path="url(#pcb6f737cd6)" style="fill: #d8832b"/>
   </g>
   <g id="patch_21">
    <path d="M 307.164375 238.468437 
L 316.9325 238.468437 
L 316.9325 195.217333 
L 307.164375 195.217333 
z
" clip-path="url(#pcb6f737cd6)" style="fill: #d8832b"/>
   </g>
   <g id="patch_22">
    <path d="M 319.374531 238.468437 
L 329.142656 238.468437 
L 329.142656 195.217333 
L 319.374531 195.217333 
z
" clip-path="url(#pcb6f737cd6)" style="fill: #d8832b"/>
   </g>
   <g id="patch_23">
    <path d="M 331.584688 238.468437 
L 341.352813 238.468437 
L 341.352813 201.396062 
L 331.584688 201.396062 
z
" clip-path="url(#pcb6f737cd6)" style="fill: #d8832b"/>
   </g>
   <g id="patch_24">
    <path d="M 343.794844 238.468437 
L 353.562969 238.468437 
L 353.562969 201.396062 
L 343.794844 201.396062 
z
" clip-path="url(#pcb6f737cd6)" style="fill: #d8832b"/>
   </g>
   <g id="patch_25">
    <path d="M 356.005 238.468437 
L 365.773125 238.468437 
L 365.773125 207.574791 
L 356.005 207.574791 
z
" clip-path="url(#pcb6f737cd6)" style="fill: #d8832b"/>
   </g>
   <g id="patch_26">
    <path d="M 368.215156 238.468437 
L 377.983281 238.468437 
L 377.983281 207.574791 
L 368.215156 207.574791 
z
" clip-path="url(#pcb6f737cd6)" style="fill: #d8832b"/>
   </g>
   <g id="patch_27">
    <path d="M 380.425313 238.468437 
L 390.193438 238.468437 
L 390.193438 207.574791 
L 380.425313 207.574791 
z
" clip-path="url(#pcb6f737cd6)" style="fill: #d8832b"/>
   </g>
   <g id="patch_28">
    <path d="M 392.635469 238.468437 
L 402.403594 238.468437 
L 402.403594 207.574791 
L 392.635469 207.574791 
z
" clip-path="url(#pcb6f737cd6)" style="fill: #d8832b"/>
   </g>
   <g id="patch_29">
    <path d="M 404.845625 238.468437 
L 414.61375 238.468437 
L 414.61375 213.75352 
L 404.845625 213.75352 
z
" clip-path="url(#pcb6f737cd6)" style="fill: #d8832b"/>
   </g>
   <g id="patch_30">
    <path d="M 417.055781 238.468437 
L 426.823906 238.468437 
L 426.823906 213.75352 
L 417.055781 213.75352 
z
" clip-path="url(#pcb6f737cd6)" style="fill: #d8832b"/>
   </g>
   <g id="patch_31">
    <path d="M 429.265938 238.468437 
L 439.034063 238.468437 
L 439.034063 219.93225 
L 429.265938 219.93225 
z
" clip-path="url(#pcb6f737cd6)" style="fill: #d8832b"/>
   </g>
   <g id="patch_32">
    <path d="M 441.476094 238.468437 
L 451.244219 238.468437 
L 451.244219 219.93225 
L 441.476094 219.93225 
z
" clip-path="url(#pcb6f737cd6)" style="fill: #d8832b"/>
   </g>
   <g id="patch_33">
    <path d="M 453.68625 238.468437 
L 463.454375 238.468437 
L 463.454375 219.93225 
L 453.68625 219.93225 
z
" clip-path="url(#pcb6f737cd6)" style="fill: #d8832b"/>
   </g>
   <g id="patch_34">
    <path d="M 465.896406 238.468437 
L 475.664531 238.468437 
L 475.664531 219.93225 
L 465.896406 219.93225 
z
" clip-path="url(#pcb6f737cd6)" style="fill: #d8832b"/>
   </g>
   <g id="patch_35">
    <path d="M 478.106563 238.468437 
L 487.874687 238.468437 
L 487.874687 226.110979 
L 478.106563 226.110979 
z
" clip-path="url(#pcb6f737cd6)" style="fill: #d8832b"/>
   </g>
   <g id="patch_36">
    <path d="M 490.316719 238.468437 
L 500.084844 238.468437 
L 500.084844 226.110979 
L 490.316719 226.110979 
z
" clip-path="url(#pcb6f737cd6)" style="fill: #d8832b"/>
   </g>
   <g id="patch_37">
    <path d="M 502.526875 238.468437 
L 512.295 238.468437 
L 512.295 226.110979 
L 502.526875 226.110979 
z
" clip-path="url(#pcb6f737cd6)" style="fill: #d8832b"/>
   </g>
   <g id="patch_38">
    <path d="M 514.737031 238.468437 
L 524.505156 238.468437 
L 524.505156 226.110979 
L 514.737031 226.110979 
z
" clip-path="url(#pcb6f737cd6)" style="fill: #d8832b"/>
   </g>
   <g id="patch_39">
    <path d="M 526.947188 238.468437 
L 536.715312 238.468437 
L 536.715312 226.110979 
L 526.947188 226.110979 
z
" clip-path="url(#pcb6f737cd6)" style="fill: #d8832b"/>
   </g>
   <g id="patch_40">
    <path d="M 539.157344 238.468437 
L 548.925469 238.468437 
L 548.925469 226.110979 
L 539.157344 226.110979 
z
" clip-path="url(#pcb6f737cd6)" style="fill: #d8832b"/>
   </g>
   <g id="patch_41">
    <path d="M 551.3675 238.468437 
L 561.135625 238.468437 
L 561.135625 232.289708 
L 551.3675 232.289708 
z
" clip-path="url(#pcb6f737cd6)" style="fill: #d8832b"/>
   </g>
   <g id="patch_42">
    <path d="M 563.577656 238.468437 
L 573.345781 238.468437 
L 573.345781 232.289708 
L 563.577656 232.289708 
z
" clip-path="url(#pcb6f737cd6)" style="fill: #d8832b"/>
   </g>
   <g id="patch_43">
    <path d="M 575.787812 238.468437 
L 585.555937 238.468437 
L 585.555937 232.289708 
L 575.787812 232.289708 
z
" clip-path="url(#pcb6f737cd6)" style="fill: #d8832b"/>
   </g>
   <g id="patch_44">
    <path d="M 587.997969 238.468437 
L 597.766094 238.468437 
L 597.766094 232.289708 
L 587.997969 232.289708 
z
" clip-path="url(#pcb6f737cd6)" style="fill: #d8832b"/>
   </g>
   <g id="patch_45">
    <path d="M 600.208125 238.468437 
L 609.97625 238.468437 
L 609.97625 232.289708 
L 600.208125 232.289708 
z
" clip-path="url(#pcb6f737cd6)" style="fill: #d8832b"/>
   </g>
   <g id="patch_46">
    <path d="M 612.418281 238.468437 
L 622.186406 238.468437 
L 622.186406 232.289708 
L 612.418281 232.289708 
z
" clip-path="url(#pcb6f737cd6)" style="fill: #d8832b"/>
   </g>
   <g id="patch_47">
    <path d="M 624.628438 238.468437 
L 634.396562 238.468437 
L 634.396562 232.289708 
L 624.628438 232.289708 
z
" clip-path="url(#pcb6f737cd6)" style="fill: #d8832b"/>
   </g>
   <g id="patch_48">
    <path d="M 636.838594 238.468437 
L 646.606719 238.468437 
L 646.606719 232.289708 
L 636.838594 232.289708 
z
" clip-path="url(#pcb6f737cd6)" style="fill: #d8832b"/>
   </g>
   <g id="patch_49">
    <path d="M 649.04875 238.468437 
L 658.816875 238.468437 
L 658.816875 232.289708 
L 649.04875 232.289708 
z
" clip-path="url(#pcb6f737cd6)" style="fill: #d8832b"/>
   </g>
   <g id="patch_50">
    <path d="M 661.258906 238.468437 
L 671.027031 238.468437 
L 671.027031 238.468437 
L 661.258906 238.468437 
z
" clip-path="url(#pcb6f737cd6)" style="fill: #d8832b"/>
   </g>
   <g id="patch_51">
    <path d="M 673.469063 238.468437 
L 683.237188 238.468437 
L 683.237188 238.468437 
L 673.469063 238.468437 
z
" clip-path="url(#pcb6f737cd6)" style="fill: #d8832b"/>
   </g>
   <g id="patch_52">
    <path d="M 685.679219 238.468437 
L 695.447344 238.468437 
L 695.447344 238.468437 
L 685.679219 238.468437 
z
" clip-path="url(#pcb6f737cd6)" style="fill: #d8832b"/>
   </g>
   <g id="patch_53">
    <path d="M 697.889375 238.468437 
L 707.6575 238.468437 
L 707.6575 238.468437 
L 697.889375 238.468437 
z
" clip-path="url(#pcb6f737cd6)" style="fill: #d8832b"/>
   </g>
   <g id="patch_54">
    <path d="M 710.099531 238.468437 
L 719.867656 238.468437 
L 719.867656 238.468437 
L 710.099531 238.468437 
z
" clip-path="url(#pcb6f737cd6)" style="fill: #d8832b"/>
   </g>
   <g id="patch_55">
    <path d="M 722.309688 238.468437 
L 732.077813 238.468437 
L 732.077813 238.468437 
L 722.309688 238.468437 
z
" clip-path="url(#pcb6f737cd6)" style="fill: #d8832b"/>
   </g>
   <g id="patch_56">
    <path d="M 734.519844 238.468437 
L 744.287969 238.468437 
L 744.287969 238.468437 
L 734.519844 238.468437 
z
" clip-path="url(#pcb6f737cd6)" style="fill: #d8832b"/>
   </g>
   <g id="patch_57">
    <path d="M 746.73 238.468437 
L 756.498125 238.468437 
L 756.498125 238.468437 
L 746.73 238.468437 
z
" clip-path="url(#pcb6f737cd6)" style="fill: #d8832b"/>
   </g>
   <g id="patch_58">
    <path d="M 758.940156 238.468437 
L 768.708281 238.468437 
L 768.708281 238.468437 
L 758.940156 238.468437 
z
" clip-path="url(#pcb6f737cd6)" style="fill: #d8832b"/>
   </g>
   <g id="patch_59">
    <path d="M 771.150313 238.468437 
L 780.918437 238.468437 
L 780.918437 238.468437 
L 771.150313 238.468437 
z
" clip-path="url(#pcb6f737cd6)" style="fill: #d8832b"/>
   </g>
   <g id="patch_60">
    <path d="M 783.360469 238.468437 
L 793.128594 238.468437 
L 793.128594 238.468437 
L 783.360469 238.468437 
z
" clip-path="url(#pcb6f737cd6)" style="fill: #d8832b"/>
   </g>
   <g id="patch_61">
    <path d="M 795.570625 238.468437 
L 805.33875 238.468437 
L 805.33875 238.468437 
L 795.570625 238.468437 
z
" clip-path="url(#pcb6f737cd6)" style="fill: #d8832b"/>
   </g>
   <g id="patch_62">
    <path d="M 807.780781 238.468437 
L 817.548906 238.468437 
L 817.548906 238.468437 
L 807.780781 238.468437 
z
" clip-path="url(#pcb6f737cd6)" style="fill: #d8832b"/>
   </g>
   <g id="patch_63">
    <path d="M 819.990938 238.468437 
L 829.759063 238.468437 
L 829.759063 238.468437 
L 819.990938 238.468437 
z
" clip-path="url(#pcb6f737cd6)" style="fill: #d8832b"/>
   </g>
   <g id="patch_64">
    <path d="M 832.201094 238.468437 
L 841.969219 238.468437 
L 841.969219 238.468437 
L 832.201094 238.468437 
z
" clip-path="url(#pcb6f737cd6)" style="fill: #d8832b"/>
   </g>
   <g id="matplotlib.axis_1">
    <g id="xtick_1">
     <g id="line2d_1">
      <defs>
       <path id="m9a8c8c0d63" d="M 0 0 
L 0 3.5 
" style="stroke: #000000; stroke-width: 0.8"/>
      </defs>
      <g>
       <use xlink:href="#m9a8c8c0d63" x="92.265625" y="238.468437" style="stroke: #000000; stroke-width: 0.8"/>
      </g>
     </g>
     <g id="text_1">
      <!-- GGU -->
      <g transform="translate(95.576875 272.847188) rotate(-90) scale(0.12 -0.12)">
       <defs>
        <path id="DejaVuSans-47" d="M 3809 666 
L 3809 1919 
L 2778 1919 
L 2778 2438 
L 4434 2438 
L 4434 434 
Q 4069 175 3628 42 
Q 3188 -91 2688 -91 
Q 1594 -91 976 548 
Q 359 1188 359 2328 
Q 359 3472 976 4111 
Q 1594 4750 2688 4750 
Q 3144 4750 3555 4637 
Q 3966 4525 4313 4306 
L 4313 3634 
Q 3963 3931 3569 4081 
Q 3175 4231 2741 4231 
Q 1884 4231 1454 3753 
Q 1025 3275 1025 2328 
Q 1025 1384 1454 906 
Q 1884 428 2741 428 
Q 3075 428 3337 486 
Q 3600 544 3809 666 
z
" transform="scale(0.015625)"/>
        <path id="DejaVuSans-55" d="M 556 4666 
L 1191 4666 
L 1191 1831 
Q 1191 1081 1462 751 
Q 1734 422 2344 422 
Q 2950 422 3222 751 
Q 3494 1081 3494 1831 
L 3494 4666 
L 4128 4666 
L 4128 1753 
Q 4128 841 3676 375 
Q 3225 -91 2344 -91 
Q 1459 -91 1007 375 
Q 556 841 556 1753 
L 556 4666 
z
" transform="scale(0.015625)"/>
       </defs>
       <use xlink:href="#DejaVuSans-47"/>
       <use xlink:href="#DejaVuSans-47" x="77.490234"/>
       <use xlink:href="#DejaVuSans-55" x="154.980469"/>
      </g>
     </g>
    </g>
    <g id="xtick_2">
     <g id="line2d_2">
      <g>
       <use xlink:href="#m9a8c8c0d63" x="104.475781" y="238.468437" style="stroke: #000000; stroke-width: 0.8"/>
      </g>
     </g>
     <g id="text_2">
      <!-- AAC -->
      <g transform="translate(107.787031 270.385312) rotate(-90) scale(0.12 -0.12)">
       <defs>
        <path id="DejaVuSans-41" d="M 2188 4044 
L 1331 1722 
L 3047 1722 
L 2188 4044 
z
M 1831 4666 
L 2547 4666 
L 4325 0 
L 3669 0 
L 3244 1197 
L 1141 1197 
L 716 0 
L 50 0 
L 1831 4666 
z
" transform="scale(0.015625)"/>
        <path id="DejaVuSans-43" d="M 4122 4306 
L 4122 3641 
Q 3803 3938 3442 4084 
Q 3081 4231 2675 4231 
Q 1875 4231 1450 3742 
Q 1025 3253 1025 2328 
Q 1025 1406 1450 917 
Q 1875 428 2675 428 
Q 3081 428 3442 575 
Q 3803 722 4122 1019 
L 4122 359 
Q 3791 134 3420 21 
Q 3050 -91 2638 -91 
Q 1578 -91 968 557 
Q 359 1206 359 2328 
Q 359 3453 968 4101 
Q 1578 4750 2638 4750 
Q 3056 4750 3426 4639 
Q 3797 4528 4122 4306 
z
" transform="scale(0.015625)"/>
       </defs>
       <use xlink:href="#DejaVuSans-41"/>
       <use xlink:href="#DejaVuSans-41" x="71.158203"/>
       <use xlink:href="#DejaVuSans-43" x="137.816406"/>
      </g>
     </g>
    </g>
    <g id="xtick_3">
     <g id="line2d_3">
      <g>
       <use xlink:href="#m9a8c8c0d63" x="116.685937" y="238.468437" style="stroke: #000000; stroke-width: 0.8"/>
      </g>
     </g>
     <g id="text_3">
      <!-- UAC -->
      <g transform="translate(119.997187 270.629063) rotate(-90) scale(0.12 -0.12)">
       <use xlink:href="#DejaVuSans-55"/>
       <use xlink:href="#DejaVuSans-41" x="73.193359"/>
       <use xlink:href="#DejaVuSans-43" x="139.851562"/>
      </g>
     </g>
    </g>
    <g id="xtick_4">
     <g id="line2d_4">
      <g>
       <use xlink:href="#m9a8c8c0d63" x="128.896094" y="238.468437" style="stroke: #000000; stroke-width: 0.8"/>
      </g>
     </g>
     <g id="text_4">
      <!-- CUG -->
      <g transform="translate(132.207344 271.928438) rotate(-90) scale(0.12 -0.12)">
       <use xlink:href="#DejaVuSans-43"/>
       <use xlink:href="#DejaVuSans-55" x="69.824219"/>
       <use xlink:href="#DejaVuSans-47" x="143.017578"/>
      </g>
     </g>
    </g>
    <g id="xtick_5">
     <g id="line2d_5">
      <g>
       <use xlink:href="#m9a8c8c0d63" x="141.10625" y="238.468437" style="stroke: #000000; stroke-width: 0.8"/>
      </g>
     </g>
     <g id="text_5">
      <!-- AAA -->
      <g transform="translate(144.4175 270.754687) rotate(-90) scale(0.12 -0.12)">
       <use xlink:href="#DejaVuSans-41"/>
       <use xlink:href="#DejaVuSans-41" x="71.158203"/>
       <use xlink:href="#DejaVuSans-41" x="142.316406"/>
      </g>
     </g>
    </g>
    <g id="xtick_6">
     <g id="line2d_6">
      <g>
       <use xlink:href="#m9a8c8c0d63" x="153.316406" y="238.468437" style="stroke: #000000; stroke-width: 0.8"/>
      </g>
     </g>
     <g id="text_6">
      <!-- GCU -->
      <g transform="translate(156.627656 271.928438) rotate(-90) scale(0.12 -0.12)">
       <use xlink:href="#DejaVuSans-47"/>
       <use xlink:href="#DejaVuSans-43" x="77.490234"/>
       <use xlink:href="#DejaVuSans-55" x="147.314453"/>
      </g>
     </g>
    </g>
    <g id="xtick_7">
     <g id="line2d_7">
      <g>
       <use xlink:href="#m9a8c8c0d63" x="165.526563" y="238.468437" style="stroke: #000000; stroke-width: 0.8"/>
      </g>
     </g>
     <g id="text_7">
      <!-- GUU -->
      <g transform="translate(168.837813 272.331563) rotate(-90) scale(0.12 -0.12)">
       <use xlink:href="#DejaVuSans-47"/>
       <use xlink:href="#DejaVuSans-55" x="77.490234"/>
       <use xlink:href="#DejaVuSans-55" x="150.683594"/>
      </g>
     </g>
    </g>
    <g id="xtick_8">
     <g id="line2d_8">
      <g>
       <use xlink:href="#m9a8c8c0d63" x="177.736719" y="238.468437" style="stroke: #000000; stroke-width: 0.8"/>
      </g>
     </g>
     <g id="text_8">
      <!-- GGC -->
      <g transform="translate(181.047969 272.444063) rotate(-90) scale(0.12 -0.12)">
       <use xlink:href="#DejaVuSans-47"/>
       <use xlink:href="#DejaVuSans-47" x="77.490234"/>
       <use xlink:href="#DejaVuSans-43" x="154.980469"/>
      </g>
     </g>
    </g>
    <g id="xtick_9">
     <g id="line2d_9">
      <g>
       <use xlink:href="#m9a8c8c0d63" x="189.946875" y="238.468437" style="stroke: #000000; stroke-width: 0.8"/>
      </g>
     </g>
     <g id="text_9">
      <!-- GAC -->
      <g transform="translate(193.258125 271.144688) rotate(-90) scale(0.12 -0.12)">
       <use xlink:href="#DejaVuSans-47"/>
       <use xlink:href="#DejaVuSans-41" x="77.490234"/>
       <use xlink:href="#DejaVuSans-43" x="144.148438"/>
      </g>
     </g>
    </g>
    <g id="xtick_10">
     <g id="line2d_10">
      <g>
       <use xlink:href="#m9a8c8c0d63" x="202.157031" y="238.468437" style="stroke: #000000; stroke-width: 0.8"/>
      </g>
     </g>
     <g id="text_10">
      <!-- AUC -->
      <g transform="translate(205.468281 270.839063) rotate(-90) scale(0.12 -0.12)">
       <use xlink:href="#DejaVuSans-41"/>
       <use xlink:href="#DejaVuSans-55" x="68.408203"/>
       <use xlink:href="#DejaVuSans-43" x="141.601562"/>
      </g>
     </g>
    </g>
    <g id="xtick_11">
     <g id="line2d_11">
      <g>
       <use xlink:href="#m9a8c8c0d63" x="214.367188" y="238.468437" style="stroke: #000000; stroke-width: 0.8"/>
      </g>
     </g>
     <g id="text_11">
      <!-- GAA -->
      <g transform="translate(217.678438 271.514063) rotate(-90) scale(0.12 -0.12)">
       <use xlink:href="#DejaVuSans-47"/>
       <use xlink:href="#DejaVuSans-41" x="77.490234"/>
       <use xlink:href="#DejaVuSans-41" x="148.648438"/>
      </g>
     </g>
    </g>
    <g id="xtick_12">
     <g id="line2d_12">
      <g>
       <use xlink:href="#m9a8c8c0d63" x="226.577344" y="238.468437" style="stroke: #000000; stroke-width: 0.8"/>
      </g>
     </g>
     <g id="text_12">
      <!-- GAU -->
      <g transform="translate(229.888594 271.757812) rotate(-90) scale(0.12 -0.12)">
       <use xlink:href="#DejaVuSans-47"/>
       <use xlink:href="#DejaVuSans-41" x="77.490234"/>
       <use xlink:href="#DejaVuSans-55" x="145.898438"/>
      </g>
     </g>
    </g>
    <g id="xtick_13">
     <g id="line2d_13">
      <g>
       <use xlink:href="#m9a8c8c0d63" x="238.7875" y="238.468437" style="stroke: #000000; stroke-width: 0.8"/>
      </g>
     </g>
     <g id="text_13">
      <!-- UUC -->
      <g transform="translate(242.09875 271.412813) rotate(-90) scale(0.12 -0.12)">
       <use xlink:href="#DejaVuSans-55"/>
       <use xlink:href="#DejaVuSans-55" x="73.193359"/>
       <use xlink:href="#DejaVuSans-43" x="146.386719"/>
      </g>
     </g>
    </g>
    <g id="xtick_14">
     <g id="line2d_14">
      <g>
       <use xlink:href="#m9a8c8c0d63" x="250.997656" y="238.468437" style="stroke: #000000; stroke-width: 0.8"/>
      </g>
     </g>
     <g id="text_14">
      <!-- GCA -->
      <g transform="translate(254.308906 271.354688) rotate(-90) scale(0.12 -0.12)">
       <use xlink:href="#DejaVuSans-47"/>
       <use xlink:href="#DejaVuSans-43" x="77.490234"/>
       <use xlink:href="#DejaVuSans-41" x="147.314453"/>
      </g>
     </g>
    </g>
    <g id="xtick_15">
     <g id="line2d_15">
      <g>
       <use xlink:href="#m9a8c8c0d63" x="263.207813" y="238.468437" style="stroke: #000000; stroke-width: 0.8"/>
      </g>
     </g>
     <g id="text_15">
      <!-- ACC -->
      <g transform="translate(266.519063 270.225937) rotate(-90) scale(0.12 -0.12)">
       <use xlink:href="#DejaVuSans-41"/>
       <use xlink:href="#DejaVuSans-43" x="66.658203"/>
       <use xlink:href="#DejaVuSans-43" x="136.482422"/>
      </g>
     </g>
    </g>
    <g id="xtick_16">
     <g id="line2d_16">
      <g>
       <use xlink:href="#m9a8c8c0d63" x="275.417969" y="238.468437" style="stroke: #000000; stroke-width: 0.8"/>
      </g>
     </g>
     <g id="text_16">
      <!-- CGU -->
      <g transform="translate(278.729219 271.928438) rotate(-90) scale(0.12 -0.12)">
       <use xlink:href="#DejaVuSans-43"/>
       <use xlink:href="#DejaVuSans-47" x="69.824219"/>
       <use xlink:href="#DejaVuSans-55" x="147.314453"/>
      </g>
     </g>
    </g>
    <g id="xtick_17">
     <g id="line2d_17">
      <g>
       <use xlink:href="#m9a8c8c0d63" x="287.628125" y="238.468437" style="stroke: #000000; stroke-width: 0.8"/>
      </g>
     </g>
     <g id="text_17">
      <!-- UAU -->
      <g transform="translate(290.939375 271.242188) rotate(-90) scale(0.12 -0.12)">
       <use xlink:href="#DejaVuSans-55"/>
       <use xlink:href="#DejaVuSans-41" x="73.193359"/>
       <use xlink:href="#DejaVuSans-55" x="141.601562"/>
      </g>
     </g>
    </g>
    <g id="xtick_18">
     <g id="line2d_18">
      <g>
       <use xlink:href="#m9a8c8c0d63" x="299.838281" y="238.468437" style="stroke: #000000; stroke-width: 0.8"/>
      </g>
     </g>
     <g id="text_18">
      <!-- ACU -->
      <g transform="translate(303.149531 270.629063) rotate(-90) scale(0.12 -0.12)">
       <use xlink:href="#DejaVuSans-41"/>
       <use xlink:href="#DejaVuSans-43" x="66.658203"/>
       <use xlink:href="#DejaVuSans-55" x="136.482422"/>
      </g>
     </g>
    </g>
    <g id="xtick_19">
     <g id="line2d_19">
      <g>
       <use xlink:href="#m9a8c8c0d63" x="312.048437" y="238.468437" style="stroke: #000000; stroke-width: 0.8"/>
      </g>
     </g>
     <g id="text_19">
      <!-- CAG -->
      <g transform="translate(315.359687 271.144688) rotate(-90) scale(0.12 -0.12)">
       <use xlink:href="#DejaVuSans-43"/>
       <use xlink:href="#DejaVuSans-41" x="69.824219"/>
       <use xlink:href="#DejaVuSans-47" x="136.482422"/>
      </g>
     </g>
    </g>
    <g id="xtick_20">
     <g id="line2d_20">
      <g>
       <use xlink:href="#m9a8c8c0d63" x="324.258594" y="238.468437" style="stroke: #000000; stroke-width: 0.8"/>
      </g>
     </g>
     <g id="text_20">
      <!-- UUU -->
      <g transform="translate(327.569844 271.815938) rotate(-90) scale(0.12 -0.12)">
       <use xlink:href="#DejaVuSans-55"/>
       <use xlink:href="#DejaVuSans-55" x="73.193359"/>
       <use xlink:href="#DejaVuSans-55" x="146.386719"/>
      </g>
     </g>
    </g>
    <g id="xtick_21">
     <g id="line2d_21">
      <g>
       <use xlink:href="#m9a8c8c0d63" x="336.46875" y="238.468437" style="stroke: #000000; stroke-width: 0.8"/>
      </g>
     </g>
     <g id="text_21">
      <!-- UCU -->
      <g transform="translate(339.78 271.412813) rotate(-90) scale(0.12 -0.12)">
       <use xlink:href="#DejaVuSans-55"/>
       <use xlink:href="#DejaVuSans-43" x="73.193359"/>
       <use xlink:href="#DejaVuSans-55" x="143.017578"/>
      </g>
     </g>
    </g>
    <g id="xtick_22">
     <g id="line2d_22">
      <g>
       <use xlink:href="#m9a8c8c0d63" x="348.678906" y="238.468437" style="stroke: #000000; stroke-width: 0.8"/>
      </g>
     </g>
     <g id="text_22">
      <!-- CAA -->
      <g transform="translate(351.990156 270.595312) rotate(-90) scale(0.12 -0.12)">
       <use xlink:href="#DejaVuSans-43"/>
       <use xlink:href="#DejaVuSans-41" x="69.824219"/>
       <use xlink:href="#DejaVuSans-41" x="140.982422"/>
      </g>
     </g>
    </g>
    <g id="xtick_23">
     <g id="line2d_23">
      <g>
       <use xlink:href="#m9a8c8c0d63" x="360.889063" y="238.468437" style="stroke: #000000; stroke-width: 0.8"/>
      </g>
     </g>
     <g id="text_23">
      <!-- AUG -->
      <g transform="translate(364.200312 271.757812) rotate(-90) scale(0.12 -0.12)">
       <use xlink:href="#DejaVuSans-41"/>
       <use xlink:href="#DejaVuSans-55" x="68.408203"/>
       <use xlink:href="#DejaVuSans-47" x="141.601562"/>
      </g>
     </g>
    </g>
    <g id="xtick_24">
     <g id="line2d_24">
      <g>
       <use xlink:href="#m9a8c8c0d63" x="373.099219" y="238.468437" style="stroke: #000000; stroke-width: 0.8"/>
      </g>
     </g>
     <g id="text_24">
      <!-- GUG -->
      <g transform="translate(376.410469 272.847188) rotate(-90) scale(0.12 -0.12)">
       <use xlink:href="#DejaVuSans-47"/>
       <use xlink:href="#DejaVuSans-55" x="77.490234"/>
       <use xlink:href="#DejaVuSans-47" x="150.683594"/>
      </g>
     </g>
    </g>
    <g id="xtick_25">
     <g id="line2d_25">
      <g>
       <use xlink:href="#m9a8c8c0d63" x="385.309375" y="238.468437" style="stroke: #000000; stroke-width: 0.8"/>
      </g>
     </g>
     <g id="text_25">
      <!-- GCG -->
      <g transform="translate(388.620625 272.444063) rotate(-90) scale(0.12 -0.12)">
       <use xlink:href="#DejaVuSans-47"/>
       <use xlink:href="#DejaVuSans-43" x="77.490234"/>
       <use xlink:href="#DejaVuSans-47" x="147.314453"/>
      </g>
     </g>
    </g>
    <g id="xtick_26">
     <g id="line2d_26">
      <g>
       <use xlink:href="#m9a8c8c0d63" x="397.519531" y="238.468437" style="stroke: #000000; stroke-width: 0.8"/>
      </g>
     </g>
     <g id="text_26">
      <!-- UCC -->
      <g transform="translate(400.830781 271.009687) rotate(-90) scale(0.12 -0.12)">
       <use xlink:href="#DejaVuSans-55"/>
       <use xlink:href="#DejaVuSans-43" x="73.193359"/>
       <use xlink:href="#DejaVuSans-43" x="143.017578"/>
      </g>
     </g>
    </g>
    <g id="xtick_27">
     <g id="line2d_27">
      <g>
       <use xlink:href="#m9a8c8c0d63" x="409.729688" y="238.468437" style="stroke: #000000; stroke-width: 0.8"/>
      </g>
     </g>
     <g id="text_27">
      <!-- GUA -->
      <g transform="translate(413.040937 271.757812) rotate(-90) scale(0.12 -0.12)">
       <use xlink:href="#DejaVuSans-47"/>
       <use xlink:href="#DejaVuSans-55" x="77.490234"/>
       <use xlink:href="#DejaVuSans-41" x="150.683594"/>
      </g>
     </g>
    </g>
    <g id="xtick_28">
     <g id="line2d_28">
      <g>
       <use xlink:href="#m9a8c8c0d63" x="421.939844" y="238.468437" style="stroke: #000000; stroke-width: 0.8"/>
      </g>
     </g>
     <g id="text_28">
      <!-- AAU -->
      <g transform="translate(425.251094 270.998438) rotate(-90) scale(0.12 -0.12)">
       <use xlink:href="#DejaVuSans-41"/>
       <use xlink:href="#DejaVuSans-41" x="71.158203"/>
       <use xlink:href="#DejaVuSans-55" x="139.566406"/>
      </g>
     </g>
    </g>
    <g id="xtick_29">
     <g id="line2d_29">
      <g>
       <use xlink:href="#m9a8c8c0d63" x="434.15" y="238.468437" style="stroke: #000000; stroke-width: 0.8"/>
      </g>
     </g>
     <g id="text_29">
      <!-- AAG -->
      <g transform="translate(437.46125 271.304062) rotate(-90) scale(0.12 -0.12)">
       <use xlink:href="#DejaVuSans-41"/>
       <use xlink:href="#DejaVuSans-41" x="71.158203"/>
       <use xlink:href="#DejaVuSans-47" x="137.816406"/>
      </g>
     </g>
    </g>
    <g id="xtick_30">
     <g id="line2d_30">
      <g>
       <use xlink:href="#m9a8c8c0d63" x="446.360156" y="238.468437" style="stroke: #000000; stroke-width: 0.8"/>
      </g>
     </g>
     <g id="text_30">
      <!-- ACG -->
      <g transform="translate(449.671406 271.144688) rotate(-90) scale(0.12 -0.12)">
       <use xlink:href="#DejaVuSans-41"/>
       <use xlink:href="#DejaVuSans-43" x="66.658203"/>
       <use xlink:href="#DejaVuSans-47" x="136.482422"/>
      </g>
     </g>
    </g>
    <g id="xtick_31">
     <g id="line2d_31">
      <g>
       <use xlink:href="#m9a8c8c0d63" x="458.570312" y="238.468437" style="stroke: #000000; stroke-width: 0.8"/>
      </g>
     </g>
     <g id="text_31">
      <!-- CUU -->
      <g transform="translate(461.881562 271.412813) rotate(-90) scale(0.12 -0.12)">
       <use xlink:href="#DejaVuSans-43"/>
       <use xlink:href="#DejaVuSans-55" x="69.824219"/>
       <use xlink:href="#DejaVuSans-55" x="143.017578"/>
      </g>
     </g>
    </g>
    <g id="xtick_32">
     <g id="line2d_32">
      <g>
       <use xlink:href="#m9a8c8c0d63" x="470.780469" y="238.468437" style="stroke: #000000; stroke-width: 0.8"/>
      </g>
     </g>
     <g id="text_32">
      <!-- AGC -->
      <g transform="translate(474.091719 271.144688) rotate(-90) scale(0.12 -0.12)">
       <use xlink:href="#DejaVuSans-41"/>
       <use xlink:href="#DejaVuSans-47" x="66.658203"/>
       <use xlink:href="#DejaVuSans-43" x="144.148438"/>
      </g>
     </g>
    </g>
    <g id="xtick_33">
     <g id="line2d_33">
      <g>
       <use xlink:href="#m9a8c8c0d63" x="482.990625" y="238.468437" style="stroke: #000000; stroke-width: 0.8"/>
      </g>
     </g>
     <g id="text_33">
      <!-- CGC -->
      <g transform="translate(486.301875 271.525312) rotate(-90) scale(0.12 -0.12)">
       <use xlink:href="#DejaVuSans-43"/>
       <use xlink:href="#DejaVuSans-47" x="69.824219"/>
       <use xlink:href="#DejaVuSans-43" x="147.314453"/>
      </g>
     </g>
    </g>
    <g id="xtick_34">
     <g id="line2d_34">
      <g>
       <use xlink:href="#m9a8c8c0d63" x="495.200781" y="238.468437" style="stroke: #000000; stroke-width: 0.8"/>
      </g>
     </g>
     <g id="text_34">
      <!-- UUA -->
      <g transform="translate(498.512031 271.242188) rotate(-90) scale(0.12 -0.12)">
       <use xlink:href="#DejaVuSans-55"/>
       <use xlink:href="#DejaVuSans-55" x="73.193359"/>
       <use xlink:href="#DejaVuSans-41" x="146.386719"/>
      </g>
     </g>
    </g>
    <g id="xtick_35">
     <g id="line2d_35">
      <g>
       <use xlink:href="#m9a8c8c0d63" x="507.410938" y="238.468437" style="stroke: #000000; stroke-width: 0.8"/>
      </g>
     </g>
     <g id="text_35">
      <!-- UGG -->
      <g transform="translate(510.722188 272.847188) rotate(-90) scale(0.12 -0.12)">
       <use xlink:href="#DejaVuSans-55"/>
       <use xlink:href="#DejaVuSans-47" x="73.193359"/>
       <use xlink:href="#DejaVuSans-47" x="150.683594"/>
      </g>
     </g>
    </g>
    <g id="xtick_36">
     <g id="line2d_36">
      <g>
       <use xlink:href="#m9a8c8c0d63" x="519.621094" y="238.468437" style="stroke: #000000; stroke-width: 0.8"/>
      </g>
     </g>
     <g id="text_36">
      <!-- CCU -->
      <g transform="translate(522.932344 271.009687) rotate(-90) scale(0.12 -0.12)">
       <use xlink:href="#DejaVuSans-43"/>
       <use xlink:href="#DejaVuSans-43" x="69.824219"/>
       <use xlink:href="#DejaVuSans-55" x="139.648438"/>
      </g>
     </g>
    </g>
    <g id="xtick_37">
     <g id="line2d_37">
      <g>
       <use xlink:href="#m9a8c8c0d63" x="531.83125" y="238.468437" style="stroke: #000000; stroke-width: 0.8"/>
      </g>
     </g>
     <g id="text_37">
      <!-- GCC -->
      <g transform="translate(535.1425 271.525312) rotate(-90) scale(0.12 -0.12)">
       <use xlink:href="#DejaVuSans-47"/>
       <use xlink:href="#DejaVuSans-43" x="77.490234"/>
       <use xlink:href="#DejaVuSans-43" x="147.314453"/>
      </g>
     </g>
    </g>
    <g id="xtick_38">
     <g id="line2d_38">
      <g>
       <use xlink:href="#m9a8c8c0d63" x="544.041406" y="238.468437" style="stroke: #000000; stroke-width: 0.8"/>
      </g>
     </g>
     <g id="text_38">
      <!-- CCG -->
      <g transform="translate(547.352656 271.525312) rotate(-90) scale(0.12 -0.12)">
       <use xlink:href="#DejaVuSans-43"/>
       <use xlink:href="#DejaVuSans-43" x="69.824219"/>
       <use xlink:href="#DejaVuSans-47" x="139.648438"/>
      </g>
     </g>
    </g>
    <g id="xtick_39">
     <g id="line2d_39">
      <g>
       <use xlink:href="#m9a8c8c0d63" x="556.251563" y="238.468437" style="stroke: #000000; stroke-width: 0.8"/>
      </g>
     </g>
     <g id="text_39">
      <!-- GUC -->
      <g transform="translate(559.562813 271.928438) rotate(-90) scale(0.12 -0.12)">
       <use xlink:href="#DejaVuSans-47"/>
       <use xlink:href="#DejaVuSans-55" x="77.490234"/>
       <use xlink:href="#DejaVuSans-43" x="150.683594"/>
      </g>
     </g>
    </g>
    <g id="xtick_40">
     <g id="line2d_40">
      <g>
       <use xlink:href="#m9a8c8c0d63" x="568.461719" y="238.468437" style="stroke: #000000; stroke-width: 0.8"/>
      </g>
     </g>
     <g id="text_40">
      <!-- AGU -->
      <g transform="translate(571.772969 271.547813) rotate(-90) scale(0.12 -0.12)">
       <use xlink:href="#DejaVuSans-41"/>
       <use xlink:href="#DejaVuSans-47" x="66.658203"/>
       <use xlink:href="#DejaVuSans-55" x="144.148438"/>
      </g>
     </g>
    </g>
    <g id="xtick_41">
     <g id="line2d_41">
      <g>
       <use xlink:href="#m9a8c8c0d63" x="580.671875" y="238.468437" style="stroke: #000000; stroke-width: 0.8"/>
      </g>
     </g>
     <g id="text_41">
      <!-- GAG -->
      <g transform="translate(583.983125 272.063438) rotate(-90) scale(0.12 -0.12)">
       <use xlink:href="#DejaVuSans-47"/>
       <use xlink:href="#DejaVuSans-41" x="77.490234"/>
       <use xlink:href="#DejaVuSans-47" x="144.148438"/>
      </g>
     </g>
    </g>
    <g id="xtick_42">
     <g id="line2d_42">
      <g>
       <use xlink:href="#m9a8c8c0d63" x="592.882031" y="238.468437" style="stroke: #000000; stroke-width: 0.8"/>
      </g>
     </g>
     <g id="text_42">
      <!-- GGG -->
      <g transform="translate(596.193281 273.362813) rotate(-90) scale(0.12 -0.12)">
       <use xlink:href="#DejaVuSans-47"/>
       <use xlink:href="#DejaVuSans-47" x="77.490234"/>
       <use xlink:href="#DejaVuSans-47" x="154.980469"/>
      </g>
     </g>
    </g>
    <g id="xtick_43">
     <g id="line2d_43">
      <g>
       <use xlink:href="#m9a8c8c0d63" x="605.092188" y="238.468437" style="stroke: #000000; stroke-width: 0.8"/>
      </g>
     </g>
     <g id="text_43">
      <!-- UCA -->
      <g transform="translate(608.403437 270.839063) rotate(-90) scale(0.12 -0.12)">
       <use xlink:href="#DejaVuSans-55"/>
       <use xlink:href="#DejaVuSans-43" x="73.193359"/>
       <use xlink:href="#DejaVuSans-41" x="143.017578"/>
      </g>
     </g>
    </g>
    <g id="xtick_44">
     <g id="line2d_44">
      <g>
       <use xlink:href="#m9a8c8c0d63" x="617.302344" y="238.468437" style="stroke: #000000; stroke-width: 0.8"/>
      </g>
     </g>
     <g id="text_44">
      <!-- CCA -->
      <g transform="translate(620.613594 270.435938) rotate(-90) scale(0.12 -0.12)">
       <use xlink:href="#DejaVuSans-43"/>
       <use xlink:href="#DejaVuSans-43" x="69.824219"/>
       <use xlink:href="#DejaVuSans-41" x="139.648438"/>
      </g>
     </g>
    </g>
    <g id="xtick_45">
     <g id="line2d_45">
      <g>
       <use xlink:href="#m9a8c8c0d63" x="629.5125" y="238.468437" style="stroke: #000000; stroke-width: 0.8"/>
      </g>
     </g>
     <g id="text_45">
      <!-- ACA -->
      <g transform="translate(632.82375 270.055313) rotate(-90) scale(0.12 -0.12)">
       <use xlink:href="#DejaVuSans-41"/>
       <use xlink:href="#DejaVuSans-43" x="66.658203"/>
       <use xlink:href="#DejaVuSans-41" x="136.482422"/>
      </g>
     </g>
    </g>
    <g id="xtick_46">
     <g id="line2d_46">
      <g>
       <use xlink:href="#m9a8c8c0d63" x="641.722656" y="238.468437" style="stroke: #000000; stroke-width: 0.8"/>
      </g>
     </g>
     <g id="text_46">
      <!-- CAU -->
      <g transform="translate(645.033906 270.839063) rotate(-90) scale(0.12 -0.12)">
       <use xlink:href="#DejaVuSans-43"/>
       <use xlink:href="#DejaVuSans-41" x="69.824219"/>
       <use xlink:href="#DejaVuSans-55" x="138.232422"/>
      </g>
     </g>
    </g>
    <g id="xtick_47">
     <g id="line2d_47">
      <g>
       <use xlink:href="#m9a8c8c0d63" x="653.932813" y="238.468437" style="stroke: #000000; stroke-width: 0.8"/>
      </g>
     </g>
     <g id="text_47">
      <!-- AUU -->
      <g transform="translate(657.244063 271.242188) rotate(-90) scale(0.12 -0.12)">
       <use xlink:href="#DejaVuSans-41"/>
       <use xlink:href="#DejaVuSans-55" x="68.408203"/>
       <use xlink:href="#DejaVuSans-55" x="141.601562"/>
      </g>
     </g>
    </g>
    <g id="xtick_48">
     <g id="line2d_48">
      <g>
       <use xlink:href="#m9a8c8c0d63" x="666.142969" y="238.468437" style="stroke: #000000; stroke-width: 0.8"/>
      </g>
     </g>
     <g id="text_48">
      <!-- CGG -->
      <g transform="translate(669.454219 272.444063) rotate(-90) scale(0.12 -0.12)">
       <use xlink:href="#DejaVuSans-43"/>
       <use xlink:href="#DejaVuSans-47" x="69.824219"/>
       <use xlink:href="#DejaVuSans-47" x="147.314453"/>
      </g>
     </g>
    </g>
    <g id="xtick_49">
     <g id="line2d_49">
      <g>
       <use xlink:href="#m9a8c8c0d63" x="678.353125" y="238.468437" style="stroke: #000000; stroke-width: 0.8"/>
      </g>
     </g>
     <g id="text_49">
      <!-- GGA -->
      <g transform="translate(681.664375 272.273438) rotate(-90) scale(0.12 -0.12)">
       <use xlink:href="#DejaVuSans-47"/>
       <use xlink:href="#DejaVuSans-47" x="77.490234"/>
       <use xlink:href="#DejaVuSans-41" x="154.980469"/>
      </g>
     </g>
    </g>
    <g id="xtick_50">
     <g id="line2d_50">
      <g>
       <use xlink:href="#m9a8c8c0d63" x="690.563281" y="238.468437" style="stroke: #000000; stroke-width: 0.8"/>
      </g>
     </g>
     <g id="text_50">
      <!-- CUC -->
      <g transform="translate(693.874531 271.009687) rotate(-90) scale(0.12 -0.12)">
       <use xlink:href="#DejaVuSans-43"/>
       <use xlink:href="#DejaVuSans-55" x="69.824219"/>
       <use xlink:href="#DejaVuSans-43" x="143.017578"/>
      </g>
     </g>
    </g>
    <g id="xtick_51">
     <g id="line2d_51">
      <g>
       <use xlink:href="#m9a8c8c0d63" x="702.773438" y="238.468437" style="stroke: #000000; stroke-width: 0.8"/>
      </g>
     </g>
     <g id="text_51">
      <!-- CUA -->
      <g transform="translate(706.084687 270.839063) rotate(-90) scale(0.12 -0.12)">
       <use xlink:href="#DejaVuSans-43"/>
       <use xlink:href="#DejaVuSans-55" x="69.824219"/>
       <use xlink:href="#DejaVuSans-41" x="143.017578"/>
      </g>
     </g>
    </g>
    <g id="xtick_52">
     <g id="line2d_52">
      <g>
       <use xlink:href="#m9a8c8c0d63" x="714.983594" y="238.468437" style="stroke: #000000; stroke-width: 0.8"/>
      </g>
     </g>
     <g id="text_52">
      <!-- CAC -->
      <g transform="translate(718.294844 270.225937) rotate(-90) scale(0.12 -0.12)">
       <use xlink:href="#DejaVuSans-43"/>
       <use xlink:href="#DejaVuSans-41" x="69.824219"/>
       <use xlink:href="#DejaVuSans-43" x="136.482422"/>
      </g>
     </g>
    </g>
    <g id="xtick_53">
     <g id="line2d_53">
      <g>
       <use xlink:href="#m9a8c8c0d63" x="727.19375" y="238.468437" style="stroke: #000000; stroke-width: 0.8"/>
      </g>
     </g>
     <g id="text_53">
      <!-- CGA -->
      <g transform="translate(730.505 271.354688) rotate(-90) scale(0.12 -0.12)">
       <use xlink:href="#DejaVuSans-43"/>
       <use xlink:href="#DejaVuSans-47" x="69.824219"/>
       <use xlink:href="#DejaVuSans-41" x="147.314453"/>
      </g>
     </g>
    </g>
    <g id="xtick_54">
     <g id="line2d_54">
      <g>
       <use xlink:href="#m9a8c8c0d63" x="739.403906" y="238.468437" style="stroke: #000000; stroke-width: 0.8"/>
      </g>
     </g>
     <g id="text_54">
      <!-- AUA -->
      <g transform="translate(742.715156 270.668437) rotate(-90) scale(0.12 -0.12)">
       <use xlink:href="#DejaVuSans-41"/>
       <use xlink:href="#DejaVuSans-55" x="68.408203"/>
       <use xlink:href="#DejaVuSans-41" x="141.601562"/>
      </g>
     </g>
    </g>
    <g id="xtick_55">
     <g id="line2d_55">
      <g>
       <use xlink:href="#m9a8c8c0d63" x="751.614063" y="238.468437" style="stroke: #000000; stroke-width: 0.8"/>
      </g>
     </g>
     <g id="text_55">
      <!-- UCG -->
      <g transform="translate(754.925313 271.928438) rotate(-90) scale(0.12 -0.12)">
       <use xlink:href="#DejaVuSans-55"/>
       <use xlink:href="#DejaVuSans-43" x="73.193359"/>
       <use xlink:href="#DejaVuSans-47" x="143.017578"/>
      </g>
     </g>
    </g>
    <g id="xtick_56">
     <g id="line2d_56">
      <g>
       <use xlink:href="#m9a8c8c0d63" x="763.824219" y="238.468437" style="stroke: #000000; stroke-width: 0.8"/>
      </g>
     </g>
     <g id="text_56">
      <!-- UUG -->
      <g transform="translate(767.135469 272.331563) rotate(-90) scale(0.12 -0.12)">
       <use xlink:href="#DejaVuSans-55"/>
       <use xlink:href="#DejaVuSans-55" x="73.193359"/>
       <use xlink:href="#DejaVuSans-47" x="146.386719"/>
      </g>
     </g>
    </g>
    <g id="xtick_57">
     <g id="line2d_57">
      <g>
       <use xlink:href="#m9a8c8c0d63" x="776.034375" y="238.468437" style="stroke: #000000; stroke-width: 0.8"/>
      </g>
     </g>
     <g id="text_57">
      <!-- UGC -->
      <g transform="translate(779.345625 271.928438) rotate(-90) scale(0.12 -0.12)">
       <use xlink:href="#DejaVuSans-55"/>
       <use xlink:href="#DejaVuSans-47" x="73.193359"/>
       <use xlink:href="#DejaVuSans-43" x="150.683594"/>
      </g>
     </g>
    </g>
    <g id="xtick_58">
     <g id="line2d_58">
      <g>
       <use xlink:href="#m9a8c8c0d63" x="788.244531" y="238.468437" style="stroke: #000000; stroke-width: 0.8"/>
      </g>
     </g>
     <g id="text_58">
      <!-- UGU -->
      <g transform="translate(791.555781 272.331563) rotate(-90) scale(0.12 -0.12)">
       <use xlink:href="#DejaVuSans-55"/>
       <use xlink:href="#DejaVuSans-47" x="73.193359"/>
       <use xlink:href="#DejaVuSans-55" x="150.683594"/>
      </g>
     </g>
    </g>
    <g id="xtick_59">
     <g id="line2d_59">
      <g>
       <use xlink:href="#m9a8c8c0d63" x="800.454688" y="238.468437" style="stroke: #000000; stroke-width: 0.8"/>
      </g>
     </g>
     <g id="text_59">
      <!-- UGA -->
      <g transform="translate(803.765938 271.757812) rotate(-90) scale(0.12 -0.12)">
       <use xlink:href="#DejaVuSans-55"/>
       <use xlink:href="#DejaVuSans-47" x="73.193359"/>
       <use xlink:href="#DejaVuSans-41" x="150.683594"/>
      </g>
     </g>
    </g>
    <g id="xtick_60">
     <g id="line2d_60">
      <g>
       <use xlink:href="#m9a8c8c0d63" x="812.664844" y="238.468437" style="stroke: #000000; stroke-width: 0.8"/>
      </g>
     </g>
     <g id="text_60">
      <!-- AGG -->
      <g transform="translate(815.976094 272.063438) rotate(-90) scale(0.12 -0.12)">
       <use xlink:href="#DejaVuSans-41"/>
       <use xlink:href="#DejaVuSans-47" x="66.658203"/>
       <use xlink:href="#DejaVuSans-47" x="144.148438"/>
      </g>
     </g>
    </g>
    <g id="xtick_61">
     <g id="line2d_61">
      <g>
       <use xlink:href="#m9a8c8c0d63" x="824.875" y="238.468437" style="stroke: #000000; stroke-width: 0.8"/>
      </g>
     </g>
     <g id="text_61">
      <!-- AGA -->
      <g transform="translate(828.18625 270.974063) rotate(-90) scale(0.12 -0.12)">
       <use xlink:href="#DejaVuSans-41"/>
       <use xlink:href="#DejaVuSans-47" x="66.658203"/>
       <use xlink:href="#DejaVuSans-41" x="144.148438"/>
      </g>
     </g>
    </g>
    <g id="xtick_62">
     <g id="line2d_62">
      <g>
       <use xlink:href="#m9a8c8c0d63" x="837.085156" y="238.468437" style="stroke: #000000; stroke-width: 0.8"/>
      </g>
     </g>
     <g id="text_62">
      <!-- CCC -->
      <g transform="translate(840.396406 270.606562) rotate(-90) scale(0.12 -0.12)">
       <use xlink:href="#DejaVuSans-43"/>
       <use xlink:href="#DejaVuSans-43" x="69.824219"/>
       <use xlink:href="#DejaVuSans-43" x="139.648438"/>
      </g>
     </g>
    </g>
   </g>
   <g id="matplotlib.axis_2">
    <g id="ytick_1">
     <g id="line2d_63">
      <defs>
       <path id="m5d0cd4cc6f" d="M 0 0 
L -3.5 0 
" style="stroke: #000000; stroke-width: 0.8"/>
      </defs>
      <g>
       <use xlink:href="#m5d0cd4cc6f" x="67.845313" y="238.468437" style="stroke: #000000; stroke-width: 0.8"/>
      </g>
     </g>
     <g id="text_63">
      <!-- 0 -->
      <g transform="translate(48.120313 246.066875) scale(0.2 -0.2)">
       <defs>
        <path id="DejaVuSans-30" d="M 2034 4250 
Q 1547 4250 1301 3770 
Q 1056 3291 1056 2328 
Q 1056 1369 1301 889 
Q 1547 409 2034 409 
Q 2525 409 2770 889 
Q 3016 1369 3016 2328 
Q 3016 3291 2770 3770 
Q 2525 4250 2034 4250 
z
M 2034 4750 
Q 2819 4750 3233 4129 
Q 3647 3509 3647 2328 
Q 3647 1150 3233 529 
Q 2819 -91 2034 -91 
Q 1250 -91 836 529 
Q 422 1150 422 2328 
Q 422 3509 836 4129 
Q 1250 4750 2034 4750 
z
" transform="scale(0.015625)"/>
       </defs>
       <use xlink:href="#DejaVuSans-30"/>
      </g>
     </g>
    </g>
    <g id="ytick_2">
     <g id="line2d_64">
      <g>
       <use xlink:href="#m5d0cd4cc6f" x="67.845313" y="193.734437" style="stroke: #000000; stroke-width: 0.8"/>
      </g>
     </g>
     <g id="text_64">
      <!-- 2 -->
      <g transform="translate(48.120313 201.332875) scale(0.2 -0.2)">
       <defs>
        <path id="DejaVuSans-32" d="M 1228 531 
L 3431 531 
L 3431 0 
L 469 0 
L 469 531 
Q 828 903 1448 1529 
Q 2069 2156 2228 2338 
Q 2531 2678 2651 2914 
Q 2772 3150 2772 3378 
Q 2772 3750 2511 3984 
Q 2250 4219 1831 4219 
Q 1534 4219 1204 4116 
Q 875 4013 500 3803 
L 500 4441 
Q 881 4594 1212 4672 
Q 1544 4750 1819 4750 
Q 2544 4750 2975 4387 
Q 3406 4025 3406 3419 
Q 3406 3131 3298 2873 
Q 3191 2616 2906 2266 
Q 2828 2175 2409 1742 
Q 1991 1309 1228 531 
z
" transform="scale(0.015625)"/>
       </defs>
       <use xlink:href="#DejaVuSans-32"/>
      </g>
     </g>
    </g>
    <g id="ytick_3">
     <g id="line2d_65">
      <g>
       <use xlink:href="#m5d0cd4cc6f" x="67.845313" y="149.000437" style="stroke: #000000; stroke-width: 0.8"/>
      </g>
     </g>
     <g id="text_65">
      <!-- 4 -->
      <g transform="translate(48.120313 156.598875) scale(0.2 -0.2)">
       <defs>
        <path id="DejaVuSans-34" d="M 2419 4116 
L 825 1625 
L 2419 1625 
L 2419 4116 
z
M 2253 4666 
L 3047 4666 
L 3047 1625 
L 3713 1625 
L 3713 1100 
L 3047 1100 
L 3047 0 
L 2419 0 
L 2419 1100 
L 313 1100 
L 313 1709 
L 2253 4666 
z
" transform="scale(0.015625)"/>
       </defs>
       <use xlink:href="#DejaVuSans-34"/>
      </g>
     </g>
    </g>
    <g id="ytick_4">
     <g id="line2d_66">
      <g>
       <use xlink:href="#m5d0cd4cc6f" x="67.845313" y="104.266437" style="stroke: #000000; stroke-width: 0.8"/>
      </g>
     </g>
     <g id="text_66">
      <!-- 6 -->
      <g transform="translate(48.120313 111.864875) scale(0.2 -0.2)">
       <defs>
        <path id="DejaVuSans-36" d="M 2113 2584 
Q 1688 2584 1439 2293 
Q 1191 2003 1191 1497 
Q 1191 994 1439 701 
Q 1688 409 2113 409 
Q 2538 409 2786 701 
Q 3034 994 3034 1497 
Q 3034 2003 2786 2293 
Q 2538 2584 2113 2584 
z
M 3366 4563 
L 3366 3988 
Q 3128 4100 2886 4159 
Q 2644 4219 2406 4219 
Q 1781 4219 1451 3797 
Q 1122 3375 1075 2522 
Q 1259 2794 1537 2939 
Q 1816 3084 2150 3084 
Q 2853 3084 3261 2657 
Q 3669 2231 3669 1497 
Q 3669 778 3244 343 
Q 2819 -91 2113 -91 
Q 1303 -91 875 529 
Q 447 1150 447 2328 
Q 447 3434 972 4092 
Q 1497 4750 2381 4750 
Q 2619 4750 2861 4703 
Q 3103 4656 3366 4563 
z
" transform="scale(0.015625)"/>
       </defs>
       <use xlink:href="#DejaVuSans-36"/>
      </g>
     </g>
    </g>
    <g id="ytick_5">
     <g id="line2d_67">
      <g>
       <use xlink:href="#m5d0cd4cc6f" x="67.845313" y="59.532437" style="stroke: #000000; stroke-width: 0.8"/>
      </g>
     </g>
     <g id="text_67">
      <!-- 8 -->
      <g transform="translate(48.120313 67.130875) scale(0.2 -0.2)">
       <defs>
        <path id="DejaVuSans-38" d="M 2034 2216 
Q 1584 2216 1326 1975 
Q 1069 1734 1069 1313 
Q 1069 891 1326 650 
Q 1584 409 2034 409 
Q 2484 409 2743 651 
Q 3003 894 3003 1313 
Q 3003 1734 2745 1975 
Q 2488 2216 2034 2216 
z
M 1403 2484 
Q 997 2584 770 2862 
Q 544 3141 544 3541 
Q 544 4100 942 4425 
Q 1341 4750 2034 4750 
Q 2731 4750 3128 4425 
Q 3525 4100 3525 3541 
Q 3525 3141 3298 2862 
Q 3072 2584 2669 2484 
Q 3125 2378 3379 2068 
Q 3634 1759 3634 1313 
Q 3634 634 3220 271 
Q 2806 -91 2034 -91 
Q 1263 -91 848 271 
Q 434 634 434 1313 
Q 434 1759 690 2068 
Q 947 2378 1403 2484 
z
M 1172 3481 
Q 1172 3119 1398 2916 
Q 1625 2713 2034 2713 
Q 2441 2713 2670 2916 
Q 2900 3119 2900 3481 
Q 2900 3844 2670 4047 
Q 2441 4250 2034 4250 
Q 1625 4250 1398 4047 
Q 1172 3844 1172 3481 
z
" transform="scale(0.015625)"/>
       </defs>
       <use xlink:href="#DejaVuSans-38"/>
      </g>
     </g>
    </g>
    <g id="ytick_6">
     <g id="line2d_68">
      <g>
       <use xlink:href="#m5d0cd4cc6f" x="67.845313" y="14.798437" style="stroke: #000000; stroke-width: 0.8"/>
      </g>
     </g>
     <g id="text_68">
      <!-- 10 -->
      <g transform="translate(35.395313 22.396875) scale(0.2 -0.2)">
       <defs>
        <path id="DejaVuSans-31" d="M 794 531 
L 1825 531 
L 1825 4091 
L 703 3866 
L 703 4441 
L 1819 4666 
L 2450 4666 
L 2450 531 
L 3481 531 
L 3481 0 
L 794 0 
L 794 531 
z
" transform="scale(0.015625)"/>
       </defs>
       <use xlink:href="#DejaVuSans-31"/>
       <use xlink:href="#DejaVuSans-30" x="63.623047"/>
      </g>
     </g>
    </g>
    <g id="text_69">
     <!-- Frequency (%) -->
     <g transform="translate(26.196094 216.811172) rotate(-90) scale(0.25 -0.25)">
      <defs>
       <path id="DejaVuSans-46" d="M 628 4666 
L 3309 4666 
L 3309 4134 
L 1259 4134 
L 1259 2759 
L 3109 2759 
L 3109 2228 
L 1259 2228 
L 1259 0 
L 628 0 
L 628 4666 
z
" transform="scale(0.015625)"/>
       <path id="DejaVuSans-72" d="M 2631 2963 
Q 2534 3019 2420 3045 
Q 2306 3072 2169 3072 
Q 1681 3072 1420 2755 
Q 1159 2438 1159 1844 
L 1159 0 
L 581 0 
L 581 3500 
L 1159 3500 
L 1159 2956 
Q 1341 3275 1631 3429 
Q 1922 3584 2338 3584 
Q 2397 3584 2469 3576 
Q 2541 3569 2628 3553 
L 2631 2963 
z
" transform="scale(0.015625)"/>
       <path id="DejaVuSans-65" d="M 3597 1894 
L 3597 1613 
L 953 1613 
Q 991 1019 1311 708 
Q 1631 397 2203 397 
Q 2534 397 2845 478 
Q 3156 559 3463 722 
L 3463 178 
Q 3153 47 2828 -22 
Q 2503 -91 2169 -91 
Q 1331 -91 842 396 
Q 353 884 353 1716 
Q 353 2575 817 3079 
Q 1281 3584 2069 3584 
Q 2775 3584 3186 3129 
Q 3597 2675 3597 1894 
z
M 3022 2063 
Q 3016 2534 2758 2815 
Q 2500 3097 2075 3097 
Q 1594 3097 1305 2825 
Q 1016 2553 972 2059 
L 3022 2063 
z
" transform="scale(0.015625)"/>
       <path id="DejaVuSans-71" d="M 947 1747 
Q 947 1113 1208 752 
Q 1469 391 1925 391 
Q 2381 391 2643 752 
Q 2906 1113 2906 1747 
Q 2906 2381 2643 2742 
Q 2381 3103 1925 3103 
Q 1469 3103 1208 2742 
Q 947 2381 947 1747 
z
M 2906 525 
Q 2725 213 2448 61 
Q 2172 -91 1784 -91 
Q 1150 -91 751 415 
Q 353 922 353 1747 
Q 353 2572 751 3078 
Q 1150 3584 1784 3584 
Q 2172 3584 2448 3432 
Q 2725 3281 2906 2969 
L 2906 3500 
L 3481 3500 
L 3481 -1331 
L 2906 -1331 
L 2906 525 
z
" transform="scale(0.015625)"/>
       <path id="DejaVuSans-75" d="M 544 1381 
L 544 3500 
L 1119 3500 
L 1119 1403 
Q 1119 906 1312 657 
Q 1506 409 1894 409 
Q 2359 409 2629 706 
Q 2900 1003 2900 1516 
L 2900 3500 
L 3475 3500 
L 3475 0 
L 2900 0 
L 2900 538 
Q 2691 219 2414 64 
Q 2138 -91 1772 -91 
Q 1169 -91 856 284 
Q 544 659 544 1381 
z
M 1991 3584 
L 1991 3584 
z
" transform="scale(0.015625)"/>
       <path id="DejaVuSans-6e" d="M 3513 2113 
L 3513 0 
L 2938 0 
L 2938 2094 
Q 2938 2591 2744 2837 
Q 2550 3084 2163 3084 
Q 1697 3084 1428 2787 
Q 1159 2491 1159 1978 
L 1159 0 
L 581 0 
L 581 3500 
L 1159 3500 
L 1159 2956 
Q 1366 3272 1645 3428 
Q 1925 3584 2291 3584 
Q 2894 3584 3203 3211 
Q 3513 2838 3513 2113 
z
" transform="scale(0.015625)"/>
       <path id="DejaVuSans-63" d="M 3122 3366 
L 3122 2828 
Q 2878 2963 2633 3030 
Q 2388 3097 2138 3097 
Q 1578 3097 1268 2742 
Q 959 2388 959 1747 
Q 959 1106 1268 751 
Q 1578 397 2138 397 
Q 2388 397 2633 464 
Q 2878 531 3122 666 
L 3122 134 
Q 2881 22 2623 -34 
Q 2366 -91 2075 -91 
Q 1284 -91 818 406 
Q 353 903 353 1747 
Q 353 2603 823 3093 
Q 1294 3584 2113 3584 
Q 2378 3584 2631 3529 
Q 2884 3475 3122 3366 
z
" transform="scale(0.015625)"/>
       <path id="DejaVuSans-79" d="M 2059 -325 
Q 1816 -950 1584 -1140 
Q 1353 -1331 966 -1331 
L 506 -1331 
L 506 -850 
L 844 -850 
Q 1081 -850 1212 -737 
Q 1344 -625 1503 -206 
L 1606 56 
L 191 3500 
L 800 3500 
L 1894 763 
L 2988 3500 
L 3597 3500 
L 2059 -325 
z
" transform="scale(0.015625)"/>
       <path id="DejaVuSans-20" transform="scale(0.015625)"/>
       <path id="DejaVuSans-28" d="M 1984 4856 
Q 1566 4138 1362 3434 
Q 1159 2731 1159 2009 
Q 1159 1288 1364 580 
Q 1569 -128 1984 -844 
L 1484 -844 
Q 1016 -109 783 600 
Q 550 1309 550 2009 
Q 550 2706 781 3412 
Q 1013 4119 1484 4856 
L 1984 4856 
z
" transform="scale(0.015625)"/>
       <path id="DejaVuSans-25" d="M 4653 2053 
Q 4381 2053 4226 1822 
Q 4072 1591 4072 1178 
Q 4072 772 4226 539 
Q 4381 306 4653 306 
Q 4919 306 5073 539 
Q 5228 772 5228 1178 
Q 5228 1588 5073 1820 
Q 4919 2053 4653 2053 
z
M 4653 2450 
Q 5147 2450 5437 2106 
Q 5728 1763 5728 1178 
Q 5728 594 5436 251 
Q 5144 -91 4653 -91 
Q 4153 -91 3862 251 
Q 3572 594 3572 1178 
Q 3572 1766 3864 2108 
Q 4156 2450 4653 2450 
z
M 1428 4353 
Q 1159 4353 1004 4120 
Q 850 3888 850 3481 
Q 850 3069 1003 2837 
Q 1156 2606 1428 2606 
Q 1700 2606 1854 2837 
Q 2009 3069 2009 3481 
Q 2009 3884 1853 4118 
Q 1697 4353 1428 4353 
z
M 4250 4750 
L 4750 4750 
L 1831 -91 
L 1331 -91 
L 4250 4750 
z
M 1428 4750 
Q 1922 4750 2215 4408 
Q 2509 4066 2509 3481 
Q 2509 2891 2217 2550 
Q 1925 2209 1428 2209 
Q 931 2209 642 2551 
Q 353 2894 353 3481 
Q 353 4063 643 4406 
Q 934 4750 1428 4750 
z
" transform="scale(0.015625)"/>
       <path id="DejaVuSans-29" d="M 513 4856 
L 1013 4856 
Q 1481 4119 1714 3412 
Q 1947 2706 1947 2009 
Q 1947 1309 1714 600 
Q 1481 -109 1013 -844 
L 513 -844 
Q 928 -128 1133 580 
Q 1338 1288 1338 2009 
Q 1338 2731 1133 3434 
Q 928 4138 513 4856 
z
" transform="scale(0.015625)"/>
      </defs>
      <use xlink:href="#DejaVuSans-46"/>
      <use xlink:href="#DejaVuSans-72" x="50.269531"/>
      <use xlink:href="#DejaVuSans-65" x="89.132812"/>
      <use xlink:href="#DejaVuSans-71" x="150.65625"/>
      <use xlink:href="#DejaVuSans-75" x="214.132812"/>
      <use xlink:href="#DejaVuSans-65" x="277.511719"/>
      <use xlink:href="#DejaVuSans-6e" x="339.035156"/>
      <use xlink:href="#DejaVuSans-63" x="402.414062"/>
      <use xlink:href="#DejaVuSans-79" x="457.394531"/>
      <use xlink:href="#DejaVuSans-20" x="516.574219"/>
      <use xlink:href="#DejaVuSans-28" x="548.361328"/>
      <use xlink:href="#DejaVuSans-25" x="587.375"/>
      <use xlink:href="#DejaVuSans-29" x="682.394531"/>
     </g>
    </g>
   </g>
   <g id="line2d_69">
    <path d="M 92.265625 202.392631 
L 104.475781 202.392631 
L 116.685937 202.392631 
L 128.896094 202.392631 
L 141.10625 202.392631 
L 153.316406 202.392631 
L 165.526563 202.392631 
L 177.736719 202.392631 
L 189.946875 202.392631 
L 202.157031 202.392631 
L 214.367188 202.392631 
L 226.577344 202.392631 
L 238.7875 202.392631 
L 250.997656 202.392631 
L 263.207813 202.392631 
L 275.417969 202.392631 
L 287.628125 202.392631 
L 299.838281 202.392631 
L 312.048437 202.392631 
L 324.258594 202.392631 
L 336.46875 202.392631 
L 348.678906 202.392631 
L 360.889063 202.392631 
L 373.099219 202.392631 
L 385.309375 202.392631 
L 397.519531 202.392631 
L 409.729688 202.392631 
L 421.939844 202.392631 
L 434.15 202.392631 
L 446.360156 202.392631 
L 458.570312 202.392631 
L 470.780469 202.392631 
L 482.990625 202.392631 
L 495.200781 202.392631 
L 507.410938 202.392631 
L 519.621094 202.392631 
L 531.83125 202.392631 
L 544.041406 202.392631 
L 556.251563 202.392631 
L 568.461719 202.392631 
L 580.671875 202.392631 
L 592.882031 202.392631 
L 605.092188 202.392631 
L 617.302344 202.392631 
L 629.5125 202.392631 
L 641.722656 202.392631 
L 653.932813 202.392631 
L 666.142969 202.392631 
L 678.353125 202.392631 
L 690.563281 202.392631 
L 702.773438 202.392631 
L 714.983594 202.392631 
L 727.19375 202.392631 
L 739.403906 202.392631 
L 751.614063 202.392631 
L 763.824219 202.392631 
L 776.034375 202.392631 
L 788.244531 202.392631 
L 800.454688 202.392631 
L 812.664844 202.392631 
L 824.875 202.392631 
L 837.085156 202.392631 
" clip-path="url(#pcb6f737cd6)" style="fill: none; stroke-dasharray: 11.1,4.8; stroke-dashoffset: 0; stroke: #000000; stroke-opacity: 0.5; stroke-width: 3"/>
   </g>
   <g id="line2d_70">
    <path d="M 92.265625 202.392631 
L 104.475781 202.392631 
L 116.685937 202.392631 
L 128.896094 202.392631 
L 141.10625 202.392631 
L 153.316406 202.392631 
L 165.526563 202.392631 
L 177.736719 202.392631 
L 189.946875 202.392631 
L 202.157031 202.392631 
L 214.367188 202.392631 
L 226.577344 202.392631 
L 238.7875 202.392631 
L 250.997656 202.392631 
L 263.207813 202.392631 
L 275.417969 202.392631 
L 287.628125 202.392631 
L 299.838281 202.392631 
L 312.048437 202.392631 
L 324.258594 202.392631 
L 336.46875 202.392631 
L 348.678906 202.392631 
L 360.889063 202.392631 
L 373.099219 202.392631 
L 385.309375 202.392631 
L 397.519531 202.392631 
L 409.729688 202.392631 
L 421.939844 202.392631 
L 434.15 202.392631 
L 446.360156 202.392631 
L 458.570312 202.392631 
L 470.780469 202.392631 
L 482.990625 202.392631 
L 495.200781 202.392631 
L 507.410938 202.392631 
L 519.621094 202.392631 
L 531.83125 202.392631 
L 544.041406 202.392631 
L 556.251563 202.392631 
L 568.461719 202.392631 
L 580.671875 202.392631 
L 592.882031 202.392631 
L 605.092188 202.392631 
L 617.302344 202.392631 
L 629.5125 202.392631 
L 641.722656 202.392631 
L 653.932813 202.392631 
L 666.142969 202.392631 
L 678.353125 202.392631 
L 690.563281 202.392631 
L 702.773438 202.392631 
L 714.983594 202.392631 
L 727.19375 202.392631 
L 739.403906 202.392631 
L 751.614063 202.392631 
L 763.824219 202.392631 
L 776.034375 202.392631 
L 788.244531 202.392631 
L 800.454688 202.392631 
L 812.664844 202.392631 
L 824.875 202.392631 
L 837.085156 202.392631 
" clip-path="url(#pcb6f737cd6)" style="fill: none; stroke-dasharray: 11.1,4.8; stroke-dashoffset: 0; stroke: #000000; stroke-opacity: 0.5; stroke-width: 3"/>
   </g>
   <g id="patch_65">
    <path d="M 67.845313 238.468437 
L 67.845313 14.798437 
" style="fill: none; stroke: #000000; stroke-width: 4; stroke-linejoin: miter; stroke-linecap: square"/>
   </g>
   <g id="patch_66">
    <path d="M 849.295313 238.468437 
L 849.295313 14.798437 
" style="fill: none"/>
   </g>
   <g id="patch_67">
    <path d="M 67.845313 238.468437 
L 849.295313 238.468437 
" style="fill: none; stroke: #000000; stroke-width: 4; stroke-linejoin: miter; stroke-linecap: square"/>
   </g>
   <g id="patch_68">
    <path d="M 67.845313 14.798437 
L 849.295313 14.798437 
" style="fill: none"/>
   </g>
  </g>
 </g>
 <defs>
  <clipPath id="pcb6f737cd6">
   <rect x="67.845313" y="14.798437" width="781.45" height="223.67"/>
  </clipPath>
 </defs>
</svg>
