<?xml version="1.0" encoding="utf-8" standalone="no"?>
<!DOCTYPE svg PUBLIC "-//W3C//DTD SVG 1.1//EN"
  "http://www.w3.org/Graphics/SVG/1.1/DTD/svg11.dtd">
<svg xmlns:xlink="http://www.w3.org/1999/xlink" width="738.211094pt" height="272.820312pt" viewBox="0 0 738.211094 272.820312" xmlns="http://www.w3.org/2000/svg" version="1.1">
 <metadata>
  <rdf:RDF xmlns:dc="http://purl.org/dc/elements/1.1/" xmlns:cc="http://creativecommons.org/ns#" xmlns:rdf="http://www.w3.org/1999/02/22-rdf-syntax-ns#">
   <cc:Work>
    <dc:type rdf:resource="http://purl.org/dc/dcmitype/StillImage"/>
    <dc:date>2023-05-17T15:47:40.962355</dc:date>
    <dc:format>image/svg+xml</dc:format>
    <dc:creator>
     <cc:Agent>
      <dc:title>Matplotlib v3.7.1, https://matplotlib.org/</dc:title>
     </cc:Agent>
    </dc:creator>
   </cc:Work>
  </rdf:RDF>
 </metadata>
 <defs>
  <style type="text/css">*{stroke-linejoin: round; stroke-linecap: butt}</style>
 </defs>
 <g id="figure_1">
  <g id="patch_1">
   <path d="M 0 272.820312 
L 738.211094 272.820312 
L 738.211094 0 
L 0 0 
z
" style="fill: #ffffff"/>
  </g>
  <g id="axes_1">
   <g id="patch_2">
    <path d="M 55.120313 228.96 
L 724.720312 228.96 
L 724.720312 7.2 
L 55.120313 7.2 
z
" style="fill: #ffffff"/>
   </g>
   <g id="patch_3">
    <path d="M 74.251741 228.96 
L 99.760312 228.96 
L 99.760312 17.76 
L 74.251741 17.76 
z
" clip-path="url(#p574e9c53dd)" style="fill: #d8832b"/>
   </g>
   <g id="patch_4">
    <path d="M 106.137455 228.96 
L 131.646027 228.96 
L 131.646027 36.96 
L 106.137455 36.96 
z
" clip-path="url(#p574e9c53dd)" style="fill: #d8832b"/>
   </g>
   <g id="patch_5">
    <path d="M 138.02317 228.96 
L 163.531741 228.96 
L 163.531741 36.96 
L 138.02317 36.96 
z
" clip-path="url(#p574e9c53dd)" style="fill: #d8832b"/>
   </g>
   <g id="patch_6">
    <path d="M 169.908884 228.96 
L 195.417455 228.96 
L 195.417455 56.16 
L 169.908884 56.16 
z
" clip-path="url(#p574e9c53dd)" style="fill: #d8832b"/>
   </g>
   <g id="patch_7">
    <path d="M 201.794598 228.96 
L 227.30317 228.96 
L 227.30317 56.16 
L 201.794598 56.16 
z
" clip-path="url(#p574e9c53dd)" style="fill: #d8832b"/>
   </g>
   <g id="patch_8">
    <path d="M 233.680312 228.96 
L 259.188884 228.96 
L 259.188884 56.16 
L 233.680312 56.16 
z
" clip-path="url(#p574e9c53dd)" style="fill: #d8832b"/>
   </g>
   <g id="patch_9">
    <path d="M 265.566027 228.96 
L 291.074598 228.96 
L 291.074598 75.36 
L 265.566027 75.36 
z
" clip-path="url(#p574e9c53dd)" style="fill: #d8832b"/>
   </g>
   <g id="patch_10">
    <path d="M 297.451741 228.96 
L 322.960312 228.96 
L 322.960312 104.16 
L 297.451741 104.16 
z
" clip-path="url(#p574e9c53dd)" style="fill: #d8832b"/>
   </g>
   <g id="patch_11">
    <path d="M 329.337455 228.96 
L 354.846027 228.96 
L 354.846027 113.76 
L 329.337455 113.76 
z
" clip-path="url(#p574e9c53dd)" style="fill: #d8832b"/>
   </g>
   <g id="patch_12">
    <path d="M 361.22317 228.96 
L 386.731741 228.96 
L 386.731741 123.36 
L 361.22317 123.36 
z
" clip-path="url(#p574e9c53dd)" style="fill: #d8832b"/>
   </g>
   <g id="patch_13">
    <path d="M 393.108884 228.96 
L 418.617455 228.96 
L 418.617455 132.96 
L 393.108884 132.96 
z
" clip-path="url(#p574e9c53dd)" style="fill: #d8832b"/>
   </g>
   <g id="patch_14">
    <path d="M 424.994598 228.96 
L 450.50317 228.96 
L 450.50317 132.96 
L 424.994598 132.96 
z
" clip-path="url(#p574e9c53dd)" style="fill: #d8832b"/>
   </g>
   <g id="patch_15">
    <path d="M 456.880312 228.96 
L 482.388884 228.96 
L 482.388884 132.96 
L 456.880312 132.96 
z
" clip-path="url(#p574e9c53dd)" style="fill: #d8832b"/>
   </g>
   <g id="patch_16">
    <path d="M 488.766027 228.96 
L 514.274598 228.96 
L 514.274598 142.56 
L 488.766027 142.56 
z
" clip-path="url(#p574e9c53dd)" style="fill: #d8832b"/>
   </g>
   <g id="patch_17">
    <path d="M 520.651741 228.96 
L 546.160313 228.96 
L 546.160313 152.16 
L 520.651741 152.16 
z
" clip-path="url(#p574e9c53dd)" style="fill: #d8832b"/>
   </g>
   <g id="patch_18">
    <path d="M 552.537455 228.96 
L 578.046027 228.96 
L 578.046027 152.16 
L 552.537455 152.16 
z
" clip-path="url(#p574e9c53dd)" style="fill: #d8832b"/>
   </g>
   <g id="patch_19">
    <path d="M 584.42317 228.96 
L 609.931741 228.96 
L 609.931741 161.76 
L 584.42317 161.76 
z
" clip-path="url(#p574e9c53dd)" style="fill: #d8832b"/>
   </g>
   <g id="patch_20">
    <path d="M 616.308884 228.96 
L 641.817455 228.96 
L 641.817455 180.96 
L 616.308884 180.96 
z
" clip-path="url(#p574e9c53dd)" style="fill: #d8832b"/>
   </g>
   <g id="patch_21">
    <path d="M 648.194598 228.96 
L 673.70317 228.96 
L 673.70317 209.76 
L 648.194598 209.76 
z
" clip-path="url(#p574e9c53dd)" style="fill: #d8832b"/>
   </g>
   <g id="patch_22">
    <path d="M 680.080313 228.96 
L 705.588884 228.96 
L 705.588884 219.36 
L 680.080313 219.36 
z
" clip-path="url(#p574e9c53dd)" style="fill: #d8832b"/>
   </g>
   <g id="patch_23">
    <path d="M 711.966027 228.96 
L 737.474598 228.96 
L 737.474598 219.36 
L 711.966027 219.36 
z
" clip-path="url(#p574e9c53dd)" style="fill: #d8832b"/>
   </g>
   <g id="patch_24">
    <path d="M 743.851741 228.96 
L 769.360313 228.96 
L 769.360313 228.96 
L 743.851741 228.96 
z
" clip-path="url(#p574e9c53dd)" style="fill: #d8832b"/>
   </g>
   <g id="patch_25">
    <path d="M 775.737455 228.96 
L 801.246027 228.96 
L 801.246027 228.96 
L 775.737455 228.96 
z
" clip-path="url(#p574e9c53dd)" style="fill: #d8832b"/>
   </g>
   <g id="patch_26">
    <path d="M 807.62317 228.96 
L 833.131741 228.96 
L 833.131741 228.96 
L 807.62317 228.96 
z
" clip-path="url(#p574e9c53dd)" style="fill: #d8832b"/>
   </g>
   <g id="patch_27">
    <path d="M 839.508884 228.96 
L 865.017455 228.96 
L 865.017455 228.96 
L 839.508884 228.96 
z
" clip-path="url(#p574e9c53dd)" style="fill: #d8832b"/>
   </g>
   <g id="patch_28">
    <path d="M 871.394598 228.96 
L 896.90317 228.96 
L 896.90317 228.96 
L 871.394598 228.96 
z
" clip-path="url(#p574e9c53dd)" style="fill: #d8832b"/>
   </g>
   <g id="patch_29">
    <path d="M 903.280313 228.96 
L 928.788884 228.96 
L 928.788884 228.96 
L 903.280313 228.96 
z
" clip-path="url(#p574e9c53dd)" style="fill: #d8832b"/>
   </g>
   <g id="patch_30">
    <path d="M 935.166027 228.96 
L 960.674598 228.96 
L 960.674598 228.96 
L 935.166027 228.96 
z
" clip-path="url(#p574e9c53dd)" style="fill: #d8832b"/>
   </g>
   <g id="patch_31">
    <path d="M 967.051741 228.96 
L 992.560313 228.96 
L 992.560313 228.96 
L 967.051741 228.96 
z
" clip-path="url(#p574e9c53dd)" style="fill: #d8832b"/>
   </g>
   <g id="patch_32">
    <path d="M 998.937455 228.96 
L 1024.446027 228.96 
L 1024.446027 228.96 
L 998.937455 228.96 
z
" clip-path="url(#p574e9c53dd)" style="fill: #d8832b"/>
   </g>
   <g id="patch_33">
    <path d="M 1030.82317 228.96 
L 1056.331741 228.96 
L 1056.331741 228.96 
L 1030.82317 228.96 
z
" clip-path="url(#p574e9c53dd)" style="fill: #d8832b"/>
   </g>
   <g id="patch_34">
    <path d="M 1062.708884 228.96 
L 1088.217455 228.96 
L 1088.217455 228.96 
L 1062.708884 228.96 
z
" clip-path="url(#p574e9c53dd)" style="fill: #d8832b"/>
   </g>
   <g id="patch_35">
    <path d="M 1094.594598 228.96 
L 1120.10317 228.96 
L 1120.10317 228.96 
L 1094.594598 228.96 
z
" clip-path="url(#p574e9c53dd)" style="fill: #d8832b"/>
   </g>
   <g id="patch_36">
    <path d="M 1126.480313 228.96 
L 1151.988884 228.96 
L 1151.988884 228.96 
L 1126.480313 228.96 
z
" clip-path="url(#p574e9c53dd)" style="fill: #d8832b"/>
   </g>
   <g id="patch_37">
    <path d="M 1158.366027 228.96 
L 1183.874598 228.96 
L 1183.874598 228.96 
L 1158.366027 228.96 
z
" clip-path="url(#p574e9c53dd)" style="fill: #d8832b"/>
   </g>
   <g id="patch_38">
    <path d="M 1190.251741 228.96 
L 1215.760312 228.96 
L 1215.760312 228.96 
L 1190.251741 228.96 
z
" clip-path="url(#p574e9c53dd)" style="fill: #d8832b"/>
   </g>
   <g id="patch_39">
    <path d="M 1222.137455 228.96 
L 1247.646027 228.96 
L 1247.646027 228.96 
L 1222.137455 228.96 
z
" clip-path="url(#p574e9c53dd)" style="fill: #d8832b"/>
   </g>
   <g id="patch_40">
    <path d="M 1254.02317 228.96 
L 1279.531741 228.96 
L 1279.531741 228.96 
L 1254.02317 228.96 
z
" clip-path="url(#p574e9c53dd)" style="fill: #d8832b"/>
   </g>
   <g id="patch_41">
    <path d="M 1285.908884 228.96 
L 1311.417455 228.96 
L 1311.417455 228.96 
L 1285.908884 228.96 
z
" clip-path="url(#p574e9c53dd)" style="fill: #d8832b"/>
   </g>
   <g id="patch_42">
    <path d="M 1317.794598 228.96 
L 1343.30317 228.96 
L 1343.30317 228.96 
L 1317.794598 228.96 
z
" clip-path="url(#p574e9c53dd)" style="fill: #d8832b"/>
   </g>
   <g id="patch_43">
    <path d="M 1349.680313 228.96 
L 1375.188884 228.96 
L 1375.188884 228.96 
L 1349.680313 228.96 
z
" clip-path="url(#p574e9c53dd)" style="fill: #d8832b"/>
   </g>
   <g id="patch_44">
    <path d="M 1381.566027 228.96 
L 1407.074598 228.96 
L 1407.074598 228.96 
L 1381.566027 228.96 
z
" clip-path="url(#p574e9c53dd)" style="fill: #d8832b"/>
   </g>
   <g id="patch_45">
    <path d="M 1413.451741 228.96 
L 1438.960312 228.96 
L 1438.960312 228.96 
L 1413.451741 228.96 
z
" clip-path="url(#p574e9c53dd)" style="fill: #d8832b"/>
   </g>
   <g id="patch_46">
    <path d="M 1445.337455 228.96 
L 1470.846027 228.96 
L 1470.846027 228.96 
L 1445.337455 228.96 
z
" clip-path="url(#p574e9c53dd)" style="fill: #d8832b"/>
   </g>
   <g id="patch_47">
    <path d="M 1477.22317 228.96 
L 1502.731741 228.96 
L 1502.731741 228.96 
L 1477.22317 228.96 
z
" clip-path="url(#p574e9c53dd)" style="fill: #d8832b"/>
   </g>
   <g id="patch_48">
    <path d="M 1509.108884 228.96 
L 1534.617455 228.96 
L 1534.617455 228.96 
L 1509.108884 228.96 
z
" clip-path="url(#p574e9c53dd)" style="fill: #d8832b"/>
   </g>
   <g id="patch_49">
    <path d="M 1540.994598 228.96 
L 1566.50317 228.96 
L 1566.50317 228.96 
L 1540.994598 228.96 
z
" clip-path="url(#p574e9c53dd)" style="fill: #d8832b"/>
   </g>
   <g id="patch_50">
    <path d="M 1572.880313 228.96 
L 1598.388884 228.96 
L 1598.388884 228.96 
L 1572.880313 228.96 
z
" clip-path="url(#p574e9c53dd)" style="fill: #d8832b"/>
   </g>
   <g id="patch_51">
    <path d="M 1604.766027 228.96 
L 1630.274598 228.96 
L 1630.274598 228.96 
L 1604.766027 228.96 
z
" clip-path="url(#p574e9c53dd)" style="fill: #d8832b"/>
   </g>
   <g id="patch_52">
    <path d="M 1636.651741 228.96 
L 1662.160312 228.96 
L 1662.160312 228.96 
L 1636.651741 228.96 
z
" clip-path="url(#p574e9c53dd)" style="fill: #d8832b"/>
   </g>
   <g id="patch_53">
    <path d="M 1668.537455 228.96 
L 1694.046027 228.96 
L 1694.046027 228.96 
L 1668.537455 228.96 
z
" clip-path="url(#p574e9c53dd)" style="fill: #d8832b"/>
   </g>
   <g id="patch_54">
    <path d="M 1700.42317 228.96 
L 1725.931741 228.96 
L 1725.931741 228.96 
L 1700.42317 228.96 
z
" clip-path="url(#p574e9c53dd)" style="fill: #d8832b"/>
   </g>
   <g id="patch_55">
    <path d="M 1732.308884 228.96 
L 1757.817455 228.96 
L 1757.817455 228.96 
L 1732.308884 228.96 
z
" clip-path="url(#p574e9c53dd)" style="fill: #d8832b"/>
   </g>
   <g id="patch_56">
    <path d="M 1764.194598 228.96 
L 1789.70317 228.96 
L 1789.70317 228.96 
L 1764.194598 228.96 
z
" clip-path="url(#p574e9c53dd)" style="fill: #d8832b"/>
   </g>
   <g id="patch_57">
    <path d="M 1796.080312 228.96 
L 1821.588884 228.96 
L 1821.588884 228.96 
L 1796.080312 228.96 
z
" clip-path="url(#p574e9c53dd)" style="fill: #d8832b"/>
   </g>
   <g id="patch_58">
    <path d="M 1827.966027 228.96 
L 1853.474598 228.96 
L 1853.474598 228.96 
L 1827.966027 228.96 
z
" clip-path="url(#p574e9c53dd)" style="fill: #d8832b"/>
   </g>
   <g id="patch_59">
    <path d="M 1859.851741 228.96 
L 1885.360312 228.96 
L 1885.360312 228.96 
L 1859.851741 228.96 
z
" clip-path="url(#p574e9c53dd)" style="fill: #d8832b"/>
   </g>
   <g id="patch_60">
    <path d="M 1891.737455 228.96 
L 1917.246027 228.96 
L 1917.246027 228.96 
L 1891.737455 228.96 
z
" clip-path="url(#p574e9c53dd)" style="fill: #d8832b"/>
   </g>
   <g id="patch_61">
    <path d="M 1923.62317 228.96 
L 1949.131741 228.96 
L 1949.131741 228.96 
L 1923.62317 228.96 
z
" clip-path="url(#p574e9c53dd)" style="fill: #d8832b"/>
   </g>
   <g id="patch_62">
    <path d="M 1955.508884 228.96 
L 1981.017455 228.96 
L 1981.017455 228.96 
L 1955.508884 228.96 
z
" clip-path="url(#p574e9c53dd)" style="fill: #d8832b"/>
   </g>
   <g id="patch_63">
    <path d="M 1987.394598 228.96 
L 2012.90317 228.96 
L 2012.90317 228.96 
L 1987.394598 228.96 
z
" clip-path="url(#p574e9c53dd)" style="fill: #d8832b"/>
   </g>
   <g id="patch_64">
    <path d="M 2019.280313 228.96 
L 2044.788884 228.96 
L 2044.788884 228.96 
L 2019.280313 228.96 
z
" clip-path="url(#p574e9c53dd)" style="fill: #d8832b"/>
   </g>
   <g id="matplotlib.axis_1">
    <g id="xtick_1">
     <g id="line2d_1">
      <defs>
       <path id="m7e8bdb4352" d="M 0 0 
L 0 3.5 
" style="stroke: #000000; stroke-width: 0.8"/>
      </defs>
      <g>
       <use xlink:href="#m7e8bdb4352" x="87.006027" y="228.96" style="stroke: #000000; stroke-width: 0.8"/>
      </g>
     </g>
     <g id="text_1">
      <!-- GGA -->
      <g transform="translate(90.593214 264.99875) rotate(-90) scale(0.13 -0.13)">
       <defs>
        <path id="DejaVuSans-47" d="M 3809 666 
L 3809 1919 
L 2778 1919 
L 2778 2438 
L 4434 2438 
L 4434 434 
Q 4069 175 3628 42 
Q 3188 -91 2688 -91 
Q 1594 -91 976 548 
Q 359 1188 359 2328 
Q 359 3472 976 4111 
Q 1594 4750 2688 4750 
Q 3144 4750 3555 4637 
Q 3966 4525 4313 4306 
L 4313 3634 
Q 3963 3931 3569 4081 
Q 3175 4231 2741 4231 
Q 1884 4231 1454 3753 
Q 1025 3275 1025 2328 
Q 1025 1384 1454 906 
Q 1884 428 2741 428 
Q 3075 428 3337 486 
Q 3600 544 3809 666 
z
" transform="scale(0.015625)"/>
        <path id="DejaVuSans-41" d="M 2188 4044 
L 1331 1722 
L 3047 1722 
L 2188 4044 
z
M 1831 4666 
L 2547 4666 
L 4325 0 
L 3669 0 
L 3244 1197 
L 1141 1197 
L 716 0 
L 50 0 
L 1831 4666 
z
" transform="scale(0.015625)"/>
       </defs>
       <use xlink:href="#DejaVuSans-47"/>
       <use xlink:href="#DejaVuSans-47" x="77.490234"/>
       <use xlink:href="#DejaVuSans-41" x="154.980469"/>
      </g>
     </g>
    </g>
    <g id="xtick_2">
     <g id="line2d_2">
      <g>
       <use xlink:href="#m7e8bdb4352" x="118.891741" y="228.96" style="stroke: #000000; stroke-width: 0.8"/>
      </g>
     </g>
     <g id="text_2">
      <!-- AAA -->
      <g transform="translate(122.478929 263.353437) rotate(-90) scale(0.13 -0.13)">
       <use xlink:href="#DejaVuSans-41"/>
       <use xlink:href="#DejaVuSans-41" x="71.158203"/>
       <use xlink:href="#DejaVuSans-41" x="142.316406"/>
      </g>
     </g>
    </g>
    <g id="xtick_3">
     <g id="line2d_3">
      <g>
       <use xlink:href="#m7e8bdb4352" x="150.777455" y="228.96" style="stroke: #000000; stroke-width: 0.8"/>
      </g>
     </g>
     <g id="text_3">
      <!-- CUA -->
      <g transform="translate(154.364643 263.444844) rotate(-90) scale(0.13 -0.13)">
       <defs>
        <path id="DejaVuSans-43" d="M 4122 4306 
L 4122 3641 
Q 3803 3938 3442 4084 
Q 3081 4231 2675 4231 
Q 1875 4231 1450 3742 
Q 1025 3253 1025 2328 
Q 1025 1406 1450 917 
Q 1875 428 2675 428 
Q 3081 428 3442 575 
Q 3803 722 4122 1019 
L 4122 359 
Q 3791 134 3420 21 
Q 3050 -91 2638 -91 
Q 1578 -91 968 557 
Q 359 1206 359 2328 
Q 359 3453 968 4101 
Q 1578 4750 2638 4750 
Q 3056 4750 3426 4639 
Q 3797 4528 4122 4306 
z
" transform="scale(0.015625)"/>
        <path id="DejaVuSans-55" d="M 556 4666 
L 1191 4666 
L 1191 1831 
Q 1191 1081 1462 751 
Q 1734 422 2344 422 
Q 2950 422 3222 751 
Q 3494 1081 3494 1831 
L 3494 4666 
L 4128 4666 
L 4128 1753 
Q 4128 841 3676 375 
Q 3225 -91 2344 -91 
Q 1459 -91 1007 375 
Q 556 841 556 1753 
L 556 4666 
z
" transform="scale(0.015625)"/>
       </defs>
       <use xlink:href="#DejaVuSans-43"/>
       <use xlink:href="#DejaVuSans-55" x="69.824219"/>
       <use xlink:href="#DejaVuSans-41" x="143.017578"/>
      </g>
     </g>
    </g>
    <g id="xtick_4">
     <g id="line2d_4">
      <g>
       <use xlink:href="#m7e8bdb4352" x="182.66317" y="228.96" style="stroke: #000000; stroke-width: 0.8"/>
      </g>
     </g>
     <g id="text_4">
      <!-- ACC -->
      <g transform="translate(186.250357 262.780625) rotate(-90) scale(0.13 -0.13)">
       <use xlink:href="#DejaVuSans-41"/>
       <use xlink:href="#DejaVuSans-43" x="66.658203"/>
       <use xlink:href="#DejaVuSans-43" x="136.482422"/>
      </g>
     </g>
    </g>
    <g id="xtick_5">
     <g id="line2d_5">
      <g>
       <use xlink:href="#m7e8bdb4352" x="214.548884" y="228.96" style="stroke: #000000; stroke-width: 0.8"/>
      </g>
     </g>
     <g id="text_5">
      <!-- GAC -->
      <g transform="translate(218.136071 263.775937) rotate(-90) scale(0.13 -0.13)">
       <use xlink:href="#DejaVuSans-47"/>
       <use xlink:href="#DejaVuSans-41" x="77.490234"/>
       <use xlink:href="#DejaVuSans-43" x="144.148438"/>
      </g>
     </g>
    </g>
    <g id="xtick_6">
     <g id="line2d_6">
      <g>
       <use xlink:href="#m7e8bdb4352" x="246.434598" y="228.96" style="stroke: #000000; stroke-width: 0.8"/>
      </g>
     </g>
     <g id="text_6">
      <!-- GUC -->
      <g transform="translate(250.021786 264.625) rotate(-90) scale(0.13 -0.13)">
       <use xlink:href="#DejaVuSans-47"/>
       <use xlink:href="#DejaVuSans-55" x="77.490234"/>
       <use xlink:href="#DejaVuSans-43" x="150.683594"/>
      </g>
     </g>
    </g>
    <g id="xtick_7">
     <g id="line2d_7">
      <g>
       <use xlink:href="#m7e8bdb4352" x="278.320312" y="228.96" style="stroke: #000000; stroke-width: 0.8"/>
      </g>
     </g>
     <g id="text_7">
      <!-- GAA -->
      <g transform="translate(281.9075 264.176094) rotate(-90) scale(0.13 -0.13)">
       <use xlink:href="#DejaVuSans-47"/>
       <use xlink:href="#DejaVuSans-41" x="77.490234"/>
       <use xlink:href="#DejaVuSans-41" x="148.648438"/>
      </g>
     </g>
    </g>
    <g id="xtick_8">
     <g id="line2d_8">
      <g>
       <use xlink:href="#m7e8bdb4352" x="310.206027" y="228.96" style="stroke: #000000; stroke-width: 0.8"/>
      </g>
     </g>
     <g id="text_8">
      <!-- AAC -->
      <g transform="translate(313.793214 262.953281) rotate(-90) scale(0.13 -0.13)">
       <use xlink:href="#DejaVuSans-41"/>
       <use xlink:href="#DejaVuSans-41" x="71.158203"/>
       <use xlink:href="#DejaVuSans-43" x="137.816406"/>
      </g>
     </g>
    </g>
    <g id="xtick_9">
     <g id="line2d_9">
      <g>
       <use xlink:href="#m7e8bdb4352" x="342.091741" y="228.96" style="stroke: #000000; stroke-width: 0.8"/>
      </g>
     </g>
     <g id="text_9">
      <!-- UUC -->
      <g transform="translate(345.678929 264.066406) rotate(-90) scale(0.13 -0.13)">
       <use xlink:href="#DejaVuSans-55"/>
       <use xlink:href="#DejaVuSans-55" x="73.193359"/>
       <use xlink:href="#DejaVuSans-43" x="146.386719"/>
      </g>
     </g>
    </g>
    <g id="xtick_10">
     <g id="line2d_10">
      <g>
       <use xlink:href="#m7e8bdb4352" x="373.977455" y="228.96" style="stroke: #000000; stroke-width: 0.8"/>
      </g>
     </g>
     <g id="text_10">
      <!-- AUC -->
      <g transform="translate(377.564643 263.444844) rotate(-90) scale(0.13 -0.13)">
       <use xlink:href="#DejaVuSans-41"/>
       <use xlink:href="#DejaVuSans-55" x="68.408203"/>
       <use xlink:href="#DejaVuSans-43" x="141.601562"/>
      </g>
     </g>
    </g>
    <g id="xtick_11">
     <g id="line2d_11">
      <g>
       <use xlink:href="#m7e8bdb4352" x="405.86317" y="228.96" style="stroke: #000000; stroke-width: 0.8"/>
      </g>
     </g>
     <g id="text_11">
      <!-- UCA -->
      <g transform="translate(409.450357 263.444844) rotate(-90) scale(0.13 -0.13)">
       <use xlink:href="#DejaVuSans-55"/>
       <use xlink:href="#DejaVuSans-43" x="73.193359"/>
       <use xlink:href="#DejaVuSans-41" x="143.017578"/>
      </g>
     </g>
    </g>
    <g id="xtick_12">
     <g id="line2d_12">
      <g>
       <use xlink:href="#m7e8bdb4352" x="437.748884" y="228.96" style="stroke: #000000; stroke-width: 0.8"/>
      </g>
     </g>
     <g id="text_12">
      <!-- CAC -->
      <g transform="translate(441.336071 262.780625) rotate(-90) scale(0.13 -0.13)">
       <use xlink:href="#DejaVuSans-43"/>
       <use xlink:href="#DejaVuSans-41" x="69.824219"/>
       <use xlink:href="#DejaVuSans-43" x="136.482422"/>
      </g>
     </g>
    </g>
    <g id="xtick_13">
     <g id="line2d_13">
      <g>
       <use xlink:href="#m7e8bdb4352" x="469.634598" y="228.96" style="stroke: #000000; stroke-width: 0.8"/>
      </g>
     </g>
     <g id="text_13">
      <!-- CCG -->
      <g transform="translate(473.221786 264.188281) rotate(-90) scale(0.13 -0.13)">
       <use xlink:href="#DejaVuSans-43"/>
       <use xlink:href="#DejaVuSans-43" x="69.824219"/>
       <use xlink:href="#DejaVuSans-47" x="139.648438"/>
      </g>
     </g>
    </g>
    <g id="xtick_14">
     <g id="line2d_14">
      <g>
       <use xlink:href="#m7e8bdb4352" x="501.520313" y="228.96" style="stroke: #000000; stroke-width: 0.8"/>
      </g>
     </g>
     <g id="text_14">
      <!-- UAC -->
      <g transform="translate(505.1075 263.217344) rotate(-90) scale(0.13 -0.13)">
       <use xlink:href="#DejaVuSans-55"/>
       <use xlink:href="#DejaVuSans-41" x="73.193359"/>
       <use xlink:href="#DejaVuSans-43" x="139.851562"/>
      </g>
     </g>
    </g>
    <g id="xtick_15">
     <g id="line2d_15">
      <g>
       <use xlink:href="#m7e8bdb4352" x="533.406027" y="228.96" style="stroke: #000000; stroke-width: 0.8"/>
      </g>
     </g>
     <g id="text_15">
      <!-- GCA -->
      <g transform="translate(536.993214 264.003438) rotate(-90) scale(0.13 -0.13)">
       <use xlink:href="#DejaVuSans-47"/>
       <use xlink:href="#DejaVuSans-43" x="77.490234"/>
       <use xlink:href="#DejaVuSans-41" x="147.314453"/>
      </g>
     </g>
    </g>
    <g id="xtick_16">
     <g id="line2d_16">
      <g>
       <use xlink:href="#m7e8bdb4352" x="565.291741" y="228.96" style="stroke: #000000; stroke-width: 0.8"/>
      </g>
     </g>
     <g id="text_16">
      <!-- CGU -->
      <g transform="translate(568.878929 264.625) rotate(-90) scale(0.13 -0.13)">
       <use xlink:href="#DejaVuSans-43"/>
       <use xlink:href="#DejaVuSans-47" x="69.824219"/>
       <use xlink:href="#DejaVuSans-55" x="147.314453"/>
      </g>
     </g>
    </g>
    <g id="xtick_17">
     <g id="line2d_17">
      <g>
       <use xlink:href="#m7e8bdb4352" x="597.177455" y="228.96" style="stroke: #000000; stroke-width: 0.8"/>
      </g>
     </g>
     <g id="text_17">
      <!-- CAG -->
      <g transform="translate(600.764643 263.775937) rotate(-90) scale(0.13 -0.13)">
       <use xlink:href="#DejaVuSans-43"/>
       <use xlink:href="#DejaVuSans-41" x="69.824219"/>
       <use xlink:href="#DejaVuSans-47" x="136.482422"/>
      </g>
     </g>
    </g>
    <g id="xtick_18">
     <g id="line2d_18">
      <g>
       <use xlink:href="#m7e8bdb4352" x="629.06317" y="228.96" style="stroke: #000000; stroke-width: 0.8"/>
      </g>
     </g>
     <g id="text_18">
      <!-- AUG -->
      <g transform="translate(632.650357 264.440156) rotate(-90) scale(0.13 -0.13)">
       <use xlink:href="#DejaVuSans-41"/>
       <use xlink:href="#DejaVuSans-55" x="68.408203"/>
       <use xlink:href="#DejaVuSans-47" x="141.601562"/>
      </g>
     </g>
    </g>
    <g id="xtick_19">
     <g id="line2d_19">
      <g>
       <use xlink:href="#m7e8bdb4352" x="660.948884" y="228.96" style="stroke: #000000; stroke-width: 0.8"/>
      </g>
     </g>
     <g id="text_19">
      <!-- UGC -->
      <g transform="translate(664.536071 264.625) rotate(-90) scale(0.13 -0.13)">
       <use xlink:href="#DejaVuSans-55"/>
       <use xlink:href="#DejaVuSans-47" x="73.193359"/>
       <use xlink:href="#DejaVuSans-43" x="150.683594"/>
      </g>
     </g>
    </g>
    <g id="xtick_20">
     <g id="line2d_20">
      <g>
       <use xlink:href="#m7e8bdb4352" x="692.834598" y="228.96" style="stroke: #000000; stroke-width: 0.8"/>
      </g>
     </g>
     <g id="text_20">
      <!-- UGG -->
      <g transform="translate(696.421786 265.620313) rotate(-90) scale(0.13 -0.13)">
       <use xlink:href="#DejaVuSans-55"/>
       <use xlink:href="#DejaVuSans-47" x="73.193359"/>
       <use xlink:href="#DejaVuSans-47" x="150.683594"/>
      </g>
     </g>
    </g>
    <g id="xtick_21">
     <g id="line2d_21">
      <g>
       <use xlink:href="#m7e8bdb4352" x="724.720313" y="228.96" style="stroke: #000000; stroke-width: 0.8"/>
      </g>
     </g>
     <g id="text_21">
      <!-- UGA -->
      <g transform="translate(728.3075 264.440156) rotate(-90) scale(0.13 -0.13)">
       <use xlink:href="#DejaVuSans-55"/>
       <use xlink:href="#DejaVuSans-47" x="73.193359"/>
       <use xlink:href="#DejaVuSans-41" x="150.683594"/>
      </g>
     </g>
    </g>
   </g>
   <g id="matplotlib.axis_2">
    <g id="ytick_1">
     <g id="line2d_22">
      <defs>
       <path id="m3bfd462819" d="M 0 0 
L -3.5 0 
" style="stroke: #000000; stroke-width: 0.8"/>
      </defs>
      <g>
       <use xlink:href="#m3bfd462819" x="55.120313" y="228.96" style="stroke: #000000; stroke-width: 0.8"/>
      </g>
     </g>
     <g id="text_22">
      <!-- 0 -->
      <g transform="translate(35.395313 236.558437) scale(0.2 -0.2)">
       <defs>
        <path id="DejaVuSans-30" d="M 2034 4250 
Q 1547 4250 1301 3770 
Q 1056 3291 1056 2328 
Q 1056 1369 1301 889 
Q 1547 409 2034 409 
Q 2525 409 2770 889 
Q 3016 1369 3016 2328 
Q 3016 3291 2770 3770 
Q 2525 4250 2034 4250 
z
M 2034 4750 
Q 2819 4750 3233 4129 
Q 3647 3509 3647 2328 
Q 3647 1150 3233 529 
Q 2819 -91 2034 -91 
Q 1250 -91 836 529 
Q 422 1150 422 2328 
Q 422 3509 836 4129 
Q 1250 4750 2034 4750 
z
" transform="scale(0.015625)"/>
       </defs>
       <use xlink:href="#DejaVuSans-30"/>
      </g>
     </g>
    </g>
    <g id="ytick_2">
     <g id="line2d_23">
      <g>
       <use xlink:href="#m3bfd462819" x="55.120313" y="183.072" style="stroke: #000000; stroke-width: 0.8"/>
      </g>
     </g>
     <g id="text_23">
      <!-- 2 -->
      <g transform="translate(35.395313 190.670437) scale(0.2 -0.2)">
       <defs>
        <path id="DejaVuSans-32" d="M 1228 531 
L 3431 531 
L 3431 0 
L 469 0 
L 469 531 
Q 828 903 1448 1529 
Q 2069 2156 2228 2338 
Q 2531 2678 2651 2914 
Q 2772 3150 2772 3378 
Q 2772 3750 2511 3984 
Q 2250 4219 1831 4219 
Q 1534 4219 1204 4116 
Q 875 4013 500 3803 
L 500 4441 
Q 881 4594 1212 4672 
Q 1544 4750 1819 4750 
Q 2544 4750 2975 4387 
Q 3406 4025 3406 3419 
Q 3406 3131 3298 2873 
Q 3191 2616 2906 2266 
Q 2828 2175 2409 1742 
Q 1991 1309 1228 531 
z
" transform="scale(0.015625)"/>
       </defs>
       <use xlink:href="#DejaVuSans-32"/>
      </g>
     </g>
    </g>
    <g id="ytick_3">
     <g id="line2d_24">
      <g>
       <use xlink:href="#m3bfd462819" x="55.120313" y="137.184" style="stroke: #000000; stroke-width: 0.8"/>
      </g>
     </g>
     <g id="text_24">
      <!-- 4 -->
      <g transform="translate(35.395313 144.782438) scale(0.2 -0.2)">
       <defs>
        <path id="DejaVuSans-34" d="M 2419 4116 
L 825 1625 
L 2419 1625 
L 2419 4116 
z
M 2253 4666 
L 3047 4666 
L 3047 1625 
L 3713 1625 
L 3713 1100 
L 3047 1100 
L 3047 0 
L 2419 0 
L 2419 1100 
L 313 1100 
L 313 1709 
L 2253 4666 
z
" transform="scale(0.015625)"/>
       </defs>
       <use xlink:href="#DejaVuSans-34"/>
      </g>
     </g>
    </g>
    <g id="ytick_4">
     <g id="line2d_25">
      <g>
       <use xlink:href="#m3bfd462819" x="55.120313" y="91.296" style="stroke: #000000; stroke-width: 0.8"/>
      </g>
     </g>
     <g id="text_25">
      <!-- 6 -->
      <g transform="translate(35.395313 98.894438) scale(0.2 -0.2)">
       <defs>
        <path id="DejaVuSans-36" d="M 2113 2584 
Q 1688 2584 1439 2293 
Q 1191 2003 1191 1497 
Q 1191 994 1439 701 
Q 1688 409 2113 409 
Q 2538 409 2786 701 
Q 3034 994 3034 1497 
Q 3034 2003 2786 2293 
Q 2538 2584 2113 2584 
z
M 3366 4563 
L 3366 3988 
Q 3128 4100 2886 4159 
Q 2644 4219 2406 4219 
Q 1781 4219 1451 3797 
Q 1122 3375 1075 2522 
Q 1259 2794 1537 2939 
Q 1816 3084 2150 3084 
Q 2853 3084 3261 2657 
Q 3669 2231 3669 1497 
Q 3669 778 3244 343 
Q 2819 -91 2113 -91 
Q 1303 -91 875 529 
Q 447 1150 447 2328 
Q 447 3434 972 4092 
Q 1497 4750 2381 4750 
Q 2619 4750 2861 4703 
Q 3103 4656 3366 4563 
z
" transform="scale(0.015625)"/>
       </defs>
       <use xlink:href="#DejaVuSans-36"/>
      </g>
     </g>
    </g>
    <g id="ytick_5">
     <g id="line2d_26">
      <g>
       <use xlink:href="#m3bfd462819" x="55.120313" y="45.408" style="stroke: #000000; stroke-width: 0.8"/>
      </g>
     </g>
     <g id="text_26">
      <!-- 8 -->
      <g transform="translate(35.395313 53.006438) scale(0.2 -0.2)">
       <defs>
        <path id="DejaVuSans-38" d="M 2034 2216 
Q 1584 2216 1326 1975 
Q 1069 1734 1069 1313 
Q 1069 891 1326 650 
Q 1584 409 2034 409 
Q 2484 409 2743 651 
Q 3003 894 3003 1313 
Q 3003 1734 2745 1975 
Q 2488 2216 2034 2216 
z
M 1403 2484 
Q 997 2584 770 2862 
Q 544 3141 544 3541 
Q 544 4100 942 4425 
Q 1341 4750 2034 4750 
Q 2731 4750 3128 4425 
Q 3525 4100 3525 3541 
Q 3525 3141 3298 2862 
Q 3072 2584 2669 2484 
Q 3125 2378 3379 2068 
Q 3634 1759 3634 1313 
Q 3634 634 3220 271 
Q 2806 -91 2034 -91 
Q 1263 -91 848 271 
Q 434 634 434 1313 
Q 434 1759 690 2068 
Q 947 2378 1403 2484 
z
M 1172 3481 
Q 1172 3119 1398 2916 
Q 1625 2713 2034 2713 
Q 2441 2713 2670 2916 
Q 2900 3119 2900 3481 
Q 2900 3844 2670 4047 
Q 2441 4250 2034 4250 
Q 1625 4250 1398 4047 
Q 1172 3844 1172 3481 
z
" transform="scale(0.015625)"/>
       </defs>
       <use xlink:href="#DejaVuSans-38"/>
      </g>
     </g>
    </g>
    <g id="text_27">
     <!-- Frequency (%) -->
     <g transform="translate(26.196094 208.257734) rotate(-90) scale(0.25 -0.25)">
      <defs>
       <path id="DejaVuSans-46" d="M 628 4666 
L 3309 4666 
L 3309 4134 
L 1259 4134 
L 1259 2759 
L 3109 2759 
L 3109 2228 
L 1259 2228 
L 1259 0 
L 628 0 
L 628 4666 
z
" transform="scale(0.015625)"/>
       <path id="DejaVuSans-72" d="M 2631 2963 
Q 2534 3019 2420 3045 
Q 2306 3072 2169 3072 
Q 1681 3072 1420 2755 
Q 1159 2438 1159 1844 
L 1159 0 
L 581 0 
L 581 3500 
L 1159 3500 
L 1159 2956 
Q 1341 3275 1631 3429 
Q 1922 3584 2338 3584 
Q 2397 3584 2469 3576 
Q 2541 3569 2628 3553 
L 2631 2963 
z
" transform="scale(0.015625)"/>
       <path id="DejaVuSans-65" d="M 3597 1894 
L 3597 1613 
L 953 1613 
Q 991 1019 1311 708 
Q 1631 397 2203 397 
Q 2534 397 2845 478 
Q 3156 559 3463 722 
L 3463 178 
Q 3153 47 2828 -22 
Q 2503 -91 2169 -91 
Q 1331 -91 842 396 
Q 353 884 353 1716 
Q 353 2575 817 3079 
Q 1281 3584 2069 3584 
Q 2775 3584 3186 3129 
Q 3597 2675 3597 1894 
z
M 3022 2063 
Q 3016 2534 2758 2815 
Q 2500 3097 2075 3097 
Q 1594 3097 1305 2825 
Q 1016 2553 972 2059 
L 3022 2063 
z
" transform="scale(0.015625)"/>
       <path id="DejaVuSans-71" d="M 947 1747 
Q 947 1113 1208 752 
Q 1469 391 1925 391 
Q 2381 391 2643 752 
Q 2906 1113 2906 1747 
Q 2906 2381 2643 2742 
Q 2381 3103 1925 3103 
Q 1469 3103 1208 2742 
Q 947 2381 947 1747 
z
M 2906 525 
Q 2725 213 2448 61 
Q 2172 -91 1784 -91 
Q 1150 -91 751 415 
Q 353 922 353 1747 
Q 353 2572 751 3078 
Q 1150 3584 1784 3584 
Q 2172 3584 2448 3432 
Q 2725 3281 2906 2969 
L 2906 3500 
L 3481 3500 
L 3481 -1331 
L 2906 -1331 
L 2906 525 
z
" transform="scale(0.015625)"/>
       <path id="DejaVuSans-75" d="M 544 1381 
L 544 3500 
L 1119 3500 
L 1119 1403 
Q 1119 906 1312 657 
Q 1506 409 1894 409 
Q 2359 409 2629 706 
Q 2900 1003 2900 1516 
L 2900 3500 
L 3475 3500 
L 3475 0 
L 2900 0 
L 2900 538 
Q 2691 219 2414 64 
Q 2138 -91 1772 -91 
Q 1169 -91 856 284 
Q 544 659 544 1381 
z
M 1991 3584 
L 1991 3584 
z
" transform="scale(0.015625)"/>
       <path id="DejaVuSans-6e" d="M 3513 2113 
L 3513 0 
L 2938 0 
L 2938 2094 
Q 2938 2591 2744 2837 
Q 2550 3084 2163 3084 
Q 1697 3084 1428 2787 
Q 1159 2491 1159 1978 
L 1159 0 
L 581 0 
L 581 3500 
L 1159 3500 
L 1159 2956 
Q 1366 3272 1645 3428 
Q 1925 3584 2291 3584 
Q 2894 3584 3203 3211 
Q 3513 2838 3513 2113 
z
" transform="scale(0.015625)"/>
       <path id="DejaVuSans-63" d="M 3122 3366 
L 3122 2828 
Q 2878 2963 2633 3030 
Q 2388 3097 2138 3097 
Q 1578 3097 1268 2742 
Q 959 2388 959 1747 
Q 959 1106 1268 751 
Q 1578 397 2138 397 
Q 2388 397 2633 464 
Q 2878 531 3122 666 
L 3122 134 
Q 2881 22 2623 -34 
Q 2366 -91 2075 -91 
Q 1284 -91 818 406 
Q 353 903 353 1747 
Q 353 2603 823 3093 
Q 1294 3584 2113 3584 
Q 2378 3584 2631 3529 
Q 2884 3475 3122 3366 
z
" transform="scale(0.015625)"/>
       <path id="DejaVuSans-79" d="M 2059 -325 
Q 1816 -950 1584 -1140 
Q 1353 -1331 966 -1331 
L 506 -1331 
L 506 -850 
L 844 -850 
Q 1081 -850 1212 -737 
Q 1344 -625 1503 -206 
L 1606 56 
L 191 3500 
L 800 3500 
L 1894 763 
L 2988 3500 
L 3597 3500 
L 2059 -325 
z
" transform="scale(0.015625)"/>
       <path id="DejaVuSans-20" transform="scale(0.015625)"/>
       <path id="DejaVuSans-28" d="M 1984 4856 
Q 1566 4138 1362 3434 
Q 1159 2731 1159 2009 
Q 1159 1288 1364 580 
Q 1569 -128 1984 -844 
L 1484 -844 
Q 1016 -109 783 600 
Q 550 1309 550 2009 
Q 550 2706 781 3412 
Q 1013 4119 1484 4856 
L 1984 4856 
z
" transform="scale(0.015625)"/>
       <path id="DejaVuSans-25" d="M 4653 2053 
Q 4381 2053 4226 1822 
Q 4072 1591 4072 1178 
Q 4072 772 4226 539 
Q 4381 306 4653 306 
Q 4919 306 5073 539 
Q 5228 772 5228 1178 
Q 5228 1588 5073 1820 
Q 4919 2053 4653 2053 
z
M 4653 2450 
Q 5147 2450 5437 2106 
Q 5728 1763 5728 1178 
Q 5728 594 5436 251 
Q 5144 -91 4653 -91 
Q 4153 -91 3862 251 
Q 3572 594 3572 1178 
Q 3572 1766 3864 2108 
Q 4156 2450 4653 2450 
z
M 1428 4353 
Q 1159 4353 1004 4120 
Q 850 3888 850 3481 
Q 850 3069 1003 2837 
Q 1156 2606 1428 2606 
Q 1700 2606 1854 2837 
Q 2009 3069 2009 3481 
Q 2009 3884 1853 4118 
Q 1697 4353 1428 4353 
z
M 4250 4750 
L 4750 4750 
L 1831 -91 
L 1331 -91 
L 4250 4750 
z
M 1428 4750 
Q 1922 4750 2215 4408 
Q 2509 4066 2509 3481 
Q 2509 2891 2217 2550 
Q 1925 2209 1428 2209 
Q 931 2209 642 2551 
Q 353 2894 353 3481 
Q 353 4063 643 4406 
Q 934 4750 1428 4750 
z
" transform="scale(0.015625)"/>
       <path id="DejaVuSans-29" d="M 513 4856 
L 1013 4856 
Q 1481 4119 1714 3412 
Q 1947 2706 1947 2009 
Q 1947 1309 1714 600 
Q 1481 -109 1013 -844 
L 513 -844 
Q 928 -128 1133 580 
Q 1338 1288 1338 2009 
Q 1338 2731 1133 3434 
Q 928 4138 513 4856 
z
" transform="scale(0.015625)"/>
      </defs>
      <use xlink:href="#DejaVuSans-46"/>
      <use xlink:href="#DejaVuSans-72" x="50.269531"/>
      <use xlink:href="#DejaVuSans-65" x="89.132812"/>
      <use xlink:href="#DejaVuSans-71" x="150.65625"/>
      <use xlink:href="#DejaVuSans-75" x="214.132812"/>
      <use xlink:href="#DejaVuSans-65" x="277.511719"/>
      <use xlink:href="#DejaVuSans-6e" x="339.035156"/>
      <use xlink:href="#DejaVuSans-63" x="402.414062"/>
      <use xlink:href="#DejaVuSans-79" x="457.394531"/>
      <use xlink:href="#DejaVuSans-20" x="516.574219"/>
      <use xlink:href="#DejaVuSans-28" x="548.361328"/>
      <use xlink:href="#DejaVuSans-25" x="587.375"/>
      <use xlink:href="#DejaVuSans-29" x="682.394531"/>
     </g>
    </g>
   </g>
   <g id="line2d_27">
    <path d="M 87.006027 191.953548 
L 118.891741 191.953548 
L 150.777455 191.953548 
L 182.66317 191.953548 
L 214.548884 191.953548 
L 246.434598 191.953548 
L 278.320312 191.953548 
L 310.206027 191.953548 
L 342.091741 191.953548 
L 373.977455 191.953548 
L 405.86317 191.953548 
L 437.748884 191.953548 
L 469.634598 191.953548 
L 501.520313 191.953548 
L 533.406027 191.953548 
L 565.291741 191.953548 
L 597.177455 191.953548 
L 629.06317 191.953548 
L 660.948884 191.953548 
L 692.834598 191.953548 
L 724.720313 191.953548 
L 739.211094 191.953548 
" clip-path="url(#p574e9c53dd)" style="fill: none; stroke-dasharray: 14.8,6.4; stroke-dashoffset: 0; stroke: #000000; stroke-opacity: 0.5; stroke-width: 4"/>
   </g>
   <g id="patch_65">
    <path d="M 55.120313 228.96 
L 55.120313 7.2 
" style="fill: none; stroke: #000000; stroke-width: 4; stroke-linejoin: miter; stroke-linecap: square"/>
   </g>
   <g id="patch_66">
    <path d="M 724.720312 228.96 
L 724.720312 7.2 
" style="fill: none"/>
   </g>
   <g id="patch_67">
    <path d="M 55.120312 228.96 
L 724.720313 228.96 
" style="fill: none; stroke: #000000; stroke-width: 4; stroke-linejoin: miter; stroke-linecap: square"/>
   </g>
   <g id="patch_68">
    <path d="M 55.120312 7.2 
L 724.720313 7.2 
" style="fill: none"/>
   </g>
  </g>
 </g>
 <defs>
  <clipPath id="p574e9c53dd">
   <rect x="55.120313" y="7.2" width="669.6" height="221.76"/>
  </clipPath>
 </defs>
</svg>
