<?xml version="1.0" encoding="utf-8" standalone="no"?>
<!DOCTYPE svg PUBLIC "-//W3C//DTD SVG 1.1//EN"
  "http://www.w3.org/Graphics/SVG/1.1/DTD/svg11.dtd">
<svg xmlns:xlink="http://www.w3.org/1999/xlink" width="352.495312pt" height="351.711562pt" viewBox="0 0 352.495312 351.711562" xmlns="http://www.w3.org/2000/svg" version="1.1">
 <metadata>
  <rdf:RDF xmlns:dc="http://purl.org/dc/elements/1.1/" xmlns:cc="http://creativecommons.org/ns#" xmlns:rdf="http://www.w3.org/1999/02/22-rdf-syntax-ns#">
   <cc:Work>
    <dc:type rdf:resource="http://purl.org/dc/dcmitype/StillImage"/>
    <dc:date>2023-05-17T23:38:19.754473</dc:date>
    <dc:format>image/svg+xml</dc:format>
    <dc:creator>
     <cc:Agent>
      <dc:title>Matplotlib v3.7.1, https://matplotlib.org/</dc:title>
     </cc:Agent>
    </dc:creator>
   </cc:Work>
  </rdf:RDF>
 </metadata>
 <defs>
  <style type="text/css">*{stroke-linejoin: round; stroke-linecap: butt}</style>
 </defs>
 <g id="figure_1">
  <g id="patch_1">
   <path d="M -0 351.711562 
L 352.495312 351.711562 
L 352.495312 0 
L -0 0 
z
" style="fill: #ffffff"/>
  </g>
  <g id="axes_1">
   <g id="patch_2">
    <path d="M 67.845313 289.96 
L 345.295313 289.96 
L 345.295313 7.2 
L 67.845313 7.2 
z
" style="fill: #ffffff"/>
   </g>
   <g id="PathCollection_1">
    <defs>
     <path id="mb48ad918c2" d="M 0 3 
C 0.795609 3 1.55874 2.683901 2.12132 2.12132 
C 2.683901 1.55874 3 0.795609 3 0 
C 3 -0.795609 2.683901 -1.55874 2.12132 -2.12132 
C 1.55874 -2.683901 0.795609 -3 0 -3 
C -0.795609 -3 -1.55874 -2.683901 -2.12132 -2.12132 
C -2.683901 -1.55874 -3 -0.795609 -3 0 
C -3 0.795609 -2.683901 1.55874 -2.12132 2.12132 
C -1.55874 2.683901 -0.795609 3 0 3 
z
" style="stroke: #000000"/>
    </defs>
    <g clip-path="url(#p42c0323307)">
     <use xlink:href="#mb48ad918c2" x="331.490071" y="102.157592" style="stroke: #000000"/>
     <use xlink:href="#mb48ad918c2" x="278.140174" y="70.857191" style="stroke: #000000"/>
     <use xlink:href="#mb48ad918c2" x="261.305227" y="211.708997" style="stroke: #000000"/>
     <use xlink:href="#mb48ad918c2" x="248.775291" y="102.157592" style="stroke: #000000"/>
     <use xlink:href="#mb48ad918c2" x="225.747712" y="106.070143" style="stroke: #000000"/>
     <use xlink:href="#mb48ad918c2" x="223.989018" y="235.184298" style="stroke: #000000"/>
     <use xlink:href="#mb48ad918c2" x="222.449501" y="102.157592" style="stroke: #000000"/>
     <use xlink:href="#mb48ad918c2" x="212.339456" y="133.457994" style="stroke: #000000"/>
     <use xlink:href="#mb48ad918c2" x="207.594061" y="176.496045" style="stroke: #000000"/>
     <use xlink:href="#mb48ad918c2" x="206.984099" y="98.245042" style="stroke: #000000"/>
     <use xlink:href="#mb48ad918c2" x="205.421599" y="176.496045" style="stroke: #000000"/>
     <use xlink:href="#mb48ad918c2" x="204.635188" y="243.009398" style="stroke: #000000"/>
     <use xlink:href="#mb48ad918c2" x="199.05386" y="86.507392" style="stroke: #000000"/>
     <use xlink:href="#mb48ad918c2" x="195.177281" y="243.009398" style="stroke: #000000"/>
     <use xlink:href="#mb48ad918c2" x="190.456239" y="254.747049" style="stroke: #000000"/>
     <use xlink:href="#mb48ad918c2" x="190.164501" y="250.834498" style="stroke: #000000"/>
     <use xlink:href="#mb48ad918c2" x="187.314521" y="133.457994" style="stroke: #000000"/>
     <use xlink:href="#mb48ad918c2" x="178.211328" y="250.834498" style="stroke: #000000"/>
     <use xlink:href="#mb48ad918c2" x="176.451554" y="137.370544" style="stroke: #000000"/>
     <use xlink:href="#mb48ad918c2" x="175.162941" y="133.457994" style="stroke: #000000"/>
     <use xlink:href="#mb48ad918c2" x="171.794041" y="106.070143" style="stroke: #000000"/>
     <use xlink:href="#mb48ad918c2" x="165.01035" y="219.534096" style="stroke: #000000"/>
     <use xlink:href="#mb48ad918c2" x="161.321382" y="262.572149" style="stroke: #000000"/>
     <use xlink:href="#mb48ad918c2" x="160.606873" y="98.245042" style="stroke: #000000"/>
     <use xlink:href="#mb48ad918c2" x="153.075395" y="70.857191" style="stroke: #000000"/>
     <use xlink:href="#mb48ad918c2" x="143.806521" y="137.370544" style="stroke: #000000"/>
     <use xlink:href="#mb48ad918c2" x="142.616296" y="250.834498" style="stroke: #000000"/>
     <use xlink:href="#mb48ad918c2" x="140.989293" y="192.146246" style="stroke: #000000"/>
     <use xlink:href="#mb48ad918c2" x="139.017817" y="219.534096" style="stroke: #000000"/>
     <use xlink:href="#mb48ad918c2" x="138.085998" y="203.883897" style="stroke: #000000"/>
     <use xlink:href="#mb48ad918c2" x="137.322809" y="246.921948" style="stroke: #000000"/>
     <use xlink:href="#mb48ad918c2" x="136.843749" y="211.708997" style="stroke: #000000"/>
     <use xlink:href="#mb48ad918c2" x="132.951137" y="258.659599" style="stroke: #000000"/>
     <use xlink:href="#mb48ad918c2" x="132.023925" y="250.834498" style="stroke: #000000"/>
     <use xlink:href="#mb48ad918c2" x="131.383134" y="239.096849" style="stroke: #000000"/>
     <use xlink:href="#mb48ad918c2" x="131.17991" y="258.659599" style="stroke: #000000"/>
     <use xlink:href="#mb48ad918c2" x="129.725196" y="258.659599" style="stroke: #000000"/>
     <use xlink:href="#mb48ad918c2" x="128.565168" y="235.184298" style="stroke: #000000"/>
     <use xlink:href="#mb48ad918c2" x="124.504953" y="215.621547" style="stroke: #000000"/>
     <use xlink:href="#mb48ad918c2" x="119.572736" y="258.659599" style="stroke: #000000"/>
     <use xlink:href="#mb48ad918c2" x="118.218646" y="246.921948" style="stroke: #000000"/>
     <use xlink:href="#mb48ad918c2" x="116.971553" y="192.146246" style="stroke: #000000"/>
     <use xlink:href="#mb48ad918c2" x="113.74677" y="246.921948" style="stroke: #000000"/>
     <use xlink:href="#mb48ad918c2" x="113.179591" y="270.397249" style="stroke: #000000"/>
     <use xlink:href="#mb48ad918c2" x="112.215205" y="207.796447" style="stroke: #000000"/>
     <use xlink:href="#mb48ad918c2" x="111.447698" y="262.572149" style="stroke: #000000"/>
     <use xlink:href="#mb48ad918c2" x="110.214084" y="223.446647" style="stroke: #000000"/>
     <use xlink:href="#mb48ad918c2" x="107.975198" y="243.009398" style="stroke: #000000"/>
     <use xlink:href="#mb48ad918c2" x="105.3187" y="235.184298" style="stroke: #000000"/>
     <use xlink:href="#mb48ad918c2" x="104.664508" y="246.921948" style="stroke: #000000"/>
     <use xlink:href="#mb48ad918c2" x="102.391553" y="235.184298" style="stroke: #000000"/>
     <use xlink:href="#mb48ad918c2" x="102.389552" y="239.096848" style="stroke: #000000"/>
     <use xlink:href="#mb48ad918c2" x="101.510442" y="207.796447" style="stroke: #000000"/>
     <use xlink:href="#mb48ad918c2" x="100.665399" y="235.184298" style="stroke: #000000"/>
     <use xlink:href="#mb48ad918c2" x="95.670338" y="262.572149" style="stroke: #000000"/>
     <use xlink:href="#mb48ad918c2" x="95.368648" y="274.309799" style="stroke: #000000"/>
     <use xlink:href="#mb48ad918c2" x="93.679143" y="266.484699" style="stroke: #000000"/>
     <use xlink:href="#mb48ad918c2" x="92.501212" y="98.245042" style="stroke: #000000"/>
     <use xlink:href="#mb48ad918c2" x="91.96352" y="289.96" style="stroke: #000000"/>
     <use xlink:href="#mb48ad918c2" x="89.643412" y="262.572149" style="stroke: #000000"/>
     <use xlink:href="#mb48ad918c2" x="88.915792" y="282.1349" style="stroke: #000000"/>
     <use xlink:href="#mb48ad918c2" x="88.776676" y="274.309799" style="stroke: #000000"/>
    </g>
   </g>
   <g id="matplotlib.axis_1">
    <g id="xtick_1">
     <g id="line2d_1">
      <defs>
       <path id="m72a95ef6fc" d="M 0 0 
L 0 3.5 
" style="stroke: #000000; stroke-width: 0.8"/>
      </defs>
      <g>
       <use xlink:href="#m72a95ef6fc" x="87.66317" y="289.96" style="stroke: #000000; stroke-width: 0.8"/>
      </g>
     </g>
     <g id="text_1">
      <!-- 0 -->
      <g transform="translate(81.30067 312.156875) scale(0.2 -0.2)">
       <defs>
        <path id="DejaVuSans-30" d="M 2034 4250 
Q 1547 4250 1301 3770 
Q 1056 3291 1056 2328 
Q 1056 1369 1301 889 
Q 1547 409 2034 409 
Q 2525 409 2770 889 
Q 3016 1369 3016 2328 
Q 3016 3291 2770 3770 
Q 2525 4250 2034 4250 
z
M 2034 4750 
Q 2819 4750 3233 4129 
Q 3647 3509 3647 2328 
Q 3647 1150 3233 529 
Q 2819 -91 2034 -91 
Q 1250 -91 836 529 
Q 422 1150 422 2328 
Q 422 3509 836 4129 
Q 1250 4750 2034 4750 
z
" transform="scale(0.015625)"/>
       </defs>
       <use xlink:href="#DejaVuSans-30"/>
      </g>
     </g>
    </g>
    <g id="xtick_2">
     <g id="line2d_2">
      <g>
       <use xlink:href="#m72a95ef6fc" x="166.934598" y="289.96" style="stroke: #000000; stroke-width: 0.8"/>
      </g>
     </g>
     <g id="text_2">
      <!-- 2 -->
      <g transform="translate(160.572098 312.156875) scale(0.2 -0.2)">
       <defs>
        <path id="DejaVuSans-32" d="M 1228 531 
L 3431 531 
L 3431 0 
L 469 0 
L 469 531 
Q 828 903 1448 1529 
Q 2069 2156 2228 2338 
Q 2531 2678 2651 2914 
Q 2772 3150 2772 3378 
Q 2772 3750 2511 3984 
Q 2250 4219 1831 4219 
Q 1534 4219 1204 4116 
Q 875 4013 500 3803 
L 500 4441 
Q 881 4594 1212 4672 
Q 1544 4750 1819 4750 
Q 2544 4750 2975 4387 
Q 3406 4025 3406 3419 
Q 3406 3131 3298 2873 
Q 3191 2616 2906 2266 
Q 2828 2175 2409 1742 
Q 1991 1309 1228 531 
z
" transform="scale(0.015625)"/>
       </defs>
       <use xlink:href="#DejaVuSans-32"/>
      </g>
     </g>
    </g>
    <g id="xtick_3">
     <g id="line2d_3">
      <g>
       <use xlink:href="#m72a95ef6fc" x="246.206027" y="289.96" style="stroke: #000000; stroke-width: 0.8"/>
      </g>
     </g>
     <g id="text_3">
      <!-- 4 -->
      <g transform="translate(239.843527 312.156875) scale(0.2 -0.2)">
       <defs>
        <path id="DejaVuSans-34" d="M 2419 4116 
L 825 1625 
L 2419 1625 
L 2419 4116 
z
M 2253 4666 
L 3047 4666 
L 3047 1625 
L 3713 1625 
L 3713 1100 
L 3047 1100 
L 3047 0 
L 2419 0 
L 2419 1100 
L 313 1100 
L 313 1709 
L 2253 4666 
z
" transform="scale(0.015625)"/>
       </defs>
       <use xlink:href="#DejaVuSans-34"/>
      </g>
     </g>
    </g>
    <g id="xtick_4">
     <g id="line2d_4">
      <g>
       <use xlink:href="#m72a95ef6fc" x="325.477455" y="289.96" style="stroke: #000000; stroke-width: 0.8"/>
      </g>
     </g>
     <g id="text_4">
      <!-- 6 -->
      <g transform="translate(319.114955 312.156875) scale(0.2 -0.2)">
       <defs>
        <path id="DejaVuSans-36" d="M 2113 2584 
Q 1688 2584 1439 2293 
Q 1191 2003 1191 1497 
Q 1191 994 1439 701 
Q 1688 409 2113 409 
Q 2538 409 2786 701 
Q 3034 994 3034 1497 
Q 3034 2003 2786 2293 
Q 2538 2584 2113 2584 
z
M 3366 4563 
L 3366 3988 
Q 3128 4100 2886 4159 
Q 2644 4219 2406 4219 
Q 1781 4219 1451 3797 
Q 1122 3375 1075 2522 
Q 1259 2794 1537 2939 
Q 1816 3084 2150 3084 
Q 2853 3084 3261 2657 
Q 3669 2231 3669 1497 
Q 3669 778 3244 343 
Q 2819 -91 2113 -91 
Q 1303 -91 875 529 
Q 447 1150 447 2328 
Q 447 3434 972 4092 
Q 1497 4750 2381 4750 
Q 2619 4750 2861 4703 
Q 3103 4656 3366 4563 
z
" transform="scale(0.015625)"/>
       </defs>
       <use xlink:href="#DejaVuSans-36"/>
      </g>
     </g>
    </g>
    <g id="text_5">
     <!-- Codon frequency (%) -->
     <g transform="translate(74.419922 339.312344) scale(0.25 -0.25)">
      <defs>
       <path id="DejaVuSans-43" d="M 4122 4306 
L 4122 3641 
Q 3803 3938 3442 4084 
Q 3081 4231 2675 4231 
Q 1875 4231 1450 3742 
Q 1025 3253 1025 2328 
Q 1025 1406 1450 917 
Q 1875 428 2675 428 
Q 3081 428 3442 575 
Q 3803 722 4122 1019 
L 4122 359 
Q 3791 134 3420 21 
Q 3050 -91 2638 -91 
Q 1578 -91 968 557 
Q 359 1206 359 2328 
Q 359 3453 968 4101 
Q 1578 4750 2638 4750 
Q 3056 4750 3426 4639 
Q 3797 4528 4122 4306 
z
" transform="scale(0.015625)"/>
       <path id="DejaVuSans-6f" d="M 1959 3097 
Q 1497 3097 1228 2736 
Q 959 2375 959 1747 
Q 959 1119 1226 758 
Q 1494 397 1959 397 
Q 2419 397 2687 759 
Q 2956 1122 2956 1747 
Q 2956 2369 2687 2733 
Q 2419 3097 1959 3097 
z
M 1959 3584 
Q 2709 3584 3137 3096 
Q 3566 2609 3566 1747 
Q 3566 888 3137 398 
Q 2709 -91 1959 -91 
Q 1206 -91 779 398 
Q 353 888 353 1747 
Q 353 2609 779 3096 
Q 1206 3584 1959 3584 
z
" transform="scale(0.015625)"/>
       <path id="DejaVuSans-64" d="M 2906 2969 
L 2906 4863 
L 3481 4863 
L 3481 0 
L 2906 0 
L 2906 525 
Q 2725 213 2448 61 
Q 2172 -91 1784 -91 
Q 1150 -91 751 415 
Q 353 922 353 1747 
Q 353 2572 751 3078 
Q 1150 3584 1784 3584 
Q 2172 3584 2448 3432 
Q 2725 3281 2906 2969 
z
M 947 1747 
Q 947 1113 1208 752 
Q 1469 391 1925 391 
Q 2381 391 2643 752 
Q 2906 1113 2906 1747 
Q 2906 2381 2643 2742 
Q 2381 3103 1925 3103 
Q 1469 3103 1208 2742 
Q 947 2381 947 1747 
z
" transform="scale(0.015625)"/>
       <path id="DejaVuSans-6e" d="M 3513 2113 
L 3513 0 
L 2938 0 
L 2938 2094 
Q 2938 2591 2744 2837 
Q 2550 3084 2163 3084 
Q 1697 3084 1428 2787 
Q 1159 2491 1159 1978 
L 1159 0 
L 581 0 
L 581 3500 
L 1159 3500 
L 1159 2956 
Q 1366 3272 1645 3428 
Q 1925 3584 2291 3584 
Q 2894 3584 3203 3211 
Q 3513 2838 3513 2113 
z
" transform="scale(0.015625)"/>
       <path id="DejaVuSans-20" transform="scale(0.015625)"/>
       <path id="DejaVuSans-66" d="M 2375 4863 
L 2375 4384 
L 1825 4384 
Q 1516 4384 1395 4259 
Q 1275 4134 1275 3809 
L 1275 3500 
L 2222 3500 
L 2222 3053 
L 1275 3053 
L 1275 0 
L 697 0 
L 697 3053 
L 147 3053 
L 147 3500 
L 697 3500 
L 697 3744 
Q 697 4328 969 4595 
Q 1241 4863 1831 4863 
L 2375 4863 
z
" transform="scale(0.015625)"/>
       <path id="DejaVuSans-72" d="M 2631 2963 
Q 2534 3019 2420 3045 
Q 2306 3072 2169 3072 
Q 1681 3072 1420 2755 
Q 1159 2438 1159 1844 
L 1159 0 
L 581 0 
L 581 3500 
L 1159 3500 
L 1159 2956 
Q 1341 3275 1631 3429 
Q 1922 3584 2338 3584 
Q 2397 3584 2469 3576 
Q 2541 3569 2628 3553 
L 2631 2963 
z
" transform="scale(0.015625)"/>
       <path id="DejaVuSans-65" d="M 3597 1894 
L 3597 1613 
L 953 1613 
Q 991 1019 1311 708 
Q 1631 397 2203 397 
Q 2534 397 2845 478 
Q 3156 559 3463 722 
L 3463 178 
Q 3153 47 2828 -22 
Q 2503 -91 2169 -91 
Q 1331 -91 842 396 
Q 353 884 353 1716 
Q 353 2575 817 3079 
Q 1281 3584 2069 3584 
Q 2775 3584 3186 3129 
Q 3597 2675 3597 1894 
z
M 3022 2063 
Q 3016 2534 2758 2815 
Q 2500 3097 2075 3097 
Q 1594 3097 1305 2825 
Q 1016 2553 972 2059 
L 3022 2063 
z
" transform="scale(0.015625)"/>
       <path id="DejaVuSans-71" d="M 947 1747 
Q 947 1113 1208 752 
Q 1469 391 1925 391 
Q 2381 391 2643 752 
Q 2906 1113 2906 1747 
Q 2906 2381 2643 2742 
Q 2381 3103 1925 3103 
Q 1469 3103 1208 2742 
Q 947 2381 947 1747 
z
M 2906 525 
Q 2725 213 2448 61 
Q 2172 -91 1784 -91 
Q 1150 -91 751 415 
Q 353 922 353 1747 
Q 353 2572 751 3078 
Q 1150 3584 1784 3584 
Q 2172 3584 2448 3432 
Q 2725 3281 2906 2969 
L 2906 3500 
L 3481 3500 
L 3481 -1331 
L 2906 -1331 
L 2906 525 
z
" transform="scale(0.015625)"/>
       <path id="DejaVuSans-75" d="M 544 1381 
L 544 3500 
L 1119 3500 
L 1119 1403 
Q 1119 906 1312 657 
Q 1506 409 1894 409 
Q 2359 409 2629 706 
Q 2900 1003 2900 1516 
L 2900 3500 
L 3475 3500 
L 3475 0 
L 2900 0 
L 2900 538 
Q 2691 219 2414 64 
Q 2138 -91 1772 -91 
Q 1169 -91 856 284 
Q 544 659 544 1381 
z
M 1991 3584 
L 1991 3584 
z
" transform="scale(0.015625)"/>
       <path id="DejaVuSans-63" d="M 3122 3366 
L 3122 2828 
Q 2878 2963 2633 3030 
Q 2388 3097 2138 3097 
Q 1578 3097 1268 2742 
Q 959 2388 959 1747 
Q 959 1106 1268 751 
Q 1578 397 2138 397 
Q 2388 397 2633 464 
Q 2878 531 3122 666 
L 3122 134 
Q 2881 22 2623 -34 
Q 2366 -91 2075 -91 
Q 1284 -91 818 406 
Q 353 903 353 1747 
Q 353 2603 823 3093 
Q 1294 3584 2113 3584 
Q 2378 3584 2631 3529 
Q 2884 3475 3122 3366 
z
" transform="scale(0.015625)"/>
       <path id="DejaVuSans-79" d="M 2059 -325 
Q 1816 -950 1584 -1140 
Q 1353 -1331 966 -1331 
L 506 -1331 
L 506 -850 
L 844 -850 
Q 1081 -850 1212 -737 
Q 1344 -625 1503 -206 
L 1606 56 
L 191 3500 
L 800 3500 
L 1894 763 
L 2988 3500 
L 3597 3500 
L 2059 -325 
z
" transform="scale(0.015625)"/>
       <path id="DejaVuSans-28" d="M 1984 4856 
Q 1566 4138 1362 3434 
Q 1159 2731 1159 2009 
Q 1159 1288 1364 580 
Q 1569 -128 1984 -844 
L 1484 -844 
Q 1016 -109 783 600 
Q 550 1309 550 2009 
Q 550 2706 781 3412 
Q 1013 4119 1484 4856 
L 1984 4856 
z
" transform="scale(0.015625)"/>
       <path id="DejaVuSans-25" d="M 4653 2053 
Q 4381 2053 4226 1822 
Q 4072 1591 4072 1178 
Q 4072 772 4226 539 
Q 4381 306 4653 306 
Q 4919 306 5073 539 
Q 5228 772 5228 1178 
Q 5228 1588 5073 1820 
Q 4919 2053 4653 2053 
z
M 4653 2450 
Q 5147 2450 5437 2106 
Q 5728 1763 5728 1178 
Q 5728 594 5436 251 
Q 5144 -91 4653 -91 
Q 4153 -91 3862 251 
Q 3572 594 3572 1178 
Q 3572 1766 3864 2108 
Q 4156 2450 4653 2450 
z
M 1428 4353 
Q 1159 4353 1004 4120 
Q 850 3888 850 3481 
Q 850 3069 1003 2837 
Q 1156 2606 1428 2606 
Q 1700 2606 1854 2837 
Q 2009 3069 2009 3481 
Q 2009 3884 1853 4118 
Q 1697 4353 1428 4353 
z
M 4250 4750 
L 4750 4750 
L 1831 -91 
L 1331 -91 
L 4250 4750 
z
M 1428 4750 
Q 1922 4750 2215 4408 
Q 2509 4066 2509 3481 
Q 2509 2891 2217 2550 
Q 1925 2209 1428 2209 
Q 931 2209 642 2551 
Q 353 2894 353 3481 
Q 353 4063 643 4406 
Q 934 4750 1428 4750 
z
" transform="scale(0.015625)"/>
       <path id="DejaVuSans-29" d="M 513 4856 
L 1013 4856 
Q 1481 4119 1714 3412 
Q 1947 2706 1947 2009 
Q 1947 1309 1714 600 
Q 1481 -109 1013 -844 
L 513 -844 
Q 928 -128 1133 580 
Q 1338 1288 1338 2009 
Q 1338 2731 1133 3434 
Q 928 4138 513 4856 
z
" transform="scale(0.015625)"/>
      </defs>
      <use xlink:href="#DejaVuSans-43"/>
      <use xlink:href="#DejaVuSans-6f" x="69.824219"/>
      <use xlink:href="#DejaVuSans-64" x="131.005859"/>
      <use xlink:href="#DejaVuSans-6f" x="194.482422"/>
      <use xlink:href="#DejaVuSans-6e" x="255.664062"/>
      <use xlink:href="#DejaVuSans-20" x="319.042969"/>
      <use xlink:href="#DejaVuSans-66" x="350.830078"/>
      <use xlink:href="#DejaVuSans-72" x="386.035156"/>
      <use xlink:href="#DejaVuSans-65" x="424.898438"/>
      <use xlink:href="#DejaVuSans-71" x="486.421875"/>
      <use xlink:href="#DejaVuSans-75" x="549.898438"/>
      <use xlink:href="#DejaVuSans-65" x="613.277344"/>
      <use xlink:href="#DejaVuSans-6e" x="674.800781"/>
      <use xlink:href="#DejaVuSans-63" x="738.179688"/>
      <use xlink:href="#DejaVuSans-79" x="793.160156"/>
      <use xlink:href="#DejaVuSans-20" x="852.339844"/>
      <use xlink:href="#DejaVuSans-28" x="884.126953"/>
      <use xlink:href="#DejaVuSans-25" x="923.140625"/>
      <use xlink:href="#DejaVuSans-29" x="1018.160156"/>
     </g>
    </g>
   </g>
   <g id="matplotlib.axis_2">
    <g id="ytick_1">
     <g id="line2d_5">
      <defs>
       <path id="m3192d47cc9" d="M 0 0 
L -3.5 0 
" style="stroke: #000000; stroke-width: 0.8"/>
      </defs>
      <g>
       <use xlink:href="#m3192d47cc9" x="67.845313" y="289.96" style="stroke: #000000; stroke-width: 0.8"/>
      </g>
     </g>
     <g id="text_6">
      <!-- 0 -->
      <g transform="translate(48.120313 297.558437) scale(0.2 -0.2)">
       <use xlink:href="#DejaVuSans-30"/>
      </g>
     </g>
    </g>
    <g id="ytick_2">
     <g id="line2d_6">
      <g>
       <use xlink:href="#m3192d47cc9" x="67.845313" y="238.549091" style="stroke: #000000; stroke-width: 0.8"/>
      </g>
     </g>
     <g id="text_7">
      <!-- 2 -->
      <g transform="translate(48.120313 246.147528) scale(0.2 -0.2)">
       <use xlink:href="#DejaVuSans-32"/>
      </g>
     </g>
    </g>
    <g id="ytick_3">
     <g id="line2d_7">
      <g>
       <use xlink:href="#m3192d47cc9" x="67.845313" y="187.138182" style="stroke: #000000; stroke-width: 0.8"/>
      </g>
     </g>
     <g id="text_8">
      <!-- 4 -->
      <g transform="translate(48.120313 194.736619) scale(0.2 -0.2)">
       <use xlink:href="#DejaVuSans-34"/>
      </g>
     </g>
    </g>
    <g id="ytick_4">
     <g id="line2d_8">
      <g>
       <use xlink:href="#m3192d47cc9" x="67.845313" y="135.727273" style="stroke: #000000; stroke-width: 0.8"/>
      </g>
     </g>
     <g id="text_9">
      <!-- 6 -->
      <g transform="translate(48.120313 143.32571) scale(0.2 -0.2)">
       <use xlink:href="#DejaVuSans-36"/>
      </g>
     </g>
    </g>
    <g id="ytick_5">
     <g id="line2d_9">
      <g>
       <use xlink:href="#m3192d47cc9" x="67.845313" y="84.316364" style="stroke: #000000; stroke-width: 0.8"/>
      </g>
     </g>
     <g id="text_10">
      <!-- 8 -->
      <g transform="translate(48.120313 91.914801) scale(0.2 -0.2)">
       <defs>
        <path id="DejaVuSans-38" d="M 2034 2216 
Q 1584 2216 1326 1975 
Q 1069 1734 1069 1313 
Q 1069 891 1326 650 
Q 1584 409 2034 409 
Q 2484 409 2743 651 
Q 3003 894 3003 1313 
Q 3003 1734 2745 1975 
Q 2488 2216 2034 2216 
z
M 1403 2484 
Q 997 2584 770 2862 
Q 544 3141 544 3541 
Q 544 4100 942 4425 
Q 1341 4750 2034 4750 
Q 2731 4750 3128 4425 
Q 3525 4100 3525 3541 
Q 3525 3141 3298 2862 
Q 3072 2584 2669 2484 
Q 3125 2378 3379 2068 
Q 3634 1759 3634 1313 
Q 3634 634 3220 271 
Q 2806 -91 2034 -91 
Q 1263 -91 848 271 
Q 434 634 434 1313 
Q 434 1759 690 2068 
Q 947 2378 1403 2484 
z
M 1172 3481 
Q 1172 3119 1398 2916 
Q 1625 2713 2034 2713 
Q 2441 2713 2670 2916 
Q 2900 3119 2900 3481 
Q 2900 3844 2670 4047 
Q 2441 4250 2034 4250 
Q 1625 4250 1398 4047 
Q 1172 3844 1172 3481 
z
" transform="scale(0.015625)"/>
       </defs>
       <use xlink:href="#DejaVuSans-38"/>
      </g>
     </g>
    </g>
    <g id="ytick_6">
     <g id="line2d_10">
      <g>
       <use xlink:href="#m3192d47cc9" x="67.845313" y="32.905455" style="stroke: #000000; stroke-width: 0.8"/>
      </g>
     </g>
     <g id="text_11">
      <!-- 10 -->
      <g transform="translate(35.395313 40.503892) scale(0.2 -0.2)">
       <defs>
        <path id="DejaVuSans-31" d="M 794 531 
L 1825 531 
L 1825 4091 
L 703 3866 
L 703 4441 
L 1819 4666 
L 2450 4666 
L 2450 531 
L 3481 531 
L 3481 0 
L 794 0 
L 794 531 
z
" transform="scale(0.015625)"/>
       </defs>
       <use xlink:href="#DejaVuSans-31"/>
       <use xlink:href="#DejaVuSans-30" x="63.623047"/>
      </g>
     </g>
    </g>
    <g id="text_12">
     <!-- tRNA frequency (%) -->
     <g transform="translate(26.196094 272.335859) rotate(-90) scale(0.25 -0.25)">
      <defs>
       <path id="DejaVuSans-74" d="M 1172 4494 
L 1172 3500 
L 2356 3500 
L 2356 3053 
L 1172 3053 
L 1172 1153 
Q 1172 725 1289 603 
Q 1406 481 1766 481 
L 2356 481 
L 2356 0 
L 1766 0 
Q 1100 0 847 248 
Q 594 497 594 1153 
L 594 3053 
L 172 3053 
L 172 3500 
L 594 3500 
L 594 4494 
L 1172 4494 
z
" transform="scale(0.015625)"/>
       <path id="DejaVuSans-52" d="M 2841 2188 
Q 3044 2119 3236 1894 
Q 3428 1669 3622 1275 
L 4263 0 
L 3584 0 
L 2988 1197 
Q 2756 1666 2539 1819 
Q 2322 1972 1947 1972 
L 1259 1972 
L 1259 0 
L 628 0 
L 628 4666 
L 2053 4666 
Q 2853 4666 3247 4331 
Q 3641 3997 3641 3322 
Q 3641 2881 3436 2590 
Q 3231 2300 2841 2188 
z
M 1259 4147 
L 1259 2491 
L 2053 2491 
Q 2509 2491 2742 2702 
Q 2975 2913 2975 3322 
Q 2975 3731 2742 3939 
Q 2509 4147 2053 4147 
L 1259 4147 
z
" transform="scale(0.015625)"/>
       <path id="DejaVuSans-4e" d="M 628 4666 
L 1478 4666 
L 3547 763 
L 3547 4666 
L 4159 4666 
L 4159 0 
L 3309 0 
L 1241 3903 
L 1241 0 
L 628 0 
L 628 4666 
z
" transform="scale(0.015625)"/>
       <path id="DejaVuSans-41" d="M 2188 4044 
L 1331 1722 
L 3047 1722 
L 2188 4044 
z
M 1831 4666 
L 2547 4666 
L 4325 0 
L 3669 0 
L 3244 1197 
L 1141 1197 
L 716 0 
L 50 0 
L 1831 4666 
z
" transform="scale(0.015625)"/>
      </defs>
      <use xlink:href="#DejaVuSans-74"/>
      <use xlink:href="#DejaVuSans-52" x="39.208984"/>
      <use xlink:href="#DejaVuSans-4e" x="108.691406"/>
      <use xlink:href="#DejaVuSans-41" x="183.496094"/>
      <use xlink:href="#DejaVuSans-20" x="251.904297"/>
      <use xlink:href="#DejaVuSans-66" x="283.691406"/>
      <use xlink:href="#DejaVuSans-72" x="318.896484"/>
      <use xlink:href="#DejaVuSans-65" x="357.759766"/>
      <use xlink:href="#DejaVuSans-71" x="419.283203"/>
      <use xlink:href="#DejaVuSans-75" x="482.759766"/>
      <use xlink:href="#DejaVuSans-65" x="546.138672"/>
      <use xlink:href="#DejaVuSans-6e" x="607.662109"/>
      <use xlink:href="#DejaVuSans-63" x="671.041016"/>
      <use xlink:href="#DejaVuSans-79" x="726.021484"/>
      <use xlink:href="#DejaVuSans-20" x="785.201172"/>
      <use xlink:href="#DejaVuSans-28" x="816.988281"/>
      <use xlink:href="#DejaVuSans-25" x="856.001953"/>
      <use xlink:href="#DejaVuSans-29" x="951.021484"/>
     </g>
    </g>
   </g>
   <g id="line2d_11">
    <path d="M 88.776676 250.925938 
L 331.490071 75.742075 
L 331.490071 75.742075 
" clip-path="url(#p42c0323307)" style="fill: none; stroke: #000000; stroke-width: 3; stroke-linecap: square"/>
   </g>
   <g id="patch_3">
    <path d="M 67.845313 289.96 
L 67.845313 7.2 
" style="fill: none; stroke: #000000; stroke-width: 4; stroke-linejoin: miter; stroke-linecap: square"/>
   </g>
   <g id="patch_4">
    <path d="M 345.295313 289.96 
L 345.295313 7.2 
" style="fill: none"/>
   </g>
   <g id="patch_5">
    <path d="M 67.845313 289.96 
L 345.295313 289.96 
" style="fill: none; stroke: #000000; stroke-width: 4; stroke-linejoin: miter; stroke-linecap: square"/>
   </g>
   <g id="patch_6">
    <path d="M 67.845313 7.2 
L 345.295313 7.2 
" style="fill: none"/>
   </g>
  </g>
 </g>
 <defs>
  <clipPath id="p42c0323307">
   <rect x="67.845313" y="7.2" width="277.45" height="282.76"/>
  </clipPath>
 </defs>
</svg>
