<?xml version="1.0" encoding="utf-8" standalone="no"?>
<!DOCTYPE svg PUBLIC "-//W3C//DTD SVG 1.1//EN"
  "http://www.w3.org/Graphics/SVG/1.1/DTD/svg11.dtd">
<svg xmlns:xlink="http://www.w3.org/1999/xlink" width="640.460312pt" height="352.580469pt" viewBox="0 0 640.460312 352.580469" xmlns="http://www.w3.org/2000/svg" version="1.1">
 <metadata>
  <rdf:RDF xmlns:dc="http://purl.org/dc/elements/1.1/" xmlns:cc="http://creativecommons.org/ns#" xmlns:rdf="http://www.w3.org/1999/02/22-rdf-syntax-ns#">
   <cc:Work>
    <dc:type rdf:resource="http://purl.org/dc/dcmitype/StillImage"/>
    <dc:date>2023-05-16T18:16:03.302031</dc:date>
    <dc:format>image/svg+xml</dc:format>
    <dc:creator>
     <cc:Agent>
      <dc:title>Matplotlib v3.7.1, https://matplotlib.org/</dc:title>
     </cc:Agent>
    </dc:creator>
   </cc:Work>
  </rdf:RDF>
 </metadata>
 <defs>
  <style type="text/css">*{stroke-linejoin: round; stroke-linecap: butt}</style>
 </defs>
 <g id="figure_1">
  <g id="patch_1">
   <path d="M 0 352.580469 
L 640.460312 352.580469 
L 640.460312 0 
L 0 0 
z
" style="fill: #ffffff"/>
  </g>
  <g id="axes_1">
   <g id="patch_2">
    <path d="M 55.120313 275.69 
L 633.260312 275.69 
L 633.260312 7.2 
L 55.120313 7.2 
z
" style="fill: #ffffff"/>
   </g>
   <g id="patch_3">
    <path d="M 77.144693 275.69 
L 88.156884 275.69 
L 88.156884 19.706649 
L 77.144693 19.706649 
z
" clip-path="url(#p201784ece2)" style="fill: #8fbc8f; opacity: 0.5"/>
   </g>
   <g id="patch_4">
    <path d="M 90.909932 275.69 
L 101.922122 275.69 
L 101.922122 16.895176 
L 90.909932 16.895176 
z
" clip-path="url(#p201784ece2)" style="fill: #8fbc8f; opacity: 0.5"/>
   </g>
   <g id="patch_5">
    <path d="M 104.67517 275.69 
L 115.68736 275.69 
L 115.68736 80.465424 
L 104.67517 80.465424 
z
" clip-path="url(#p201784ece2)" style="fill: #8fbc8f; opacity: 0.5"/>
   </g>
   <g id="patch_6">
    <path d="M 118.440408 275.69 
L 129.452598 275.69 
L 129.452598 36.051285 
L 118.440408 36.051285 
z
" clip-path="url(#p201784ece2)" style="fill: #8fbc8f; opacity: 0.5"/>
   </g>
   <g id="patch_7">
    <path d="M 132.205646 275.69 
L 143.217836 275.69 
L 143.217836 75.568045 
L 132.205646 75.568045 
z
" clip-path="url(#p201784ece2)" style="fill: #8fbc8f; opacity: 0.5"/>
   </g>
   <g id="patch_8">
    <path d="M 145.970884 275.69 
L 156.983074 275.69 
L 156.983074 250.7514 
L 145.970884 250.7514 
z
" clip-path="url(#p201784ece2)" style="fill: #8fbc8f; opacity: 0.5"/>
   </g>
   <g id="patch_9">
    <path d="M 159.736122 275.69 
L 170.748312 275.69 
L 170.748312 71.758869 
L 159.736122 71.758869 
z
" clip-path="url(#p201784ece2)" style="fill: #8fbc8f; opacity: 0.5"/>
   </g>
   <g id="patch_10">
    <path d="M 173.50136 275.69 
L 184.513551 275.69 
L 184.513551 65.970389 
L 173.50136 65.970389 
z
" clip-path="url(#p201784ece2)" style="fill: #8fbc8f; opacity: 0.5"/>
   </g>
   <g id="patch_11">
    <path d="M 187.266598 275.69 
L 198.278789 275.69 
L 198.278789 119.611249 
L 187.266598 119.611249 
z
" clip-path="url(#p201784ece2)" style="fill: #8fbc8f; opacity: 0.5"/>
   </g>
   <g id="patch_12">
    <path d="M 201.031836 275.69 
L 212.044027 275.69 
L 212.044027 102.435565 
L 201.031836 102.435565 
z
" clip-path="url(#p201784ece2)" style="fill: #8fbc8f; opacity: 0.5"/>
   </g>
   <g id="patch_13">
    <path d="M 214.797074 275.69 
L 225.809265 275.69 
L 225.809265 76.9335 
L 214.797074 76.9335 
z
" clip-path="url(#p201784ece2)" style="fill: #8fbc8f; opacity: 0.5"/>
   </g>
   <g id="patch_14">
    <path d="M 228.562312 275.69 
L 239.574503 275.69 
L 239.574503 202.652747 
L 228.562312 202.652747 
z
" clip-path="url(#p201784ece2)" style="fill: #8fbc8f; opacity: 0.5"/>
   </g>
   <g id="patch_15">
    <path d="M 242.327551 275.69 
L 253.339741 275.69 
L 253.339741 151.72619 
L 242.327551 151.72619 
z
" clip-path="url(#p201784ece2)" style="fill: #8fbc8f; opacity: 0.5"/>
   </g>
   <g id="patch_16">
    <path d="M 256.092789 275.69 
L 267.104979 275.69 
L 267.104979 154.2224 
L 256.092789 154.2224 
z
" clip-path="url(#p201784ece2)" style="fill: #8fbc8f; opacity: 0.5"/>
   </g>
   <g id="patch_17">
    <path d="M 269.858027 275.69 
L 280.870217 275.69 
L 280.870217 86.449521 
L 269.858027 86.449521 
z
" clip-path="url(#p201784ece2)" style="fill: #8fbc8f; opacity: 0.5"/>
   </g>
   <g id="patch_18">
    <path d="M 283.623265 275.69 
L 294.635455 275.69 
L 294.635455 149.091431 
L 283.623265 149.091431 
z
" clip-path="url(#p201784ece2)" style="fill: #8fbc8f; opacity: 0.5"/>
   </g>
   <g id="patch_19">
    <path d="M 297.388503 275.69 
L 308.400693 275.69 
L 308.400693 263.329638 
L 297.388503 263.329638 
z
" clip-path="url(#p201784ece2)" style="fill: #8fbc8f; opacity: 0.5"/>
   </g>
   <g id="patch_20">
    <path d="M 311.153741 275.69 
L 322.165932 275.69 
L 322.165932 206.69748 
L 311.153741 206.69748 
z
" clip-path="url(#p201784ece2)" style="fill: #8fbc8f; opacity: 0.5"/>
   </g>
   <g id="patch_21">
    <path d="M 324.918979 275.69 
L 335.93117 275.69 
L 335.93117 252.41035 
L 324.918979 252.41035 
z
" clip-path="url(#p201784ece2)" style="fill: #8fbc8f; opacity: 0.5"/>
   </g>
   <g id="patch_22">
    <path d="M 338.684217 275.69 
L 349.696408 275.69 
L 349.696408 263.490077 
L 338.684217 263.490077 
z
" clip-path="url(#p201784ece2)" style="fill: #8fbc8f; opacity: 0.5"/>
   </g>
   <g id="patch_23">
    <path d="M 352.449455 275.69 
L 363.461646 275.69 
L 363.461646 240.883713 
L 352.449455 240.883713 
z
" clip-path="url(#p201784ece2)" style="fill: #8fbc8f; opacity: 0.5"/>
   </g>
   <g id="patch_24">
    <path d="M 366.214693 275.69 
L 377.226884 275.69 
L 377.226884 266.978893 
L 366.214693 266.978893 
z
" clip-path="url(#p201784ece2)" style="fill: #8fbc8f; opacity: 0.5"/>
   </g>
   <g id="patch_25">
    <path d="M 379.979932 275.69 
L 390.992122 275.69 
L 390.992122 262.021226 
L 379.979932 262.021226 
z
" clip-path="url(#p201784ece2)" style="fill: #8fbc8f; opacity: 0.5"/>
   </g>
   <g id="patch_26">
    <path d="M 393.74517 275.69 
L 404.75736 275.69 
L 404.75736 258.801518 
L 393.74517 258.801518 
z
" clip-path="url(#p201784ece2)" style="fill: #8fbc8f; opacity: 0.5"/>
   </g>
   <g id="patch_27">
    <path d="M 407.510408 275.69 
L 418.522598 275.69 
L 418.522598 254.738109 
L 407.510408 254.738109 
z
" clip-path="url(#p201784ece2)" style="fill: #8fbc8f; opacity: 0.5"/>
   </g>
   <g id="patch_28">
    <path d="M 421.275646 275.69 
L 432.287836 275.69 
L 432.287836 270.072779 
L 421.275646 270.072779 
z
" clip-path="url(#p201784ece2)" style="fill: #8fbc8f; opacity: 0.5"/>
   </g>
   <g id="patch_29">
    <path d="M 435.040884 275.69 
L 446.053074 275.69 
L 446.053074 251.613136 
L 435.040884 251.613136 
z
" clip-path="url(#p201784ece2)" style="fill: #8fbc8f; opacity: 0.5"/>
   </g>
   <g id="patch_30">
    <path d="M 448.806122 275.69 
L 459.818312 275.69 
L 459.818312 269.175155 
L 448.806122 269.175155 
z
" clip-path="url(#p201784ece2)" style="fill: #8fbc8f; opacity: 0.5"/>
   </g>
   <g id="patch_31">
    <path d="M 462.57136 275.69 
L 473.583551 275.69 
L 473.583551 271.72121 
L 462.57136 271.72121 
z
" clip-path="url(#p201784ece2)" style="fill: #8fbc8f; opacity: 0.5"/>
   </g>
   <g id="patch_32">
    <path d="M 476.336598 275.69 
L 487.348789 275.69 
L 487.348789 262.575166 
L 476.336598 262.575166 
z
" clip-path="url(#p201784ece2)" style="fill: #8fbc8f; opacity: 0.5"/>
   </g>
   <g id="patch_33">
    <path d="M 490.101836 275.69 
L 501.114027 275.69 
L 501.114027 245.871623 
L 490.101836 245.871623 
z
" clip-path="url(#p201784ece2)" style="fill: #8fbc8f; opacity: 0.5"/>
   </g>
   <g id="patch_34">
    <path d="M 503.867074 275.69 
L 514.879265 275.69 
L 514.879265 268.546017 
L 503.867074 268.546017 
z
" clip-path="url(#p201784ece2)" style="fill: #8fbc8f; opacity: 0.5"/>
   </g>
   <g id="patch_35">
    <path d="M 517.632312 275.69 
L 528.644503 275.69 
L 528.644503 270.628127 
L 517.632312 270.628127 
z
" clip-path="url(#p201784ece2)" style="fill: #8fbc8f; opacity: 0.5"/>
   </g>
   <g id="patch_36">
    <path d="M 531.397551 275.69 
L 542.409741 275.69 
L 542.409741 265.991862 
L 531.397551 265.991862 
z
" clip-path="url(#p201784ece2)" style="fill: #8fbc8f; opacity: 0.5"/>
   </g>
   <g id="patch_37">
    <path d="M 545.162789 275.69 
L 556.174979 275.69 
L 556.174979 266.061066 
L 545.162789 266.061066 
z
" clip-path="url(#p201784ece2)" style="fill: #8fbc8f; opacity: 0.5"/>
   </g>
   <g id="patch_38">
    <path d="M 558.928027 275.69 
L 569.940217 275.69 
L 569.940217 266.568708 
L 558.928027 266.568708 
z
" clip-path="url(#p201784ece2)" style="fill: #8fbc8f; opacity: 0.5"/>
   </g>
   <g id="patch_39">
    <path d="M 572.693265 275.69 
L 583.705455 275.69 
L 583.705455 259.069671 
L 572.693265 259.069671 
z
" clip-path="url(#p201784ece2)" style="fill: #8fbc8f; opacity: 0.5"/>
   </g>
   <g id="patch_40">
    <path d="M 586.458503 275.69 
L 597.470693 275.69 
L 597.470693 247.645539 
L 586.458503 247.645539 
z
" clip-path="url(#p201784ece2)" style="fill: #8fbc8f; opacity: 0.5"/>
   </g>
   <g id="patch_41">
    <path d="M 600.223741 275.69 
L 611.235932 275.69 
L 611.235932 264.198785 
L 600.223741 264.198785 
z
" clip-path="url(#p201784ece2)" style="fill: #8fbc8f; opacity: 0.5"/>
   </g>
   <g id="patch_42">
    <path d="M 613.988979 275.69 
L 625.00117 275.69 
L 625.00117 266.929233 
L 613.988979 266.929233 
z
" clip-path="url(#p201784ece2)" style="fill: #8fbc8f; opacity: 0.5"/>
   </g>
   <g id="patch_43">
    <path d="M 77.144693 275.69 
L 88.156884 275.69 
L 88.156884 19.706649 
L 77.144693 19.706649 
z
" clip-path="url(#p201784ece2)" style="fill: #39568c; opacity: 0.5"/>
   </g>
   <g id="patch_44">
    <path d="M 90.909932 275.69 
L 101.922122 275.69 
L 101.922122 16.895176 
L 90.909932 16.895176 
z
" clip-path="url(#p201784ece2)" style="fill: #39568c; opacity: 0.5"/>
   </g>
   <g id="patch_45">
    <path d="M 104.67517 275.69 
L 115.68736 275.69 
L 115.68736 47.821635 
L 104.67517 47.821635 
z
" clip-path="url(#p201784ece2)" style="fill: #39568c; opacity: 0.5"/>
   </g>
   <g id="patch_46">
    <path d="M 118.440408 275.69 
L 129.452598 275.69 
L 129.452598 68.695073 
L 118.440408 68.695073 
z
" clip-path="url(#p201784ece2)" style="fill: #39568c; opacity: 0.5"/>
   </g>
   <g id="patch_47">
    <path d="M 132.205646 275.69 
L 143.217836 275.69 
L 143.217836 75.568045 
L 132.205646 75.568045 
z
" clip-path="url(#p201784ece2)" style="fill: #39568c; opacity: 0.5"/>
   </g>
   <g id="patch_48">
    <path d="M 145.970884 275.69 
L 156.983074 275.69 
L 156.983074 250.7514 
L 145.970884 250.7514 
z
" clip-path="url(#p201784ece2)" style="fill: #39568c; opacity: 0.5"/>
   </g>
   <g id="patch_49">
    <path d="M 159.736122 275.69 
L 170.748312 275.69 
L 170.748312 71.758869 
L 159.736122 71.758869 
z
" clip-path="url(#p201784ece2)" style="fill: #39568c; opacity: 0.5"/>
   </g>
   <g id="patch_50">
    <path d="M 173.50136 275.69 
L 184.513551 275.69 
L 184.513551 65.970389 
L 173.50136 65.970389 
z
" clip-path="url(#p201784ece2)" style="fill: #39568c; opacity: 0.5"/>
   </g>
   <g id="patch_51">
    <path d="M 187.266598 275.69 
L 198.278789 275.69 
L 198.278789 119.611249 
L 187.266598 119.611249 
z
" clip-path="url(#p201784ece2)" style="fill: #39568c; opacity: 0.5"/>
   </g>
   <g id="patch_52">
    <path d="M 201.031836 275.69 
L 212.044027 275.69 
L 212.044027 102.435565 
L 201.031836 102.435565 
z
" clip-path="url(#p201784ece2)" style="fill: #39568c; opacity: 0.5"/>
   </g>
   <g id="patch_53">
    <path d="M 214.797074 275.69 
L 225.809265 275.69 
L 225.809265 76.9335 
L 214.797074 76.9335 
z
" clip-path="url(#p201784ece2)" style="fill: #39568c; opacity: 0.5"/>
   </g>
   <g id="patch_54">
    <path d="M 228.562312 275.69 
L 239.574503 275.69 
L 239.574503 202.652747 
L 228.562312 202.652747 
z
" clip-path="url(#p201784ece2)" style="fill: #39568c; opacity: 0.5"/>
   </g>
   <g id="patch_55">
    <path d="M 242.327551 275.69 
L 253.339741 275.69 
L 253.339741 151.72619 
L 242.327551 151.72619 
z
" clip-path="url(#p201784ece2)" style="fill: #39568c; opacity: 0.5"/>
   </g>
   <g id="patch_56">
    <path d="M 256.092789 275.69 
L 267.104979 275.69 
L 267.104979 154.2224 
L 256.092789 154.2224 
z
" clip-path="url(#p201784ece2)" style="fill: #39568c; opacity: 0.5"/>
   </g>
   <g id="patch_57">
    <path d="M 269.858027 275.69 
L 280.870217 275.69 
L 280.870217 86.449521 
L 269.858027 86.449521 
z
" clip-path="url(#p201784ece2)" style="fill: #39568c; opacity: 0.5"/>
   </g>
   <g id="patch_58">
    <path d="M 283.623265 275.69 
L 294.635455 275.69 
L 294.635455 149.091431 
L 283.623265 149.091431 
z
" clip-path="url(#p201784ece2)" style="fill: #39568c; opacity: 0.5"/>
   </g>
   <g id="patch_59">
    <path d="M 297.388503 275.69 
L 308.400693 275.69 
L 308.400693 263.329638 
L 297.388503 263.329638 
z
" clip-path="url(#p201784ece2)" style="fill: #39568c; opacity: 0.5"/>
   </g>
   <g id="patch_60">
    <path d="M 311.153741 275.69 
L 322.165932 275.69 
L 322.165932 206.69748 
L 311.153741 206.69748 
z
" clip-path="url(#p201784ece2)" style="fill: #39568c; opacity: 0.5"/>
   </g>
   <g id="patch_61">
    <path d="M 324.918979 275.69 
L 335.93117 275.69 
L 335.93117 252.41035 
L 324.918979 252.41035 
z
" clip-path="url(#p201784ece2)" style="fill: #39568c; opacity: 0.5"/>
   </g>
   <g id="patch_62">
    <path d="M 338.684217 275.69 
L 349.696408 275.69 
L 349.696408 263.490077 
L 338.684217 263.490077 
z
" clip-path="url(#p201784ece2)" style="fill: #39568c; opacity: 0.5"/>
   </g>
   <g id="patch_63">
    <path d="M 352.449455 275.69 
L 363.461646 275.69 
L 363.461646 240.883713 
L 352.449455 240.883713 
z
" clip-path="url(#p201784ece2)" style="fill: #39568c; opacity: 0.5"/>
   </g>
   <g id="patch_64">
    <path d="M 366.214693 275.69 
L 377.226884 275.69 
L 377.226884 266.978893 
L 366.214693 266.978893 
z
" clip-path="url(#p201784ece2)" style="fill: #39568c; opacity: 0.5"/>
   </g>
   <g id="patch_65">
    <path d="M 379.979932 275.69 
L 390.992122 275.69 
L 390.992122 262.021226 
L 379.979932 262.021226 
z
" clip-path="url(#p201784ece2)" style="fill: #39568c; opacity: 0.5"/>
   </g>
   <g id="patch_66">
    <path d="M 393.74517 275.69 
L 404.75736 275.69 
L 404.75736 258.801518 
L 393.74517 258.801518 
z
" clip-path="url(#p201784ece2)" style="fill: #39568c; opacity: 0.5"/>
   </g>
   <g id="patch_67">
    <path d="M 407.510408 275.69 
L 418.522598 275.69 
L 418.522598 254.738109 
L 407.510408 254.738109 
z
" clip-path="url(#p201784ece2)" style="fill: #39568c; opacity: 0.5"/>
   </g>
   <g id="patch_68">
    <path d="M 421.275646 275.69 
L 432.287836 275.69 
L 432.287836 270.072779 
L 421.275646 270.072779 
z
" clip-path="url(#p201784ece2)" style="fill: #39568c; opacity: 0.5"/>
   </g>
   <g id="patch_69">
    <path d="M 435.040884 275.69 
L 446.053074 275.69 
L 446.053074 251.613136 
L 435.040884 251.613136 
z
" clip-path="url(#p201784ece2)" style="fill: #39568c; opacity: 0.5"/>
   </g>
   <g id="patch_70">
    <path d="M 448.806122 275.69 
L 459.818312 275.69 
L 459.818312 269.175155 
L 448.806122 269.175155 
z
" clip-path="url(#p201784ece2)" style="fill: #39568c; opacity: 0.5"/>
   </g>
   <g id="patch_71">
    <path d="M 462.57136 275.69 
L 473.583551 275.69 
L 473.583551 271.72121 
L 462.57136 271.72121 
z
" clip-path="url(#p201784ece2)" style="fill: #39568c; opacity: 0.5"/>
   </g>
   <g id="patch_72">
    <path d="M 476.336598 275.69 
L 487.348789 275.69 
L 487.348789 262.575166 
L 476.336598 262.575166 
z
" clip-path="url(#p201784ece2)" style="fill: #39568c; opacity: 0.5"/>
   </g>
   <g id="patch_73">
    <path d="M 490.101836 275.69 
L 501.114027 275.69 
L 501.114027 245.871623 
L 490.101836 245.871623 
z
" clip-path="url(#p201784ece2)" style="fill: #39568c; opacity: 0.5"/>
   </g>
   <g id="patch_74">
    <path d="M 503.867074 275.69 
L 514.879265 275.69 
L 514.879265 268.546017 
L 503.867074 268.546017 
z
" clip-path="url(#p201784ece2)" style="fill: #39568c; opacity: 0.5"/>
   </g>
   <g id="patch_75">
    <path d="M 517.632312 275.69 
L 528.644503 275.69 
L 528.644503 270.628127 
L 517.632312 270.628127 
z
" clip-path="url(#p201784ece2)" style="fill: #39568c; opacity: 0.5"/>
   </g>
   <g id="patch_76">
    <path d="M 531.397551 275.69 
L 542.409741 275.69 
L 542.409741 265.991862 
L 531.397551 265.991862 
z
" clip-path="url(#p201784ece2)" style="fill: #39568c; opacity: 0.5"/>
   </g>
   <g id="patch_77">
    <path d="M 545.162789 275.69 
L 556.174979 275.69 
L 556.174979 266.061066 
L 545.162789 266.061066 
z
" clip-path="url(#p201784ece2)" style="fill: #39568c; opacity: 0.5"/>
   </g>
   <g id="patch_78">
    <path d="M 558.928027 275.69 
L 569.940217 275.69 
L 569.940217 266.568708 
L 558.928027 266.568708 
z
" clip-path="url(#p201784ece2)" style="fill: #39568c; opacity: 0.5"/>
   </g>
   <g id="patch_79">
    <path d="M 572.693265 275.69 
L 583.705455 275.69 
L 583.705455 259.069671 
L 572.693265 259.069671 
z
" clip-path="url(#p201784ece2)" style="fill: #39568c; opacity: 0.5"/>
   </g>
   <g id="patch_80">
    <path d="M 586.458503 275.69 
L 597.470693 275.69 
L 597.470693 247.645539 
L 586.458503 247.645539 
z
" clip-path="url(#p201784ece2)" style="fill: #39568c; opacity: 0.5"/>
   </g>
   <g id="patch_81">
    <path d="M 600.223741 275.69 
L 611.235932 275.69 
L 611.235932 264.198785 
L 600.223741 264.198785 
z
" clip-path="url(#p201784ece2)" style="fill: #39568c; opacity: 0.5"/>
   </g>
   <g id="patch_82">
    <path d="M 613.988979 275.69 
L 625.00117 275.69 
L 625.00117 266.929233 
L 613.988979 266.929233 
z
" clip-path="url(#p201784ece2)" style="fill: #39568c; opacity: 0.5"/>
   </g>
   <g id="matplotlib.axis_1">
    <g id="xtick_1">
     <g id="line2d_1">
      <defs>
       <path id="mdfd25a62b3" d="M 0 0 
L 0 3.5 
" style="stroke: #000000; stroke-width: 0.8"/>
      </defs>
      <g>
       <use xlink:href="#mdfd25a62b3" x="82.650789" y="275.69" style="stroke: #000000; stroke-width: 0.8"/>
      </g>
     </g>
     <g id="text_1">
      <!-- Ala1B -->
      <g transform="translate(86.237976 320.351406) rotate(-90) scale(0.13 -0.13)">
       <defs>
        <path id="DejaVuSans-41" d="M 2188 4044 
L 1331 1722 
L 3047 1722 
L 2188 4044 
z
M 1831 4666 
L 2547 4666 
L 4325 0 
L 3669 0 
L 3244 1197 
L 1141 1197 
L 716 0 
L 50 0 
L 1831 4666 
z
" transform="scale(0.015625)"/>
        <path id="DejaVuSans-6c" d="M 603 4863 
L 1178 4863 
L 1178 0 
L 603 0 
L 603 4863 
z
" transform="scale(0.015625)"/>
        <path id="DejaVuSans-61" d="M 2194 1759 
Q 1497 1759 1228 1600 
Q 959 1441 959 1056 
Q 959 750 1161 570 
Q 1363 391 1709 391 
Q 2188 391 2477 730 
Q 2766 1069 2766 1631 
L 2766 1759 
L 2194 1759 
z
M 3341 1997 
L 3341 0 
L 2766 0 
L 2766 531 
Q 2569 213 2275 61 
Q 1981 -91 1556 -91 
Q 1019 -91 701 211 
Q 384 513 384 1019 
Q 384 1609 779 1909 
Q 1175 2209 1959 2209 
L 2766 2209 
L 2766 2266 
Q 2766 2663 2505 2880 
Q 2244 3097 1772 3097 
Q 1472 3097 1187 3025 
Q 903 2953 641 2809 
L 641 3341 
Q 956 3463 1253 3523 
Q 1550 3584 1831 3584 
Q 2591 3584 2966 3190 
Q 3341 2797 3341 1997 
z
" transform="scale(0.015625)"/>
        <path id="DejaVuSans-31" d="M 794 531 
L 1825 531 
L 1825 4091 
L 703 3866 
L 703 4441 
L 1819 4666 
L 2450 4666 
L 2450 531 
L 3481 531 
L 3481 0 
L 794 0 
L 794 531 
z
" transform="scale(0.015625)"/>
        <path id="DejaVuSans-42" d="M 1259 2228 
L 1259 519 
L 2272 519 
Q 2781 519 3026 730 
Q 3272 941 3272 1375 
Q 3272 1813 3026 2020 
Q 2781 2228 2272 2228 
L 1259 2228 
z
M 1259 4147 
L 1259 2741 
L 2194 2741 
Q 2656 2741 2882 2914 
Q 3109 3088 3109 3444 
Q 3109 3797 2882 3972 
Q 2656 4147 2194 4147 
L 1259 4147 
z
M 628 4666 
L 2241 4666 
Q 2963 4666 3353 4366 
Q 3744 4066 3744 3513 
Q 3744 3084 3544 2831 
Q 3344 2578 2956 2516 
Q 3422 2416 3680 2098 
Q 3938 1781 3938 1306 
Q 3938 681 3513 340 
Q 3088 0 2303 0 
L 628 0 
L 628 4666 
z
" transform="scale(0.015625)"/>
       </defs>
       <use xlink:href="#DejaVuSans-41"/>
       <use xlink:href="#DejaVuSans-6c" x="68.408203"/>
       <use xlink:href="#DejaVuSans-61" x="96.191406"/>
       <use xlink:href="#DejaVuSans-31" x="157.470703"/>
       <use xlink:href="#DejaVuSans-42" x="221.09375"/>
      </g>
     </g>
    </g>
    <g id="xtick_2">
     <g id="line2d_2">
      <g>
       <use xlink:href="#mdfd25a62b3" x="96.416027" y="275.69" style="stroke: #000000; stroke-width: 0.8"/>
      </g>
     </g>
     <g id="text_2">
      <!-- Gly3 -->
      <g transform="translate(100.003214 312.340156) rotate(-90) scale(0.13 -0.13)">
       <defs>
        <path id="DejaVuSans-47" d="M 3809 666 
L 3809 1919 
L 2778 1919 
L 2778 2438 
L 4434 2438 
L 4434 434 
Q 4069 175 3628 42 
Q 3188 -91 2688 -91 
Q 1594 -91 976 548 
Q 359 1188 359 2328 
Q 359 3472 976 4111 
Q 1594 4750 2688 4750 
Q 3144 4750 3555 4637 
Q 3966 4525 4313 4306 
L 4313 3634 
Q 3963 3931 3569 4081 
Q 3175 4231 2741 4231 
Q 1884 4231 1454 3753 
Q 1025 3275 1025 2328 
Q 1025 1384 1454 906 
Q 1884 428 2741 428 
Q 3075 428 3337 486 
Q 3600 544 3809 666 
z
" transform="scale(0.015625)"/>
        <path id="DejaVuSans-79" d="M 2059 -325 
Q 1816 -950 1584 -1140 
Q 1353 -1331 966 -1331 
L 506 -1331 
L 506 -850 
L 844 -850 
Q 1081 -850 1212 -737 
Q 1344 -625 1503 -206 
L 1606 56 
L 191 3500 
L 800 3500 
L 1894 763 
L 2988 3500 
L 3597 3500 
L 2059 -325 
z
" transform="scale(0.015625)"/>
        <path id="DejaVuSans-33" d="M 2597 2516 
Q 3050 2419 3304 2112 
Q 3559 1806 3559 1356 
Q 3559 666 3084 287 
Q 2609 -91 1734 -91 
Q 1441 -91 1130 -33 
Q 819 25 488 141 
L 488 750 
Q 750 597 1062 519 
Q 1375 441 1716 441 
Q 2309 441 2620 675 
Q 2931 909 2931 1356 
Q 2931 1769 2642 2001 
Q 2353 2234 1838 2234 
L 1294 2234 
L 1294 2753 
L 1863 2753 
Q 2328 2753 2575 2939 
Q 2822 3125 2822 3475 
Q 2822 3834 2567 4026 
Q 2313 4219 1838 4219 
Q 1578 4219 1281 4162 
Q 984 4106 628 3988 
L 628 4550 
Q 988 4650 1302 4700 
Q 1616 4750 1894 4750 
Q 2613 4750 3031 4423 
Q 3450 4097 3450 3541 
Q 3450 3153 3228 2886 
Q 3006 2619 2597 2516 
z
" transform="scale(0.015625)"/>
       </defs>
       <use xlink:href="#DejaVuSans-47"/>
       <use xlink:href="#DejaVuSans-6c" x="77.490234"/>
       <use xlink:href="#DejaVuSans-79" x="105.273438"/>
       <use xlink:href="#DejaVuSans-33" x="164.453125"/>
      </g>
     </g>
    </g>
    <g id="xtick_3">
     <g id="line2d_3">
      <g>
       <use xlink:href="#mdfd25a62b3" x="110.181265" y="275.69" style="stroke: #000000; stroke-width: 0.8"/>
      </g>
     </g>
     <g id="text_3">
      <!-- Val1 -->
      <g transform="translate(113.768452 310.424688) rotate(-90) scale(0.13 -0.13)">
       <defs>
        <path id="DejaVuSans-56" d="M 1831 0 
L 50 4666 
L 709 4666 
L 2188 738 
L 3669 4666 
L 4325 4666 
L 2547 0 
L 1831 0 
z
" transform="scale(0.015625)"/>
       </defs>
       <use xlink:href="#DejaVuSans-56"/>
       <use xlink:href="#DejaVuSans-61" x="60.658203"/>
       <use xlink:href="#DejaVuSans-6c" x="121.9375"/>
       <use xlink:href="#DejaVuSans-31" x="149.720703"/>
      </g>
     </g>
    </g>
    <g id="xtick_4">
     <g id="line2d_4">
      <g>
       <use xlink:href="#mdfd25a62b3" x="123.946503" y="275.69" style="stroke: #000000; stroke-width: 0.8"/>
      </g>
     </g>
     <g id="text_4">
      <!-- Glu2 -->
      <g transform="translate(127.53369 312.884531) rotate(-90) scale(0.13 -0.13)">
       <defs>
        <path id="DejaVuSans-75" d="M 544 1381 
L 544 3500 
L 1119 3500 
L 1119 1403 
Q 1119 906 1312 657 
Q 1506 409 1894 409 
Q 2359 409 2629 706 
Q 2900 1003 2900 1516 
L 2900 3500 
L 3475 3500 
L 3475 0 
L 2900 0 
L 2900 538 
Q 2691 219 2414 64 
Q 2138 -91 1772 -91 
Q 1169 -91 856 284 
Q 544 659 544 1381 
z
M 1991 3584 
L 1991 3584 
z
" transform="scale(0.015625)"/>
        <path id="DejaVuSans-32" d="M 1228 531 
L 3431 531 
L 3431 0 
L 469 0 
L 469 531 
Q 828 903 1448 1529 
Q 2069 2156 2228 2338 
Q 2531 2678 2651 2914 
Q 2772 3150 2772 3378 
Q 2772 3750 2511 3984 
Q 2250 4219 1831 4219 
Q 1534 4219 1204 4116 
Q 875 4013 500 3803 
L 500 4441 
Q 881 4594 1212 4672 
Q 1544 4750 1819 4750 
Q 2544 4750 2975 4387 
Q 3406 4025 3406 3419 
Q 3406 3131 3298 2873 
Q 3191 2616 2906 2266 
Q 2828 2175 2409 1742 
Q 1991 1309 1228 531 
z
" transform="scale(0.015625)"/>
       </defs>
       <use xlink:href="#DejaVuSans-47"/>
       <use xlink:href="#DejaVuSans-6c" x="77.490234"/>
       <use xlink:href="#DejaVuSans-75" x="105.273438"/>
       <use xlink:href="#DejaVuSans-32" x="168.652344"/>
      </g>
     </g>
    </g>
    <g id="xtick_5">
     <g id="line2d_5">
      <g>
       <use xlink:href="#mdfd25a62b3" x="137.711741" y="275.69" style="stroke: #000000; stroke-width: 0.8"/>
      </g>
     </g>
     <g id="text_5">
      <!-- Leu3 -->
      <g transform="translate(141.298929 314.215) rotate(-90) scale(0.13 -0.13)">
       <defs>
        <path id="DejaVuSans-4c" d="M 628 4666 
L 1259 4666 
L 1259 531 
L 3531 531 
L 3531 0 
L 628 0 
L 628 4666 
z
" transform="scale(0.015625)"/>
        <path id="DejaVuSans-65" d="M 3597 1894 
L 3597 1613 
L 953 1613 
Q 991 1019 1311 708 
Q 1631 397 2203 397 
Q 2534 397 2845 478 
Q 3156 559 3463 722 
L 3463 178 
Q 3153 47 2828 -22 
Q 2503 -91 2169 -91 
Q 1331 -91 842 396 
Q 353 884 353 1716 
Q 353 2575 817 3079 
Q 1281 3584 2069 3584 
Q 2775 3584 3186 3129 
Q 3597 2675 3597 1894 
z
M 3022 2063 
Q 3016 2534 2758 2815 
Q 2500 3097 2075 3097 
Q 1594 3097 1305 2825 
Q 1016 2553 972 2059 
L 3022 2063 
z
" transform="scale(0.015625)"/>
       </defs>
       <use xlink:href="#DejaVuSans-4c"/>
       <use xlink:href="#DejaVuSans-65" x="53.962891"/>
       <use xlink:href="#DejaVuSans-75" x="115.486328"/>
       <use xlink:href="#DejaVuSans-33" x="178.865234"/>
      </g>
     </g>
    </g>
    <g id="xtick_6">
     <g id="line2d_6">
      <g>
       <use xlink:href="#mdfd25a62b3" x="151.476979" y="275.69" style="stroke: #000000; stroke-width: 0.8"/>
      </g>
     </g>
     <g id="text_6">
      <!-- Leu1 -->
      <g transform="translate(155.064167 314.215) rotate(-90) scale(0.13 -0.13)">
       <use xlink:href="#DejaVuSans-4c"/>
       <use xlink:href="#DejaVuSans-65" x="53.962891"/>
       <use xlink:href="#DejaVuSans-75" x="115.486328"/>
       <use xlink:href="#DejaVuSans-31" x="178.865234"/>
      </g>
     </g>
    </g>
    <g id="xtick_7">
     <g id="line2d_7">
      <g>
       <use xlink:href="#mdfd25a62b3" x="165.242217" y="275.69" style="stroke: #000000; stroke-width: 0.8"/>
      </g>
     </g>
     <g id="text_7">
      <!-- Asp1 -->
      <g transform="translate(168.829405 314.879219) rotate(-90) scale(0.13 -0.13)">
       <defs>
        <path id="DejaVuSans-73" d="M 2834 3397 
L 2834 2853 
Q 2591 2978 2328 3040 
Q 2066 3103 1784 3103 
Q 1356 3103 1142 2972 
Q 928 2841 928 2578 
Q 928 2378 1081 2264 
Q 1234 2150 1697 2047 
L 1894 2003 
Q 2506 1872 2764 1633 
Q 3022 1394 3022 966 
Q 3022 478 2636 193 
Q 2250 -91 1575 -91 
Q 1294 -91 989 -36 
Q 684 19 347 128 
L 347 722 
Q 666 556 975 473 
Q 1284 391 1588 391 
Q 1994 391 2212 530 
Q 2431 669 2431 922 
Q 2431 1156 2273 1281 
Q 2116 1406 1581 1522 
L 1381 1569 
Q 847 1681 609 1914 
Q 372 2147 372 2553 
Q 372 3047 722 3315 
Q 1072 3584 1716 3584 
Q 2034 3584 2315 3537 
Q 2597 3491 2834 3397 
z
" transform="scale(0.015625)"/>
        <path id="DejaVuSans-70" d="M 1159 525 
L 1159 -1331 
L 581 -1331 
L 581 3500 
L 1159 3500 
L 1159 2969 
Q 1341 3281 1617 3432 
Q 1894 3584 2278 3584 
Q 2916 3584 3314 3078 
Q 3713 2572 3713 1747 
Q 3713 922 3314 415 
Q 2916 -91 2278 -91 
Q 1894 -91 1617 61 
Q 1341 213 1159 525 
z
M 3116 1747 
Q 3116 2381 2855 2742 
Q 2594 3103 2138 3103 
Q 1681 3103 1420 2742 
Q 1159 2381 1159 1747 
Q 1159 1113 1420 752 
Q 1681 391 2138 391 
Q 2594 391 2855 752 
Q 3116 1113 3116 1747 
z
" transform="scale(0.015625)"/>
       </defs>
       <use xlink:href="#DejaVuSans-41"/>
       <use xlink:href="#DejaVuSans-73" x="68.408203"/>
       <use xlink:href="#DejaVuSans-70" x="120.507812"/>
       <use xlink:href="#DejaVuSans-31" x="183.984375"/>
      </g>
     </g>
    </g>
    <g id="xtick_8">
     <g id="line2d_8">
      <g>
       <use xlink:href="#mdfd25a62b3" x="179.007455" y="275.69" style="stroke: #000000; stroke-width: 0.8"/>
      </g>
     </g>
     <g id="text_8">
      <!-- Lys -->
      <g transform="translate(182.594643 303.21375) rotate(-90) scale(0.13 -0.13)">
       <use xlink:href="#DejaVuSans-4c"/>
       <use xlink:href="#DejaVuSans-79" x="46.587891"/>
       <use xlink:href="#DejaVuSans-73" x="105.767578"/>
      </g>
     </g>
    </g>
    <g id="xtick_9">
     <g id="line2d_9">
      <g>
       <use xlink:href="#mdfd25a62b3" x="192.772693" y="275.69" style="stroke: #000000; stroke-width: 0.8"/>
      </g>
     </g>
     <g id="text_9">
      <!-- Ile1 -->
      <g transform="translate(196.359881 306.406875) rotate(-90) scale(0.13 -0.13)">
       <defs>
        <path id="DejaVuSans-49" d="M 628 4666 
L 1259 4666 
L 1259 0 
L 628 0 
L 628 4666 
z
" transform="scale(0.015625)"/>
       </defs>
       <use xlink:href="#DejaVuSans-49"/>
       <use xlink:href="#DejaVuSans-6c" x="29.492188"/>
       <use xlink:href="#DejaVuSans-65" x="57.275391"/>
       <use xlink:href="#DejaVuSans-31" x="118.798828"/>
      </g>
     </g>
    </g>
    <g id="xtick_10">
     <g id="line2d_10">
      <g>
       <use xlink:href="#mdfd25a62b3" x="206.537932" y="275.69" style="stroke: #000000; stroke-width: 0.8"/>
      </g>
     </g>
     <g id="text_10">
      <!-- Arg2 -->
      <g transform="translate(210.125119 313.22375) rotate(-90) scale(0.13 -0.13)">
       <defs>
        <path id="DejaVuSans-72" d="M 2631 2963 
Q 2534 3019 2420 3045 
Q 2306 3072 2169 3072 
Q 1681 3072 1420 2755 
Q 1159 2438 1159 1844 
L 1159 0 
L 581 0 
L 581 3500 
L 1159 3500 
L 1159 2956 
Q 1341 3275 1631 3429 
Q 1922 3584 2338 3584 
Q 2397 3584 2469 3576 
Q 2541 3569 2628 3553 
L 2631 2963 
z
" transform="scale(0.015625)"/>
        <path id="DejaVuSans-67" d="M 2906 1791 
Q 2906 2416 2648 2759 
Q 2391 3103 1925 3103 
Q 1463 3103 1205 2759 
Q 947 2416 947 1791 
Q 947 1169 1205 825 
Q 1463 481 1925 481 
Q 2391 481 2648 825 
Q 2906 1169 2906 1791 
z
M 3481 434 
Q 3481 -459 3084 -895 
Q 2688 -1331 1869 -1331 
Q 1566 -1331 1297 -1286 
Q 1028 -1241 775 -1147 
L 775 -588 
Q 1028 -725 1275 -790 
Q 1522 -856 1778 -856 
Q 2344 -856 2625 -561 
Q 2906 -266 2906 331 
L 2906 616 
Q 2728 306 2450 153 
Q 2172 0 1784 0 
Q 1141 0 747 490 
Q 353 981 353 1791 
Q 353 2603 747 3093 
Q 1141 3584 1784 3584 
Q 2172 3584 2450 3431 
Q 2728 3278 2906 2969 
L 2906 3500 
L 3481 3500 
L 3481 434 
z
" transform="scale(0.015625)"/>
       </defs>
       <use xlink:href="#DejaVuSans-41"/>
       <use xlink:href="#DejaVuSans-72" x="68.408203"/>
       <use xlink:href="#DejaVuSans-67" x="107.771484"/>
       <use xlink:href="#DejaVuSans-32" x="171.248047"/>
      </g>
     </g>
    </g>
    <g id="xtick_11">
     <g id="line2d_11">
      <g>
       <use xlink:href="#mdfd25a62b3" x="220.30317" y="275.69" style="stroke: #000000; stroke-width: 0.8"/>
      </g>
     </g>
     <g id="text_11">
      <!-- Asn -->
      <g transform="translate(223.890357 306.59375) rotate(-90) scale(0.13 -0.13)">
       <defs>
        <path id="DejaVuSans-6e" d="M 3513 2113 
L 3513 0 
L 2938 0 
L 2938 2094 
Q 2938 2591 2744 2837 
Q 2550 3084 2163 3084 
Q 1697 3084 1428 2787 
Q 1159 2491 1159 1978 
L 1159 0 
L 581 0 
L 581 3500 
L 1159 3500 
L 1159 2956 
Q 1366 3272 1645 3428 
Q 1925 3584 2291 3584 
Q 2894 3584 3203 3211 
Q 3513 2838 3513 2113 
z
" transform="scale(0.015625)"/>
       </defs>
       <use xlink:href="#DejaVuSans-41"/>
       <use xlink:href="#DejaVuSans-73" x="68.408203"/>
       <use xlink:href="#DejaVuSans-6e" x="120.507812"/>
      </g>
     </g>
    </g>
    <g id="xtick_12">
     <g id="line2d_12">
      <g>
       <use xlink:href="#mdfd25a62b3" x="234.068408" y="275.69" style="stroke: #000000; stroke-width: 0.8"/>
      </g>
     </g>
     <g id="text_12">
      <!-- Thr3 -->
      <g transform="translate(237.655595 312.484375) rotate(-90) scale(0.13 -0.13)">
       <defs>
        <path id="DejaVuSans-54" d="M -19 4666 
L 3928 4666 
L 3928 4134 
L 2272 4134 
L 2272 0 
L 1638 0 
L 1638 4134 
L -19 4134 
L -19 4666 
z
" transform="scale(0.015625)"/>
        <path id="DejaVuSans-68" d="M 3513 2113 
L 3513 0 
L 2938 0 
L 2938 2094 
Q 2938 2591 2744 2837 
Q 2550 3084 2163 3084 
Q 1697 3084 1428 2787 
Q 1159 2491 1159 1978 
L 1159 0 
L 581 0 
L 581 4863 
L 1159 4863 
L 1159 2956 
Q 1366 3272 1645 3428 
Q 1925 3584 2291 3584 
Q 2894 3584 3203 3211 
Q 3513 2838 3513 2113 
z
" transform="scale(0.015625)"/>
       </defs>
       <use xlink:href="#DejaVuSans-54"/>
       <use xlink:href="#DejaVuSans-68" x="61.083984"/>
       <use xlink:href="#DejaVuSans-72" x="124.462891"/>
       <use xlink:href="#DejaVuSans-33" x="165.576172"/>
      </g>
     </g>
    </g>
    <g id="xtick_13">
     <g id="line2d_13">
      <g>
       <use xlink:href="#mdfd25a62b3" x="247.833646" y="275.69" style="stroke: #000000; stroke-width: 0.8"/>
      </g>
     </g>
     <g id="text_13">
      <!-- Thr1 -->
      <g transform="translate(251.420833 312.484375) rotate(-90) scale(0.13 -0.13)">
       <use xlink:href="#DejaVuSans-54"/>
       <use xlink:href="#DejaVuSans-68" x="61.083984"/>
       <use xlink:href="#DejaVuSans-72" x="124.462891"/>
       <use xlink:href="#DejaVuSans-31" x="165.576172"/>
      </g>
     </g>
    </g>
    <g id="xtick_14">
     <g id="line2d_14">
      <g>
       <use xlink:href="#mdfd25a62b3" x="261.598884" y="275.69" style="stroke: #000000; stroke-width: 0.8"/>
      </g>
     </g>
     <g id="text_14">
      <!-- Val2ApB -->
      <g transform="translate(265.186071 336.489688) rotate(-90) scale(0.13 -0.13)">
       <use xlink:href="#DejaVuSans-56"/>
       <use xlink:href="#DejaVuSans-61" x="60.658203"/>
       <use xlink:href="#DejaVuSans-6c" x="121.9375"/>
       <use xlink:href="#DejaVuSans-32" x="149.720703"/>
       <use xlink:href="#DejaVuSans-41" x="213.34375"/>
       <use xlink:href="#DejaVuSans-70" x="281.751953"/>
       <use xlink:href="#DejaVuSans-42" x="345.228516"/>
      </g>
     </g>
    </g>
    <g id="xtick_15">
     <g id="line2d_15">
      <g>
       <use xlink:href="#mdfd25a62b3" x="275.364122" y="275.69" style="stroke: #000000; stroke-width: 0.8"/>
      </g>
     </g>
     <g id="text_15">
      <!-- Pro3 -->
      <g transform="translate(278.95131 311.578438) rotate(-90) scale(0.13 -0.13)">
       <defs>
        <path id="DejaVuSans-50" d="M 1259 4147 
L 1259 2394 
L 2053 2394 
Q 2494 2394 2734 2622 
Q 2975 2850 2975 3272 
Q 2975 3691 2734 3919 
Q 2494 4147 2053 4147 
L 1259 4147 
z
M 628 4666 
L 2053 4666 
Q 2838 4666 3239 4311 
Q 3641 3956 3641 3272 
Q 3641 2581 3239 2228 
Q 2838 1875 2053 1875 
L 1259 1875 
L 1259 0 
L 628 0 
L 628 4666 
z
" transform="scale(0.015625)"/>
        <path id="DejaVuSans-6f" d="M 1959 3097 
Q 1497 3097 1228 2736 
Q 959 2375 959 1747 
Q 959 1119 1226 758 
Q 1494 397 1959 397 
Q 2419 397 2687 759 
Q 2956 1122 2956 1747 
Q 2956 2369 2687 2733 
Q 2419 3097 1959 3097 
z
M 1959 3584 
Q 2709 3584 3137 3096 
Q 3566 2609 3566 1747 
Q 3566 888 3137 398 
Q 2709 -91 1959 -91 
Q 1206 -91 779 398 
Q 353 888 353 1747 
Q 353 2609 779 3096 
Q 1206 3584 1959 3584 
z
" transform="scale(0.015625)"/>
       </defs>
       <use xlink:href="#DejaVuSans-50"/>
       <use xlink:href="#DejaVuSans-72" x="58.552734"/>
       <use xlink:href="#DejaVuSans-6f" x="97.416016"/>
       <use xlink:href="#DejaVuSans-33" x="158.597656"/>
      </g>
     </g>
    </g>
    <g id="xtick_16">
     <g id="line2d_16">
      <g>
       <use xlink:href="#mdfd25a62b3" x="289.12936" y="275.69" style="stroke: #000000; stroke-width: 0.8"/>
      </g>
     </g>
     <g id="text_16">
      <!-- Phe -->
      <g transform="translate(292.716548 306.766406) rotate(-90) scale(0.13 -0.13)">
       <use xlink:href="#DejaVuSans-50"/>
       <use xlink:href="#DejaVuSans-68" x="60.302734"/>
       <use xlink:href="#DejaVuSans-65" x="123.681641"/>
      </g>
     </g>
    </g>
    <g id="xtick_17">
     <g id="line2d_17">
      <g>
       <use xlink:href="#mdfd25a62b3" x="302.894598" y="275.69" style="stroke: #000000; stroke-width: 0.8"/>
      </g>
     </g>
     <g id="text_17">
      <!-- Tyr1pTyr2 -->
      <g transform="translate(306.481786 345.380469) rotate(-90) scale(0.13 -0.13)">
       <use xlink:href="#DejaVuSans-54"/>
       <use xlink:href="#DejaVuSans-79" x="45.458984"/>
       <use xlink:href="#DejaVuSans-72" x="104.638672"/>
       <use xlink:href="#DejaVuSans-31" x="145.751953"/>
       <use xlink:href="#DejaVuSans-70" x="209.375"/>
       <use xlink:href="#DejaVuSans-54" x="272.851562"/>
       <use xlink:href="#DejaVuSans-79" x="318.310547"/>
       <use xlink:href="#DejaVuSans-72" x="377.490234"/>
       <use xlink:href="#DejaVuSans-32" x="418.603516"/>
      </g>
     </g>
    </g>
    <g id="xtick_18">
     <g id="line2d_18">
      <g>
       <use xlink:href="#mdfd25a62b3" x="316.659836" y="275.69" style="stroke: #000000; stroke-width: 0.8"/>
      </g>
     </g>
     <g id="text_18">
      <!-- Gln2 -->
      <g transform="translate(320.247024 312.884531) rotate(-90) scale(0.13 -0.13)">
       <use xlink:href="#DejaVuSans-47"/>
       <use xlink:href="#DejaVuSans-6c" x="77.490234"/>
       <use xlink:href="#DejaVuSans-6e" x="105.273438"/>
       <use xlink:href="#DejaVuSans-32" x="168.652344"/>
      </g>
     </g>
    </g>
    <g id="xtick_19">
     <g id="line2d_19">
      <g>
       <use xlink:href="#mdfd25a62b3" x="330.425074" y="275.69" style="stroke: #000000; stroke-width: 0.8"/>
      </g>
     </g>
     <g id="text_19">
      <!-- Thr4 -->
      <g transform="translate(334.012262 312.484375) rotate(-90) scale(0.13 -0.13)">
       <defs>
        <path id="DejaVuSans-34" d="M 2419 4116 
L 825 1625 
L 2419 1625 
L 2419 4116 
z
M 2253 4666 
L 3047 4666 
L 3047 1625 
L 3713 1625 
L 3713 1100 
L 3047 1100 
L 3047 0 
L 2419 0 
L 2419 1100 
L 313 1100 
L 313 1709 
L 2253 4666 
z
" transform="scale(0.015625)"/>
       </defs>
       <use xlink:href="#DejaVuSans-54"/>
       <use xlink:href="#DejaVuSans-68" x="61.083984"/>
       <use xlink:href="#DejaVuSans-72" x="124.462891"/>
       <use xlink:href="#DejaVuSans-34" x="165.576172"/>
      </g>
     </g>
    </g>
    <g id="xtick_20">
     <g id="line2d_20">
      <g>
       <use xlink:href="#mdfd25a62b3" x="344.190312" y="275.69" style="stroke: #000000; stroke-width: 0.8"/>
      </g>
     </g>
     <g id="text_20">
      <!-- Met_m -->
      <g transform="translate(347.415937 326.164844) rotate(-90) scale(0.13 -0.13)">
       <defs>
        <path id="DejaVuSans-4d" d="M 628 4666 
L 1569 4666 
L 2759 1491 
L 3956 4666 
L 4897 4666 
L 4897 0 
L 4281 0 
L 4281 4097 
L 3078 897 
L 2444 897 
L 1241 4097 
L 1241 0 
L 628 0 
L 628 4666 
z
" transform="scale(0.015625)"/>
        <path id="DejaVuSans-74" d="M 1172 4494 
L 1172 3500 
L 2356 3500 
L 2356 3053 
L 1172 3053 
L 1172 1153 
Q 1172 725 1289 603 
Q 1406 481 1766 481 
L 2356 481 
L 2356 0 
L 1766 0 
Q 1100 0 847 248 
Q 594 497 594 1153 
L 594 3053 
L 172 3053 
L 172 3500 
L 594 3500 
L 594 4494 
L 1172 4494 
z
" transform="scale(0.015625)"/>
        <path id="DejaVuSans-5f" d="M 3263 -1063 
L 3263 -1509 
L -63 -1509 
L -63 -1063 
L 3263 -1063 
z
" transform="scale(0.015625)"/>
        <path id="DejaVuSans-6d" d="M 3328 2828 
Q 3544 3216 3844 3400 
Q 4144 3584 4550 3584 
Q 5097 3584 5394 3201 
Q 5691 2819 5691 2113 
L 5691 0 
L 5113 0 
L 5113 2094 
Q 5113 2597 4934 2840 
Q 4756 3084 4391 3084 
Q 3944 3084 3684 2787 
Q 3425 2491 3425 1978 
L 3425 0 
L 2847 0 
L 2847 2094 
Q 2847 2600 2669 2842 
Q 2491 3084 2119 3084 
Q 1678 3084 1418 2786 
Q 1159 2488 1159 1978 
L 1159 0 
L 581 0 
L 581 3500 
L 1159 3500 
L 1159 2956 
Q 1356 3278 1631 3431 
Q 1906 3584 2284 3584 
Q 2666 3584 2933 3390 
Q 3200 3197 3328 2828 
z
" transform="scale(0.015625)"/>
       </defs>
       <use xlink:href="#DejaVuSans-4d"/>
       <use xlink:href="#DejaVuSans-65" x="86.279297"/>
       <use xlink:href="#DejaVuSans-74" x="147.802734"/>
       <use xlink:href="#DejaVuSans-5f" x="187.011719"/>
       <use xlink:href="#DejaVuSans-6d" x="237.011719"/>
      </g>
     </g>
    </g>
    <g id="xtick_21">
     <g id="line2d_21">
      <g>
       <use xlink:href="#mdfd25a62b3" x="357.955551" y="275.69" style="stroke: #000000; stroke-width: 0.8"/>
      </g>
     </g>
     <g id="text_21">
      <!-- Pro1 -->
      <g transform="translate(361.542738 311.578438) rotate(-90) scale(0.13 -0.13)">
       <use xlink:href="#DejaVuSans-50"/>
       <use xlink:href="#DejaVuSans-72" x="58.552734"/>
       <use xlink:href="#DejaVuSans-6f" x="97.416016"/>
       <use xlink:href="#DejaVuSans-31" x="158.597656"/>
      </g>
     </g>
    </g>
    <g id="xtick_22">
     <g id="line2d_22">
      <g>
       <use xlink:href="#mdfd25a62b3" x="371.720789" y="275.69" style="stroke: #000000; stroke-width: 0.8"/>
      </g>
     </g>
     <g id="text_22">
      <!-- Ser5 -->
      <g transform="translate(375.307976 312.5575) rotate(-90) scale(0.13 -0.13)">
       <defs>
        <path id="DejaVuSans-53" d="M 3425 4513 
L 3425 3897 
Q 3066 4069 2747 4153 
Q 2428 4238 2131 4238 
Q 1616 4238 1336 4038 
Q 1056 3838 1056 3469 
Q 1056 3159 1242 3001 
Q 1428 2844 1947 2747 
L 2328 2669 
Q 3034 2534 3370 2195 
Q 3706 1856 3706 1288 
Q 3706 609 3251 259 
Q 2797 -91 1919 -91 
Q 1588 -91 1214 -16 
Q 841 59 441 206 
L 441 856 
Q 825 641 1194 531 
Q 1563 422 1919 422 
Q 2459 422 2753 634 
Q 3047 847 3047 1241 
Q 3047 1584 2836 1778 
Q 2625 1972 2144 2069 
L 1759 2144 
Q 1053 2284 737 2584 
Q 422 2884 422 3419 
Q 422 4038 858 4394 
Q 1294 4750 2059 4750 
Q 2388 4750 2728 4690 
Q 3069 4631 3425 4513 
z
" transform="scale(0.015625)"/>
        <path id="DejaVuSans-35" d="M 691 4666 
L 3169 4666 
L 3169 4134 
L 1269 4134 
L 1269 2991 
Q 1406 3038 1543 3061 
Q 1681 3084 1819 3084 
Q 2600 3084 3056 2656 
Q 3513 2228 3513 1497 
Q 3513 744 3044 326 
Q 2575 -91 1722 -91 
Q 1428 -91 1123 -41 
Q 819 9 494 109 
L 494 744 
Q 775 591 1075 516 
Q 1375 441 1709 441 
Q 2250 441 2565 725 
Q 2881 1009 2881 1497 
Q 2881 1984 2565 2268 
Q 2250 2553 1709 2553 
Q 1456 2553 1204 2497 
Q 953 2441 691 2322 
L 691 4666 
z
" transform="scale(0.015625)"/>
       </defs>
       <use xlink:href="#DejaVuSans-53"/>
       <use xlink:href="#DejaVuSans-65" x="63.476562"/>
       <use xlink:href="#DejaVuSans-72" x="125"/>
       <use xlink:href="#DejaVuSans-35" x="166.113281"/>
      </g>
     </g>
    </g>
    <g id="xtick_23">
     <g id="line2d_23">
      <g>
       <use xlink:href="#mdfd25a62b3" x="385.486027" y="275.69" style="stroke: #000000; stroke-width: 0.8"/>
      </g>
     </g>
     <g id="text_23">
      <!-- Ser1 -->
      <g transform="translate(389.073214 312.5575) rotate(-90) scale(0.13 -0.13)">
       <use xlink:href="#DejaVuSans-53"/>
       <use xlink:href="#DejaVuSans-65" x="63.476562"/>
       <use xlink:href="#DejaVuSans-72" x="125"/>
       <use xlink:href="#DejaVuSans-31" x="166.113281"/>
      </g>
     </g>
    </g>
    <g id="xtick_24">
     <g id="line2d_24">
      <g>
       <use xlink:href="#mdfd25a62b3" x="399.251265" y="275.69" style="stroke: #000000; stroke-width: 0.8"/>
      </g>
     </g>
     <g id="text_24">
      <!-- His -->
      <g transform="translate(402.838452 302.850156) rotate(-90) scale(0.13 -0.13)">
       <defs>
        <path id="DejaVuSans-48" d="M 628 4666 
L 1259 4666 
L 1259 2753 
L 3553 2753 
L 3553 4666 
L 4184 4666 
L 4184 0 
L 3553 0 
L 3553 2222 
L 1259 2222 
L 1259 0 
L 628 0 
L 628 4666 
z
" transform="scale(0.015625)"/>
        <path id="DejaVuSans-69" d="M 603 3500 
L 1178 3500 
L 1178 0 
L 603 0 
L 603 3500 
z
M 603 4863 
L 1178 4863 
L 1178 4134 
L 603 4134 
L 603 4863 
z
" transform="scale(0.015625)"/>
       </defs>
       <use xlink:href="#DejaVuSans-48"/>
       <use xlink:href="#DejaVuSans-69" x="75.195312"/>
       <use xlink:href="#DejaVuSans-73" x="102.978516"/>
      </g>
     </g>
    </g>
    <g id="xtick_25">
     <g id="line2d_25">
      <g>
       <use xlink:href="#mdfd25a62b3" x="413.016503" y="275.69" style="stroke: #000000; stroke-width: 0.8"/>
      </g>
     </g>
     <g id="text_25">
      <!-- Ala2 -->
      <g transform="translate(416.60369 311.432188) rotate(-90) scale(0.13 -0.13)">
       <use xlink:href="#DejaVuSans-41"/>
       <use xlink:href="#DejaVuSans-6c" x="68.408203"/>
       <use xlink:href="#DejaVuSans-61" x="96.191406"/>
       <use xlink:href="#DejaVuSans-32" x="157.470703"/>
      </g>
     </g>
    </g>
    <g id="xtick_26">
     <g id="line2d_26">
      <g>
       <use xlink:href="#mdfd25a62b3" x="426.781741" y="275.69" style="stroke: #000000; stroke-width: 0.8"/>
      </g>
     </g>
     <g id="text_26">
      <!-- Ser3 -->
      <g transform="translate(430.368929 312.5575) rotate(-90) scale(0.13 -0.13)">
       <use xlink:href="#DejaVuSans-53"/>
       <use xlink:href="#DejaVuSans-65" x="63.476562"/>
       <use xlink:href="#DejaVuSans-72" x="125"/>
       <use xlink:href="#DejaVuSans-33" x="166.113281"/>
      </g>
     </g>
    </g>
    <g id="xtick_27">
     <g id="line2d_27">
      <g>
       <use xlink:href="#mdfd25a62b3" x="440.546979" y="275.69" style="stroke: #000000; stroke-width: 0.8"/>
      </g>
     </g>
     <g id="text_27">
      <!-- Leu2 -->
      <g transform="translate(444.134167 314.215) rotate(-90) scale(0.13 -0.13)">
       <use xlink:href="#DejaVuSans-4c"/>
       <use xlink:href="#DejaVuSans-65" x="53.962891"/>
       <use xlink:href="#DejaVuSans-75" x="115.486328"/>
       <use xlink:href="#DejaVuSans-32" x="178.865234"/>
      </g>
     </g>
    </g>
    <g id="xtick_28">
     <g id="line2d_28">
      <g>
       <use xlink:href="#mdfd25a62b3" x="454.312217" y="275.69" style="stroke: #000000; stroke-width: 0.8"/>
      </g>
     </g>
     <g id="text_28">
      <!-- Leu5 -->
      <g transform="translate(457.899405 314.215) rotate(-90) scale(0.13 -0.13)">
       <use xlink:href="#DejaVuSans-4c"/>
       <use xlink:href="#DejaVuSans-65" x="53.962891"/>
       <use xlink:href="#DejaVuSans-75" x="115.486328"/>
       <use xlink:href="#DejaVuSans-35" x="178.865234"/>
      </g>
     </g>
    </g>
    <g id="xtick_29">
     <g id="line2d_29">
      <g>
       <use xlink:href="#mdfd25a62b3" x="468.077455" y="275.69" style="stroke: #000000; stroke-width: 0.8"/>
      </g>
     </g>
     <g id="text_29">
      <!-- Trp -->
      <g transform="translate(471.664643 302.309844) rotate(-90) scale(0.13 -0.13)">
       <use xlink:href="#DejaVuSans-54"/>
       <use xlink:href="#DejaVuSans-72" x="46.333984"/>
       <use xlink:href="#DejaVuSans-70" x="87.447266"/>
      </g>
     </g>
    </g>
    <g id="xtick_30">
     <g id="line2d_30">
      <g>
       <use xlink:href="#mdfd25a62b3" x="481.842693" y="275.69" style="stroke: #000000; stroke-width: 0.8"/>
      </g>
     </g>
     <g id="text_30">
      <!-- Gln1 -->
      <g transform="translate(485.429881 312.884531) rotate(-90) scale(0.13 -0.13)">
       <use xlink:href="#DejaVuSans-47"/>
       <use xlink:href="#DejaVuSans-6c" x="77.490234"/>
       <use xlink:href="#DejaVuSans-6e" x="105.273438"/>
       <use xlink:href="#DejaVuSans-31" x="168.652344"/>
      </g>
     </g>
    </g>
    <g id="xtick_31">
     <g id="line2d_31">
      <g>
       <use xlink:href="#mdfd25a62b3" x="495.607932" y="275.69" style="stroke: #000000; stroke-width: 0.8"/>
      </g>
     </g>
     <g id="text_31">
      <!-- Gly2 -->
      <g transform="translate(499.195119 312.340156) rotate(-90) scale(0.13 -0.13)">
       <use xlink:href="#DejaVuSans-47"/>
       <use xlink:href="#DejaVuSans-6c" x="77.490234"/>
       <use xlink:href="#DejaVuSans-79" x="105.273438"/>
       <use xlink:href="#DejaVuSans-32" x="164.453125"/>
      </g>
     </g>
    </g>
    <g id="xtick_32">
     <g id="line2d_32">
      <g>
       <use xlink:href="#mdfd25a62b3" x="509.37317" y="275.69" style="stroke: #000000; stroke-width: 0.8"/>
      </g>
     </g>
     <g id="text_32">
      <!-- Thr2 -->
      <g transform="translate(512.960357 312.484375) rotate(-90) scale(0.13 -0.13)">
       <use xlink:href="#DejaVuSans-54"/>
       <use xlink:href="#DejaVuSans-68" x="61.083984"/>
       <use xlink:href="#DejaVuSans-72" x="124.462891"/>
       <use xlink:href="#DejaVuSans-32" x="165.576172"/>
      </g>
     </g>
    </g>
    <g id="xtick_33">
     <g id="line2d_33">
      <g>
       <use xlink:href="#mdfd25a62b3" x="523.138408" y="275.69" style="stroke: #000000; stroke-width: 0.8"/>
      </g>
     </g>
     <g id="text_33">
      <!-- Cys -->
      <g transform="translate(526.725595 306.234219) rotate(-90) scale(0.13 -0.13)">
       <defs>
        <path id="DejaVuSans-43" d="M 4122 4306 
L 4122 3641 
Q 3803 3938 3442 4084 
Q 3081 4231 2675 4231 
Q 1875 4231 1450 3742 
Q 1025 3253 1025 2328 
Q 1025 1406 1450 917 
Q 1875 428 2675 428 
Q 3081 428 3442 575 
Q 3803 722 4122 1019 
L 4122 359 
Q 3791 134 3420 21 
Q 3050 -91 2638 -91 
Q 1578 -91 968 557 
Q 359 1206 359 2328 
Q 359 3453 968 4101 
Q 1578 4750 2638 4750 
Q 3056 4750 3426 4639 
Q 3797 4528 4122 4306 
z
" transform="scale(0.015625)"/>
       </defs>
       <use xlink:href="#DejaVuSans-43"/>
       <use xlink:href="#DejaVuSans-79" x="69.824219"/>
       <use xlink:href="#DejaVuSans-73" x="129.003906"/>
      </g>
     </g>
    </g>
    <g id="xtick_34">
     <g id="line2d_34">
      <g>
       <use xlink:href="#mdfd25a62b3" x="536.903646" y="275.69" style="stroke: #000000; stroke-width: 0.8"/>
      </g>
     </g>
     <g id="text_34">
      <!-- Leu4 -->
      <g transform="translate(540.490833 314.215) rotate(-90) scale(0.13 -0.13)">
       <use xlink:href="#DejaVuSans-4c"/>
       <use xlink:href="#DejaVuSans-65" x="53.962891"/>
       <use xlink:href="#DejaVuSans-75" x="115.486328"/>
       <use xlink:href="#DejaVuSans-34" x="178.865234"/>
      </g>
     </g>
    </g>
    <g id="xtick_35">
     <g id="line2d_35">
      <g>
       <use xlink:href="#mdfd25a62b3" x="550.668884" y="275.69" style="stroke: #000000; stroke-width: 0.8"/>
      </g>
     </g>
     <g id="text_35">
      <!-- Pro2 -->
      <g transform="translate(554.256071 311.578438) rotate(-90) scale(0.13 -0.13)">
       <use xlink:href="#DejaVuSans-50"/>
       <use xlink:href="#DejaVuSans-72" x="58.552734"/>
       <use xlink:href="#DejaVuSans-6f" x="97.416016"/>
       <use xlink:href="#DejaVuSans-32" x="158.597656"/>
      </g>
     </g>
    </g>
    <g id="xtick_36">
     <g id="line2d_36">
      <g>
       <use xlink:href="#mdfd25a62b3" x="564.434122" y="275.69" style="stroke: #000000; stroke-width: 0.8"/>
      </g>
     </g>
     <g id="text_36">
      <!-- Ser2 -->
      <g transform="translate(568.02131 312.5575) rotate(-90) scale(0.13 -0.13)">
       <use xlink:href="#DejaVuSans-53"/>
       <use xlink:href="#DejaVuSans-65" x="63.476562"/>
       <use xlink:href="#DejaVuSans-72" x="125"/>
       <use xlink:href="#DejaVuSans-32" x="166.113281"/>
      </g>
     </g>
    </g>
    <g id="xtick_37">
     <g id="line2d_37">
      <g>
       <use xlink:href="#mdfd25a62b3" x="578.19936" y="275.69" style="stroke: #000000; stroke-width: 0.8"/>
      </g>
     </g>
     <g id="text_37">
      <!-- Arg3 -->
      <g transform="translate(581.786548 313.22375) rotate(-90) scale(0.13 -0.13)">
       <use xlink:href="#DejaVuSans-41"/>
       <use xlink:href="#DejaVuSans-72" x="68.408203"/>
       <use xlink:href="#DejaVuSans-67" x="107.771484"/>
       <use xlink:href="#DejaVuSans-33" x="171.248047"/>
      </g>
     </g>
    </g>
    <g id="xtick_38">
     <g id="line2d_38">
      <g>
       <use xlink:href="#mdfd25a62b3" x="591.964598" y="275.69" style="stroke: #000000; stroke-width: 0.8"/>
      </g>
     </g>
     <g id="text_38">
      <!-- Arg4 -->
      <g transform="translate(595.551786 313.22375) rotate(-90) scale(0.13 -0.13)">
       <use xlink:href="#DejaVuSans-41"/>
       <use xlink:href="#DejaVuSans-72" x="68.408203"/>
       <use xlink:href="#DejaVuSans-67" x="107.771484"/>
       <use xlink:href="#DejaVuSans-34" x="171.248047"/>
      </g>
     </g>
    </g>
    <g id="xtick_39">
     <g id="line2d_39">
      <g>
       <use xlink:href="#mdfd25a62b3" x="605.729836" y="275.69" style="stroke: #000000; stroke-width: 0.8"/>
      </g>
     </g>
     <g id="text_39">
      <!-- Sel_Cys -->
      <g transform="translate(609.136243 332.597813) rotate(-90) scale(0.13 -0.13)">
       <use xlink:href="#DejaVuSans-53"/>
       <use xlink:href="#DejaVuSans-65" x="63.476562"/>
       <use xlink:href="#DejaVuSans-6c" x="125"/>
       <use xlink:href="#DejaVuSans-5f" x="152.783203"/>
       <use xlink:href="#DejaVuSans-43" x="202.783203"/>
       <use xlink:href="#DejaVuSans-79" x="272.607422"/>
       <use xlink:href="#DejaVuSans-73" x="331.787109"/>
      </g>
     </g>
    </g>
    <g id="xtick_40">
     <g id="line2d_40">
      <g>
       <use xlink:href="#mdfd25a62b3" x="619.495074" y="275.69" style="stroke: #000000; stroke-width: 0.8"/>
      </g>
     </g>
     <g id="text_40">
      <!-- Arg5 -->
      <g transform="translate(623.082262 313.22375) rotate(-90) scale(0.13 -0.13)">
       <use xlink:href="#DejaVuSans-41"/>
       <use xlink:href="#DejaVuSans-72" x="68.408203"/>
       <use xlink:href="#DejaVuSans-67" x="107.771484"/>
       <use xlink:href="#DejaVuSans-35" x="171.248047"/>
      </g>
     </g>
    </g>
   </g>
   <g id="matplotlib.axis_2">
    <g id="ytick_1">
     <g id="line2d_41">
      <defs>
       <path id="m404bedd182" d="M 0 0 
L -3.5 0 
" style="stroke: #000000; stroke-width: 0.8"/>
      </defs>
      <g>
       <use xlink:href="#m404bedd182" x="55.120313" y="275.69" style="stroke: #000000; stroke-width: 0.8"/>
      </g>
     </g>
     <g id="text_41">
      <!-- 0 -->
      <g transform="translate(35.395313 283.288438) scale(0.2 -0.2)">
       <defs>
        <path id="DejaVuSans-30" d="M 2034 4250 
Q 1547 4250 1301 3770 
Q 1056 3291 1056 2328 
Q 1056 1369 1301 889 
Q 1547 409 2034 409 
Q 2525 409 2770 889 
Q 3016 1369 3016 2328 
Q 3016 3291 2770 3770 
Q 2525 4250 2034 4250 
z
M 2034 4750 
Q 2819 4750 3233 4129 
Q 3647 3509 3647 2328 
Q 3647 1150 3233 529 
Q 2819 -91 2034 -91 
Q 1250 -91 836 529 
Q 422 1150 422 2328 
Q 422 3509 836 4129 
Q 1250 4750 2034 4750 
z
" transform="scale(0.015625)"/>
       </defs>
       <use xlink:href="#DejaVuSans-30"/>
      </g>
     </g>
    </g>
    <g id="ytick_2">
     <g id="line2d_42">
      <g>
       <use xlink:href="#m404bedd182" x="55.120313" y="212.664178" style="stroke: #000000; stroke-width: 0.8"/>
      </g>
     </g>
     <g id="text_42">
      <!-- 2 -->
      <g transform="translate(35.395313 220.262616) scale(0.2 -0.2)">
       <use xlink:href="#DejaVuSans-32"/>
      </g>
     </g>
    </g>
    <g id="ytick_3">
     <g id="line2d_43">
      <g>
       <use xlink:href="#m404bedd182" x="55.120313" y="149.638357" style="stroke: #000000; stroke-width: 0.8"/>
      </g>
     </g>
     <g id="text_43">
      <!-- 4 -->
      <g transform="translate(35.395313 157.236794) scale(0.2 -0.2)">
       <use xlink:href="#DejaVuSans-34"/>
      </g>
     </g>
    </g>
    <g id="ytick_4">
     <g id="line2d_44">
      <g>
       <use xlink:href="#m404bedd182" x="55.120313" y="86.612535" style="stroke: #000000; stroke-width: 0.8"/>
      </g>
     </g>
     <g id="text_44">
      <!-- 6 -->
      <g transform="translate(35.395313 94.210973) scale(0.2 -0.2)">
       <defs>
        <path id="DejaVuSans-36" d="M 2113 2584 
Q 1688 2584 1439 2293 
Q 1191 2003 1191 1497 
Q 1191 994 1439 701 
Q 1688 409 2113 409 
Q 2538 409 2786 701 
Q 3034 994 3034 1497 
Q 3034 2003 2786 2293 
Q 2538 2584 2113 2584 
z
M 3366 4563 
L 3366 3988 
Q 3128 4100 2886 4159 
Q 2644 4219 2406 4219 
Q 1781 4219 1451 3797 
Q 1122 3375 1075 2522 
Q 1259 2794 1537 2939 
Q 1816 3084 2150 3084 
Q 2853 3084 3261 2657 
Q 3669 2231 3669 1497 
Q 3669 778 3244 343 
Q 2819 -91 2113 -91 
Q 1303 -91 875 529 
Q 447 1150 447 2328 
Q 447 3434 972 4092 
Q 1497 4750 2381 4750 
Q 2619 4750 2861 4703 
Q 3103 4656 3366 4563 
z
" transform="scale(0.015625)"/>
       </defs>
       <use xlink:href="#DejaVuSans-36"/>
      </g>
     </g>
    </g>
    <g id="ytick_5">
     <g id="line2d_45">
      <g>
       <use xlink:href="#m404bedd182" x="55.120313" y="23.586714" style="stroke: #000000; stroke-width: 0.8"/>
      </g>
     </g>
     <g id="text_45">
      <!-- 8 -->
      <g transform="translate(35.395313 31.185151) scale(0.2 -0.2)">
       <defs>
        <path id="DejaVuSans-38" d="M 2034 2216 
Q 1584 2216 1326 1975 
Q 1069 1734 1069 1313 
Q 1069 891 1326 650 
Q 1584 409 2034 409 
Q 2484 409 2743 651 
Q 3003 894 3003 1313 
Q 3003 1734 2745 1975 
Q 2488 2216 2034 2216 
z
M 1403 2484 
Q 997 2584 770 2862 
Q 544 3141 544 3541 
Q 544 4100 942 4425 
Q 1341 4750 2034 4750 
Q 2731 4750 3128 4425 
Q 3525 4100 3525 3541 
Q 3525 3141 3298 2862 
Q 3072 2584 2669 2484 
Q 3125 2378 3379 2068 
Q 3634 1759 3634 1313 
Q 3634 634 3220 271 
Q 2806 -91 2034 -91 
Q 1263 -91 848 271 
Q 434 634 434 1313 
Q 434 1759 690 2068 
Q 947 2378 1403 2484 
z
M 1172 3481 
Q 1172 3119 1398 2916 
Q 1625 2713 2034 2713 
Q 2441 2713 2670 2916 
Q 2900 3119 2900 3481 
Q 2900 3844 2670 4047 
Q 2441 4250 2034 4250 
Q 1625 4250 1398 4047 
Q 1172 3844 1172 3481 
z
" transform="scale(0.015625)"/>
       </defs>
       <use xlink:href="#DejaVuSans-38"/>
      </g>
     </g>
    </g>
    <g id="text_46">
     <!-- Frequency (%) -->
     <g transform="translate(26.196094 231.622734) rotate(-90) scale(0.25 -0.25)">
      <defs>
       <path id="DejaVuSans-46" d="M 628 4666 
L 3309 4666 
L 3309 4134 
L 1259 4134 
L 1259 2759 
L 3109 2759 
L 3109 2228 
L 1259 2228 
L 1259 0 
L 628 0 
L 628 4666 
z
" transform="scale(0.015625)"/>
       <path id="DejaVuSans-71" d="M 947 1747 
Q 947 1113 1208 752 
Q 1469 391 1925 391 
Q 2381 391 2643 752 
Q 2906 1113 2906 1747 
Q 2906 2381 2643 2742 
Q 2381 3103 1925 3103 
Q 1469 3103 1208 2742 
Q 947 2381 947 1747 
z
M 2906 525 
Q 2725 213 2448 61 
Q 2172 -91 1784 -91 
Q 1150 -91 751 415 
Q 353 922 353 1747 
Q 353 2572 751 3078 
Q 1150 3584 1784 3584 
Q 2172 3584 2448 3432 
Q 2725 3281 2906 2969 
L 2906 3500 
L 3481 3500 
L 3481 -1331 
L 2906 -1331 
L 2906 525 
z
" transform="scale(0.015625)"/>
       <path id="DejaVuSans-63" d="M 3122 3366 
L 3122 2828 
Q 2878 2963 2633 3030 
Q 2388 3097 2138 3097 
Q 1578 3097 1268 2742 
Q 959 2388 959 1747 
Q 959 1106 1268 751 
Q 1578 397 2138 397 
Q 2388 397 2633 464 
Q 2878 531 3122 666 
L 3122 134 
Q 2881 22 2623 -34 
Q 2366 -91 2075 -91 
Q 1284 -91 818 406 
Q 353 903 353 1747 
Q 353 2603 823 3093 
Q 1294 3584 2113 3584 
Q 2378 3584 2631 3529 
Q 2884 3475 3122 3366 
z
" transform="scale(0.015625)"/>
       <path id="DejaVuSans-20" transform="scale(0.015625)"/>
       <path id="DejaVuSans-28" d="M 1984 4856 
Q 1566 4138 1362 3434 
Q 1159 2731 1159 2009 
Q 1159 1288 1364 580 
Q 1569 -128 1984 -844 
L 1484 -844 
Q 1016 -109 783 600 
Q 550 1309 550 2009 
Q 550 2706 781 3412 
Q 1013 4119 1484 4856 
L 1984 4856 
z
" transform="scale(0.015625)"/>
       <path id="DejaVuSans-25" d="M 4653 2053 
Q 4381 2053 4226 1822 
Q 4072 1591 4072 1178 
Q 4072 772 4226 539 
Q 4381 306 4653 306 
Q 4919 306 5073 539 
Q 5228 772 5228 1178 
Q 5228 1588 5073 1820 
Q 4919 2053 4653 2053 
z
M 4653 2450 
Q 5147 2450 5437 2106 
Q 5728 1763 5728 1178 
Q 5728 594 5436 251 
Q 5144 -91 4653 -91 
Q 4153 -91 3862 251 
Q 3572 594 3572 1178 
Q 3572 1766 3864 2108 
Q 4156 2450 4653 2450 
z
M 1428 4353 
Q 1159 4353 1004 4120 
Q 850 3888 850 3481 
Q 850 3069 1003 2837 
Q 1156 2606 1428 2606 
Q 1700 2606 1854 2837 
Q 2009 3069 2009 3481 
Q 2009 3884 1853 4118 
Q 1697 4353 1428 4353 
z
M 4250 4750 
L 4750 4750 
L 1831 -91 
L 1331 -91 
L 4250 4750 
z
M 1428 4750 
Q 1922 4750 2215 4408 
Q 2509 4066 2509 3481 
Q 2509 2891 2217 2550 
Q 1925 2209 1428 2209 
Q 931 2209 642 2551 
Q 353 2894 353 3481 
Q 353 4063 643 4406 
Q 934 4750 1428 4750 
z
" transform="scale(0.015625)"/>
       <path id="DejaVuSans-29" d="M 513 4856 
L 1013 4856 
Q 1481 4119 1714 3412 
Q 1947 2706 1947 2009 
Q 1947 1309 1714 600 
Q 1481 -109 1013 -844 
L 513 -844 
Q 928 -128 1133 580 
Q 1338 1288 1338 2009 
Q 1338 2731 1133 3434 
Q 928 4138 513 4856 
z
" transform="scale(0.015625)"/>
      </defs>
      <use xlink:href="#DejaVuSans-46"/>
      <use xlink:href="#DejaVuSans-72" x="50.269531"/>
      <use xlink:href="#DejaVuSans-65" x="89.132812"/>
      <use xlink:href="#DejaVuSans-71" x="150.65625"/>
      <use xlink:href="#DejaVuSans-75" x="214.132812"/>
      <use xlink:href="#DejaVuSans-65" x="277.511719"/>
      <use xlink:href="#DejaVuSans-6e" x="339.035156"/>
      <use xlink:href="#DejaVuSans-63" x="402.414062"/>
      <use xlink:href="#DejaVuSans-79" x="457.394531"/>
      <use xlink:href="#DejaVuSans-20" x="516.574219"/>
      <use xlink:href="#DejaVuSans-28" x="548.361328"/>
      <use xlink:href="#DejaVuSans-25" x="587.375"/>
      <use xlink:href="#DejaVuSans-29" x="682.394531"/>
     </g>
    </g>
   </g>
   <g id="line2d_46">
    <path d="M 82.650789 196.907723 
L 96.416027 196.907723 
L 110.181265 196.907723 
L 123.946503 196.907723 
L 137.711741 196.907723 
L 151.476979 196.907723 
L 165.242217 196.907723 
L 179.007455 196.907723 
L 192.772693 196.907723 
L 206.537932 196.907723 
L 220.30317 196.907723 
L 234.068408 196.907723 
L 247.833646 196.907723 
L 261.598884 196.907723 
L 275.364122 196.907723 
L 289.12936 196.907723 
L 302.894598 196.907723 
L 316.659836 196.907723 
L 330.425074 196.907723 
L 344.190312 196.907723 
L 357.955551 196.907723 
L 371.720789 196.907723 
L 385.486027 196.907723 
L 399.251265 196.907723 
L 413.016503 196.907723 
L 426.781741 196.907723 
L 440.546979 196.907723 
L 454.312217 196.907723 
L 468.077455 196.907723 
L 481.842693 196.907723 
L 495.607932 196.907723 
L 509.37317 196.907723 
L 523.138408 196.907723 
L 536.903646 196.907723 
L 550.668884 196.907723 
L 564.434122 196.907723 
L 578.19936 196.907723 
L 591.964598 196.907723 
L 605.729836 196.907723 
L 619.495074 196.907723 
" clip-path="url(#p201784ece2)" style="fill: none; stroke-dasharray: 11.1,4.8; stroke-dashoffset: 0; stroke: #000000; stroke-opacity: 0.5; stroke-width: 3"/>
   </g>
   <g id="patch_83">
    <path d="M 55.120313 275.69 
L 55.120313 7.2 
" style="fill: none; stroke: #000000; stroke-width: 4; stroke-linejoin: miter; stroke-linecap: square"/>
   </g>
   <g id="patch_84">
    <path d="M 633.260312 275.69 
L 633.260312 7.2 
" style="fill: none"/>
   </g>
   <g id="patch_85">
    <path d="M 55.120313 275.69 
L 633.260312 275.69 
" style="fill: none; stroke: #000000; stroke-width: 4; stroke-linejoin: miter; stroke-linecap: square"/>
   </g>
   <g id="patch_86">
    <path d="M 55.120313 7.2 
L 633.260312 7.2 
" style="fill: none"/>
   </g>
  </g>
 </g>
 <defs>
  <clipPath id="p201784ece2">
   <rect x="55.120313" y="7.2" width="578.14" height="268.49"/>
  </clipPath>
 </defs>
</svg>
