<?xml version="1.0" encoding="utf-8" standalone="no"?>
<!DOCTYPE svg PUBLIC "-//W3C//DTD SVG 1.1//EN"
  "http://www.w3.org/Graphics/SVG/1.1/DTD/svg11.dtd">
<svg xmlns:xlink="http://www.w3.org/1999/xlink" width="637.76625pt" height="352.438378pt" viewBox="0 0 637.76625 352.438378" xmlns="http://www.w3.org/2000/svg" version="1.1">
 <metadata>
  <rdf:RDF xmlns:dc="http://purl.org/dc/elements/1.1/" xmlns:cc="http://creativecommons.org/ns#" xmlns:rdf="http://www.w3.org/1999/02/22-rdf-syntax-ns#">
   <cc:Work>
    <dc:type rdf:resource="http://purl.org/dc/dcmitype/StillImage"/>
    <dc:date>2023-05-17T14:41:10.467063</dc:date>
    <dc:format>image/svg+xml</dc:format>
    <dc:creator>
     <cc:Agent>
      <dc:title>Matplotlib v3.7.1, https://matplotlib.org/</dc:title>
     </cc:Agent>
    </dc:creator>
   </cc:Work>
  </rdf:RDF>
 </metadata>
 <defs>
  <style type="text/css">*{stroke-linejoin: round; stroke-linecap: butt}</style>
 </defs>
 <g id="figure_1">
  <g id="patch_1">
   <path d="M -0 352.438378 
L 637.76625 352.438378 
L 637.76625 0 
L -0 0 
z
" style="fill: #ffffff"/>
  </g>
  <g id="axes_1">
   <g id="patch_2">
    <path d="M 72.31625 275.547909 
L 630.56625 275.547909 
L 630.56625 11.066289 
L 72.31625 11.066289 
z
" style="fill: #ffffff"/>
   </g>
   <g id="patch_3">
    <path d="M 93.582917 275.547909 
L 104.21625 275.547909 
L 104.21625 275.547909 
L 93.582917 275.547909 
z
" clip-path="url(#p2f9f3eb74c)" style="fill: #a0522d"/>
   </g>
   <g id="patch_4">
    <path d="M 106.874583 275.547909 
L 117.507917 275.547909 
L 117.507917 275.426126 
L 106.874583 275.426126 
z
" clip-path="url(#p2f9f3eb74c)" style="fill: #a0522d"/>
   </g>
   <g id="patch_5">
    <path d="M 120.16625 275.547909 
L 130.799583 275.547909 
L 130.799583 264.29731 
L 120.16625 264.29731 
z
" clip-path="url(#p2f9f3eb74c)" style="fill: #a0522d"/>
   </g>
   <g id="patch_6">
    <path d="M 133.457917 275.547909 
L 144.09125 275.547909 
L 144.09125 247.135485 
L 133.457917 247.135485 
z
" clip-path="url(#p2f9f3eb74c)" style="fill: #a0522d"/>
   </g>
   <g id="patch_7">
    <path d="M 146.749583 275.547909 
L 157.382917 275.547909 
L 157.382917 246.960335 
L 146.749583 246.960335 
z
" clip-path="url(#p2f9f3eb74c)" style="fill: #a0522d"/>
   </g>
   <g id="patch_8">
    <path d="M 160.04125 275.547909 
L 170.674583 275.547909 
L 170.674583 178.395462 
L 160.04125 178.395462 
z
" clip-path="url(#p2f9f3eb74c)" style="fill: #a0522d"/>
   </g>
   <g id="patch_9">
    <path d="M 173.332917 275.547909 
L 183.96625 275.547909 
L 183.96625 91.157291 
L 173.332917 91.157291 
z
" clip-path="url(#p2f9f3eb74c)" style="fill: #a0522d"/>
   </g>
   <g id="patch_10">
    <path d="M 186.624583 275.547909 
L 197.257917 275.547909 
L 197.257917 112.600981 
L 186.624583 112.600981 
z
" clip-path="url(#p2f9f3eb74c)" style="fill: #a0522d"/>
   </g>
   <g id="patch_11">
    <path d="M 199.91625 275.547909 
L 210.549583 275.547909 
L 210.549583 110.35979 
L 199.91625 110.35979 
z
" clip-path="url(#p2f9f3eb74c)" style="fill: #a0522d"/>
   </g>
   <g id="patch_12">
    <path d="M 213.207917 275.547909 
L 223.84125 275.547909 
L 223.84125 116.622631 
L 213.207917 116.622631 
z
" clip-path="url(#p2f9f3eb74c)" style="fill: #a0522d"/>
   </g>
   <g id="patch_13">
    <path d="M 226.499583 275.547909 
L 237.132917 275.547909 
L 237.132917 127.783054 
L 226.499583 127.783054 
z
" clip-path="url(#p2f9f3eb74c)" style="fill: #a0522d"/>
   </g>
   <g id="patch_14">
    <path d="M 239.79125 275.547909 
L 250.424583 275.547909 
L 250.424583 96.364492 
L 239.79125 96.364492 
z
" clip-path="url(#p2f9f3eb74c)" style="fill: #a0522d"/>
   </g>
   <g id="patch_15">
    <path d="M 253.082917 275.547909 
L 263.71625 275.547909 
L 263.71625 95.042957 
L 253.082917 95.042957 
z
" clip-path="url(#p2f9f3eb74c)" style="fill: #a0522d"/>
   </g>
   <g id="patch_16">
    <path d="M 266.374583 275.547909 
L 277.007917 275.547909 
L 277.007917 86.915738 
L 266.374583 86.915738 
z
" clip-path="url(#p2f9f3eb74c)" style="fill: #a0522d"/>
   </g>
   <g id="patch_17">
    <path d="M 279.66625 275.547909 
L 290.299583 275.547909 
L 290.299583 96.17121 
L 279.66625 96.17121 
z
" clip-path="url(#p2f9f3eb74c)" style="fill: #a0522d"/>
   </g>
   <g id="patch_18">
    <path d="M 292.957917 275.547909 
L 303.59125 275.547909 
L 303.59125 96.072945 
L 292.957917 96.072945 
z
" clip-path="url(#p2f9f3eb74c)" style="fill: #a0522d"/>
   </g>
   <g id="patch_19">
    <path d="M 306.249583 275.547909 
L 316.882917 275.547909 
L 316.882917 50.696087 
L 306.249583 50.696087 
z
" clip-path="url(#p2f9f3eb74c)" style="fill: #a0522d"/>
   </g>
   <g id="patch_20">
    <path d="M 319.54125 275.547909 
L 330.174583 275.547909 
L 330.174583 54.818217 
L 319.54125 54.818217 
z
" clip-path="url(#p2f9f3eb74c)" style="fill: #a0522d"/>
   </g>
   <g id="patch_21">
    <path d="M 332.832917 275.547909 
L 343.46625 275.547909 
L 343.46625 38.973547 
L 332.832917 38.973547 
z
" clip-path="url(#p2f9f3eb74c)" style="fill: #a0522d"/>
   </g>
   <g id="patch_22">
    <path d="M 346.124583 275.547909 
L 356.757917 275.547909 
L 356.757917 35.100161 
L 346.124583 35.100161 
z
" clip-path="url(#p2f9f3eb74c)" style="fill: #a0522d"/>
   </g>
   <g id="patch_23">
    <path d="M 359.41625 275.547909 
L 370.049583 275.547909 
L 370.049583 33.563369 
L 359.41625 33.563369 
z
" clip-path="url(#p2f9f3eb74c)" style="fill: #a0522d"/>
   </g>
   <g id="patch_24">
    <path d="M 372.707917 275.547909 
L 383.34125 275.547909 
L 383.34125 29.035915 
L 372.707917 29.035915 
z
" clip-path="url(#p2f9f3eb74c)" style="fill: #a0522d"/>
   </g>
   <g id="patch_25">
    <path d="M 385.999583 275.547909 
L 396.632917 275.547909 
L 396.632917 27.845598 
L 385.999583 27.845598 
z
" clip-path="url(#p2f9f3eb74c)" style="fill: #a0522d"/>
   </g>
   <g id="patch_26">
    <path d="M 399.29125 275.547909 
L 409.924583 275.547909 
L 409.924583 27.951997 
L 399.29125 27.951997 
z
" clip-path="url(#p2f9f3eb74c)" style="fill: #a0522d"/>
   </g>
   <g id="patch_27">
    <path d="M 412.582917 275.547909 
L 423.21625 275.547909 
L 423.21625 28.544543 
L 412.582917 28.544543 
z
" clip-path="url(#p2f9f3eb74c)" style="fill: #a0522d"/>
   </g>
   <g id="patch_28">
    <path d="M 425.874583 275.547909 
L 436.507917 275.547909 
L 436.507917 27.109942 
L 425.874583 27.109942 
z
" clip-path="url(#p2f9f3eb74c)" style="fill: #a0522d"/>
   </g>
   <g id="patch_29">
    <path d="M 439.16625 275.547909 
L 449.799583 275.547909 
L 449.799583 28.812872 
L 439.16625 28.812872 
z
" clip-path="url(#p2f9f3eb74c)" style="fill: #a0522d"/>
   </g>
   <g id="patch_30">
    <path d="M 452.457917 275.547909 
L 463.09125 275.547909 
L 463.09125 23.820398 
L 452.457917 23.820398 
z
" clip-path="url(#p2f9f3eb74c)" style="fill: #a0522d"/>
   </g>
   <g id="patch_31">
    <path d="M 465.749583 275.547909 
L 476.382917 275.547909 
L 476.382917 26.239789 
L 465.749583 26.239789 
z
" clip-path="url(#p2f9f3eb74c)" style="fill: #a0522d"/>
   </g>
   <g id="patch_32">
    <path d="M 479.04125 275.547909 
L 489.674583 275.547909 
L 489.674583 25.333213 
L 479.04125 25.333213 
z
" clip-path="url(#p2f9f3eb74c)" style="fill: #a0522d"/>
   </g>
   <g id="patch_33">
    <path d="M 492.332917 275.547909 
L 502.96625 275.547909 
L 502.96625 24.307421 
L 492.332917 24.307421 
z
" clip-path="url(#p2f9f3eb74c)" style="fill: #a0522d"/>
   </g>
   <g id="patch_34">
    <path d="M 505.624583 275.547909 
L 516.257917 275.547909 
L 516.257917 23.660652 
L 505.624583 23.660652 
z
" clip-path="url(#p2f9f3eb74c)" style="fill: #a0522d"/>
   </g>
   <g id="patch_35">
    <path d="M 518.91625 275.547909 
L 529.549583 275.547909 
L 529.549583 23.922026 
L 518.91625 23.922026 
z
" clip-path="url(#p2f9f3eb74c)" style="fill: #a0522d"/>
   </g>
   <g id="patch_36">
    <path d="M 532.207917 275.547909 
L 542.84125 275.547909 
L 542.84125 26.07565 
L 532.207917 26.07565 
z
" clip-path="url(#p2f9f3eb74c)" style="fill: #a0522d"/>
   </g>
   <g id="patch_37">
    <path d="M 545.499583 275.547909 
L 556.132917 275.547909 
L 556.132917 27.02636 
L 545.499583 27.02636 
z
" clip-path="url(#p2f9f3eb74c)" style="fill: #a0522d"/>
   </g>
   <g id="patch_38">
    <path d="M 558.79125 275.547909 
L 569.424583 275.547909 
L 569.424583 26.466893 
L 558.79125 26.466893 
z
" clip-path="url(#p2f9f3eb74c)" style="fill: #a0522d"/>
   </g>
   <g id="patch_39">
    <path d="M 572.082917 275.547909 
L 582.71625 275.547909 
L 582.71625 25.643674 
L 572.082917 25.643674 
z
" clip-path="url(#p2f9f3eb74c)" style="fill: #a0522d"/>
   </g>
   <g id="patch_40">
    <path d="M 585.374583 275.547909 
L 596.007917 275.547909 
L 596.007917 25.662242 
L 585.374583 25.662242 
z
" clip-path="url(#p2f9f3eb74c)" style="fill: #a0522d"/>
   </g>
   <g id="patch_41">
    <path d="M 598.66625 275.547909 
L 609.299583 275.547909 
L 609.299583 26.420672 
L 598.66625 26.420672 
z
" clip-path="url(#p2f9f3eb74c)" style="fill: #a0522d"/>
   </g>
   <g id="patch_42">
    <path d="M 611.957917 275.547909 
L 622.59125 275.547909 
L 622.59125 25.903225 
L 611.957917 25.903225 
z
" clip-path="url(#p2f9f3eb74c)" style="fill: #a0522d"/>
   </g>
   <g id="patch_43">
    <path d="M 93.582917 275.547909 
L 104.21625 275.547909 
L 104.21625 275.547909 
L 93.582917 275.547909 
z
" clip-path="url(#p2f9f3eb74c)" style="fill: #8fbc8f"/>
   </g>
   <g id="patch_44">
    <path d="M 106.874583 275.547909 
L 117.507917 275.547909 
L 117.507917 275.547909 
L 106.874583 275.547909 
z
" clip-path="url(#p2f9f3eb74c)" style="fill: #8fbc8f"/>
   </g>
   <g id="patch_45">
    <path d="M 120.16625 275.547909 
L 130.799583 275.547909 
L 130.799583 275.547909 
L 120.16625 275.547909 
z
" clip-path="url(#p2f9f3eb74c)" style="fill: #8fbc8f"/>
   </g>
   <g id="patch_46">
    <path d="M 133.457917 275.547909 
L 144.09125 275.547909 
L 144.09125 275.547909 
L 133.457917 275.547909 
z
" clip-path="url(#p2f9f3eb74c)" style="fill: #8fbc8f"/>
   </g>
   <g id="patch_47">
    <path d="M 146.749583 275.547909 
L 157.382917 275.547909 
L 157.382917 275.547909 
L 146.749583 275.547909 
z
" clip-path="url(#p2f9f3eb74c)" style="fill: #8fbc8f"/>
   </g>
   <g id="patch_48">
    <path d="M 160.04125 275.547909 
L 170.674583 275.547909 
L 170.674583 275.547909 
L 160.04125 275.547909 
z
" clip-path="url(#p2f9f3eb74c)" style="fill: #8fbc8f"/>
   </g>
   <g id="patch_49">
    <path d="M 173.332917 275.547909 
L 183.96625 275.547909 
L 183.96625 275.547909 
L 173.332917 275.547909 
z
" clip-path="url(#p2f9f3eb74c)" style="fill: #8fbc8f"/>
   </g>
   <g id="patch_50">
    <path d="M 186.624583 275.547909 
L 197.257917 275.547909 
L 197.257917 275.547909 
L 186.624583 275.547909 
z
" clip-path="url(#p2f9f3eb74c)" style="fill: #8fbc8f"/>
   </g>
   <g id="patch_51">
    <path d="M 199.91625 275.547909 
L 210.549583 275.547909 
L 210.549583 275.547909 
L 199.91625 275.547909 
z
" clip-path="url(#p2f9f3eb74c)" style="fill: #8fbc8f"/>
   </g>
   <g id="patch_52">
    <path d="M 213.207917 275.547909 
L 223.84125 275.547909 
L 223.84125 275.547909 
L 213.207917 275.547909 
z
" clip-path="url(#p2f9f3eb74c)" style="fill: #8fbc8f"/>
   </g>
   <g id="patch_53">
    <path d="M 226.499583 275.547909 
L 237.132917 275.547909 
L 237.132917 275.547909 
L 226.499583 275.547909 
z
" clip-path="url(#p2f9f3eb74c)" style="fill: #8fbc8f"/>
   </g>
   <g id="patch_54">
    <path d="M 239.79125 275.547909 
L 250.424583 275.547909 
L 250.424583 275.547909 
L 239.79125 275.547909 
z
" clip-path="url(#p2f9f3eb74c)" style="fill: #8fbc8f"/>
   </g>
   <g id="patch_55">
    <path d="M 253.082917 275.547909 
L 263.71625 275.547909 
L 263.71625 275.547909 
L 253.082917 275.547909 
z
" clip-path="url(#p2f9f3eb74c)" style="fill: #8fbc8f"/>
   </g>
   <g id="patch_56">
    <path d="M 266.374583 275.547909 
L 277.007917 275.547909 
L 277.007917 275.547909 
L 266.374583 275.547909 
z
" clip-path="url(#p2f9f3eb74c)" style="fill: #8fbc8f"/>
   </g>
   <g id="patch_57">
    <path d="M 279.66625 275.547909 
L 290.299583 275.547909 
L 290.299583 275.547909 
L 279.66625 275.547909 
z
" clip-path="url(#p2f9f3eb74c)" style="fill: #8fbc8f"/>
   </g>
   <g id="patch_58">
    <path d="M 292.957917 275.547909 
L 303.59125 275.547909 
L 303.59125 275.547909 
L 292.957917 275.547909 
z
" clip-path="url(#p2f9f3eb74c)" style="fill: #8fbc8f"/>
   </g>
   <g id="patch_59">
    <path d="M 306.249583 275.547909 
L 316.882917 275.547909 
L 316.882917 275.547909 
L 306.249583 275.547909 
z
" clip-path="url(#p2f9f3eb74c)" style="fill: #8fbc8f"/>
   </g>
   <g id="patch_60">
    <path d="M 319.54125 275.547909 
L 330.174583 275.547909 
L 330.174583 275.547909 
L 319.54125 275.547909 
z
" clip-path="url(#p2f9f3eb74c)" style="fill: #8fbc8f"/>
   </g>
   <g id="patch_61">
    <path d="M 332.832917 275.547909 
L 343.46625 275.547909 
L 343.46625 275.547909 
L 332.832917 275.547909 
z
" clip-path="url(#p2f9f3eb74c)" style="fill: #8fbc8f"/>
   </g>
   <g id="patch_62">
    <path d="M 346.124583 275.547909 
L 356.757917 275.547909 
L 356.757917 275.547909 
L 346.124583 275.547909 
z
" clip-path="url(#p2f9f3eb74c)" style="fill: #8fbc8f"/>
   </g>
   <g id="patch_63">
    <path d="M 359.41625 275.547909 
L 370.049583 275.547909 
L 370.049583 275.547909 
L 359.41625 275.547909 
z
" clip-path="url(#p2f9f3eb74c)" style="fill: #8fbc8f"/>
   </g>
   <g id="patch_64">
    <path d="M 372.707917 275.547909 
L 383.34125 275.547909 
L 383.34125 275.547909 
L 372.707917 275.547909 
z
" clip-path="url(#p2f9f3eb74c)" style="fill: #8fbc8f"/>
   </g>
   <g id="patch_65">
    <path d="M 385.999583 275.547909 
L 396.632917 275.547909 
L 396.632917 275.547909 
L 385.999583 275.547909 
z
" clip-path="url(#p2f9f3eb74c)" style="fill: #8fbc8f"/>
   </g>
   <g id="patch_66">
    <path d="M 399.29125 275.547909 
L 409.924583 275.547909 
L 409.924583 275.547909 
L 399.29125 275.547909 
z
" clip-path="url(#p2f9f3eb74c)" style="fill: #8fbc8f"/>
   </g>
   <g id="patch_67">
    <path d="M 412.582917 275.547909 
L 423.21625 275.547909 
L 423.21625 275.547909 
L 412.582917 275.547909 
z
" clip-path="url(#p2f9f3eb74c)" style="fill: #8fbc8f"/>
   </g>
   <g id="patch_68">
    <path d="M 425.874583 275.547909 
L 436.507917 275.547909 
L 436.507917 275.547909 
L 425.874583 275.547909 
z
" clip-path="url(#p2f9f3eb74c)" style="fill: #8fbc8f"/>
   </g>
   <g id="patch_69">
    <path d="M 439.16625 275.547909 
L 449.799583 275.547909 
L 449.799583 275.547909 
L 439.16625 275.547909 
z
" clip-path="url(#p2f9f3eb74c)" style="fill: #8fbc8f"/>
   </g>
   <g id="patch_70">
    <path d="M 452.457917 275.547909 
L 463.09125 275.547909 
L 463.09125 275.547909 
L 452.457917 275.547909 
z
" clip-path="url(#p2f9f3eb74c)" style="fill: #8fbc8f"/>
   </g>
   <g id="patch_71">
    <path d="M 465.749583 275.547909 
L 476.382917 275.547909 
L 476.382917 275.547909 
L 465.749583 275.547909 
z
" clip-path="url(#p2f9f3eb74c)" style="fill: #8fbc8f"/>
   </g>
   <g id="patch_72">
    <path d="M 479.04125 275.547909 
L 489.674583 275.547909 
L 489.674583 275.547909 
L 479.04125 275.547909 
z
" clip-path="url(#p2f9f3eb74c)" style="fill: #8fbc8f"/>
   </g>
   <g id="patch_73">
    <path d="M 492.332917 275.547909 
L 502.96625 275.547909 
L 502.96625 275.547909 
L 492.332917 275.547909 
z
" clip-path="url(#p2f9f3eb74c)" style="fill: #8fbc8f"/>
   </g>
   <g id="patch_74">
    <path d="M 505.624583 275.547909 
L 516.257917 275.547909 
L 516.257917 275.547909 
L 505.624583 275.547909 
z
" clip-path="url(#p2f9f3eb74c)" style="fill: #8fbc8f"/>
   </g>
   <g id="patch_75">
    <path d="M 518.91625 275.547909 
L 529.549583 275.547909 
L 529.549583 275.547909 
L 518.91625 275.547909 
z
" clip-path="url(#p2f9f3eb74c)" style="fill: #8fbc8f"/>
   </g>
   <g id="patch_76">
    <path d="M 532.207917 275.547909 
L 542.84125 275.547909 
L 542.84125 275.547909 
L 532.207917 275.547909 
z
" clip-path="url(#p2f9f3eb74c)" style="fill: #8fbc8f"/>
   </g>
   <g id="patch_77">
    <path d="M 545.499583 275.547909 
L 556.132917 275.547909 
L 556.132917 275.547909 
L 545.499583 275.547909 
z
" clip-path="url(#p2f9f3eb74c)" style="fill: #8fbc8f"/>
   </g>
   <g id="patch_78">
    <path d="M 558.79125 275.547909 
L 569.424583 275.547909 
L 569.424583 275.547909 
L 558.79125 275.547909 
z
" clip-path="url(#p2f9f3eb74c)" style="fill: #8fbc8f"/>
   </g>
   <g id="patch_79">
    <path d="M 572.082917 275.547909 
L 582.71625 275.547909 
L 582.71625 275.547909 
L 572.082917 275.547909 
z
" clip-path="url(#p2f9f3eb74c)" style="fill: #8fbc8f"/>
   </g>
   <g id="patch_80">
    <path d="M 585.374583 275.547909 
L 596.007917 275.547909 
L 596.007917 275.547909 
L 585.374583 275.547909 
z
" clip-path="url(#p2f9f3eb74c)" style="fill: #8fbc8f"/>
   </g>
   <g id="patch_81">
    <path d="M 598.66625 275.547909 
L 609.299583 275.547909 
L 609.299583 275.547909 
L 598.66625 275.547909 
z
" clip-path="url(#p2f9f3eb74c)" style="fill: #8fbc8f"/>
   </g>
   <g id="patch_82">
    <path d="M 611.957917 275.547909 
L 622.59125 275.547909 
L 622.59125 275.547909 
L 611.957917 275.547909 
z
" clip-path="url(#p2f9f3eb74c)" style="fill: #8fbc8f"/>
   </g>
   <g id="matplotlib.axis_1">
    <g id="xtick_1">
     <g id="line2d_1">
      <defs>
       <path id="mbe3bc20b68" d="M 0 0 
L 0 3.5 
" style="stroke: #000000; stroke-width: 0.8"/>
      </defs>
      <g>
       <use xlink:href="#mbe3bc20b68" x="98.899583" y="275.547909" style="stroke: #000000; stroke-width: 0.8"/>
      </g>
     </g>
     <g id="text_1">
      <!-- Ala1B -->
      <g transform="translate(102.486771 320.209315) rotate(-90) scale(0.13 -0.13)">
       <defs>
        <path id="DejaVuSans-41" d="M 2188 4044 
L 1331 1722 
L 3047 1722 
L 2188 4044 
z
M 1831 4666 
L 2547 4666 
L 4325 0 
L 3669 0 
L 3244 1197 
L 1141 1197 
L 716 0 
L 50 0 
L 1831 4666 
z
" transform="scale(0.015625)"/>
        <path id="DejaVuSans-6c" d="M 603 4863 
L 1178 4863 
L 1178 0 
L 603 0 
L 603 4863 
z
" transform="scale(0.015625)"/>
        <path id="DejaVuSans-61" d="M 2194 1759 
Q 1497 1759 1228 1600 
Q 959 1441 959 1056 
Q 959 750 1161 570 
Q 1363 391 1709 391 
Q 2188 391 2477 730 
Q 2766 1069 2766 1631 
L 2766 1759 
L 2194 1759 
z
M 3341 1997 
L 3341 0 
L 2766 0 
L 2766 531 
Q 2569 213 2275 61 
Q 1981 -91 1556 -91 
Q 1019 -91 701 211 
Q 384 513 384 1019 
Q 384 1609 779 1909 
Q 1175 2209 1959 2209 
L 2766 2209 
L 2766 2266 
Q 2766 2663 2505 2880 
Q 2244 3097 1772 3097 
Q 1472 3097 1187 3025 
Q 903 2953 641 2809 
L 641 3341 
Q 956 3463 1253 3523 
Q 1550 3584 1831 3584 
Q 2591 3584 2966 3190 
Q 3341 2797 3341 1997 
z
" transform="scale(0.015625)"/>
        <path id="DejaVuSans-31" d="M 794 531 
L 1825 531 
L 1825 4091 
L 703 3866 
L 703 4441 
L 1819 4666 
L 2450 4666 
L 2450 531 
L 3481 531 
L 3481 0 
L 794 0 
L 794 531 
z
" transform="scale(0.015625)"/>
        <path id="DejaVuSans-42" d="M 1259 2228 
L 1259 519 
L 2272 519 
Q 2781 519 3026 730 
Q 3272 941 3272 1375 
Q 3272 1813 3026 2020 
Q 2781 2228 2272 2228 
L 1259 2228 
z
M 1259 4147 
L 1259 2741 
L 2194 2741 
Q 2656 2741 2882 2914 
Q 3109 3088 3109 3444 
Q 3109 3797 2882 3972 
Q 2656 4147 2194 4147 
L 1259 4147 
z
M 628 4666 
L 2241 4666 
Q 2963 4666 3353 4366 
Q 3744 4066 3744 3513 
Q 3744 3084 3544 2831 
Q 3344 2578 2956 2516 
Q 3422 2416 3680 2098 
Q 3938 1781 3938 1306 
Q 3938 681 3513 340 
Q 3088 0 2303 0 
L 628 0 
L 628 4666 
z
" transform="scale(0.015625)"/>
       </defs>
       <use xlink:href="#DejaVuSans-41"/>
       <use xlink:href="#DejaVuSans-6c" x="68.408203"/>
       <use xlink:href="#DejaVuSans-61" x="96.191406"/>
       <use xlink:href="#DejaVuSans-31" x="157.470703"/>
       <use xlink:href="#DejaVuSans-42" x="221.09375"/>
      </g>
     </g>
    </g>
    <g id="xtick_2">
     <g id="line2d_2">
      <g>
       <use xlink:href="#mbe3bc20b68" x="112.19125" y="275.547909" style="stroke: #000000; stroke-width: 0.8"/>
      </g>
     </g>
     <g id="text_2">
      <!-- Gly3 -->
      <g transform="translate(115.778438 312.198065) rotate(-90) scale(0.13 -0.13)">
       <defs>
        <path id="DejaVuSans-47" d="M 3809 666 
L 3809 1919 
L 2778 1919 
L 2778 2438 
L 4434 2438 
L 4434 434 
Q 4069 175 3628 42 
Q 3188 -91 2688 -91 
Q 1594 -91 976 548 
Q 359 1188 359 2328 
Q 359 3472 976 4111 
Q 1594 4750 2688 4750 
Q 3144 4750 3555 4637 
Q 3966 4525 4313 4306 
L 4313 3634 
Q 3963 3931 3569 4081 
Q 3175 4231 2741 4231 
Q 1884 4231 1454 3753 
Q 1025 3275 1025 2328 
Q 1025 1384 1454 906 
Q 1884 428 2741 428 
Q 3075 428 3337 486 
Q 3600 544 3809 666 
z
" transform="scale(0.015625)"/>
        <path id="DejaVuSans-79" d="M 2059 -325 
Q 1816 -950 1584 -1140 
Q 1353 -1331 966 -1331 
L 506 -1331 
L 506 -850 
L 844 -850 
Q 1081 -850 1212 -737 
Q 1344 -625 1503 -206 
L 1606 56 
L 191 3500 
L 800 3500 
L 1894 763 
L 2988 3500 
L 3597 3500 
L 2059 -325 
z
" transform="scale(0.015625)"/>
        <path id="DejaVuSans-33" d="M 2597 2516 
Q 3050 2419 3304 2112 
Q 3559 1806 3559 1356 
Q 3559 666 3084 287 
Q 2609 -91 1734 -91 
Q 1441 -91 1130 -33 
Q 819 25 488 141 
L 488 750 
Q 750 597 1062 519 
Q 1375 441 1716 441 
Q 2309 441 2620 675 
Q 2931 909 2931 1356 
Q 2931 1769 2642 2001 
Q 2353 2234 1838 2234 
L 1294 2234 
L 1294 2753 
L 1863 2753 
Q 2328 2753 2575 2939 
Q 2822 3125 2822 3475 
Q 2822 3834 2567 4026 
Q 2313 4219 1838 4219 
Q 1578 4219 1281 4162 
Q 984 4106 628 3988 
L 628 4550 
Q 988 4650 1302 4700 
Q 1616 4750 1894 4750 
Q 2613 4750 3031 4423 
Q 3450 4097 3450 3541 
Q 3450 3153 3228 2886 
Q 3006 2619 2597 2516 
z
" transform="scale(0.015625)"/>
       </defs>
       <use xlink:href="#DejaVuSans-47"/>
       <use xlink:href="#DejaVuSans-6c" x="77.490234"/>
       <use xlink:href="#DejaVuSans-79" x="105.273438"/>
       <use xlink:href="#DejaVuSans-33" x="164.453125"/>
      </g>
     </g>
    </g>
    <g id="xtick_3">
     <g id="line2d_3">
      <g>
       <use xlink:href="#mbe3bc20b68" x="125.482917" y="275.547909" style="stroke: #000000; stroke-width: 0.8"/>
      </g>
     </g>
     <g id="text_3">
      <!-- Val1 -->
      <g transform="translate(129.070104 310.282596) rotate(-90) scale(0.13 -0.13)">
       <defs>
        <path id="DejaVuSans-56" d="M 1831 0 
L 50 4666 
L 709 4666 
L 2188 738 
L 3669 4666 
L 4325 4666 
L 2547 0 
L 1831 0 
z
" transform="scale(0.015625)"/>
       </defs>
       <use xlink:href="#DejaVuSans-56"/>
       <use xlink:href="#DejaVuSans-61" x="60.658203"/>
       <use xlink:href="#DejaVuSans-6c" x="121.9375"/>
       <use xlink:href="#DejaVuSans-31" x="149.720703"/>
      </g>
     </g>
    </g>
    <g id="xtick_4">
     <g id="line2d_4">
      <g>
       <use xlink:href="#mbe3bc20b68" x="138.774583" y="275.547909" style="stroke: #000000; stroke-width: 0.8"/>
      </g>
     </g>
     <g id="text_4">
      <!-- Glu2 -->
      <g transform="translate(142.361771 312.74244) rotate(-90) scale(0.13 -0.13)">
       <defs>
        <path id="DejaVuSans-75" d="M 544 1381 
L 544 3500 
L 1119 3500 
L 1119 1403 
Q 1119 906 1312 657 
Q 1506 409 1894 409 
Q 2359 409 2629 706 
Q 2900 1003 2900 1516 
L 2900 3500 
L 3475 3500 
L 3475 0 
L 2900 0 
L 2900 538 
Q 2691 219 2414 64 
Q 2138 -91 1772 -91 
Q 1169 -91 856 284 
Q 544 659 544 1381 
z
M 1991 3584 
L 1991 3584 
z
" transform="scale(0.015625)"/>
        <path id="DejaVuSans-32" d="M 1228 531 
L 3431 531 
L 3431 0 
L 469 0 
L 469 531 
Q 828 903 1448 1529 
Q 2069 2156 2228 2338 
Q 2531 2678 2651 2914 
Q 2772 3150 2772 3378 
Q 2772 3750 2511 3984 
Q 2250 4219 1831 4219 
Q 1534 4219 1204 4116 
Q 875 4013 500 3803 
L 500 4441 
Q 881 4594 1212 4672 
Q 1544 4750 1819 4750 
Q 2544 4750 2975 4387 
Q 3406 4025 3406 3419 
Q 3406 3131 3298 2873 
Q 3191 2616 2906 2266 
Q 2828 2175 2409 1742 
Q 1991 1309 1228 531 
z
" transform="scale(0.015625)"/>
       </defs>
       <use xlink:href="#DejaVuSans-47"/>
       <use xlink:href="#DejaVuSans-6c" x="77.490234"/>
       <use xlink:href="#DejaVuSans-75" x="105.273438"/>
       <use xlink:href="#DejaVuSans-32" x="168.652344"/>
      </g>
     </g>
    </g>
    <g id="xtick_5">
     <g id="line2d_5">
      <g>
       <use xlink:href="#mbe3bc20b68" x="152.06625" y="275.547909" style="stroke: #000000; stroke-width: 0.8"/>
      </g>
     </g>
     <g id="text_5">
      <!-- Leu3 -->
      <g transform="translate(155.653437 314.072909) rotate(-90) scale(0.13 -0.13)">
       <defs>
        <path id="DejaVuSans-4c" d="M 628 4666 
L 1259 4666 
L 1259 531 
L 3531 531 
L 3531 0 
L 628 0 
L 628 4666 
z
" transform="scale(0.015625)"/>
        <path id="DejaVuSans-65" d="M 3597 1894 
L 3597 1613 
L 953 1613 
Q 991 1019 1311 708 
Q 1631 397 2203 397 
Q 2534 397 2845 478 
Q 3156 559 3463 722 
L 3463 178 
Q 3153 47 2828 -22 
Q 2503 -91 2169 -91 
Q 1331 -91 842 396 
Q 353 884 353 1716 
Q 353 2575 817 3079 
Q 1281 3584 2069 3584 
Q 2775 3584 3186 3129 
Q 3597 2675 3597 1894 
z
M 3022 2063 
Q 3016 2534 2758 2815 
Q 2500 3097 2075 3097 
Q 1594 3097 1305 2825 
Q 1016 2553 972 2059 
L 3022 2063 
z
" transform="scale(0.015625)"/>
       </defs>
       <use xlink:href="#DejaVuSans-4c"/>
       <use xlink:href="#DejaVuSans-65" x="53.962891"/>
       <use xlink:href="#DejaVuSans-75" x="115.486328"/>
       <use xlink:href="#DejaVuSans-33" x="178.865234"/>
      </g>
     </g>
    </g>
    <g id="xtick_6">
     <g id="line2d_6">
      <g>
       <use xlink:href="#mbe3bc20b68" x="165.357917" y="275.547909" style="stroke: #000000; stroke-width: 0.8"/>
      </g>
     </g>
     <g id="text_6">
      <!-- Leu1 -->
      <g transform="translate(168.945104 314.072909) rotate(-90) scale(0.13 -0.13)">
       <use xlink:href="#DejaVuSans-4c"/>
       <use xlink:href="#DejaVuSans-65" x="53.962891"/>
       <use xlink:href="#DejaVuSans-75" x="115.486328"/>
       <use xlink:href="#DejaVuSans-31" x="178.865234"/>
      </g>
     </g>
    </g>
    <g id="xtick_7">
     <g id="line2d_7">
      <g>
       <use xlink:href="#mbe3bc20b68" x="178.649583" y="275.547909" style="stroke: #000000; stroke-width: 0.8"/>
      </g>
     </g>
     <g id="text_7">
      <!-- Asp1 -->
      <g transform="translate(182.236771 314.737128) rotate(-90) scale(0.13 -0.13)">
       <defs>
        <path id="DejaVuSans-73" d="M 2834 3397 
L 2834 2853 
Q 2591 2978 2328 3040 
Q 2066 3103 1784 3103 
Q 1356 3103 1142 2972 
Q 928 2841 928 2578 
Q 928 2378 1081 2264 
Q 1234 2150 1697 2047 
L 1894 2003 
Q 2506 1872 2764 1633 
Q 3022 1394 3022 966 
Q 3022 478 2636 193 
Q 2250 -91 1575 -91 
Q 1294 -91 989 -36 
Q 684 19 347 128 
L 347 722 
Q 666 556 975 473 
Q 1284 391 1588 391 
Q 1994 391 2212 530 
Q 2431 669 2431 922 
Q 2431 1156 2273 1281 
Q 2116 1406 1581 1522 
L 1381 1569 
Q 847 1681 609 1914 
Q 372 2147 372 2553 
Q 372 3047 722 3315 
Q 1072 3584 1716 3584 
Q 2034 3584 2315 3537 
Q 2597 3491 2834 3397 
z
" transform="scale(0.015625)"/>
        <path id="DejaVuSans-70" d="M 1159 525 
L 1159 -1331 
L 581 -1331 
L 581 3500 
L 1159 3500 
L 1159 2969 
Q 1341 3281 1617 3432 
Q 1894 3584 2278 3584 
Q 2916 3584 3314 3078 
Q 3713 2572 3713 1747 
Q 3713 922 3314 415 
Q 2916 -91 2278 -91 
Q 1894 -91 1617 61 
Q 1341 213 1159 525 
z
M 3116 1747 
Q 3116 2381 2855 2742 
Q 2594 3103 2138 3103 
Q 1681 3103 1420 2742 
Q 1159 2381 1159 1747 
Q 1159 1113 1420 752 
Q 1681 391 2138 391 
Q 2594 391 2855 752 
Q 3116 1113 3116 1747 
z
" transform="scale(0.015625)"/>
       </defs>
       <use xlink:href="#DejaVuSans-41"/>
       <use xlink:href="#DejaVuSans-73" x="68.408203"/>
       <use xlink:href="#DejaVuSans-70" x="120.507812"/>
       <use xlink:href="#DejaVuSans-31" x="183.984375"/>
      </g>
     </g>
    </g>
    <g id="xtick_8">
     <g id="line2d_8">
      <g>
       <use xlink:href="#mbe3bc20b68" x="191.94125" y="275.547909" style="stroke: #000000; stroke-width: 0.8"/>
      </g>
     </g>
     <g id="text_8">
      <!-- Lys -->
      <g transform="translate(195.528437 303.071659) rotate(-90) scale(0.13 -0.13)">
       <use xlink:href="#DejaVuSans-4c"/>
       <use xlink:href="#DejaVuSans-79" x="46.587891"/>
       <use xlink:href="#DejaVuSans-73" x="105.767578"/>
      </g>
     </g>
    </g>
    <g id="xtick_9">
     <g id="line2d_9">
      <g>
       <use xlink:href="#mbe3bc20b68" x="205.232917" y="275.547909" style="stroke: #000000; stroke-width: 0.8"/>
      </g>
     </g>
     <g id="text_9">
      <!-- Ile1 -->
      <g transform="translate(208.820104 306.264784) rotate(-90) scale(0.13 -0.13)">
       <defs>
        <path id="DejaVuSans-49" d="M 628 4666 
L 1259 4666 
L 1259 0 
L 628 0 
L 628 4666 
z
" transform="scale(0.015625)"/>
       </defs>
       <use xlink:href="#DejaVuSans-49"/>
       <use xlink:href="#DejaVuSans-6c" x="29.492188"/>
       <use xlink:href="#DejaVuSans-65" x="57.275391"/>
       <use xlink:href="#DejaVuSans-31" x="118.798828"/>
      </g>
     </g>
    </g>
    <g id="xtick_10">
     <g id="line2d_10">
      <g>
       <use xlink:href="#mbe3bc20b68" x="218.524583" y="275.547909" style="stroke: #000000; stroke-width: 0.8"/>
      </g>
     </g>
     <g id="text_10">
      <!-- Arg2 -->
      <g transform="translate(222.111771 313.081659) rotate(-90) scale(0.13 -0.13)">
       <defs>
        <path id="DejaVuSans-72" d="M 2631 2963 
Q 2534 3019 2420 3045 
Q 2306 3072 2169 3072 
Q 1681 3072 1420 2755 
Q 1159 2438 1159 1844 
L 1159 0 
L 581 0 
L 581 3500 
L 1159 3500 
L 1159 2956 
Q 1341 3275 1631 3429 
Q 1922 3584 2338 3584 
Q 2397 3584 2469 3576 
Q 2541 3569 2628 3553 
L 2631 2963 
z
" transform="scale(0.015625)"/>
        <path id="DejaVuSans-67" d="M 2906 1791 
Q 2906 2416 2648 2759 
Q 2391 3103 1925 3103 
Q 1463 3103 1205 2759 
Q 947 2416 947 1791 
Q 947 1169 1205 825 
Q 1463 481 1925 481 
Q 2391 481 2648 825 
Q 2906 1169 2906 1791 
z
M 3481 434 
Q 3481 -459 3084 -895 
Q 2688 -1331 1869 -1331 
Q 1566 -1331 1297 -1286 
Q 1028 -1241 775 -1147 
L 775 -588 
Q 1028 -725 1275 -790 
Q 1522 -856 1778 -856 
Q 2344 -856 2625 -561 
Q 2906 -266 2906 331 
L 2906 616 
Q 2728 306 2450 153 
Q 2172 0 1784 0 
Q 1141 0 747 490 
Q 353 981 353 1791 
Q 353 2603 747 3093 
Q 1141 3584 1784 3584 
Q 2172 3584 2450 3431 
Q 2728 3278 2906 2969 
L 2906 3500 
L 3481 3500 
L 3481 434 
z
" transform="scale(0.015625)"/>
       </defs>
       <use xlink:href="#DejaVuSans-41"/>
       <use xlink:href="#DejaVuSans-72" x="68.408203"/>
       <use xlink:href="#DejaVuSans-67" x="107.771484"/>
       <use xlink:href="#DejaVuSans-32" x="171.248047"/>
      </g>
     </g>
    </g>
    <g id="xtick_11">
     <g id="line2d_11">
      <g>
       <use xlink:href="#mbe3bc20b68" x="231.81625" y="275.547909" style="stroke: #000000; stroke-width: 0.8"/>
      </g>
     </g>
     <g id="text_11">
      <!-- Asn -->
      <g transform="translate(235.403437 306.451659) rotate(-90) scale(0.13 -0.13)">
       <defs>
        <path id="DejaVuSans-6e" d="M 3513 2113 
L 3513 0 
L 2938 0 
L 2938 2094 
Q 2938 2591 2744 2837 
Q 2550 3084 2163 3084 
Q 1697 3084 1428 2787 
Q 1159 2491 1159 1978 
L 1159 0 
L 581 0 
L 581 3500 
L 1159 3500 
L 1159 2956 
Q 1366 3272 1645 3428 
Q 1925 3584 2291 3584 
Q 2894 3584 3203 3211 
Q 3513 2838 3513 2113 
z
" transform="scale(0.015625)"/>
       </defs>
       <use xlink:href="#DejaVuSans-41"/>
       <use xlink:href="#DejaVuSans-73" x="68.408203"/>
       <use xlink:href="#DejaVuSans-6e" x="120.507812"/>
      </g>
     </g>
    </g>
    <g id="xtick_12">
     <g id="line2d_12">
      <g>
       <use xlink:href="#mbe3bc20b68" x="245.107917" y="275.547909" style="stroke: #000000; stroke-width: 0.8"/>
      </g>
     </g>
     <g id="text_12">
      <!-- Thr3 -->
      <g transform="translate(248.695104 312.342284) rotate(-90) scale(0.13 -0.13)">
       <defs>
        <path id="DejaVuSans-54" d="M -19 4666 
L 3928 4666 
L 3928 4134 
L 2272 4134 
L 2272 0 
L 1638 0 
L 1638 4134 
L -19 4134 
L -19 4666 
z
" transform="scale(0.015625)"/>
        <path id="DejaVuSans-68" d="M 3513 2113 
L 3513 0 
L 2938 0 
L 2938 2094 
Q 2938 2591 2744 2837 
Q 2550 3084 2163 3084 
Q 1697 3084 1428 2787 
Q 1159 2491 1159 1978 
L 1159 0 
L 581 0 
L 581 4863 
L 1159 4863 
L 1159 2956 
Q 1366 3272 1645 3428 
Q 1925 3584 2291 3584 
Q 2894 3584 3203 3211 
Q 3513 2838 3513 2113 
z
" transform="scale(0.015625)"/>
       </defs>
       <use xlink:href="#DejaVuSans-54"/>
       <use xlink:href="#DejaVuSans-68" x="61.083984"/>
       <use xlink:href="#DejaVuSans-72" x="124.462891"/>
       <use xlink:href="#DejaVuSans-33" x="165.576172"/>
      </g>
     </g>
    </g>
    <g id="xtick_13">
     <g id="line2d_13">
      <g>
       <use xlink:href="#mbe3bc20b68" x="258.399583" y="275.547909" style="stroke: #000000; stroke-width: 0.8"/>
      </g>
     </g>
     <g id="text_13">
      <!-- Thr1 -->
      <g transform="translate(261.986771 312.342284) rotate(-90) scale(0.13 -0.13)">
       <use xlink:href="#DejaVuSans-54"/>
       <use xlink:href="#DejaVuSans-68" x="61.083984"/>
       <use xlink:href="#DejaVuSans-72" x="124.462891"/>
       <use xlink:href="#DejaVuSans-31" x="165.576172"/>
      </g>
     </g>
    </g>
    <g id="xtick_14">
     <g id="line2d_14">
      <g>
       <use xlink:href="#mbe3bc20b68" x="271.69125" y="275.547909" style="stroke: #000000; stroke-width: 0.8"/>
      </g>
     </g>
     <g id="text_14">
      <!-- Val2ApB -->
      <g transform="translate(275.278437 336.347596) rotate(-90) scale(0.13 -0.13)">
       <use xlink:href="#DejaVuSans-56"/>
       <use xlink:href="#DejaVuSans-61" x="60.658203"/>
       <use xlink:href="#DejaVuSans-6c" x="121.9375"/>
       <use xlink:href="#DejaVuSans-32" x="149.720703"/>
       <use xlink:href="#DejaVuSans-41" x="213.34375"/>
       <use xlink:href="#DejaVuSans-70" x="281.751953"/>
       <use xlink:href="#DejaVuSans-42" x="345.228516"/>
      </g>
     </g>
    </g>
    <g id="xtick_15">
     <g id="line2d_15">
      <g>
       <use xlink:href="#mbe3bc20b68" x="284.982917" y="275.547909" style="stroke: #000000; stroke-width: 0.8"/>
      </g>
     </g>
     <g id="text_15">
      <!-- Pro3 -->
      <g transform="translate(288.570104 311.436346) rotate(-90) scale(0.13 -0.13)">
       <defs>
        <path id="DejaVuSans-50" d="M 1259 4147 
L 1259 2394 
L 2053 2394 
Q 2494 2394 2734 2622 
Q 2975 2850 2975 3272 
Q 2975 3691 2734 3919 
Q 2494 4147 2053 4147 
L 1259 4147 
z
M 628 4666 
L 2053 4666 
Q 2838 4666 3239 4311 
Q 3641 3956 3641 3272 
Q 3641 2581 3239 2228 
Q 2838 1875 2053 1875 
L 1259 1875 
L 1259 0 
L 628 0 
L 628 4666 
z
" transform="scale(0.015625)"/>
        <path id="DejaVuSans-6f" d="M 1959 3097 
Q 1497 3097 1228 2736 
Q 959 2375 959 1747 
Q 959 1119 1226 758 
Q 1494 397 1959 397 
Q 2419 397 2687 759 
Q 2956 1122 2956 1747 
Q 2956 2369 2687 2733 
Q 2419 3097 1959 3097 
z
M 1959 3584 
Q 2709 3584 3137 3096 
Q 3566 2609 3566 1747 
Q 3566 888 3137 398 
Q 2709 -91 1959 -91 
Q 1206 -91 779 398 
Q 353 888 353 1747 
Q 353 2609 779 3096 
Q 1206 3584 1959 3584 
z
" transform="scale(0.015625)"/>
       </defs>
       <use xlink:href="#DejaVuSans-50"/>
       <use xlink:href="#DejaVuSans-72" x="58.552734"/>
       <use xlink:href="#DejaVuSans-6f" x="97.416016"/>
       <use xlink:href="#DejaVuSans-33" x="158.597656"/>
      </g>
     </g>
    </g>
    <g id="xtick_16">
     <g id="line2d_16">
      <g>
       <use xlink:href="#mbe3bc20b68" x="298.274583" y="275.547909" style="stroke: #000000; stroke-width: 0.8"/>
      </g>
     </g>
     <g id="text_16">
      <!-- Phe -->
      <g transform="translate(301.861771 306.624315) rotate(-90) scale(0.13 -0.13)">
       <use xlink:href="#DejaVuSans-50"/>
       <use xlink:href="#DejaVuSans-68" x="60.302734"/>
       <use xlink:href="#DejaVuSans-65" x="123.681641"/>
      </g>
     </g>
    </g>
    <g id="xtick_17">
     <g id="line2d_17">
      <g>
       <use xlink:href="#mbe3bc20b68" x="311.56625" y="275.547909" style="stroke: #000000; stroke-width: 0.8"/>
      </g>
     </g>
     <g id="text_17">
      <!-- Tyr1pTyr2 -->
      <g transform="translate(315.153437 345.238378) rotate(-90) scale(0.13 -0.13)">
       <use xlink:href="#DejaVuSans-54"/>
       <use xlink:href="#DejaVuSans-79" x="45.458984"/>
       <use xlink:href="#DejaVuSans-72" x="104.638672"/>
       <use xlink:href="#DejaVuSans-31" x="145.751953"/>
       <use xlink:href="#DejaVuSans-70" x="209.375"/>
       <use xlink:href="#DejaVuSans-54" x="272.851562"/>
       <use xlink:href="#DejaVuSans-79" x="318.310547"/>
       <use xlink:href="#DejaVuSans-72" x="377.490234"/>
       <use xlink:href="#DejaVuSans-32" x="418.603516"/>
      </g>
     </g>
    </g>
    <g id="xtick_18">
     <g id="line2d_18">
      <g>
       <use xlink:href="#mbe3bc20b68" x="324.857917" y="275.547909" style="stroke: #000000; stroke-width: 0.8"/>
      </g>
     </g>
     <g id="text_18">
      <!-- Gln2 -->
      <g transform="translate(328.445104 312.74244) rotate(-90) scale(0.13 -0.13)">
       <use xlink:href="#DejaVuSans-47"/>
       <use xlink:href="#DejaVuSans-6c" x="77.490234"/>
       <use xlink:href="#DejaVuSans-6e" x="105.273438"/>
       <use xlink:href="#DejaVuSans-32" x="168.652344"/>
      </g>
     </g>
    </g>
    <g id="xtick_19">
     <g id="line2d_19">
      <g>
       <use xlink:href="#mbe3bc20b68" x="338.149583" y="275.547909" style="stroke: #000000; stroke-width: 0.8"/>
      </g>
     </g>
     <g id="text_19">
      <!-- Thr4 -->
      <g transform="translate(341.736771 312.342284) rotate(-90) scale(0.13 -0.13)">
       <defs>
        <path id="DejaVuSans-34" d="M 2419 4116 
L 825 1625 
L 2419 1625 
L 2419 4116 
z
M 2253 4666 
L 3047 4666 
L 3047 1625 
L 3713 1625 
L 3713 1100 
L 3047 1100 
L 3047 0 
L 2419 0 
L 2419 1100 
L 313 1100 
L 313 1709 
L 2253 4666 
z
" transform="scale(0.015625)"/>
       </defs>
       <use xlink:href="#DejaVuSans-54"/>
       <use xlink:href="#DejaVuSans-68" x="61.083984"/>
       <use xlink:href="#DejaVuSans-72" x="124.462891"/>
       <use xlink:href="#DejaVuSans-34" x="165.576172"/>
      </g>
     </g>
    </g>
    <g id="xtick_20">
     <g id="line2d_20">
      <g>
       <use xlink:href="#mbe3bc20b68" x="351.44125" y="275.547909" style="stroke: #000000; stroke-width: 0.8"/>
      </g>
     </g>
     <g id="text_20">
      <!-- Met_m -->
      <g transform="translate(354.666875 326.022753) rotate(-90) scale(0.13 -0.13)">
       <defs>
        <path id="DejaVuSans-4d" d="M 628 4666 
L 1569 4666 
L 2759 1491 
L 3956 4666 
L 4897 4666 
L 4897 0 
L 4281 0 
L 4281 4097 
L 3078 897 
L 2444 897 
L 1241 4097 
L 1241 0 
L 628 0 
L 628 4666 
z
" transform="scale(0.015625)"/>
        <path id="DejaVuSans-74" d="M 1172 4494 
L 1172 3500 
L 2356 3500 
L 2356 3053 
L 1172 3053 
L 1172 1153 
Q 1172 725 1289 603 
Q 1406 481 1766 481 
L 2356 481 
L 2356 0 
L 1766 0 
Q 1100 0 847 248 
Q 594 497 594 1153 
L 594 3053 
L 172 3053 
L 172 3500 
L 594 3500 
L 594 4494 
L 1172 4494 
z
" transform="scale(0.015625)"/>
        <path id="DejaVuSans-5f" d="M 3263 -1063 
L 3263 -1509 
L -63 -1509 
L -63 -1063 
L 3263 -1063 
z
" transform="scale(0.015625)"/>
        <path id="DejaVuSans-6d" d="M 3328 2828 
Q 3544 3216 3844 3400 
Q 4144 3584 4550 3584 
Q 5097 3584 5394 3201 
Q 5691 2819 5691 2113 
L 5691 0 
L 5113 0 
L 5113 2094 
Q 5113 2597 4934 2840 
Q 4756 3084 4391 3084 
Q 3944 3084 3684 2787 
Q 3425 2491 3425 1978 
L 3425 0 
L 2847 0 
L 2847 2094 
Q 2847 2600 2669 2842 
Q 2491 3084 2119 3084 
Q 1678 3084 1418 2786 
Q 1159 2488 1159 1978 
L 1159 0 
L 581 0 
L 581 3500 
L 1159 3500 
L 1159 2956 
Q 1356 3278 1631 3431 
Q 1906 3584 2284 3584 
Q 2666 3584 2933 3390 
Q 3200 3197 3328 2828 
z
" transform="scale(0.015625)"/>
       </defs>
       <use xlink:href="#DejaVuSans-4d"/>
       <use xlink:href="#DejaVuSans-65" x="86.279297"/>
       <use xlink:href="#DejaVuSans-74" x="147.802734"/>
       <use xlink:href="#DejaVuSans-5f" x="187.011719"/>
       <use xlink:href="#DejaVuSans-6d" x="237.011719"/>
      </g>
     </g>
    </g>
    <g id="xtick_21">
     <g id="line2d_21">
      <g>
       <use xlink:href="#mbe3bc20b68" x="364.732917" y="275.547909" style="stroke: #000000; stroke-width: 0.8"/>
      </g>
     </g>
     <g id="text_21">
      <!-- Pro1 -->
      <g transform="translate(368.320104 311.436346) rotate(-90) scale(0.13 -0.13)">
       <use xlink:href="#DejaVuSans-50"/>
       <use xlink:href="#DejaVuSans-72" x="58.552734"/>
       <use xlink:href="#DejaVuSans-6f" x="97.416016"/>
       <use xlink:href="#DejaVuSans-31" x="158.597656"/>
      </g>
     </g>
    </g>
    <g id="xtick_22">
     <g id="line2d_22">
      <g>
       <use xlink:href="#mbe3bc20b68" x="378.024583" y="275.547909" style="stroke: #000000; stroke-width: 0.8"/>
      </g>
     </g>
     <g id="text_22">
      <!-- Ser5 -->
      <g transform="translate(381.611771 312.415409) rotate(-90) scale(0.13 -0.13)">
       <defs>
        <path id="DejaVuSans-53" d="M 3425 4513 
L 3425 3897 
Q 3066 4069 2747 4153 
Q 2428 4238 2131 4238 
Q 1616 4238 1336 4038 
Q 1056 3838 1056 3469 
Q 1056 3159 1242 3001 
Q 1428 2844 1947 2747 
L 2328 2669 
Q 3034 2534 3370 2195 
Q 3706 1856 3706 1288 
Q 3706 609 3251 259 
Q 2797 -91 1919 -91 
Q 1588 -91 1214 -16 
Q 841 59 441 206 
L 441 856 
Q 825 641 1194 531 
Q 1563 422 1919 422 
Q 2459 422 2753 634 
Q 3047 847 3047 1241 
Q 3047 1584 2836 1778 
Q 2625 1972 2144 2069 
L 1759 2144 
Q 1053 2284 737 2584 
Q 422 2884 422 3419 
Q 422 4038 858 4394 
Q 1294 4750 2059 4750 
Q 2388 4750 2728 4690 
Q 3069 4631 3425 4513 
z
" transform="scale(0.015625)"/>
        <path id="DejaVuSans-35" d="M 691 4666 
L 3169 4666 
L 3169 4134 
L 1269 4134 
L 1269 2991 
Q 1406 3038 1543 3061 
Q 1681 3084 1819 3084 
Q 2600 3084 3056 2656 
Q 3513 2228 3513 1497 
Q 3513 744 3044 326 
Q 2575 -91 1722 -91 
Q 1428 -91 1123 -41 
Q 819 9 494 109 
L 494 744 
Q 775 591 1075 516 
Q 1375 441 1709 441 
Q 2250 441 2565 725 
Q 2881 1009 2881 1497 
Q 2881 1984 2565 2268 
Q 2250 2553 1709 2553 
Q 1456 2553 1204 2497 
Q 953 2441 691 2322 
L 691 4666 
z
" transform="scale(0.015625)"/>
       </defs>
       <use xlink:href="#DejaVuSans-53"/>
       <use xlink:href="#DejaVuSans-65" x="63.476562"/>
       <use xlink:href="#DejaVuSans-72" x="125"/>
       <use xlink:href="#DejaVuSans-35" x="166.113281"/>
      </g>
     </g>
    </g>
    <g id="xtick_23">
     <g id="line2d_23">
      <g>
       <use xlink:href="#mbe3bc20b68" x="391.31625" y="275.547909" style="stroke: #000000; stroke-width: 0.8"/>
      </g>
     </g>
     <g id="text_23">
      <!-- Ser1 -->
      <g transform="translate(394.903437 312.415409) rotate(-90) scale(0.13 -0.13)">
       <use xlink:href="#DejaVuSans-53"/>
       <use xlink:href="#DejaVuSans-65" x="63.476562"/>
       <use xlink:href="#DejaVuSans-72" x="125"/>
       <use xlink:href="#DejaVuSans-31" x="166.113281"/>
      </g>
     </g>
    </g>
    <g id="xtick_24">
     <g id="line2d_24">
      <g>
       <use xlink:href="#mbe3bc20b68" x="404.607917" y="275.547909" style="stroke: #000000; stroke-width: 0.8"/>
      </g>
     </g>
     <g id="text_24">
      <!-- His -->
      <g transform="translate(408.195104 302.708065) rotate(-90) scale(0.13 -0.13)">
       <defs>
        <path id="DejaVuSans-48" d="M 628 4666 
L 1259 4666 
L 1259 2753 
L 3553 2753 
L 3553 4666 
L 4184 4666 
L 4184 0 
L 3553 0 
L 3553 2222 
L 1259 2222 
L 1259 0 
L 628 0 
L 628 4666 
z
" transform="scale(0.015625)"/>
        <path id="DejaVuSans-69" d="M 603 3500 
L 1178 3500 
L 1178 0 
L 603 0 
L 603 3500 
z
M 603 4863 
L 1178 4863 
L 1178 4134 
L 603 4134 
L 603 4863 
z
" transform="scale(0.015625)"/>
       </defs>
       <use xlink:href="#DejaVuSans-48"/>
       <use xlink:href="#DejaVuSans-69" x="75.195312"/>
       <use xlink:href="#DejaVuSans-73" x="102.978516"/>
      </g>
     </g>
    </g>
    <g id="xtick_25">
     <g id="line2d_25">
      <g>
       <use xlink:href="#mbe3bc20b68" x="417.899583" y="275.547909" style="stroke: #000000; stroke-width: 0.8"/>
      </g>
     </g>
     <g id="text_25">
      <!-- Ala2 -->
      <g transform="translate(421.486771 311.290096) rotate(-90) scale(0.13 -0.13)">
       <use xlink:href="#DejaVuSans-41"/>
       <use xlink:href="#DejaVuSans-6c" x="68.408203"/>
       <use xlink:href="#DejaVuSans-61" x="96.191406"/>
       <use xlink:href="#DejaVuSans-32" x="157.470703"/>
      </g>
     </g>
    </g>
    <g id="xtick_26">
     <g id="line2d_26">
      <g>
       <use xlink:href="#mbe3bc20b68" x="431.19125" y="275.547909" style="stroke: #000000; stroke-width: 0.8"/>
      </g>
     </g>
     <g id="text_26">
      <!-- Ser3 -->
      <g transform="translate(434.778437 312.415409) rotate(-90) scale(0.13 -0.13)">
       <use xlink:href="#DejaVuSans-53"/>
       <use xlink:href="#DejaVuSans-65" x="63.476562"/>
       <use xlink:href="#DejaVuSans-72" x="125"/>
       <use xlink:href="#DejaVuSans-33" x="166.113281"/>
      </g>
     </g>
    </g>
    <g id="xtick_27">
     <g id="line2d_27">
      <g>
       <use xlink:href="#mbe3bc20b68" x="444.482917" y="275.547909" style="stroke: #000000; stroke-width: 0.8"/>
      </g>
     </g>
     <g id="text_27">
      <!-- Leu2 -->
      <g transform="translate(448.070104 314.072909) rotate(-90) scale(0.13 -0.13)">
       <use xlink:href="#DejaVuSans-4c"/>
       <use xlink:href="#DejaVuSans-65" x="53.962891"/>
       <use xlink:href="#DejaVuSans-75" x="115.486328"/>
       <use xlink:href="#DejaVuSans-32" x="178.865234"/>
      </g>
     </g>
    </g>
    <g id="xtick_28">
     <g id="line2d_28">
      <g>
       <use xlink:href="#mbe3bc20b68" x="457.774583" y="275.547909" style="stroke: #000000; stroke-width: 0.8"/>
      </g>
     </g>
     <g id="text_28">
      <!-- Leu5 -->
      <g transform="translate(461.361771 314.072909) rotate(-90) scale(0.13 -0.13)">
       <use xlink:href="#DejaVuSans-4c"/>
       <use xlink:href="#DejaVuSans-65" x="53.962891"/>
       <use xlink:href="#DejaVuSans-75" x="115.486328"/>
       <use xlink:href="#DejaVuSans-35" x="178.865234"/>
      </g>
     </g>
    </g>
    <g id="xtick_29">
     <g id="line2d_29">
      <g>
       <use xlink:href="#mbe3bc20b68" x="471.06625" y="275.547909" style="stroke: #000000; stroke-width: 0.8"/>
      </g>
     </g>
     <g id="text_29">
      <!-- Trp -->
      <g transform="translate(474.653437 302.167753) rotate(-90) scale(0.13 -0.13)">
       <use xlink:href="#DejaVuSans-54"/>
       <use xlink:href="#DejaVuSans-72" x="46.333984"/>
       <use xlink:href="#DejaVuSans-70" x="87.447266"/>
      </g>
     </g>
    </g>
    <g id="xtick_30">
     <g id="line2d_30">
      <g>
       <use xlink:href="#mbe3bc20b68" x="484.357917" y="275.547909" style="stroke: #000000; stroke-width: 0.8"/>
      </g>
     </g>
     <g id="text_30">
      <!-- Gln1 -->
      <g transform="translate(487.945104 312.74244) rotate(-90) scale(0.13 -0.13)">
       <use xlink:href="#DejaVuSans-47"/>
       <use xlink:href="#DejaVuSans-6c" x="77.490234"/>
       <use xlink:href="#DejaVuSans-6e" x="105.273438"/>
       <use xlink:href="#DejaVuSans-31" x="168.652344"/>
      </g>
     </g>
    </g>
    <g id="xtick_31">
     <g id="line2d_31">
      <g>
       <use xlink:href="#mbe3bc20b68" x="497.649583" y="275.547909" style="stroke: #000000; stroke-width: 0.8"/>
      </g>
     </g>
     <g id="text_31">
      <!-- Gly2 -->
      <g transform="translate(501.236771 312.198065) rotate(-90) scale(0.13 -0.13)">
       <use xlink:href="#DejaVuSans-47"/>
       <use xlink:href="#DejaVuSans-6c" x="77.490234"/>
       <use xlink:href="#DejaVuSans-79" x="105.273438"/>
       <use xlink:href="#DejaVuSans-32" x="164.453125"/>
      </g>
     </g>
    </g>
    <g id="xtick_32">
     <g id="line2d_32">
      <g>
       <use xlink:href="#mbe3bc20b68" x="510.94125" y="275.547909" style="stroke: #000000; stroke-width: 0.8"/>
      </g>
     </g>
     <g id="text_32">
      <!-- Thr2 -->
      <g transform="translate(514.528437 312.342284) rotate(-90) scale(0.13 -0.13)">
       <use xlink:href="#DejaVuSans-54"/>
       <use xlink:href="#DejaVuSans-68" x="61.083984"/>
       <use xlink:href="#DejaVuSans-72" x="124.462891"/>
       <use xlink:href="#DejaVuSans-32" x="165.576172"/>
      </g>
     </g>
    </g>
    <g id="xtick_33">
     <g id="line2d_33">
      <g>
       <use xlink:href="#mbe3bc20b68" x="524.232917" y="275.547909" style="stroke: #000000; stroke-width: 0.8"/>
      </g>
     </g>
     <g id="text_33">
      <!-- Cys -->
      <g transform="translate(527.820104 306.092128) rotate(-90) scale(0.13 -0.13)">
       <defs>
        <path id="DejaVuSans-43" d="M 4122 4306 
L 4122 3641 
Q 3803 3938 3442 4084 
Q 3081 4231 2675 4231 
Q 1875 4231 1450 3742 
Q 1025 3253 1025 2328 
Q 1025 1406 1450 917 
Q 1875 428 2675 428 
Q 3081 428 3442 575 
Q 3803 722 4122 1019 
L 4122 359 
Q 3791 134 3420 21 
Q 3050 -91 2638 -91 
Q 1578 -91 968 557 
Q 359 1206 359 2328 
Q 359 3453 968 4101 
Q 1578 4750 2638 4750 
Q 3056 4750 3426 4639 
Q 3797 4528 4122 4306 
z
" transform="scale(0.015625)"/>
       </defs>
       <use xlink:href="#DejaVuSans-43"/>
       <use xlink:href="#DejaVuSans-79" x="69.824219"/>
       <use xlink:href="#DejaVuSans-73" x="129.003906"/>
      </g>
     </g>
    </g>
    <g id="xtick_34">
     <g id="line2d_34">
      <g>
       <use xlink:href="#mbe3bc20b68" x="537.524583" y="275.547909" style="stroke: #000000; stroke-width: 0.8"/>
      </g>
     </g>
     <g id="text_34">
      <!-- Leu4 -->
      <g transform="translate(541.111771 314.072909) rotate(-90) scale(0.13 -0.13)">
       <use xlink:href="#DejaVuSans-4c"/>
       <use xlink:href="#DejaVuSans-65" x="53.962891"/>
       <use xlink:href="#DejaVuSans-75" x="115.486328"/>
       <use xlink:href="#DejaVuSans-34" x="178.865234"/>
      </g>
     </g>
    </g>
    <g id="xtick_35">
     <g id="line2d_35">
      <g>
       <use xlink:href="#mbe3bc20b68" x="550.81625" y="275.547909" style="stroke: #000000; stroke-width: 0.8"/>
      </g>
     </g>
     <g id="text_35">
      <!-- Pro2 -->
      <g transform="translate(554.403437 311.436346) rotate(-90) scale(0.13 -0.13)">
       <use xlink:href="#DejaVuSans-50"/>
       <use xlink:href="#DejaVuSans-72" x="58.552734"/>
       <use xlink:href="#DejaVuSans-6f" x="97.416016"/>
       <use xlink:href="#DejaVuSans-32" x="158.597656"/>
      </g>
     </g>
    </g>
    <g id="xtick_36">
     <g id="line2d_36">
      <g>
       <use xlink:href="#mbe3bc20b68" x="564.107917" y="275.547909" style="stroke: #000000; stroke-width: 0.8"/>
      </g>
     </g>
     <g id="text_36">
      <!-- Ser2 -->
      <g transform="translate(567.695104 312.415409) rotate(-90) scale(0.13 -0.13)">
       <use xlink:href="#DejaVuSans-53"/>
       <use xlink:href="#DejaVuSans-65" x="63.476562"/>
       <use xlink:href="#DejaVuSans-72" x="125"/>
       <use xlink:href="#DejaVuSans-32" x="166.113281"/>
      </g>
     </g>
    </g>
    <g id="xtick_37">
     <g id="line2d_37">
      <g>
       <use xlink:href="#mbe3bc20b68" x="577.399583" y="275.547909" style="stroke: #000000; stroke-width: 0.8"/>
      </g>
     </g>
     <g id="text_37">
      <!-- Arg3 -->
      <g transform="translate(580.986771 313.081659) rotate(-90) scale(0.13 -0.13)">
       <use xlink:href="#DejaVuSans-41"/>
       <use xlink:href="#DejaVuSans-72" x="68.408203"/>
       <use xlink:href="#DejaVuSans-67" x="107.771484"/>
       <use xlink:href="#DejaVuSans-33" x="171.248047"/>
      </g>
     </g>
    </g>
    <g id="xtick_38">
     <g id="line2d_38">
      <g>
       <use xlink:href="#mbe3bc20b68" x="590.69125" y="275.547909" style="stroke: #000000; stroke-width: 0.8"/>
      </g>
     </g>
     <g id="text_38">
      <!-- Arg4 -->
      <g transform="translate(594.278437 313.081659) rotate(-90) scale(0.13 -0.13)">
       <use xlink:href="#DejaVuSans-41"/>
       <use xlink:href="#DejaVuSans-72" x="68.408203"/>
       <use xlink:href="#DejaVuSans-67" x="107.771484"/>
       <use xlink:href="#DejaVuSans-34" x="171.248047"/>
      </g>
     </g>
    </g>
    <g id="xtick_39">
     <g id="line2d_39">
      <g>
       <use xlink:href="#mbe3bc20b68" x="603.982917" y="275.547909" style="stroke: #000000; stroke-width: 0.8"/>
      </g>
     </g>
     <g id="text_39">
      <!-- Sel_Cys -->
      <g transform="translate(607.389323 332.455721) rotate(-90) scale(0.13 -0.13)">
       <use xlink:href="#DejaVuSans-53"/>
       <use xlink:href="#DejaVuSans-65" x="63.476562"/>
       <use xlink:href="#DejaVuSans-6c" x="125"/>
       <use xlink:href="#DejaVuSans-5f" x="152.783203"/>
       <use xlink:href="#DejaVuSans-43" x="202.783203"/>
       <use xlink:href="#DejaVuSans-79" x="272.607422"/>
       <use xlink:href="#DejaVuSans-73" x="331.787109"/>
      </g>
     </g>
    </g>
    <g id="xtick_40">
     <g id="line2d_40">
      <g>
       <use xlink:href="#mbe3bc20b68" x="617.274583" y="275.547909" style="stroke: #000000; stroke-width: 0.8"/>
      </g>
     </g>
     <g id="text_40">
      <!-- Arg5 -->
      <g transform="translate(620.861771 313.081659) rotate(-90) scale(0.13 -0.13)">
       <use xlink:href="#DejaVuSans-41"/>
       <use xlink:href="#DejaVuSans-72" x="68.408203"/>
       <use xlink:href="#DejaVuSans-67" x="107.771484"/>
       <use xlink:href="#DejaVuSans-35" x="171.248047"/>
      </g>
     </g>
    </g>
   </g>
   <g id="matplotlib.axis_2">
    <g id="ytick_1">
     <g id="line2d_41">
      <defs>
       <path id="m66b26bcd55" d="M 0 0 
L -3.5 0 
" style="stroke: #000000; stroke-width: 0.8"/>
      </defs>
      <g>
       <use xlink:href="#m66b26bcd55" x="72.31625" y="275.547909" style="stroke: #000000; stroke-width: 0.8"/>
      </g>
     </g>
     <g id="text_41">
      <!-- 0.0 -->
      <g transform="translate(33.51 283.146346) scale(0.2 -0.2)">
       <defs>
        <path id="DejaVuSans-30" d="M 2034 4250 
Q 1547 4250 1301 3770 
Q 1056 3291 1056 2328 
Q 1056 1369 1301 889 
Q 1547 409 2034 409 
Q 2525 409 2770 889 
Q 3016 1369 3016 2328 
Q 3016 3291 2770 3770 
Q 2525 4250 2034 4250 
z
M 2034 4750 
Q 2819 4750 3233 4129 
Q 3647 3509 3647 2328 
Q 3647 1150 3233 529 
Q 2819 -91 2034 -91 
Q 1250 -91 836 529 
Q 422 1150 422 2328 
Q 422 3509 836 4129 
Q 1250 4750 2034 4750 
z
" transform="scale(0.015625)"/>
        <path id="DejaVuSans-2e" d="M 684 794 
L 1344 794 
L 1344 0 
L 684 0 
L 684 794 
z
" transform="scale(0.015625)"/>
       </defs>
       <use xlink:href="#DejaVuSans-30"/>
       <use xlink:href="#DejaVuSans-2e" x="63.623047"/>
       <use xlink:href="#DejaVuSans-30" x="95.410156"/>
      </g>
     </g>
    </g>
    <g id="ytick_2">
     <g id="line2d_42">
      <g>
       <use xlink:href="#m66b26bcd55" x="72.31625" y="188.631418" style="stroke: #000000; stroke-width: 0.8"/>
      </g>
     </g>
     <g id="text_42">
      <!-- 0.5 -->
      <g transform="translate(33.51 196.229856) scale(0.2 -0.2)">
       <use xlink:href="#DejaVuSans-30"/>
       <use xlink:href="#DejaVuSans-2e" x="63.623047"/>
       <use xlink:href="#DejaVuSans-35" x="95.410156"/>
      </g>
     </g>
    </g>
    <g id="ytick_3">
     <g id="line2d_43">
      <g>
       <use xlink:href="#m66b26bcd55" x="72.31625" y="101.714928" style="stroke: #000000; stroke-width: 0.8"/>
      </g>
     </g>
     <g id="text_43">
      <!-- 1.0 -->
      <g transform="translate(33.51 109.313365) scale(0.2 -0.2)">
       <use xlink:href="#DejaVuSans-31"/>
       <use xlink:href="#DejaVuSans-2e" x="63.623047"/>
       <use xlink:href="#DejaVuSans-30" x="95.410156"/>
      </g>
     </g>
    </g>
    <g id="ytick_4">
     <g id="line2d_44">
      <g>
       <use xlink:href="#m66b26bcd55" x="72.31625" y="14.798437" style="stroke: #000000; stroke-width: 0.8"/>
      </g>
     </g>
     <g id="text_44">
      <!-- 1.5 -->
      <g transform="translate(33.51 22.396875) scale(0.2 -0.2)">
       <use xlink:href="#DejaVuSans-31"/>
       <use xlink:href="#DejaVuSans-2e" x="63.623047"/>
       <use xlink:href="#DejaVuSans-35" x="95.410156"/>
      </g>
     </g>
    </g>
    <g id="text_45">
     <!-- $\Delta$ Elongation latency (%) -->
     <g transform="translate(24.68 285.447099) rotate(-90) scale(0.23 -0.23)">
      <defs>
       <path id="DejaVuSans-394" d="M 2188 4044 
L 906 525 
L 3472 525 
L 2188 4044 
z
M 50 0 
L 1831 4666 
L 2547 4666 
L 4325 0 
L 50 0 
z
" transform="scale(0.015625)"/>
       <path id="DejaVuSans-20" transform="scale(0.015625)"/>
       <path id="DejaVuSans-45" d="M 628 4666 
L 3578 4666 
L 3578 4134 
L 1259 4134 
L 1259 2753 
L 3481 2753 
L 3481 2222 
L 1259 2222 
L 1259 531 
L 3634 531 
L 3634 0 
L 628 0 
L 628 4666 
z
" transform="scale(0.015625)"/>
       <path id="DejaVuSans-63" d="M 3122 3366 
L 3122 2828 
Q 2878 2963 2633 3030 
Q 2388 3097 2138 3097 
Q 1578 3097 1268 2742 
Q 959 2388 959 1747 
Q 959 1106 1268 751 
Q 1578 397 2138 397 
Q 2388 397 2633 464 
Q 2878 531 3122 666 
L 3122 134 
Q 2881 22 2623 -34 
Q 2366 -91 2075 -91 
Q 1284 -91 818 406 
Q 353 903 353 1747 
Q 353 2603 823 3093 
Q 1294 3584 2113 3584 
Q 2378 3584 2631 3529 
Q 2884 3475 3122 3366 
z
" transform="scale(0.015625)"/>
       <path id="DejaVuSans-28" d="M 1984 4856 
Q 1566 4138 1362 3434 
Q 1159 2731 1159 2009 
Q 1159 1288 1364 580 
Q 1569 -128 1984 -844 
L 1484 -844 
Q 1016 -109 783 600 
Q 550 1309 550 2009 
Q 550 2706 781 3412 
Q 1013 4119 1484 4856 
L 1984 4856 
z
" transform="scale(0.015625)"/>
       <path id="DejaVuSans-25" d="M 4653 2053 
Q 4381 2053 4226 1822 
Q 4072 1591 4072 1178 
Q 4072 772 4226 539 
Q 4381 306 4653 306 
Q 4919 306 5073 539 
Q 5228 772 5228 1178 
Q 5228 1588 5073 1820 
Q 4919 2053 4653 2053 
z
M 4653 2450 
Q 5147 2450 5437 2106 
Q 5728 1763 5728 1178 
Q 5728 594 5436 251 
Q 5144 -91 4653 -91 
Q 4153 -91 3862 251 
Q 3572 594 3572 1178 
Q 3572 1766 3864 2108 
Q 4156 2450 4653 2450 
z
M 1428 4353 
Q 1159 4353 1004 4120 
Q 850 3888 850 3481 
Q 850 3069 1003 2837 
Q 1156 2606 1428 2606 
Q 1700 2606 1854 2837 
Q 2009 3069 2009 3481 
Q 2009 3884 1853 4118 
Q 1697 4353 1428 4353 
z
M 4250 4750 
L 4750 4750 
L 1831 -91 
L 1331 -91 
L 4250 4750 
z
M 1428 4750 
Q 1922 4750 2215 4408 
Q 2509 4066 2509 3481 
Q 2509 2891 2217 2550 
Q 1925 2209 1428 2209 
Q 931 2209 642 2551 
Q 353 2894 353 3481 
Q 353 4063 643 4406 
Q 934 4750 1428 4750 
z
" transform="scale(0.015625)"/>
       <path id="DejaVuSans-29" d="M 513 4856 
L 1013 4856 
Q 1481 4119 1714 3412 
Q 1947 2706 1947 2009 
Q 1947 1309 1714 600 
Q 1481 -109 1013 -844 
L 513 -844 
Q 928 -128 1133 580 
Q 1338 1288 1338 2009 
Q 1338 2731 1133 3434 
Q 928 4138 513 4856 
z
" transform="scale(0.015625)"/>
      </defs>
      <use xlink:href="#DejaVuSans-394" transform="translate(0 0.015625)"/>
      <use xlink:href="#DejaVuSans-20" transform="translate(68.408203 0.015625)"/>
      <use xlink:href="#DejaVuSans-45" transform="translate(100.195312 0.015625)"/>
      <use xlink:href="#DejaVuSans-6c" transform="translate(163.378906 0.015625)"/>
      <use xlink:href="#DejaVuSans-6f" transform="translate(191.162109 0.015625)"/>
      <use xlink:href="#DejaVuSans-6e" transform="translate(252.34375 0.015625)"/>
      <use xlink:href="#DejaVuSans-67" transform="translate(315.722656 0.015625)"/>
      <use xlink:href="#DejaVuSans-61" transform="translate(379.199219 0.015625)"/>
      <use xlink:href="#DejaVuSans-74" transform="translate(440.478516 0.015625)"/>
      <use xlink:href="#DejaVuSans-69" transform="translate(479.6875 0.015625)"/>
      <use xlink:href="#DejaVuSans-6f" transform="translate(507.470703 0.015625)"/>
      <use xlink:href="#DejaVuSans-6e" transform="translate(568.652344 0.015625)"/>
      <use xlink:href="#DejaVuSans-20" transform="translate(632.03125 0.015625)"/>
      <use xlink:href="#DejaVuSans-6c" transform="translate(663.818359 0.015625)"/>
      <use xlink:href="#DejaVuSans-61" transform="translate(691.601562 0.015625)"/>
      <use xlink:href="#DejaVuSans-74" transform="translate(752.880859 0.015625)"/>
      <use xlink:href="#DejaVuSans-65" transform="translate(792.089844 0.015625)"/>
      <use xlink:href="#DejaVuSans-6e" transform="translate(853.613281 0.015625)"/>
      <use xlink:href="#DejaVuSans-63" transform="translate(916.992188 0.015625)"/>
      <use xlink:href="#DejaVuSans-79" transform="translate(971.972656 0.015625)"/>
      <use xlink:href="#DejaVuSans-20" transform="translate(1031.152344 0.015625)"/>
      <use xlink:href="#DejaVuSans-28" transform="translate(1062.939453 0.015625)"/>
      <use xlink:href="#DejaVuSans-25" transform="translate(1101.953125 0.015625)"/>
      <use xlink:href="#DejaVuSans-29" transform="translate(1196.972656 0.015625)"/>
     </g>
    </g>
   </g>
   <g id="line2d_45">
    <path d="M 98.899583 275.547909 
L 112.19125 275.547909 
L 125.482917 275.547909 
L 138.774583 275.547909 
L 152.06625 275.547909 
L 165.357917 275.547909 
L 178.649583 275.547909 
L 191.94125 275.547909 
L 205.232917 275.547909 
L 218.524583 275.547909 
L 231.81625 275.547909 
L 245.107917 275.547909 
L 258.399583 275.547909 
L 271.69125 275.547909 
L 284.982917 275.547909 
L 298.274583 275.547909 
L 311.56625 275.547909 
L 324.857917 275.547909 
L 338.149583 275.547909 
L 351.44125 275.547909 
L 364.732917 275.547909 
L 378.024583 275.547909 
L 391.31625 275.547909 
L 404.607917 275.547909 
L 417.899583 275.547909 
L 431.19125 275.547909 
L 444.482917 275.547909 
L 457.774583 275.547909 
L 471.06625 275.547909 
L 484.357917 275.547909 
L 497.649583 275.547909 
L 510.94125 275.547909 
L 524.232917 275.547909 
L 537.524583 275.547909 
L 550.81625 275.547909 
L 564.107917 275.547909 
L 577.399583 275.547909 
L 590.69125 275.547909 
L 603.982917 275.547909 
L 617.274583 275.547909 
" clip-path="url(#p2f9f3eb74c)" style="fill: none; stroke: #000000; stroke-width: 3; stroke-linecap: square"/>
   </g>
   <g id="patch_83">
    <path d="M 72.31625 275.547909 
L 72.31625 11.066289 
" style="fill: none; stroke: #000000; stroke-width: 4; stroke-linejoin: miter; stroke-linecap: square"/>
   </g>
   <g id="patch_84">
    <path d="M 630.56625 275.547909 
L 630.56625 11.066289 
" style="fill: none"/>
   </g>
   <g id="patch_85">
    <path d="M 72.31625 275.547909 
L 630.56625 275.547909 
" style="fill: none; stroke: #000000; stroke-width: 4; stroke-linejoin: miter; stroke-linecap: square"/>
   </g>
   <g id="patch_86">
    <path d="M 72.31625 11.066289 
L 630.56625 11.066289 
" style="fill: none"/>
   </g>
  </g>
 </g>
 <defs>
  <clipPath id="p2f9f3eb74c">
   <rect x="72.31625" y="11.066289" width="558.25" height="264.48162"/>
  </clipPath>
 </defs>
</svg>
